<?xml version="1.0" encoding="utf-8"?>
<!-- Generator: Adobe Illustrator 23.0.5, SVG Export Plug-In . SVG Version: 6.00 Build 0)  -->
<svg version="1.1" id="Layer_1" xmlns="http://www.w3.org/2000/svg" xmlns:xlink="http://www.w3.org/1999/xlink" x="0px" y="0px"
	 viewBox="0 0 128 128" style="enable-background:new 0 0 128 128;" xml:space="preserve">
<style type="text/css">
	.st0{fill:#00B77E;}
	.st1{fill:#00846C;}
	.st2{fill:#55CE5A;}
	.st3{fill:#73D861;}
	.st4{fill:#29A868;}
	.st5{fill:#127F5B;}
	.st6{fill:#49270F;}
	.st7{fill:#F9D641;}
	.st8{fill:#EAA11F;}
	.st9{fill:#FFF1B6;}
	.st10{fill:#876553;}
	.st11{fill:#724D3D;}
	.st12{fill:url(#SVGID_1_);}
	.st13{fill:#F2CE36;}
	.st14{opacity:0.15;fill:#FFFFFF;enable-background:new    ;}
	.st15{opacity:0.25;fill:#E2B440;enable-background:new    ;}
	.st16{opacity:0.33;fill:#E2B440;enable-background:new    ;}
	.st17{fill:#C67640;}
	.st18{fill:#2A9E3A;}
	.st19{fill:#3DAD55;}
	.st20{fill:#FFD283;}
	.st21{fill:#F7AF41;}
	.st22{opacity:0.3;}
	.st23{fill:#6C184E;}
	.st24{fill:#FFCE00;}
	.st25{opacity:0.65;}
	.st26{fill:#FFFFFF;}
	.st27{fill:#EE1822;}
	.st28{fill:#BD1622;}
	.st29{fill:#F6C547;}
	.st30{fill:#48C75A;}
	.st31{fill:#661A47;}
	.st32{fill:#651B47;}
	.st33{fill:none;}
	.st34{fill:#EB984E;}
	.st35{fill:#6D184E;}
</style>
<g>
	<g>
		<path class="st0" d="M125.9,113.9c0.6,0.6,2.5,2.3,2.1,3.9c-0.2,0.8-0.9,1.8-3.9,2.7c-7.2,2.2-27.6,3.4-32,3.6
			c-17.2,0.2-63.5,0.6-80.9-1.5c-7.5-0.9-10.7-2.4-11.1-4.4c-0.4-2,2.1-4.1,3.6-5.3c2.8-0.8,6.6-1.9,11.3-2.9
			c6.1-1.3,11.4-1.9,18.1-2.5c14.3-1.2,25.8-1.3,29.9-1.4C63,106.3,117.3,105.8,125.9,113.9z"/>
		<path class="st1" d="M125.9,115.1c0.7,0.5,2.1,1.8,2.1,2.7c-0.5,8.5-126.7,10.7-127.9,0.5c-0.1-0.8,0.6-2.1,0.7-2.4
			c2-3.9,7.3-4.7,13.7-5.7c7.6-1.1,13.9-2,18.6-2.6c0.3,2.7,3.3,8.5,24,7.4c29.8-1.5,41,7,56.5,0.8
			C115.5,115.1,121.9,112.3,125.9,115.1z"/>
		<path class="st1" d="M34.7,110.3c1,1.1,2.6,1.6,3.8,1.5c1.1-0.1,0.9-0.5,0.1-1.2c-0.8-0.7-1.1-1.1-2.4-1.3
			C34.9,109.2,33.9,109.4,34.7,110.3z"/>
		<path class="st1" d="M40.3,112.9c0.7,0.8,1.8,1.1,2.6,1s0.6-0.3,0.1-0.8c-0.6-0.5-0.8-0.7-1.6-0.9C40.4,112,39.8,112.2,40.3,112.9
			z"/>
		<path class="st1" d="M51,112.1c-2.7,0.7-2.6,1.6-1.2,2.3c1.4,0.7,6.1,0.1,9.5,0.1s2.2-1.9-0.2-2.3C56.7,111.9,52.3,111.8,51,112.1
			z"/>
		<path class="st1" d="M112.7,114.7c2.6,0.5,3.3,1.2,6.3,1.2s2.4-1.3,0.6-1.6c-1.7-0.4-3.2-0.8-6.9-1.3
			C109.1,112.5,109.6,114.1,112.7,114.7z"/>
	</g>
	<g>
		<g>
			<path class="st2" d="M103.6,52.6c0-2.7-1.3-5.2-3.2-6.6c0.7-1.2,1.2-2.7,1.2-4.3c0-3.3-1.8-6.1-4.4-7.3c0.2-0.4,0.3-0.8,0.3-1.3
				c0-1.1-0.6-2-1.5-2.4c0.4-0.8,0.6-1.7,0.6-2.7c0-3.1-2.2-5.7-5-5.9c0-0.1,0-0.1,0-0.2c0-1.3-0.8-2.3-1.9-2.5
				c0.1-0.4,0.1-0.9,0.1-1.4c0-3.6-2.6-6.5-5.9-6.5c-0.5,0-1,0.1-1.4,0.2c-0.4-2.1-2.1-3.6-4.1-3.6h-0.1c-0.8-3.1-3.5-5.4-6.6-5.4
				c-2.1,0-4,1-5.2,2.7C66,4.7,65,4.3,63.9,4.3c-0.6,0-1.2,0.2-1.7,0.5c-0.9-0.6-2.1-1-3.2-1c-3.2,0-5.8,2.7-6.1,6.1
				c-0.2,0-0.4,0-0.7,0c-2,0-3.8,1.1-4.8,2.8c-0.4-0.1-0.9-0.2-1.4-0.2c-3.1,0-5.7,2.8-5.7,6.3c0,0.4,0,0.8,0.1,1.2
				c-2.2,0.3-3.9,2.4-3.9,4.9c0,0.4,0.1,0.9,0.2,1.3c-3.1,0.4-5.5,3.3-5.5,6.8c0,1,0.2,1.9,0.5,2.7c-0.8,0.7-1.4,1.7-1.4,3
				c0,0.4,0.1,0.8,0.2,1.1c-3.2,0.4-5.7,3.4-5.7,7c0,2.1,0.8,4,2.1,5.3c-0.6,0.8-1,1.8-1,3c0,2,1.1,3.7,2.8,4.4
				c-0.8,1.2-1.2,2.6-1.2,4.1c0,3.1,1.9,5.8,4.5,6.7c0.4,1,1.3,1.6,2.4,1.7c0,0.1,0,0.2,0,0.3c0,3.5,2.6,6.4,5.8,6.4
				c1,0,2-0.3,2.9-0.8c0.6,0.7,1.5,1.1,2.4,1.1c0.3,0,0.5,0,0.8-0.1c0.3,1.9,1.9,3.4,3.7,3.4c0.9,0,1.7-0.4,2.4-0.9
				c0.4,0.4,1,0.6,1.6,0.6c0.8,0,1.5-0.4,2-1c0.6,1.3,1.8,2.2,3.2,2.2c0.7,0,1.3-0.2,1.9-0.6c0.5,0.4,1.2,0.6,1.8,0.6
				c1,0,2-0.5,2.6-1.3c0.9,1.3,2.2,2.1,3.8,2.1c1.7,0,3.1-0.9,4-2.4c0.5,0.3,1.1,0.5,1.6,0.5c1.1,0,2.1-0.6,2.8-1.5
				c0.9,1.2,2.2,1.9,3.7,1.9c2.2,0,4-1.6,4.6-3.8h0.1c1.1,0,2.1-0.7,2.7-1.6c0.8,0.6,1.7,0.9,2.7,0.9c2.6,0,4.7-2.3,4.7-5.2
				c0-0.3,0-0.5-0.1-0.8c2.3-0.3,4.2-2.5,4.2-5.2c0-1-0.3-1.9-0.7-2.7c0.9-0.6,1.5-1.7,1.5-3c0-0.6-0.1-1.2-0.4-1.6
				C102.4,57.7,103.6,55.3,103.6,52.6"/>
			<path class="st2" d="M103.6,52.6c0-2.7-1.3-5.2-3.2-6.6c0.7-1.2,1.2-2.7,1.2-4.3c0-3.3-1.8-6.1-4.4-7.3c0.2-0.4,0.3-0.8,0.3-1.3
				c0-1.1-0.6-2-1.5-2.4c0.4-0.8,0.6-1.7,0.6-2.7c0-3.1-2.2-5.7-5-5.9c0-0.1,0-0.1,0-0.2c0-1.3-0.8-2.3-1.9-2.5
				c0.1-0.4,0.1-0.9,0.1-1.4c0-3.6-2.6-6.5-5.9-6.5c-0.5,0-1,0.1-1.4,0.2c-0.4-2.1-2.1-3.6-4.1-3.6h-0.1c-0.8-3.1-3.5-5.4-6.6-5.4
				c-2.1,0-4,1-5.2,2.7C66,4.7,65,4.3,63.9,4.3c-0.6,0-1.2,0.2-1.7,0.5c-0.9-0.6-2.1-1-3.2-1c-3.2,0-5.8,2.7-6.1,6.1
				c-0.2,0-0.4,0-0.7,0c-2,0-3.8,1.1-4.8,2.8c-0.4-0.1-0.9-0.2-1.4-0.2c-3.1,0-5.7,2.8-5.7,6.3c0,0.4,0,0.8,0.1,1.2
				c-2.2,0.3-3.9,2.4-3.9,4.9c0,0.4,0.1,0.9,0.2,1.3c-3.1,0.4-5.5,3.3-5.5,6.8c0,1,0.2,1.9,0.5,2.7c-0.8,0.7-1.4,1.7-1.4,3
				c0,0.4,0.1,0.8,0.2,1.1c-3.2,0.4-5.7,3.4-5.7,7c0,2.1,0.8,4,2.1,5.3c-0.6,0.8-1,1.8-1,3c0,2,1.1,3.7,2.8,4.4
				c-0.8,1.2-1.2,2.6-1.2,4.1c0,3.1,1.9,5.8,4.5,6.7c0.4,1,1.3,1.6,2.4,1.7c0,0.1,0,0.2,0,0.3c0,3.5,2.6,6.4,5.8,6.4
				c1,0,2-0.3,2.9-0.8c0.6,0.7,1.5,1.1,2.4,1.1c0.3,0,0.5,0,0.8-0.1c0.3,1.9,1.9,3.4,3.7,3.4c0.9,0,1.7-0.4,2.4-0.9
				c0.4,0.4,1,0.6,1.6,0.6c0.8,0,1.5-0.4,2-1c0.6,1.3,1.8,2.2,3.2,2.2c0.7,0,1.3-0.2,1.9-0.6c0.5,0.4,1.2,0.6,1.8,0.6
				c1,0,2-0.5,2.6-1.3c0.9,1.3,2.2,2.1,3.8,2.1c1.7,0,3.1-0.9,4-2.4c0.5,0.3,1.1,0.5,1.6,0.5c1.1,0,2.1-0.6,2.8-1.5
				c0.9,1.2,2.2,1.9,3.7,1.9c2.2,0,4-1.6,4.6-3.8h0.1c1.1,0,2.1-0.7,2.7-1.6c0.8,0.6,1.7,0.9,2.7,0.9c2.6,0,4.7-2.3,4.7-5.2
				c0-0.3,0-0.5-0.1-0.8c2.3-0.3,4.2-2.5,4.2-5.2c0-1-0.3-1.9-0.7-2.7c0.9-0.6,1.5-1.7,1.5-3c0-0.6-0.1-1.2-0.4-1.6
				C102.4,57.7,103.6,55.3,103.6,52.6"/>
			<path class="st3" d="M52.6,12.6c0.7-1.5,1.8-2.8,3.4-1.9c0.2-2.5,3.1-4.1,4.9-2.5c0.3,0.2,0.5,0.5,0.7,0.8c0,0.1,0.4-0.3,0.5-0.3
				c0.5-0.3,1-0.5,1.6-0.4c1.1,0.1,1.3,1.1,1.1,2.1c0.8-0.5,1.7-0.6,2.5,0c0.7,0.6,1.2,1.7,1.5,2.6c0.8-1.2,2-1.9,3.3-1.6
				c0.6,0.2,1.2,0.4,1.5,1c0.3,0.5,0.3,1.1,0.4,1.7c1.5-0.9,4-1.7,4.2,0.8c1.6-1,3.5,0.2,3.1,2.3c1.2,0.3,2.6-0.3,3.6,0.8
				c0.8,0.9,1,1.8,0.9,3.1c0.7-0.1,1.6-0.1,2.1,0.5s0.5,1.3,0.4,2.1c1.6-1,3.8,0.8,3.7,2.8c0.6-0.5,1.4-0.3,1.8,0.6
				c0.6,1.1,0.2,2.3-0.3,3.3c0.8-0.3,1.8-0.2,2.6,0.2c0.3-0.8,0.5-1.6,0.5-2.6c0-3.1-2.2-5.7-5-5.9c0-0.1,0-0.1,0-0.2
				c0-1.3-0.8-2.3-1.9-2.5c0.1-0.4,0.1-0.9,0.1-1.4c0-3.6-2.6-6.5-5.9-6.5c-0.5,0-1,0.1-1.4,0.2c-0.4-2.1-2.1-3.6-4.1-3.6h-0.1
				c-0.8-3.1-3.5-5.4-6.6-5.4c-2.1,0-4,1-5.2,2.7C66,4.7,65,4.3,63.9,4.3c-0.6,0-1.2,0.2-1.7,0.5c-0.9-0.6-2.1-1-3.2-1
				c-3.2,0-5.8,2.7-6.1,6.1c-0.2,0-0.4,0-0.7,0c-1.7,0-3.2,0.8-4.3,2.1C49.4,11,51.3,11.3,52.6,12.6z"/>
			<path class="st4" d="M81.4,21.7c0.7-0.5,0.4-1.2-0.1-1.5c0.1,0.2,0.1,0.5-0.1,0.8s-0.6,0.3-0.9,0.2c0.5,0.6,0.7,1.4,0.4,2.2
				c-0.3,0.8-1,1.2-1.7,1.3c1,0.9,0.9,2.4-0.4,2.8c0.4,0.9,0.7,1.9-0.2,2.6c-0.7,0.5-1.7,0.6-2.4,0.1c-0.3,1-1,1.8-1.9,1.8
				c-0.8,0.1-1.1-0.5-1.4-1.2c-0.7,1.2-2.4,1.5-3.3,0.3c-0.1,0.5,0,1.1,0.3,1.5c0.3,0.3,0.6,0.2,1,0.2c0.1,0,0.2,0.1,0.2,0.2
				c-0.3,0.8,0,1.7,0.8,1.8c0.6,0.1,1.1-0.2,1.6-0.4c0.1,0,0.1,0,0.2,0.1c0.5,0.9,1.4,0.8,2.1,0.3c0.7-0.4,1-0.9,1.5-1.5
				c0.2-0.2,0.5-0.2,0.7-0.1c1,0.5,1.1-0.8,1.1-1.5c0-0.1,0.1-0.1,0.1-0.1c1.4-0.2,2.2-2,1.7-3.4c-0.1-0.1,0.1-0.3,0.2-0.2
				c1.1-0.5,1.3-2.3,0-2.7c-0.1,0-0.1-0.2,0-0.3c0.7-0.2,1.4-0.9,1.3-1.7c0-0.6-0.4-0.9-0.7-1.4C81.4,21.8,81.4,21.8,81.4,21.7z"/>
			<path class="st4" d="M47.6,20.8c0.1,0,0.2,0.1,0.1,0.2c-0.4,1.1-0.7,2.5,0.2,3.5c0.6,0.7,1.5,1,2.4,0.6c0.1,0,0.2,0.1,0.2,0.1
				c0,1.3,1.2,1.9,2.2,1.4c0.6-0.3,1-0.8,1.5-1.3c0.1-0.1,0.1,0,0.2,0c1.3,1.1,2.8-0.1,3.1-1.6c-0.8,0.8-2.2,1.4-2.4-0.1
				c-1.2,0.7-3,1.2-3.6-0.6c-1.7,0.8-3.3-1.6-2-3c-1-0.2-1.3-1.3-0.9-2.4c0.4-1.1,1.3-1.8,2.3-1.7c-0.4-0.5-0.4-1.4,0-2
				c-1,0.2-2.3,1.1-1.6,2c0.1,0.1,0.1,0.2-0.1,0.2c-1.2,0.2-2.5,0.8-2.9,2.2C45.8,19.6,46.4,20.7,47.6,20.8z"/>
			<path class="st4" d="M56.1,40.8c-0.5-0.7-0.2-1.4,0.2-2.1c-0.7,0.1-1.5-0.4-1.6-1.3c-0.9,1.2-2.9,2.1-3.3,0.3
				c-0.8,1.3-2.6,2.4-3.5,0.9c-0.6,0.9-1.6,1.4-2.7,0.9c-1-0.5-1.5-1.6-1.4-2.8c-1.1,0.6-2.4,1-3.2-0.2c-0.6-0.9-0.5-2.4,0.1-3.3
				c-1.6,0.2-2.6-1.9-1.9-3.4c-0.8,0.6-1.5,1.5-1.5,2.6c0,0.9,0.4,1.9,1.4,1.6c0.1,0,0.1,0,0.2,0.1c0.1,0.1,0.1,0.2-0.1,0.2
				c-1.7,0.5-2.2,4.5,0.1,4.1c0.1,0,0.2,0.1,0.2,0.2c-0.1,0.6-0.4,1.4-0.1,2c0.6,1,1.6,0.7,2.2-0.1c0.1-0.1,0.2,0,0.2,0.1
				c0,0.3,0.1,0.8,0.4,1.1c0.5,0.5,0.9,0,1.3-0.4c0.1-0.1,0.2,0,0.2,0.1c-0.1,2.3,3.3,2.7,4,0.6c0.1-0.2,0.3-0.1,0.2,0.1
				c0,0,0,0,0,0.1l0,0c0.3,0.5,0.6,1,1.3,0.6c0.3-0.2,0.6-0.5,0.8-0.9c0.1-0.1,0.2-0.1,0.2,0c0.4,1.1,1-0.1,1.4-0.5
				c0-0.1,0.1-0.1,0.2,0c0.4,0.4,0.7,1,1.3,0.9c0.7-0.1,1.3-0.5,1.7-1.1c0.1-0.1,0.2-0.1,0.2,0c0.2,1,0.9,1.8,1.9,1.4
				c0.7-0.3,1.6-1,1.6-1.9C57.6,41.1,56.6,41.5,56.1,40.8z"/>
			<path class="st4" d="M103.6,52.6c0-2.7-1.3-5.2-3.2-6.6c0.7-1.2,1.2-2.7,1.2-4.3c0-1.1-0.2-2.2-0.6-3.1c0.3,1.6,0.2,3.3-0.4,5
				c-0.7,1.8-2,3.5-3.7,4.2l0,0c0.9,0.4,1.8,1.7,0.9,2.7c-0.6,0.7-1.6,0.6-2.5,0.5c0.8,1.2,1.5,2.7,0.6,4c-0.7,1-2,0.9-2.8,0.3
				c-0.7,1.1-1.9,0.6-2.3-0.4c-0.4,1.8-0.8,4-2.7,4.3c-1.4,0.3-3.3-0.7-3-2.4c-0.5,0.2-1-0.2-1.3-0.8c-1.1,1.1-3.1,0.7-3.4-0.9
				c-0.7,0.5-1.9,0.3-2.1-0.6c-0.4,0.8-1.1,1.5-1.8,1.9c-0.7,0.3-1.1,0.1-1.4-0.5c-0.2,1.2-0.7,2.5-1.9,2.8c-0.8,0.2-1.7,0-2-0.8
				c-0.6,1.1-1.5,2-2.7,1.9c-1,0-1.9-0.7-2.1-1.8c-0.8,0.8-2.2,0.7-3-0.2c-0.8,1.6-2.8,1.7-4.2,1c-0.7-0.3-1.4-0.9-1.7-1.7
				c-0.1-0.3-0.1-0.6-0.1-0.8c-0.7,0.9-1.7,1.5-2.8,1.4c-1.1,0-1.8-0.7-2.1-1.6c-0.8,1.2-2.2,2.3-3.5,1.8c-1.5-0.6-1.9-2.6-2-4.2
				c-0.4,0.7-1.2,1.2-1.9,0.6c-0.3-0.2-0.5-0.6-0.5-0.9c-0.9,0.7-2.1,1.3-3.2,1.1c-1.2-0.2-1.8-1.3-2-2.4c-0.8,0.9-1.9,1.8-3,1
				c-0.7-0.5-1-1.3-1-2.2c-1.7,1-4.2,1.8-5.4-0.1c-1.2-1.8,0.1-4.3,1.2-5.9c-1.3,0.5-2.8,0.2-3.2-1.6c-0.3-1.4,0.2-2.7,1.1-3.5
				c-2.7,0.8-4.7,3.6-4.7,6.8c0,2.1,0.8,4,2.1,5.3c-0.6,0.8-1,1.8-1,3c0,2,1.1,3.7,2.8,4.4c-0.8,1.2-1.2,2.6-1.2,4.1
				c0,3.1,1.9,5.8,4.5,6.7c0.4,1,1.3,1.6,2.4,1.7c0,0.1,0,0.2,0,0.3c0,3.5,2.6,6.4,5.8,6.4c1,0,2-0.3,2.9-0.8
				c0.6,0.7,1.5,1.1,2.4,1.1c0.3,0,0.5,0,0.8-0.1c0.3,1.9,1.9,3.4,3.7,3.4c0.9,0,1.7-0.4,2.4-0.9c0.4,0.4,1,0.6,1.6,0.6
				c0.8,0,1.5-0.4,2-1c0.6,1.3,1.8,2.2,3.2,2.2c0.7,0,1.3-0.2,1.9-0.6c0.5,0.4,1.2,0.6,1.8,0.6c1,0,2-0.5,2.6-1.3
				c0.9,1.3,2.2,2.1,3.8,2.1c1.7,0,3.1-0.9,4-2.4c0.5,0.3,1.1,0.5,1.6,0.5c1.1,0,2.1-0.6,2.8-1.5c0.9,1.2,2.2,1.9,3.7,1.9
				c2.2,0,4-1.6,4.6-3.8h0.1c1.1,0,2.1-0.7,2.7-1.6c0.8,0.6,1.7,0.9,2.7,0.9c2.6,0,4.7-2.3,4.7-5.2c0-0.3,0-0.5-0.1-0.8
				c2.3-0.3,4.2-2.5,4.2-5.2c0-1-0.3-1.9-0.7-2.7c0.9-0.6,1.5-1.7,1.5-3c0-0.6-0.1-1.2-0.4-1.6C102.4,57.7,103.6,55.3,103.6,52.6z"
				/>
			<path class="st5" d="M46.6,58.8c-0.6,1-1.5,1.9-2.5,1.2c-0.3-0.2-0.3-0.4-0.6-0.2C43.2,59.9,43,60,42.8,60
				c-0.6,0-1.1-0.3-1.7-0.4c-0.6,1.9-2.6,2.1-3.8,0.6c-0.8,1-2.3,1-3.2,0.3c0,0.1,0.1,0.2,0.1,0.4c0.3,0.9,1.2,1.8,2.2,1.5
				c0.5-0.2,1.1-0.5,1.5,0.1C38.8,64,40,63,41,62.1c0.1-0.1,0.2-0.1,0.2,0c0.8,1.2,2.2,0.5,2.8-0.5c0.1-0.1,0.2-0.1,0.2,0
				c0.6,2.1,2.7,1.1,3.1-0.6c0-0.1,0.2-0.2,0.2,0c0.4,1,1.1,0.2,1.4-0.4c0.3-0.6,0.5-1.4,0.3-2C48.7,59.8,47.4,59.6,46.6,58.8z"/>
			<path class="st5" d="M92.4,60.8c-0.5,1.9-2.9,3.2-4,1.4c-0.5,0.8-1.3,1.6-2.2,1.3c-0.9-0.3-1.5-1.2-1.9-2.1
				c-0.6,0.9-1.8,1.5-2.8,1.1c-0.4-0.2-0.9-0.5-1.1-1s-0.2-1.1-0.2-1.6c-0.6,0.4-1.7,0.9-2.2,0.5c-0.2,0.5-0.4,1-0.3,1.5
				c0.2,0.7,1.1,0.4,1.6,0.2c0.1,0,0.2,0.1,0.2,0.2c-0.1,0.8-0.1,1.8,0.7,2.2c0.7,0.3,1.4,0.2,2-0.1c0.1,0,0.2,0,0.2,0.1
				c-0.1,2.6,2.7,2.2,3.9,0.9c0.1-0.1,0.2,0,0.2,0.1c0.4,1.8,2.1-0.4,2.5-1.1c0-0.1,0.1-0.1,0.2,0c1.2,1.6,3.8,0,4-1.8
				c0-0.1,0.1-0.2,0.2-0.1c1.9,0.5,2.9-1.4,2.8-3.3C95.6,60.7,93.6,62.2,92.4,60.8z"/>
			<path class="st5" d="M60.8,65c-0.7,0.2-1.3-0.4-1.7-1c-0.3,0.5-0.8,1-1.4,0.9c-0.6-0.1-0.9-0.6-1-1.2c-0.6,0.5-1.8,1-2.2,0.5l0,0
				c-0.1,0.7,0.1,1.7,0.9,1.7c0.4,0,0.8-0.1,1.1-0.4c0.1,0,0.2,0,0.2,0.1c0.2,1.6,1.5,1.8,2.5,0.7c0.1-0.1,0.2,0,0.2,0.1
				c1.1,3.1,4.2-0.5,3.6-2.8C62.3,64.1,61.6,64.8,60.8,65z"/>
		</g>
		<g>
			<g>
				<path class="st6" d="M72.2,17.9c0,0-0.3-0.1-0.4-0.4c-0.2-0.3-0.3-0.8-0.3-1.2c0-0.2,0-0.3,0.1-0.4c0-0.1,0.1-0.2,0.1-0.2
					c0.1-0.1,0.1-0.1,0.2-0.1l0.1,0.1c0,0,0,0.1,0,0.2c0,0.1,0,0.2,0,0.4c0,0.3,0,0.7,0.1,1.1C72.1,17.6,72.3,17.9,72.2,17.9"/>
				<path class="st7" d="M71.8,16.7c-2.4,0.3-3,3.2-2.1,5c1.1,2.3,3.4,3.1,4.7,2.7c1-0.3,1.3-1.4,1-2.2c-0.5-1.2-0.2-1.8-0.5-3.2
					C74.5,17.6,73.7,16.5,71.8,16.7"/>
				<path class="st8" d="M75.4,22.3c-0.1-0.4-0.2-0.7-0.3-0.9c-0.1,0.1-0.1,0.2-0.2,0.3c-0.7,0.9-1.8,1.3-2.9,1
					c-1.4-0.4-2.4-1.8-2.6-3.3c-0.1,0.8,0,1.7,0.4,2.4c1.1,2.3,3.4,3.1,4.7,2.7C75.4,24.2,75.7,23.1,75.4,22.3z"/>
				<path class="st9" d="M70.6,18.6c0.1,0,0,0.5-0.1,0.9c0,0.3-0.1,0.3-0.1,0.3c-0.1,0-0.1,0-0.1-0.4C70.3,19.1,70.5,18.6,70.6,18.6
					"/>
				<path class="st9" d="M71,17.7c0,0.1,0,0.2-0.1,0.3c-0.1,0.1-0.2,0.2-0.3,0.2c-0.1,0,0-0.2,0.1-0.3C70.9,17.7,71,17.7,71,17.7"/>
			</g>
			<g>
				<path class="st6" d="M56.1,47.1c0,0-0.3-0.2-0.5-0.6c-0.2-0.4-0.3-1-0.3-1.4c0-0.2,0-0.4,0.1-0.5c0-0.1,0.1-0.2,0.1-0.3
					c0.1-0.1,0.2-0.1,0.2,0c0,0,0.1,0.1,0.1,0.2c0,0,0,0.1,0,0.2c0,0.1,0,0.3,0,0.5c0,0.4,0,0.9,0.1,1.3C56,46.7,56.2,47,56.1,47.1"
					/>
				<path class="st7" d="M56.1,45.7c-2.4-0.7-4.3,2.5-4.3,4.6c0,3.2,1.7,5.1,3,5.2c1,0.1,1.5-0.9,1.4-1.8c-0.1-1.3,0.4-2.3,1.1-3.5
					C58.3,48.6,58,46.3,56.1,45.7"/>
				<path class="st8" d="M57.7,47.2c0.1,0.4,0.1,0.8,0.1,1.1c0,0.5-0.1,1.1-0.5,1.5c-0.4,0.5-0.9,0.6-1.4,1
					c-0.6,0.4-0.9,1.3-1.6,1.5c-0.6,0.2-1.1-0.1-1.5-0.5c-0.6-0.6-0.9-1.4-1-2.1c0,0.2,0,0.4,0,0.6c0,3.2,1.7,5.1,3,5.2
					c1,0.1,1.5-0.9,1.4-1.8c-0.1-1.3,0.4-2.3,1.1-3.5C57.9,49.3,58,48.2,57.7,47.2z"/>
				<path class="st9" d="M53.4,47.7c0.1,0.1-0.2,0.5-0.4,0.8c-0.1,0.3-0.2,0.3-0.2,0.3c-0.1,0-0.1-0.1,0-0.4
					C53,48,53.4,47.7,53.4,47.7"/>
				<path class="st9" d="M54.4,46.9c0,0.1-0.1,0.3-0.3,0.4c-0.2,0.1-0.3,0.2-0.4,0.1c0-0.1,0.1-0.3,0.3-0.5
					C54.2,46.8,54.3,46.8,54.4,46.9"/>
			</g>
			<g>
				<path class="st6" d="M39.3,68.5c0,0-0.2-0.1-0.4-0.4s-0.3-0.8-0.3-1.1c0-0.2,0-0.3,0-0.4s0-0.2,0.1-0.3c0.1-0.1,0.1-0.1,0.2-0.1
					l0.1,0.1c0,0,0,0.1,0,0.2s0,0.2,0,0.4c0,0.3,0.1,0.7,0.2,1C39.2,68.2,39.4,68.4,39.3,68.5"/>
				<path class="st7" d="M38.8,67.3c-2.2,0.5-2.5,3.4-1.5,5.2c1.2,2.2,3.4,2.8,4.5,2.4c0.9-0.4,1.1-1.5,0.7-2.3
					c-0.5-1.2-0.3-1.8-0.7-3.1C41.4,68,40.6,66.9,38.8,67.3"/>
				<path class="st8" d="M42.5,72.6c-0.2-0.4-0.3-0.7-0.3-1c-0.3,0.9-0.9,1.6-1.9,1.7c-1.1,0.2-2.3-0.2-3-1.3
					c-0.1-0.2-0.2-0.4-0.3-0.6c0.1,0.4,0.2,0.8,0.4,1.1c1.2,2.2,3.4,2.8,4.5,2.4C42.6,74.5,42.9,73.3,42.5,72.6z"/>
				<path class="st9" d="M37.8,69.3c0.1,0,0,0.6,0,0.9s0,0.3-0.1,0.4c-0.1,0-0.1,0-0.1-0.4C37.6,69.8,37.8,69.3,37.8,69.3"/>
				<path class="st9" d="M38.2,68.4c0,0.1,0,0.2-0.1,0.3c-0.1,0.1-0.2,0.2-0.2,0.2c-0.1,0,0-0.2,0-0.3C38,68.4,38.2,68.3,38.2,68.4"
					/>
			</g>
			<g>
				<path class="st6" d="M59.8,8.8c0-0.2-0.1-0.4-0.1-0.5S59.6,8.1,59.6,8c-0.1-0.1-0.2-0.1-0.2-0.1S59.3,8,59.3,8.1
					c0,0,0,0.1,0,0.2c0,0.1,0,0.3,0.1,0.5c0,0.4,0,0.9-0.1,1.3c-0.1,0.4-0.2,0.7-0.2,0.7s0.3-0.2,0.4-0.6
					C59.8,9.9,59.9,9.3,59.8,8.8"/>
				<path class="st7" d="M62.9,13.2c-0.1-2.3-2.1-5-4.3-3.7c-1.8,1-1.6,4.3-0.6,5c1,0.9,0.3,1.5,0.6,2.9c0.2,0.9,1.2,1,1.7,0.7
					C61.5,17.5,63.1,16.1,62.9,13.2"/>
				<path class="st8" d="M62.9,13.2c0-1.1-0.5-2.2-1.2-3c0.9,1.5,0.9,3.8,0.2,5.2c-0.4,0.9-1.4,1.9-2.4,1.5c-0.5-0.2-0.7-0.7-1-1.1
					c0,0.4-0.1,0.9,0,1.6c0.2,0.9,1.2,1,1.7,0.7C61.5,17.5,63.1,16.1,62.9,13.2z"/>
				<path class="st9" d="M58.6,11c0.1,0,0,0.2,0,0.4c-0.1,0.2-0.2,0.3-0.2,0.3c-0.1,0-0.1-0.2,0-0.4C58.3,11.1,58.5,10.9,58.6,11"/>
				<path class="st9" d="M58.2,12.2c0.1,0,0.2,0.1,0.2,0.3s0.1,0.4,0,0.4s-0.2-0.1-0.3-0.3C58.1,12.4,58.1,12.2,58.2,12.2"/>
			</g>
			<g>
				<path class="st6" d="M45,23.4c0-0.2,0-0.4,0-0.6c0-0.1,0-0.2-0.1-0.3c-0.1-0.2-0.1-0.1-0.2-0.1c0,0-0.1,0.1-0.1,0.2
					c0,0,0,0.1,0,0.2s0,0.3,0,0.5c0,0.4-0.1,0.9-0.2,1.3c-0.1,0.4-0.3,0.6-0.3,0.7c0,0,0.3-0.1,0.5-0.5C44.8,24.4,45,23.8,45,23.4"
					/>
				<path class="st7" d="M46.4,28.7c0.8-2.1,0.2-5.1-2.3-5c-2,0-3.4,2.2-3.2,4c0.1,1.8-0.1,1.6-0.3,3C40.4,31.6,41.4,32,42,32
					C43.3,32,45.4,31.3,46.4,28.7"/>
				<path class="st8" d="M45,23.8c1.2,1.3,0.8,4-0.2,5.4c-0.7,1-1.8,1.9-3,1.7c-0.5-0.1-0.9-0.4-1.1-0.8c0,0.1-0.1,0.3-0.1,0.5
					c-0.2,1,0.8,1.4,1.4,1.4c1.3,0,3.4-0.7,4.4-3.3C47.1,26.9,46.7,24.4,45,23.8z"/>
				<path class="st9" d="M43.5,24.8c0,0.1-0.1,0.2-0.3,0.4c-0.2,0.1-0.4,0.2-0.4,0.1c-0.1-0.1,0-0.3,0.2-0.4
					C43.3,24.7,43.5,24.7,43.5,24.8"/>
				<path class="st9" d="M42.5,25.6c0.1,0,0.1,0.2,0,0.5c-0.1,0.2-0.2,0.4-0.3,0.4s-0.1-0.2,0-0.5C42.2,25.7,42.4,25.5,42.5,25.6"/>
			</g>
			<g>
				<path class="st6" d="M61,28.1c0-0.2,0-0.4,0-0.6c0-0.1,0-0.2-0.1-0.3c-0.1-0.2-0.1-0.1-0.2-0.1c0,0-0.1,0.1-0.1,0.2
					c0,0,0,0.1,0,0.2s0,0.3,0,0.5c0,0.4-0.1,0.9-0.2,1.3c-0.1,0.4-0.3,0.7-0.2,0.7c0,0,0.3-0.1,0.5-0.5C60.9,29.1,61,28.5,61,28.1"
					/>
				<path class="st7" d="M63.7,33.3c0.1-2.3-1.3-5-3.7-4c-1.9,0.8-1.8,3.5-1.4,4.7c0.4,1.4-0.1,1.7,0.1,3.1c0.1,0.9,1.1,1.1,1.6,0.9
					C61.6,37.5,63.5,36.1,63.7,33.3"/>
				<path class="st8" d="M60.6,29.1c2.4,0.8,2.7,5.5,0.5,7.2c-0.1,0.1-0.2,0-0.2-0.1c-0.2-0.7-0.7,0.3-0.9,0.5
					c-0.3,0.3-0.6,0.5-1,0.3c-0.1-0.1-0.3-0.2-0.3-0.3c0,0.1,0,0.2,0,0.3c0.1,0.9,1.1,1.1,1.6,0.9c1.2-0.5,3.2-1.9,3.3-4.7
					C63.8,31.2,62.6,28.7,60.6,29.1z"/>
				<path class="st9" d="M60.2,30.3c0.1,0.1,0,0.3-0.1,0.5s-0.2,0.4-0.3,0.3c-0.1,0-0.1-0.3,0-0.5C59.9,30.4,60.1,30.2,60.2,30.3"/>
				<path class="st9" d="M59.6,31.6c0.1,0,0.2,0.2,0.2,0.4c0,0.2,0,0.5-0.1,0.5s-0.2-0.2-0.3-0.4C59.5,31.9,59.5,31.6,59.6,31.6"/>
			</g>
			<g>
				<path class="st6" d="M86.9,22.5c0-0.2,0-0.4,0-0.5s0-0.2,0-0.3c-0.1-0.2-0.1-0.1-0.2-0.1l-0.1,0.1c0,0,0,0.1,0,0.2s0,0.3,0,0.5
					c0,0.4-0.2,0.9-0.3,1.2C86.1,24,86,24.2,86,24.2s0.3-0.1,0.5-0.4C86.7,23.4,86.8,22.9,86.9,22.5"/>
				<path class="st7" d="M88.9,27.2c0.3-2.1-1-5-3.2-4.4c-1.8,0.5-2.2,3.5-1.5,4.5c0.8,1.1,0,1.5,0,2.8c0,0.9,0.9,1.2,1.4,1.1
					C86.8,30.8,88.5,29.8,88.9,27.2"/>
				<path class="st8" d="M87.9,23.5c0.3,1.2,0.2,2.9,0,3.6c-0.4,1-1.4,1.7-2.3,1.6c-0.4-0.1-0.8-0.3-1.1-0.5c0,0.5-0.3,1-0.3,1.8
					c0,0.9,0.9,1.2,1.4,1.1c1.2-0.3,2.8-1.2,3.3-3.9C89.1,26,88.7,24.5,87.9,23.5z"/>
				<path class="st9" d="M85.4,23.9c0.1,0.1,0,0.2-0.1,0.4c-0.1,0.2-0.2,0.3-0.3,0.2c-0.1,0,0-0.2,0.1-0.4
					C85.2,24,85.3,23.9,85.4,23.9"/>
				<path class="st9" d="M84.8,24.9c0.1,0,0.1,0.2,0.1,0.4c0,0.2,0,0.4-0.1,0.4s-0.2-0.1-0.2-0.4C84.7,25.1,84.8,24.9,84.8,24.9"/>
			</g>
			<g>
				<path class="st6" d="M91.9,36.7c0-0.3-0.1-0.5-0.1-0.6s-0.1-0.3-0.1-0.3c-0.1-0.2-0.2-0.1-0.2-0.1s-0.1,0.1-0.1,0.2
					c0,0,0,0.1,0,0.3c0,0.1,0,0.3,0.1,0.5c0,0.5,0,1.1-0.1,1.5c-0.1,0.5-0.2,0.8-0.2,0.8s0.3-0.2,0.5-0.7
					C91.9,37.9,91.9,37.2,91.9,36.7"/>
				<path class="st7" d="M95.4,41.6c-0.1-2.6-1.7-5.4-4.7-4.2c-2.1,0.8-3,4.9-1.5,6.4c1.4,1.3,0.8,1.6,1.3,2.7
					c0.3,0.6,1.3,1,1.9,0.7C93.8,46.4,95.6,44.8,95.4,41.6"/>
				<path class="st8" d="M95.4,41.6c0-0.5-0.1-0.9-0.2-1.4c0.1,1.3-0.2,2.5-1,3.6c-0.4,0.6-1.1,1.3-1.9,1.3
					c-0.8-0.1-1.4-0.5-1.9-1.1c-0.6-0.6-1.5-1.5-1.9-2.4c0,0.9,0.2,1.7,0.7,2.2c1.4,1.3,0.8,1.6,1.3,2.7c0.3,0.6,1.3,1,1.9,0.7
					C93.8,46.4,95.6,44.8,95.4,41.6z"/>
				<path class="st9" d="M90.9,38.5c0.1,0.1,0,0.3,0,0.5c-0.1,0.2-0.2,0.4-0.3,0.3c-0.1,0-0.1-0.2,0-0.5
					C90.7,38.6,90.8,38.4,90.9,38.5"/>
				<path class="st9" d="M90.1,39.9c0.1,0,0.1,0.2,0.1,0.4s-0.1,0.4-0.2,0.4s-0.2-0.2-0.2-0.5C89.9,40.1,90,39.9,90.1,39.9"/>
			</g>
			<g>
				<path class="st6" d="M69.7,39.7c0-0.2-0.1-0.4-0.1-0.5s-0.1-0.2-0.1-0.3c-0.1-0.1-0.2-0.1-0.2-0.1s-0.1,0.1-0.1,0.2
					c0,0,0,0.1,0,0.2c0,0.1,0,0.3,0.1,0.5c0,0.4,0,0.9-0.1,1.3c-0.1,0.4-0.2,0.7-0.2,0.7s0.3-0.2,0.4-0.6
					C69.7,40.8,69.7,40.2,69.7,39.7"/>
				<path class="st7" d="M73.1,44.4c-0.1-2.3-1.7-4.8-4.6-4.1c-1.9,0.5-2.1,3.3-1.7,4.5c0.5,1.3,1.9,2.6,2.2,3.9
					c0.2,0.9,1.2,1,1.7,0.7C71.9,48.9,73.2,47.2,73.1,44.4"/>
				<path class="st8" d="M72.2,47.9c-1,0.6-2.2-0.2-2.9-0.9c-1-0.9-2-1.6-2.4-2.9c-0.1-0.3-0.1-0.5-0.2-0.8c0,0.6,0,1.1,0.2,1.5
					c0.5,1.3,1.9,2.6,2.2,3.9c0.2,0.9,1.2,1,1.7,0.7c0.6-0.3,1.2-0.9,1.7-1.8C72.4,47.8,72.3,47.8,72.2,47.9z"/>
				<path class="st9" d="M68.4,41.5c0.1,0.1,0,0.3-0.1,0.5s-0.2,0.4-0.3,0.3c-0.1,0-0.1-0.3,0-0.5S68.3,41.4,68.4,41.5"/>
				<path class="st9" d="M67.6,42.9c0.1,0,0.1,0.2,0.1,0.4s-0.1,0.4-0.2,0.4s-0.2-0.2-0.1-0.4C67.4,43.1,67.5,42.9,67.6,42.9"/>
			</g>
			<g>
				<path class="st6" d="M35.8,45.4c0-0.2,0-0.4,0-0.6c0-0.1,0-0.2,0-0.3c-0.1-0.2-0.1-0.1-0.2-0.1l-0.1,0.1c0,0,0,0.1,0,0.2
					c0,0.1,0,0.3-0.1,0.5c-0.1,0.4-0.2,0.9-0.4,1.3c-0.2,0.4-0.4,0.6-0.3,0.7c0,0,0.3-0.1,0.5-0.4C35.6,46.4,35.8,45.9,35.8,45.4"/>
				<path class="st7" d="M38.1,50.5c0.5-2.2-0.7-5.1-3.1-4.6c-2,0.4-3.5,2.3-3,4.5c0.3,1.4,0.6,1.4,0.2,3.2C32,54.5,33.5,55,34,54.9
					C35.3,54.6,37.5,53.3,38.1,50.5"/>
				<path class="st8" d="M37.5,47c0.1,0.4,0.2,0.8,0.2,1.2c0.1,1.5-0.4,2.7-1.5,3.7c-0.9,0.8-2,1.4-3.1,0.9
					c-0.3-0.1-0.6-0.3-0.8-0.6c0,0.3-0.1,0.7-0.2,1.3c-0.2,0.9,1.3,1.4,1.8,1.3c1.3-0.2,3.4-1.5,4-4.3C38.4,49.3,38.1,48,37.5,47z"
					/>
				<path class="st9" d="M34,47.2c0,0.1-0.1,0.2-0.2,0.3c-0.2,0.1-0.3,0.2-0.4,0.1c-0.1-0.1,0-0.2,0.2-0.4
					C33.8,47.1,34,47.1,34,47.2"/>
				<path class="st9" d="M33.2,48c0.1,0,0.1,0.2,0,0.4s-0.1,0.3-0.2,0.3c-0.1,0-0.1-0.2-0.1-0.4C33,48.1,33.1,47.9,33.2,48"/>
			</g>
			<g>
				<path class="st6" d="M92,64.3c0.1-0.2,0.1-0.4,0.1-0.5s0-0.2,0-0.3c0-0.2-0.1-0.2-0.1-0.1l-0.1,0.1c0,0,0,0.1-0.1,0.2
					c0,0.1-0.1,0.3-0.1,0.5c-0.1,0.4-0.3,0.9-0.6,1.2c-0.2,0.3-0.4,0.5-0.4,0.6s0.3,0,0.6-0.3C91.5,65.3,91.8,64.7,92,64.3"/>
				<path class="st7" d="M93.2,69.7c0.7-2.1,0.4-5.2-2.5-5c-2,0.1-2.9,2.7-2.9,4c0.1,1.3,0.1,1.5-0.1,2.9C87.6,72.5,88.5,73,89,73
					C90.3,73,92.3,72.4,93.2,69.7"/>
				<path class="st8" d="M92.6,65.2c0.8,1.4,0.1,3.8-1,4.7c-1.2,0.9-3,0.8-3.7-0.4c0,0.7,0,1.1-0.2,2.1C87.6,72.5,88.5,73,89,73
					c1.3,0,3.3-0.6,4.2-3.3C93.8,68.2,93.8,66.1,92.6,65.2z"/>
				<path class="st9" d="M90.3,65.7c0,0.1-0.1,0.2-0.2,0.3c-0.2,0.1-0.3,0.1-0.4,0.1c0-0.1,0-0.2,0.2-0.4
					C90.1,65.6,90.3,65.6,90.3,65.7"/>
				<path class="st9" d="M89.4,66.3c0.1,0,0,0.2,0,0.4c-0.1,0.2-0.2,0.3-0.2,0.3c-0.1,0-0.1-0.2,0-0.4
					C89.2,66.4,89.4,66.3,89.4,66.3"/>
			</g>
		</g>
		<g>
			<path class="st5" d="M71.3,52.9c-0.1,0-0.2,0.2-0.4,0.4c-0.2,0.2-0.6,0.4-1,0.2c-0.4-0.1-0.7-0.5-0.7-0.8
				c-0.1-0.3-0.1-0.5-0.1-0.6c0,0-0.1,0-0.1,0.1c-0.1,0.1-0.1,0.3-0.1,0.5s0.1,0.5,0.2,0.7c0.2,0.2,0.4,0.5,0.7,0.5
				c0.3,0.1,0.6,0.1,0.9-0.1c0.3-0.1,0.4-0.3,0.6-0.5C71.4,53.2,71.3,52.9,71.3,52.9"/>
			<g>
				<path class="st5" d="M53.1,24.2c-0.2,0-0.5,0-0.8-0.1s-0.6-0.4-0.7-0.7c0,0,0-0.1,0-0.2s0-0.1-0.1-0.2c0,0,0,0-0.1-0.1l0,0h-0.1
					c-0.1,0-0.1,0-0.2,0.1l0,0c0,0-0.1,0-0.1,0.1c-0.1,0-0.1,0.1-0.2,0.1c-0.3,0.1-0.6,0.1-0.9,0c-0.3-0.1-0.6-0.3-0.7-0.6
					c-0.2-0.3-0.2-0.7-0.2-1c0-0.2,0.1-0.5,0.3-0.7c0.1-0.1,0.1-0.2,0.3-0.4c0.1-0.1,0.1-0.2,0-0.3c0-0.1,0-0.1-0.1-0.1L49.4,20
					l-0.1-0.1h-0.1l-0.1-0.1c-0.1-0.1-0.1-0.1-0.2-0.2c-0.1-0.1-0.2-0.3-0.3-0.4c-0.2-0.3-0.2-0.6-0.2-0.9s0.2-0.6,0.3-0.8
					c0.2-0.2,0.4-0.4,0.6-0.5c0.4-0.2,0.8-0.3,1-0.4c0.3-0.1,0.4-0.1,0.4-0.1s-0.1-0.1-0.4-0.1c-0.3,0-0.7,0-1.2,0.2
					c-0.2,0.1-0.5,0.3-0.7,0.5c-0.2,0.3-0.4,0.6-0.5,1s0,0.9,0.2,1.3c0.1,0.2,0.2,0.4,0.4,0.5c0.1,0.1,0.2,0.2,0.2,0.2l0.1,0.1h0.1
					l0,0l0,0c0,0-0.1,0.1-0.2,0.2c-0.2,0.3-0.3,0.6-0.4,0.9c-0.1,0.5,0,1.1,0.2,1.5s0.6,0.7,1,0.8c0.4,0.1,0.8,0.1,1.2,0
					c0.1,0,0.2-0.1,0.3-0.1h0.1c0,0,0,0.1,0.1,0.2c0.2,0.5,0.6,0.7,1,0.8c0.3,0.1,0.7,0.1,0.9,0c0.5-0.1,0.7-0.4,0.7-0.4
					C53.7,24,53.5,24.2,53.1,24.2"/>
				<path class="st5" d="M79,27.4L79,27.4c0.1-0.1,0.2-0.2,0.3-0.3c0.1-0.2,0.2-0.3,0.3-0.5c0.1-0.3,0.2-0.7,0.1-1s-0.2-0.5-0.3-0.7
					c-0.3-0.3-0.5-0.3-0.5-0.3s0.2,0.1,0.4,0.4c0.1,0.1,0.2,0.3,0.2,0.5s0,0.5-0.2,0.8c-0.1,0.1-0.2,0.3-0.3,0.4
					c0,0.2-0.1,0.3-0.2,0.3l0,0l0,0h-0.1c0,0-0.1,0-0.2,0.1l-0.1,0.1c0,0,0,0,0,0.1v0.1c0,0.1,0.1,0.2,0.1,0.2c0.1,0,0,0,0,0l0,0
					l0.1,0.1c0.1,0.1,0.2,0.3,0.2,0.5c0.1,0.4,0.1,0.8-0.1,1.1c-0.2,0.3-0.5,0.6-0.9,0.7c-0.3,0.1-0.6,0.1-0.9,0
					c-0.1,0-0.3-0.1-0.4-0.2l-0.2-0.1c-0.1,0-0.1,0-0.2,0c-0.2,0-0.3,0.1-0.3,0.3v0.1c0,0,0,0,0,0.1v0.1c0,0.1-0.1,0.1-0.1,0.2
					c-0.1,0.1-0.2,0.3-0.3,0.4c-0.2,0.2-0.4,0.4-0.7,0.5c-0.5,0.2-1,0.2-1.3,0s-0.5-0.5-0.6-0.7s-0.1-0.4-0.1-0.4s-0.1,0.1,0,0.4
					c0,0.3,0.2,0.7,0.6,1c0.2,0.1,0.4,0.3,0.7,0.3c0.3,0,0.6,0,0.9-0.1s0.6-0.3,0.8-0.6c0.1-0.1,0.2-0.3,0.3-0.5
					c0-0.1,0.1-0.2,0.1-0.3l0.1-0.1c0,0,0,0,0-0.1l0,0l0,0l0,0l0,0h0.1c0.2,0.1,0.3,0.2,0.5,0.2c0.4,0.1,0.8,0.1,1.2,0
					c0.5-0.1,1-0.5,1.2-1c0.3-0.5,0.3-1.1,0.2-1.6C79.3,27.7,79.2,27.4,79,27.4c0.1-0.1,0.1-0.1,0.1-0.2
					C78.9,27.5,78.9,27.5,79,27.4C79,27.5,79,27.4,79,27.4"/>
				<path class="st5" d="M47.4,38.6c-0.1,0-0.1,0-0.3,0.2c-0.1,0.1-0.2,0.3-0.3,0.4c-0.2,0.2-0.4,0.4-0.8,0.6
					c-0.4,0.1-0.8,0.1-1.2-0.2s-0.6-0.8-0.8-1.2c-0.1-0.5-0.1-0.9-0.1-1.2s0.1-0.5,0.1-0.5s-0.1,0.1-0.3,0.4c0,0-0.1,0-0.2,0.1
					c-0.1,0-0.2,0.1-0.4,0.2c-0.2,0.1-0.5,0.2-0.8,0.1c-0.3,0-0.7-0.2-1-0.6c-0.3-0.3-0.4-0.8-0.5-1.2s0-0.8,0-1.1
					c0.1-0.3,0.1-0.4,0.1-0.5c0,0-0.2,0.1-0.3,0.4c-0.1,0.3-0.2,0.7-0.2,1.2c0,0.3,0,0.5,0.1,0.8s0.2,0.5,0.4,0.8
					c0.2,0.2,0.4,0.4,0.6,0.6c0.2,0.1,0.5,0.2,0.7,0.3c0.5,0.1,0.8-0.1,1.1-0.2c0.1-0.1,0.2-0.1,0.3-0.2c0,0.2,0,0.5,0,0.8
					c0.1,0.6,0.3,1.2,0.8,1.6c0.2,0.2,0.5,0.3,0.8,0.4c0.3,0,0.6,0,0.8-0.1c0.5-0.2,0.8-0.5,1-0.8s0.3-0.5,0.3-0.6
					C47.5,38.6,47.4,38.6,47.4,38.6"/>
				<path class="st5" d="M57.3,40.7c-0.1,0-0.1,0-0.2,0.1c-0.1,0-0.2,0.1-0.4,0c-0.2,0-0.3-0.1-0.4-0.3c-0.1-0.2-0.1-0.4-0.1-0.7
					c0.1-0.5,0.4-0.7,0.3-0.8c0,0-0.1,0-0.3,0.1c-0.1,0.1-0.3,0.3-0.4,0.6c-0.1,0.3-0.2,0.7,0,1c0.1,0.2,0.2,0.4,0.3,0.5
					s0.3,0.2,0.5,0.2c0.3,0,0.5,0,0.7-0.1c0.1-0.1,0.2-0.2,0.3-0.2c0.1-0.1,0-0.2,0-0.3C57.5,40.7,57.5,40.6,57.3,40.7"/>
				<path class="st5" d="M82,44.4c-0.1,0-0.2,0.1-0.5,0.2c-0.3,0.1-0.7,0.1-1-0.2s-0.5-0.7-0.4-1c0-0.3,0.1-0.5,0.1-0.6
					c0,0-0.1,0-0.2,0.1s-0.2,0.2-0.2,0.4c-0.1,0.2-0.1,0.5,0,0.8s0.2,0.6,0.5,0.8s0.6,0.3,0.8,0.3c0.3,0,0.5-0.1,0.7-0.2
					C82.1,44.7,82.1,44.4,82,44.4"/>
			</g>
		</g>
		<g>
			<path class="st10" d="M45.6,59l2.2-0.4c0,0,1.2,11.4,12.8,12.4l0.7-13.9l7.1,0.2l0.4,9.9c0,0,11.9-1.8,14.3-11.5h2.1
				c0,0-1.1,11.8-16.4,16.1l1.9,38.1c0,0-0.4,1.6-5.1,1.6s-6.9-1-6.9-1.8c0-0.7,1.7-34.9,1.7-34.9s-6.9,1-11.9-7.1c0,0-6,1.4-9-7.2
				l1.2-1.3c0,0,0.3,5.3,6.7,6.1C47.4,65.4,46.1,64.2,45.6,59"/>
			<path class="st11" d="M46.7,61.2c0.4-0.3,0.6-0.5,1-0.6c0.2,0,0.3-0.1,0.5-0.1c-0.3-1.2-0.4-1.9-0.4-1.9L45.6,59
				c0.1,1,0.2,1.8,0.4,2.6C46.2,61.5,46.5,61.3,46.7,61.2z"/>
			<path class="st11" d="M42,62.4c-1.1-1.6-1.2-3.2-1.2-3.2l-1.2,1.3c0.3,1,0.7,1.8,1.1,2.5C41.1,62.9,41.6,62.7,42,62.4z"/>
			<path class="st11" d="M85.2,55.8h-2.1c-2.4,9.7-14.3,11.5-14.3,11.5l-0.4-9.9l-7.1-0.2l-0.2,4c0.6-0.2,1.1-0.5,1.7-0.7
				c0.1,0,0.1,0,0.2,0.1c0.3,0.8,1.5,0.4,2.1,0.6c0.6,0.3,0.9,0.9,1,1.6c0,1.1-0.3,2.1-0.5,3.2c-0.2,1.5-0.3,3.1-0.4,4.7
				c-0.1,3.1,0.2,6.2,0.7,9.3c0.4,2.4,0.8,4.8,0.3,7.2c0.1,0,0.1,0.1,0.1,0.1c-0.2,3.9-0.5,7.9-0.3,11.8c0.1,2.2,0.3,4.4,0.4,6.6
				c0,2,0,4.1-0.8,5.9h0.1c4.7,0,5.1-1.6,5.1-1.6l-1.9-38.1C84.1,67.6,85.2,55.8,85.2,55.8z"/>
			<path class="st11" d="M82.9,58C83,58,83,58,82.9,58c0.4,0.7,0.9,1,1.4,1.1c0.8-1.9,0.9-3.3,0.9-3.3h-2.1
				c-0.2,0.9-0.6,1.8-0.9,2.6C82.4,58.2,82.7,58.1,82.9,58z"/>
		</g>
		<g>
			<path class="st2" d="M69.1,54.1c-1.4-0.3-2.7,0.3-3.3,1.4c-0.3-0.7-0.9-1.2-1.6-1.2c-0.8,0-1.5,0.6-1.7,1.5
				c-0.4-0.8-1.3-1.4-2.4-1.4c-1.4,0-2.6,1.1-2.6,2.4c0,1.3,1.2,2.4,2.6,2.4c1.2,0,2.2-0.7,2.5-1.7c0.3,0.7,0.9,1.1,1.6,1.1
				c0.6,0,1.2-0.4,1.5-1c0.4,1,1.2,1.8,2.4,2c1.7,0.4,3.2-0.6,3.5-2.1S70.8,54.5,69.1,54.1"/>
			<path class="st2" d="M89.9,53.9c-1-0.9-2.6-0.6-3.7,0.8c-0.1,0.1-0.2,0.2-0.3,0.4c-0.2-0.3-0.5-0.5-0.9-0.5c-0.1,0-0.1,0-0.2,0
				c0.3-0.8,0.1-1.7-0.4-2.2c-0.8-0.7-2.1-0.5-2.9,0.6c0,0,0,0.1-0.1,0.1c-0.2-0.7-0.8-1.2-1.5-1.2c-0.9,0-1.6,0.8-1.6,1.8
				s0.7,1.8,1.6,1.8c0.3,0,0.6-0.1,0.9-0.3c0,0.5,0.2,0.9,0.5,1.2c0.7,0.6,1.7,0.5,2.5-0.2c0.1,0.6,0.6,1,1.1,1c0.1,0,0.2,0,0.3,0
				c0,0.7,0.2,1.3,0.7,1.8c1,0.9,2.6,0.6,3.7-0.8C90.8,56.7,90.8,54.8,89.9,53.9"/>
			<path class="st2" d="M48.1,55.9c-0.7,0-1.3,0.5-1.6,1.2c-0.3-0.4-0.8-0.6-1.3-0.6s-0.9,0.2-1.3,0.6c-0.3-0.5-0.9-0.8-1.5-0.8
				c-0.9,0-1.6,0.7-1.8,1.6c-0.5-0.3-1.2-0.4-1.8-0.1c-1.1,0.4-1.7,1.5-1.4,2.5s1.4,1.5,2.5,1.1c0.8-0.3,1.3-0.9,1.5-1.6
				c0.3,0.2,0.6,0.3,1,0.3c0.5,0,0.9-0.2,1.3-0.6c0.3,0.5,0.9,0.8,1.5,0.8c0.7,0,1.4-0.5,1.7-1.2c0.3,0.4,0.8,0.6,1.3,0.6
				c1,0,1.7-0.9,1.7-1.9C49.8,56.7,49.1,55.9,48.1,55.9"/>
			<g>
				<path class="st5" d="M71.6,57.6c0,0,0,0.2-0.1,0.7c-0.1,0.2-0.2,0.4-0.4,0.7c-0.2,0.2-0.5,0.5-0.8,0.7c-0.6,0.4-1.6,0.5-2.5,0.3
					c-0.5-0.1-1-0.4-1.4-0.7c-0.2-0.2-0.4-0.4-0.6-0.7c-0.1-0.1-0.2-0.3-0.2-0.3l0,0l0,0c0,0,0,0-0.1,0.1l-0.1,0.1
					c-0.1,0.1-0.2,0.1-0.3,0.2c-0.2,0.1-0.4,0.2-0.6,0.3c-0.5,0.1-1,0-1.3-0.3c-0.2-0.1-0.4-0.3-0.5-0.5l0,0l0,0l0,0l0,0l-0.1,0.1
					c0,0.1-0.1,0.1-0.1,0.2c-0.1,0.1-0.2,0.2-0.3,0.3c-0.2,0.2-0.4,0.3-0.6,0.4c-0.4,0.2-0.9,0.3-1.3,0.4c-0.8,0-1.6-0.3-2-0.7
					c-0.2-0.2-0.4-0.5-0.5-0.7s-0.2-0.4-0.2-0.6c-0.1-0.4,0-0.6,0-0.6s0,0.2,0.2,0.5c0.1,0.2,0.1,0.3,0.3,0.5
					c0.1,0.2,0.3,0.4,0.5,0.6c0.4,0.3,1.1,0.6,1.8,0.5c0.4,0,0.7-0.1,1.1-0.3c0.2-0.1,0.3-0.2,0.5-0.4c0.1-0.1,0.1-0.2,0.2-0.2
					l0.1-0.1V58l0.1-0.1c0.1-0.1,0.1-0.2,0.2-0.2c0.1,0,0.2-0.1,0.2,0c0.1,0,0.2,0,0.2,0.1l0.1,0.1l0.1,0.1c0.1,0.1,0.2,0.3,0.4,0.4
					c0.3,0.2,0.6,0.3,1,0.2c0.2,0,0.3-0.1,0.5-0.2c0.1,0,0.1-0.1,0.2-0.2l0.1-0.1l0,0l0.1-0.1l0.1-0.1c0.1,0,0.1,0,0.2,0
					s0.2,0,0.3,0.2c0.2,0.3,0.2,0.3,0.3,0.4c0.1,0.2,0.3,0.4,0.5,0.6c0.4,0.3,0.8,0.6,1.2,0.7c0.8,0.3,1.7,0.2,2.2-0.1
					c0.3-0.1,0.5-0.3,0.7-0.5s0.3-0.4,0.4-0.6C71.5,57.8,71.6,57.6,71.6,57.6"/>
				<path class="st5" d="M96.5,52.8c-0.1-0.3-0.3-0.5-0.4-0.7C95.9,52,95.8,52,95.8,52c-0.1,0.1,0.2,0.4,0.3,0.9
					c0.1,0.3,0.1,0.6,0,1c0,0.4-0.2,0.8-0.4,1.1c-0.2,0.3-0.6,0.5-0.9,0.6s-0.6,0-0.9-0.1s-0.5-0.3-0.6-0.4V55c0,0,0,0-0.1,0
					c0,0,0,0-0.1,0c0,0,0,0,0,0.1c-0.1,0.1-0.2,0.2-0.3,0.3c-0.2,0.2-0.5,0.5-0.8,0.4c-0.1,0-0.2-0.1-0.2-0.1
					c-0.1,0-0.1-0.1-0.2-0.2c-0.1-0.1-0.2-0.3-0.3-0.4c-0.1-0.3-0.1-0.5-0.2-0.5s-0.2,0.2-0.1,0.6c0,0.2,0.1,0.4,0.2,0.7
					c0.1,0.1,0.2,0.2,0.3,0.3c0.1,0.1,0.2,0.1,0.4,0.2c0.2,0,0.3,0,0.5,0c0.1,0,0.3-0.1,0.4-0.2c0.2-0.2,0.3-0.4,0.4-0.5
					c0-0.1,0.1-0.2,0.1-0.3c0.1,0.2,0.2,0.4,0.5,0.5c0.3,0.2,0.7,0.3,1.1,0.3c0.4-0.1,0.9-0.3,1.2-0.8c0.3-0.4,0.5-0.9,0.5-1.4
					C96.7,53.5,96.6,53.1,96.5,52.8"/>
				<path class="st5" d="M89.7,58c0,0-0.2,0.1-0.5,0.4c-0.2,0.1-0.3,0.3-0.6,0.4c-0.2,0.1-0.5,0.2-0.8,0.3s-0.7,0.1-1-0.1
					c-0.3-0.1-0.7-0.3-0.9-0.7c-0.1-0.2-0.2-0.4-0.2-0.6c0-0.1-0.1-0.2-0.1-0.3s0-0.1,0-0.2v-0.1l0,0c0,0,0,0,0-0.1c0,0,0,0,0-0.1
					c0,0,0-0.1-0.1-0.1l-0.1-0.1h-0.1h-0.1h-0.1H85l0,0l0,0l0,0c-0.1,0-0.2,0-0.3-0.1c-0.2-0.1-0.3-0.2-0.4-0.4L84.2,56
					c0-0.1-0.1-0.1-0.2-0.2c-0.1-0.1-0.3-0.1-0.4,0L83.4,56l-0.1,0.1c-0.1,0-0.1,0.1-0.2,0.1c-0.1,0.1-0.3,0.1-0.4,0.1
					c-0.3,0-0.6,0-0.8-0.1c-0.2-0.1-0.4-0.3-0.6-0.6c0-0.1-0.1-0.1-0.1-0.2v-0.1v-0.1v-0.1c0-0.3-0.3-0.4-0.6-0.3l-0.1,0.1h-0.1
					h-0.1c-0.1,0-0.2,0-0.3,0c-0.2,0-0.4,0-0.5-0.1c-0.3-0.1-0.6-0.4-0.7-0.6c-0.1-0.2-0.2-0.5-0.3-0.6c0-0.2-0.1-0.2-0.1-0.2
					s0,0.1,0,0.3s0,0.4,0.2,0.7c0.1,0.3,0.4,0.6,0.8,0.8c0.2,0.1,0.4,0.2,0.7,0.2c0.1,0,0.2,0,0.4,0c0.1,0,0.1,0,0.2,0h0.1h0.1
					c0,0,0.1,0,0,0l0,0v0.1v0.1c0,0.1,0.1,0.2,0.1,0.3c0.2,0.3,0.4,0.6,0.8,0.8c0.3,0.2,0.7,0.2,1.1,0.2c0.2,0,0.4-0.1,0.6-0.2
					c0.1,0,0.2-0.1,0.3-0.1l0.1-0.1l0.1-0.1l0,0l0,0v0.1c0.2,0.3,0.4,0.5,0.7,0.7c0.1,0.1,0.3,0.1,0.4,0.1h0.1l0,0v0.1
					c0,0.1,0.1,0.3,0.1,0.4c0.1,0.3,0.2,0.5,0.3,0.8c0.3,0.5,0.7,0.7,1.2,0.9c0.4,0.1,0.8,0.1,1.2,0c0.4-0.1,0.7-0.2,0.9-0.4
					c0.2-0.2,0.4-0.3,0.6-0.5C89.6,58.2,89.7,58,89.7,58"/>
				<path class="st5" d="M49.8,57.8c0,0,0.1,0.1,0,0.4c0,0.2-0.1,0.6-0.3,0.9c-0.2,0.4-0.7,0.7-1.2,0.8c-0.3,0-0.6,0-0.9-0.1
					c-0.2-0.1-0.3-0.1-0.4-0.3l0,0l0,0c0,0,0,0.1-0.1,0.1c0,0.1-0.1,0.1-0.1,0.2c-0.1,0.1-0.2,0.2-0.3,0.3c-0.3,0.2-0.6,0.3-0.9,0.4
					c-0.3,0-0.7,0-1-0.1c-0.2-0.1-0.3-0.2-0.5-0.3C44,60,44,60,43.9,59.9s-0.2-0.2-0.1-0.1l0,0c0,0-0.1,0-0.1,0.1
					c-0.1,0-0.1,0.1-0.2,0.1c-0.1,0.1-0.2,0.1-0.3,0.2c-0.2,0.1-0.5,0.1-0.7,0.1s-0.5-0.1-0.7-0.1c-0.1,0-0.1,0-0.2-0.1l0,0l0,0l0,0
					v0.1l-0.1,0.1c-0.1,0.1-0.1,0.2-0.2,0.3c-0.1,0.2-0.3,0.3-0.4,0.4c-0.3,0.3-0.6,0.4-0.9,0.5c-0.6,0.2-1.2,0.1-1.7-0.1
					c-0.4-0.2-0.7-0.6-0.8-0.8c-0.1-0.3-0.1-0.4-0.1-0.4s0.1,0.1,0.2,0.3c0.1,0.2,0.4,0.4,0.8,0.6c0.4,0.1,0.9,0.2,1.4,0
					c0.3-0.1,0.5-0.3,0.7-0.5c0.1-0.1,0.2-0.2,0.3-0.4c0-0.1,0.1-0.1,0.1-0.2l0.1-0.1v-0.1v-0.1c0-0.1,0.1-0.2,0.1-0.2
					c0.1-0.1,0.2-0.1,0.2-0.1c0.1,0,0.2,0.1,0.2,0.1s0.1,0,0.1,0.1c0.2,0.1,0.3,0.1,0.5,0.1s0.4,0,0.5-0.1c0.1,0,0.2-0.1,0.2-0.1
					s0.1,0,0.1-0.1c0,0,0.1,0,0.2-0.1c0.1-0.1,0.4-0.1,0.5,0s0.1,0.2,0.2,0.2c0,0,0.1,0.1,0.2,0.1c0.1,0.1,0.2,0.1,0.3,0.2
					c0.2,0.1,0.5,0.1,0.7,0.1s0.5-0.1,0.7-0.3c0.1-0.1,0.2-0.1,0.3-0.2l0.1-0.1c0-0.1,0.1-0.1,0.1-0.2c0-0.1,0.1-0.1,0.1-0.2
					c0.1,0,0.1-0.1,0.2,0c0.1,0,0.2,0.1,0.3,0.2c0.1,0.1,0.2,0.2,0.3,0.2c0.2,0.1,0.5,0.1,0.7,0.1c0.5,0,0.8-0.3,1.1-0.6
					c0.2-0.3,0.3-0.6,0.4-0.8C49.8,57.9,49.8,57.8,49.8,57.8"/>
			</g>
		</g>
	</g>
</g>
<linearGradient id="SVGID_1_" gradientUnits="userSpaceOnUse" x1="38" y1="16" x2="38" y2="64" gradientTransform="matrix(1 0 0 -1 0 128)">
	<stop  offset="0" style="stop-color:#724D3D"/>
	<stop  offset="1" style="stop-color:#876553"/>
</linearGradient>
<circle class="st12" cx="38" cy="88" r="24"/>
<g>
	<path class="st13" d="M51.9,88.1c-0.4,2.2-1.5,4.3-2.6,6.3c-3.6,6-10.5,7.3-17.2,7.5c-1.8,0-3.7,0-5.4-0.6
		c-0.4-0.2-3.2-1.5-3.6-3.9c-0.4-2,1.4-3.1,3.4-6.3c3.5-5.4,1.7-7.4,5-11.7c1.2-1.6,3.1-4,6.3-4.9c3.8-1.1,8.1,0.3,10.8,3
		c2.4,2.3,3.9,6.7,3.4,9.9C52,87.7,52,87.9,51.9,88.1z"/>
	<path class="st14" d="M44.5,80c-2.5,0.3-4.9,1.2-6.9,2.6c-0.7,0.5-1.6,1-2.4,0.5c-0.2-0.1-0.3-0.4-0.4-0.6c-0.6-1.4,0.3-3,1.5-4
		c2.1-1.8,5.2-2.6,8-2.1C47.7,77.2,48.2,79.5,44.5,80z"/>
	<path class="st15" d="M35.1,100.7c0.1,0,0.2-0.1,0.2-0.1c0.1-0.1,0-0.3,0-0.4c-0.4-0.7-1.3-0.8-2-0.8c-1.6-0.1-3.3-0.6-4.7-1.4
		c-1.3-0.7-2.6-1.8-4-1.7c-0.2,0-0.3,0-0.5,0.1c-0.1,0.1-0.2,0.2-0.2,0.4c-0.2,0.7,0.1,1.5,0.6,2s1.1,0.8,1.8,1.1
		C29.2,101,32.2,101.6,35.1,100.7z"/>
	<path class="st16" d="M49.3,78.9c-0.1,0.1-0.1,0.3-0.2,0.4c0,0.4,0.3,1.1,0.5,1.4c0.1,0.2,0.4,0.4,0.6,0.4h0.1l0.1-0.1
		c0.1-0.6-0.4-1-0.6-1.6c-0.1-0.1-0.1-0.3-0.2-0.4C49.6,78.8,49.4,78.8,49.3,78.9z"/>
	<path class="st17" d="M49.6,79.5c0.2-0.4,1.1-0.8,1.5-0.4c0,0.1,0.1,0.1,0.1,0.2c0.1,0.1,0.1,0.3,0.1,0.4c-0.1,0.3-0.8,0.4-1,0.5
		c-0.1,0-0.1,0.1-0.2,0.1c-0.1,0-0.2-0.1-0.2-0.1C49.6,79.9,49.5,79.7,49.6,79.5z"/>
	<g>
		<path class="st18" d="M48.7,82.4c-0.9,2.8-0.8,5.9,0.1,8.8s2.4,5.6,4.2,8c-0.6-3.2,0-6.6,0.1-9.8c0.1-2.2-0.1-4.6-1-6.7
			c-0.2-0.5-1-2.6-1.7-2.6C49.5,79.9,48.8,81.8,48.7,82.4z"/>
		<path class="st19" d="M50.3,80c-0.7-0.4-1.5,2-1.6,2.4c-0.9,2.8-0.8,5.9,0.1,8.8c0.8,2.8,2.3,5.6,4.1,7.9
			c-0.4-0.5-0.4-1.2-0.6-1.8c-0.2-0.7-0.5-1.4-0.7-2c-1-3.2-1.2-6.7-1-10c0.1-0.9,0.2-1.8,0.2-2.6c0-0.5,0-0.9-0.1-1.4
			C50.6,81.1,50.5,80.2,50.3,80L50.3,80z"/>
	</g>
</g>
<circle class="st20" cx="92" cy="88" r="24"/>
<g>
	<g>
		<g>
			<path class="st21" d="M77.6,98c0,0-0.6,2,4-0.8c4.6-2.8,16-4.9,21.5-4.3c5.5,0.7,1.6-12.2-2.4-14.3C96.5,76.7,84,85.6,77.6,98z"
				/>
		</g>
		<g class="st22">
			<path class="st23" d="M78,97.6c0,0-1,2.4,3.6-0.4s16-4.9,21.5-4.3s1.6-12.2-2.4-14.3C96.5,76.7,84.4,85.2,78,97.6z"/>
		</g>
		<g>
			<path class="st23" d="M78.4,98.8c-0.3,0-0.4,0-0.5-0.1c-0.4-0.4-0.2-1.1-0.2-1.1s0,0,0,0c2.9-5.7,6.8-10,9.4-12.4
				c3.4-3.2,6.9-5.6,9.8-6.4c1.6-0.5,2.9-0.5,3.9-0.1c1.5,0.8,3,2.9,4,5.7c1.1,2.8,1.4,5.6,0.9,7.2c-0.4,1.2-1.2,1.8-2.3,1.8
				c-0.1,0-0.3,0-0.4,0c-5.6-0.7-16.9,1.6-21.3,4.3C80.2,98.4,79.2,98.8,78.4,98.8z M78,97.7c0,0.1-0.1,0.4,0,0.6
				c0.1,0.1,0.8,0.4,3.4-1.2c2.1-1.3,6-2.6,10.5-3.5c4.4-0.8,8.5-1.2,11.1-0.8c1.2,0.1,1.9-0.4,2.3-1.5c0.5-1.6,0.1-4.2-0.9-6.9
				c-1.1-2.7-2.5-4.8-3.9-5.5c-0.8-0.4-2-0.4-3.6,0.1c-2.8,0.9-6.3,3.2-9.6,6.4C84.8,87.8,81,92,78,97.7z"/>
		</g>
		<g>
			<g>
				<path class="st24" d="M100.9,81.2c-0.7-0.1,0-0.4-0.8-1.2s-1.7-0.1-1.7-0.1c0.1-0.3,0.2-0.6,0-0.8c-0.7-1-2.7-0.4-3.3-1.2
					c-0.7-0.8-2.4,0-2.4,0s-10,6-12.8,12.8c-2.8,6.8-2.7,8.9-1.4,8.4c1.2-0.4,2.1-1.6,3.1-0.7c0.9,0.8-0.2,2.4,0.8,3.2
					c0.6,0.4,2-0.4,1.3-1.5c-0.7-1.2-1.6-3.3,0-4.5c1.6-1.2,5.1-1.8,4.8-0.1c-0.5,4,3.8,2.3,2.4,0.6c-1.2-1.5-0.1-4,2.4-2.6
					c2.1,1.2,1.9-0.4,4-1.1c1.6-0.5,4.4-0.5,4.4-0.5c2-1.2,0.2-1.7,0.2-1.7s1.7-1.3,1.2-2.2c-0.4-0.9-0.2-2.3-0.2-3.7
					C103.2,82.5,101.6,81.3,100.9,81.2z"/>
			</g>
			<g class="st22">
				<path class="st23" d="M100.9,81.2c-0.7-0.1,0-0.4-0.8-1.2s-1.7-0.1-1.7-0.1c0.1-0.3,0.2-0.6,0-0.8c-0.7-1-2.7-0.4-3.3-1.2
					c-0.7-0.8-2.4,0-2.4,0s-0.3,0.1-0.7,0.4c3.1,0.8,9.6,3.5,8.4,12.8c0,0-12.4,0.9-15.9,3c-2.4,1.6-4.9,4.4-6.8,4.8
					c0.1,0.4,0.4,0.4,0.8,0.3c1.2-0.4,2.1-1.6,3.1-0.7c0.9,0.8-0.2,2.4,0.8,3.2c0.6,0.4,2-0.4,1.3-1.5s-1.6-3.3,0-4.5
					c1.6-1.2,5.1-1.8,4.8-0.1c-0.5,4,3.8,2.3,2.4,0.6c-1.2-1.5-0.1-4,2.4-2.6c2.1,1.2,1.9-0.4,4-1.1c1.6-0.5,4.4-0.5,4.4-0.5
					c2-1.2,0.2-1.7,0.2-1.7s1.7-1.3,1.2-2.2c-0.4-0.9-0.2-2.3-0.2-3.7C103.2,82.5,101.6,81.3,100.9,81.2z"/>
			</g>
			<g class="st25">
				<g>
					<path class="st26" d="M101.5,81.5c0,0,0.1,0,0.2,0c-0.2-0.1-0.4-0.3-0.5-0.3C101.2,81.3,101.2,81.5,101.5,81.5z"/>
				</g>
				<g>
					<path class="st26" d="M102.5,90.3L102.5,90.3L102.5,90.3L102.5,90.3z"/>
				</g>
				<g>
					<path class="st26" d="M98.9,80.1c0,0,0.5-0.4,1.2-0.2c-0.4-0.4-0.8-0.4-1.1-0.4C99.1,79.7,99,79.9,98.9,80.1z"/>
				</g>
				<g>
					<path class="st26" d="M98.3,78.8c-0.7-0.6-1.8-0.4-2.6-0.7C96.2,78.7,97.4,78.5,98.3,78.8z"/>
				</g>
				<g>
					<path class="st26" d="M92.7,77.7c0,0-4.4,2.7-8.2,6.4c0,0-0.1,0.1-0.2,0.2c0,0-0.1,0.1-0.1,0.1c-1.7,1.8-3.3,3.9-4.3,6
						c-2.7,6.4-2.7,8.7-1.6,8.5c-0.4-0.8,0.1-3.3,2.1-8.2c0.8-1.9,2-3.6,3.5-5.2c0,0,0,0.1,0.1,0.1c0.3,0.3,0.9,0.2,1.3-0.3
						c0.4-0.5,0.5-1.1,0.2-1.4c0,0,0,0-0.1,0c3.7-3.5,7.5-6.2,7.5-6.2s1.3-0.2,2,0C94.4,76.9,92.7,77.7,92.7,77.7z"/>
				</g>
			</g>
			<g>
				<path class="st23" d="M82.8,101.7c-0.2,0-0.4,0-0.5-0.1c-0.7-0.4-0.7-1.2-0.6-1.9c0-0.5,0-1.1-0.3-1.3c-0.5-0.4-1-0.3-1.8,0.3
					c-0.3,0.2-0.7,0.4-1.1,0.5c-0.4,0.1-0.7,0-0.8-0.1c-0.9-0.9,0.5-5.2,2-8.6c1.5-3.6,4.9-6.9,7.5-9.1c2.8-2.3,5.3-3.8,5.3-3.9l0,0
					c0,0,1.8-0.8,2.6,0.1c0.3,0.3,0.8,0.4,1.4,0.4c0.7,0,1.5,0.1,2,0.8c0.1,0.1,0.1,0.4,0.1,0.5c0.4-0.1,1.1-0.1,1.6,0.4
					c0.5,0.5,0.5,0.8,0.5,1.1c0,0,0,0,0,0.1c0,0,0,0,0.1,0l0,0c0.8,0.1,2.4,1.5,2.4,3.1c0,0.3,0,0.7,0,0.9c0,1.1-0.1,2,0.2,2.7
					c0.4,0.8-0.5,1.8-1.1,2.3c0.3,0.1,0.5,0.4,0.5,0.7c0,0.4-0.3,0.8-1.1,1.3c0,0,0,0-0.1,0c0,0-2.8,0-4.4,0.5
					c-0.8,0.3-1.2,0.6-1.6,0.9c-0.7,0.6-1.2,0.9-2.5,0.1c-0.9-0.5-1.7-0.5-2.2,0c-0.5,0.6-0.4,1.6,0,2.3c0.4,0.5,0.4,1.1,0,1.6
					C90.8,98,90,98.2,89.3,98c-0.4-0.2-1.2-0.8-0.9-2.6c0-0.3,0-0.4-0.3-0.5c-0.8-0.4-3.1,0-4.3,0.9c-1.5,1.1-0.4,3.3,0.1,4.2
					c0.4,0.5,0.3,1.2-0.2,1.6C83.6,101.6,83.2,101.7,82.8,101.7z M80.8,97.7c0.3,0,0.6,0.1,0.8,0.4c0.5,0.4,0.4,1.2,0.4,1.7
					c0,0.6,0,1.2,0.4,1.5c0.3,0.1,0.7,0.1,0.9-0.2c0.2-0.1,0.4-0.5,0.1-1.1c-0.6-1-1.7-3.5,0-4.8c1.2-0.9,3.6-1.6,4.7-0.9
					c0.4,0.2,0.5,0.5,0.4,1c-0.1,1.2,0.1,2,0.7,2.1c0.4,0.2,1.1,0,1.4-0.4c0.1-0.2,0.3-0.5,0-1.1c-0.7-0.8-0.7-2,0-2.8
					c0.6-0.7,1.6-0.8,2.8-0.1c1.2,0.7,1.5,0.4,2.1-0.1c0.4-0.4,0.8-0.8,1.7-1c1.5-0.5,4-0.5,4.4-0.5c0.7-0.4,0.8-0.7,0.8-0.8
					c0-0.3-0.4-0.4-0.6-0.5c0,0-0.1-0.1-0.1-0.1c0-0.1,0-0.1,0.1-0.2c0.4-0.3,1.5-1.3,1.2-2c-0.4-0.8-0.3-1.8-0.3-2.9
					c0-0.3,0-0.6,0-0.9c0-1.3-1.4-2.4-2-2.6c-0.4-0.1-0.4-0.3-0.4-0.5c0-0.1,0-0.4-0.4-0.8c-0.7-0.7-1.5-0.1-1.5-0.1
					c-0.1,0-0.2,0-0.3,0c0,0-0.1-0.1,0-0.3c0.2-0.4,0.1-0.5,0-0.6c-0.4-0.4-0.9-0.5-1.6-0.6c-0.7,0-1.3-0.1-1.7-0.6
					c-0.5-0.5-1.6-0.2-2.1,0c-0.2,0.1-2.6,1.6-5.3,3.8c-2.5,2.1-6,5.3-7.4,8.8c-1.1,2.5-1.7,4.5-2,6c-0.4,1.6-0.1,2.1,0,2.2
					c0,0,0.1,0.1,0.4,0c0.4-0.1,0.7-0.3,0.9-0.5C79.9,98,80.4,97.7,80.8,97.7z"/>
			</g>
		</g>
		<g>
			<path class="st23" d="M94.2,91.6c1.2-0.2,2.4-0.4,3.6-0.5c0.6-0.1,1.2-0.1,1.9-0.2c0.6,0,1.2-0.1,1.9-0.1c0.1,0,0.2,0.1,0.2,0.2
				c0,0.1-0.1,0.2-0.2,0.2l0,0l0,0c-0.6,0-1.2,0-1.8,0c-0.6,0-1.2,0-1.8,0.1C96.7,91.2,95.4,91.4,94.2,91.6z"/>
		</g>
	</g>
	<g class="st22">
		<g>
			<path class="st23" d="M98.1,78.7L98.1,78.7L98.1,78.7L98.1,78.7z"/>
		</g>
		<g>
			<path class="st23" d="M102.8,82.9c0,1.5-0.3,2.8,0.2,3.7c0,0,0,0.1,0,0.1c-0.1-0.8,0-1.8,0-2.8C103.1,83.6,103,83.2,102.8,82.9
				C102.8,82.8,102.8,82.9,102.8,82.9z"/>
		</g>
		<g>
			<path class="st23" d="M103.1,86.9c0,0.8-1.3,1.9-1.3,1.9s0.7,0.2,0.8,0.7c0.4-0.4,1.1-1.2,0.8-1.8
				C103.2,87.5,103.1,87.2,103.1,86.9z"/>
		</g>
	</g>
	<g>
		<g>
			<ellipse transform="matrix(0.8397 -0.543 0.543 0.8397 -29.4249 64.2275)" class="st27" cx="94.1" cy="82" rx="3.1" ry="2.4"/>
		</g>
		<g class="st25">
			<path class="st26" d="M94.5,84.4c-1.5,0.4-2.8-0.4-2.9-1.7c-0.1-1.3,1-2.7,2.5-3.1c1.1-0.3,2.1,0,2.6,0.8
				c-0.5-0.8-1.6-1.2-2.8-0.9c-1.6,0.4-2.8,1.9-2.7,3.3c0.1,1.4,1.6,2.2,3.1,1.8c0.4-0.1,0.8-0.3,1.2-0.5
				C95.2,84.1,94.8,84.3,94.5,84.4z"/>
		</g>
		<g>
			<path class="st28" d="M94.3,80l0.4,3.7c0.9-0.4,1.6-1.4,1.6-2.3C96.1,80.4,95.3,79.9,94.3,80z"/>
		</g>
		<g>
			<path class="st28" d="M93.4,80.2c-0.9,0.4-1.6,1.4-1.5,2.3c0.1,0.9,0.9,1.5,1.9,1.4L93.4,80.2z"/>
		</g>
		<g>
			<path class="st28" d="M93.4,80.2c-0.9,0.4-1.6,1.4-1.5,2.3c0.1,0.9,0.9,1.5,1.9,1.4L93.4,80.2z"/>
		</g>
		<g>
			<path class="st27" d="M93.6,81.5c-0.3,0.1-0.5,0.4-0.5,0.8c0,0.3,0.3,0.5,0.6,0.4L93.6,81.5z"/>
		</g>
		<g>
			<path class="st27" d="M94.4,81.2c0.3,0,0.6,0.1,0.6,0.4c0,0.3-0.2,0.6-0.5,0.8L94.4,81.2z"/>
		</g>
		<g>
			<path class="st23" d="M93.5,84.8c-0.6,0-1.1-0.1-1.6-0.4c-0.5-0.4-0.8-0.9-0.9-1.6c-0.1-1.5,1.1-3.1,2.8-3.5
				c0.9-0.3,1.8-0.1,2.4,0.4c0.5,0.4,0.8,0.9,0.9,1.6c0.1,1.5-1.1,3.1-2.8,3.5C94,84.8,93.7,84.8,93.5,84.8z M94.7,79.5
				c-0.3,0-0.5,0-0.8,0.1c-1.5,0.4-2.7,1.8-2.5,3.1c0,0.5,0.3,1.1,0.8,1.3c0.5,0.4,1.3,0.5,2.1,0.3c1.5-0.4,2.7-1.8,2.5-3.1
				c0-0.5-0.3-1.1-0.8-1.3C95.6,79.6,95.2,79.5,94.7,79.5z"/>
		</g>
		<g>
			<g>
				<path class="st29" d="M93.1,83.1c0,0,0,0.1,0,0.1c0,0,0,0.1,0,0.1c0,0,0,0.1-0.1,0.1c0,0-0.1,0-0.1-0.1c0,0,0,0,0,0
					C92.9,83.2,93,83.2,93.1,83.1C93,83.2,93.1,83.2,93.1,83.1z"/>
			</g>
			<g>
				<path class="st29" d="M92.7,82.8c0,0,0,0.1,0,0.1c0,0,0,0.1,0,0.1c0,0-0.1,0-0.2,0c0,0,0-0.1,0-0.2c0,0,0,0,0,0c0,0,0.1,0,0.1,0
					C92.5,82.8,92.6,82.8,92.7,82.8z"/>
			</g>
			<g>
				<path class="st29" d="M92.5,82.1C92.5,82.2,92.5,82.2,92.5,82.1c-0.1,0.1-0.1,0.1-0.2,0.2c0,0-0.1,0-0.1,0c0,0,0-0.1,0-0.1h0
					C92.4,82.1,92.4,82.1,92.5,82.1C92.4,82.1,92.5,82.1,92.5,82.1z"/>
			</g>
			<g>
				<path class="st29" d="M92.8,81.5c0,0-0.1,0-0.1,0c0,0-0.1,0-0.1,0s-0.1-0.1-0.1-0.1c0,0,0.1-0.1,0.1-0.1h0
					C92.7,81.3,92.7,81.4,92.8,81.5C92.8,81.5,92.8,81.5,92.8,81.5z"/>
			</g>
			<g>
				<path class="st29" d="M93.3,81.1c0,0-0.1,0-0.1,0c0,0-0.1,0-0.1-0.1c0,0,0-0.1,0-0.2c0,0,0.1,0,0.2,0c0,0,0,0,0,0
					C93.3,80.9,93.3,81,93.3,81.1C93.3,81,93.3,81,93.3,81.1z"/>
			</g>
		</g>
		<g>
			<g>
				<path class="st29" d="M95.2,82.5c0,0,0.1,0,0.1,0.1c0,0,0,0,0.1,0.1c0,0,0,0.1,0,0.2c0,0-0.1,0-0.2,0c0,0,0,0,0,0
					c0,0,0-0.1,0-0.1C95.2,82.6,95.2,82.6,95.2,82.5z"/>
			</g>
			<g>
				<path class="st29" d="M95.5,82c0,0,0.1,0,0.1,0c0,0,0.1,0,0.1,0s0.1,0.1,0.1,0.1c0,0-0.1,0.1-0.1,0.1h0c0,0,0,0-0.1-0.1
					C95.6,82.1,95.5,82,95.5,82z"/>
			</g>
			<g>
				<path class="st29" d="M95.5,81.3C95.6,81.3,95.6,81.3,95.5,81.3c0.1-0.1,0.1-0.1,0.2-0.1c0,0,0.1,0,0.1,0s0,0.1,0,0.1h0
					C95.7,81.4,95.6,81.4,95.5,81.3C95.6,81.4,95.6,81.4,95.5,81.3z"/>
			</g>
			<g>
				<path class="st29" d="M95.2,80.9c0,0,0-0.1,0-0.1s0-0.1,0-0.1c0,0,0.1,0,0.2,0c0,0,0,0.1,0,0.2c0,0,0,0,0,0c0,0-0.1,0-0.1,0
					C95.2,80.8,95.2,80.8,95.2,80.9z"/>
			</g>
			<g>
				<path class="st29" d="M94.6,80.8c0,0,0-0.1,0-0.1c0,0,0-0.1,0-0.1c0,0,0-0.1,0.1-0.1c0.1,0,0.1,0,0.1,0.1c0,0,0,0,0,0
					C94.8,80.6,94.7,80.7,94.6,80.8C94.7,80.6,94.7,80.7,94.6,80.8z"/>
			</g>
		</g>
		<g>
			<path class="st28" d="M94.7,83.8C94.6,83.8,94.6,83.8,94.7,83.8c-0.1-0.1-0.2-0.1-0.2-0.2L94.1,80c0,0,0-0.1,0-0.1c0,0,0,0,0.1,0
				c1.1-0.1,2,0.5,2.1,1.6C96.4,82.3,95.8,83.3,94.7,83.8C94.7,83.8,94.7,83.8,94.7,83.8z M94.5,80.1l0.3,3.2c0.8-0.4,1.3-1.2,1.2-2
				C96,80.6,95.3,80.1,94.5,80.1L94.5,80.1z"/>
		</g>
		<g>
			<path class="st28" d="M93.6,84.1c-1,0-1.8-0.7-1.9-1.6c-0.1-0.9,0.5-2,1.6-2.4c0,0,0.1,0,0.1,0c0,0,0.1,0.1,0.1,0.1l0.4,3.7
				c0,0,0,0.1,0,0.1c0,0,0,0-0.1,0C93.7,84.1,93.6,84.1,93.6,84.1z M93.2,80.5c-0.8,0.4-1.2,1.2-1.2,2c0,0.8,0.7,1.2,1.5,1.2
				L93.2,80.5z"/>
		</g>
	</g>
	<g>
		<g>
			<ellipse transform="matrix(0.8397 -0.543 0.543 0.8397 -34.0279 61.7798)" class="st27" cx="87.6" cy="88.5" rx="2.8" ry="2.3"/>
		</g>
		<g class="st25">
			<path class="st26" d="M88.1,90.8c-1.4,0.4-2.7-0.4-2.8-1.6c-0.1-1.2,0.9-2.5,2.4-2.9c1.1-0.3,2,0,2.4,0.7
				c-0.4-0.8-1.5-1.2-2.7-0.8c-1.5,0.4-2.6,1.7-2.5,3.1c0.1,1.3,1.5,2,2.9,1.6c0.4-0.1,0.8-0.3,1.1-0.5
				C88.7,90.6,88.4,90.8,88.1,90.8z"/>
		</g>
		<g>
			<path class="st28" d="M87.9,86.7l0.3,3.5c0.9-0.4,1.6-1.3,1.5-2.1C89.6,87.2,88.8,86.6,87.9,86.7z"/>
		</g>
		<g>
			<path class="st28" d="M87.1,86.9c-0.9,0.4-1.5,1.3-1.4,2.1s0.8,1.4,1.7,1.3L87.1,86.9z"/>
		</g>
		<g>
			<path class="st28" d="M87.1,86.9c-0.9,0.4-1.5,1.3-1.4,2.1s0.8,1.4,1.7,1.3L87.1,86.9z"/>
		</g>
		<g>
			<path class="st27" d="M87.2,88.1c-0.3,0.1-0.5,0.4-0.4,0.7c0,0.3,0.3,0.4,0.5,0.4L87.2,88.1z"/>
		</g>
		<g>
			<path class="st27" d="M88,87.9c0.3,0,0.5,0.1,0.5,0.4c0,0.3-0.2,0.5-0.4,0.7L88,87.9z"/>
		</g>
		<g>
			<path class="st23" d="M87.1,91.2c-0.5,0-1.1-0.1-1.5-0.4c-0.5-0.4-0.8-0.9-0.8-1.5c-0.1-1.4,1.1-2.8,2.6-3.2
				c0.8-0.2,1.7-0.1,2.3,0.4c0.5,0.4,0.8,0.9,0.8,1.5l0,0c0.1,1.4-1.1,2.8-2.6,3.2C87.6,91.2,87.3,91.2,87.1,91.2z M88.2,86.3
				c-0.3,0-0.5,0-0.8,0.1C86,86.7,85,88,85.1,89.2c0,0.5,0.3,0.9,0.7,1.2c0.5,0.4,1.2,0.4,2,0.3c1.4-0.4,2.4-1.6,2.4-2.9l0,0
				c0-0.5-0.3-0.9-0.7-1.2C89.1,86.4,88.7,86.3,88.2,86.3z"/>
		</g>
		<g>
			<g>
				<path class="st29" d="M87,89.7C87.1,89.7,87.1,89.8,87,89.7c0,0.1,0.1,0.2,0.1,0.2c0,0,0,0.1-0.1,0.1s-0.1,0-0.1-0.1
					c0,0,0,0,0,0S86.9,89.8,87,89.7C87,89.7,87,89.7,87,89.7z"/>
			</g>
			<g>
				<path class="st29" d="M86.5,89.5c0,0,0,0.1,0,0.1c0,0,0,0.1,0,0.1c0,0-0.1,0.1-0.1,0c0,0-0.1-0.1,0-0.1l0,0c0,0,0,0,0.1-0.1
					C86.4,89.6,86.5,89.5,86.5,89.5z"/>
			</g>
			<g>
				<path class="st29" d="M86.3,89c0,0,0,0.1,0,0.1c0,0,0,0.1-0.1,0.1c0,0-0.1,0-0.1,0c0,0,0-0.1,0-0.1l0,0c0,0,0.1,0,0.1,0
					S86.3,89,86.3,89z"/>
			</g>
			<g>
				<path class="st29" d="M86.4,88.4C86.3,88.5,86.3,88.5,86.4,88.4c-0.1,0-0.2,0.1-0.2,0.1c0,0-0.1,0-0.1-0.1c0,0,0-0.1,0.1-0.1
					c0,0,0,0,0,0C86.3,88.4,86.3,88.4,86.4,88.4C86.3,88.4,86.3,88.4,86.4,88.4z"/>
			</g>
			<g>
				<path class="st29" d="M86.7,88c0,0-0.1,0-0.1,0c0,0-0.1,0-0.1,0c0,0,0-0.1,0-0.1c0,0,0.1,0,0.1,0l0,0c0,0,0,0,0,0.1
					C86.7,87.8,86.7,87.9,86.7,88z"/>
			</g>
		</g>
		<g>
			<g>
				<path class="st29" d="M88.7,89.1C88.8,89.2,88.8,89.2,88.7,89.1c0.1,0.1,0.1,0.1,0.2,0.2s0,0.1,0,0.1c0,0-0.1,0-0.1,0
					c0,0,0,0,0,0C88.7,89.3,88.7,89.2,88.7,89.1C88.7,89.2,88.7,89.2,88.7,89.1z"/>
			</g>
			<g>
				<path class="st29" d="M89,88.6c0,0,0.1,0,0.1,0c0,0,0.1,0,0.1,0c0,0,0.1,0.1,0,0.1c0,0-0.1,0.1-0.1,0c0,0,0,0,0,0
					C89,88.8,89,88.7,89,88.6C89.1,88.6,89.1,88.6,89,88.6z"/>
			</g>
			<g>
				<path class="st29" d="M89,88C89,88,89,88,89,88c0.1-0.1,0.1-0.1,0.2-0.1c0,0,0.1,0,0.1,0c0,0,0,0.1,0,0.1c0,0,0,0,0,0
					C89.2,88,89.1,88,89,88C89.1,88,89.1,88,89,88z"/>
			</g>
			<g>
				<path class="st29" d="M88.7,87.6c0,0,0-0.1,0-0.1c0,0,0-0.1,0-0.1c0,0,0.1,0,0.1,0c0,0,0,0.1,0,0.1l0,0c0,0,0,0-0.1,0
					C88.8,87.6,88.8,87.6,88.7,87.6z"/>
			</g>
			<g>
				<path class="st29" d="M88.2,87.4c0,0,0-0.1,0-0.1c0,0,0-0.1,0-0.1c0,0,0-0.1,0.1-0.1c0,0,0.1,0,0.1,0.1l0,0c0,0,0,0.1,0,0.1
					C88.3,87.3,88.3,87.4,88.2,87.4z"/>
			</g>
		</g>
		<g>
			<path class="st28" d="M88.2,90.4C88.2,90.4,88.2,90.4,88.2,90.4c-0.1-0.1-0.2-0.1-0.2-0.2l-0.3-3.5c0,0,0-0.1,0-0.1
				c0,0,0.1,0,0.1,0c1.1-0.1,1.9,0.5,2,1.5c0.1,0.9-0.5,1.9-1.6,2.4C88.3,90.4,88.3,90.4,88.2,90.4z M88.1,86.9l0.3,3
				c0.7-0.4,1.2-1.2,1.1-1.9C89.4,87.3,88.8,86.9,88.1,86.9z"/>
		</g>
		<g>
			<path class="st28" d="M87.2,90.6c-0.9,0-1.7-0.6-1.8-1.5c-0.1-0.9,0.5-1.9,1.6-2.3c0,0,0.1,0,0.1,0c0,0,0.1,0.1,0.1,0.1l0.3,3.5
				c0,0,0,0.1,0,0.1c0,0-0.1,0-0.1,0C87.3,90.6,87.3,90.6,87.2,90.6z M86.9,87.2c-0.7,0.4-1.2,1.2-1.1,1.9c0,0.7,0.6,1.2,1.3,1.2
				L86.9,87.2z"/>
		</g>
	</g>
	<g>
		<g>
			<g>
				<path class="st30" d="M83.9,88.2c-2,0.1-2,1.1-1.3,2.6C83.7,90.3,84.4,89.4,83.9,88.2z"/>
			</g>
			<g>
				<path class="st31" d="M82.4,91.1C82.4,91.1,82.4,91.1,82.4,91.1c-0.1,0-0.1,0-0.1-0.1c-0.3-0.8-0.5-1.7-0.1-2.4
					c0.3-0.4,0.8-0.6,1.7-0.7c0,0,0.1,0,0.1,0.1c0.3,0.5,0.3,0.9,0.1,1.5C84,90.1,83.4,90.8,82.4,91.1
					C82.5,91.1,82.5,91.1,82.4,91.1z M83.7,88.4c-0.7,0-1.1,0.2-1.2,0.5c-0.3,0.4-0.1,1.2,0.1,1.8c0.7-0.4,1.1-0.8,1.2-1.2
					C84,89.1,83.9,88.8,83.7,88.4z"/>
			</g>
			<g>
				<path class="st32" d="M84,88.4c-0.1,0-0.3,0.1-0.4,0.3c-0.1,0.1-0.3,0.2-0.4,0.4c-0.2,0.3-0.4,0.5-0.5,0.8c0-0.2,0-0.4,0-0.5
					c0-0.1,0.1-0.4,0.2-0.5c0.1-0.1,0.2-0.3,0.3-0.4c0.1-0.1,0.3-0.3,0.5-0.3c0.1,0,0.2,0,0.2,0.1C84,88.3,84,88.3,84,88.4L84,88.4z
					"/>
			</g>
		</g>
		<g>
			<g>
				<path class="st30" d="M87.4,82.8c1.7-0.9,2.3,0,2.5,1.6C88.7,84.6,87.6,84.3,87.4,82.8z"/>
			</g>
			<g>
				<path class="st31" d="M89.6,84.8c-0.8,0-1.3-0.2-1.7-0.5c-0.4-0.3-0.6-0.8-0.6-1.3c0,0,0-0.1,0.1-0.1c0.8-0.4,1.3-0.5,1.8-0.3
					c0.7,0.3,0.9,1.2,1.1,2.1c0,0,0,0.1,0,0.1c0,0-0.1,0-0.1,0C89.9,84.8,89.7,84.8,89.6,84.8z M87.6,82.9c0,0.4,0.2,0.7,0.4,0.9
					c0.4,0.3,1,0.5,1.7,0.4c-0.1-0.7-0.4-1.4-0.8-1.6C88.6,82.6,88.2,82.6,87.6,82.9z"/>
			</g>
			<g>
				<path class="st32" d="M87.3,82.7c0.2,0,0.4,0,0.6,0c0.2,0,0.4,0.1,0.5,0.2c0.1,0,0.3,0.2,0.4,0.4c0.1,0.1,0.3,0.3,0.3,0.4
					c-0.3-0.2-0.5-0.4-0.8-0.5c-0.1,0-0.3-0.1-0.4-0.1c-0.1,0-0.3,0-0.4,0l0,0c-0.1,0-0.2,0-0.2-0.1C87.2,82.8,87.3,82.7,87.3,82.7z
					"/>
			</g>
		</g>
		<g>
			<g>
				<path class="st30" d="M95.1,89c-1.3-1.2-2-0.6-2.6,0.8C93.6,90.3,94.7,90.2,95.1,89z"/>
			</g>
			<g>
				<path class="st31" d="M93.5,90.3c-0.4,0-0.8-0.1-1.2-0.3c0,0-0.1,0-0.1-0.1c0,0,0-0.1,0-0.1c0.4-0.8,0.8-1.5,1.5-1.6
					c0.4-0.1,0.9,0.1,1.6,0.7c0,0,0,0.1,0,0.2c-0.1,0.5-0.4,0.8-0.8,1.1C94.1,90.2,93.8,90.3,93.5,90.3z M92.5,89.7
					c0.7,0.2,1.2,0.2,1.6,0c0.3-0.1,0.5-0.4,0.7-0.8c-0.4-0.4-0.8-0.6-1.2-0.5C93.2,88.6,92.8,89.2,92.5,89.7z"/>
			</g>
			<g>
				<path class="st32" d="M95,89.2c-0.1,0-0.3-0.1-0.4-0.1s-0.3,0-0.4,0c-0.3,0-0.6,0.1-0.9,0.2c0.1-0.1,0.3-0.2,0.4-0.3
					c0.1-0.1,0.3-0.1,0.4-0.2c0.1,0,0.4-0.1,0.5-0.1c0.2,0,0.4,0,0.5,0.1c0.1,0,0.1,0.1,0,0.3C95.2,89.2,95.1,89.2,95,89.2L95,89.2z
					"/>
			</g>
		</g>
		<g>
			<g>
				<path class="st30" d="M79.9,92.1c0.1,0,0.2,0,0.3,0c0.1,0,0.2,0,0.3,0s0.2,0,0.3,0c0.1,0,0.2,0,0.4,0.1l0,0
					c0.1,0,0.1,0.3,0.1,0.4c0,0.1-0.3,0.1-0.4,0.1c0,0,0,0,0,0c0,0-0.1-0.1-0.2-0.1c-0.1,0-0.1,0-0.3-0.1c-0.1,0-0.2,0-0.3-0.1
					c0,0-0.2,0-0.3,0l0,0c-0.1,0-0.1-0.1-0.1-0.2C79.7,92.1,79.7,92.1,79.9,92.1z"/>
			</g>
			<g class="st22">
				<path class="st23" d="M79.9,92.1c0.1,0,0.2,0,0.3,0c0.1,0,0.2,0,0.3,0s0.2,0,0.3,0c0.1,0,0.2,0,0.4,0.1l0,0
					c0.1,0,0.1,0.3,0.1,0.4c0,0.1-0.3,0.1-0.4,0.1c0,0,0,0,0,0c0,0-0.1-0.1-0.2-0.1c-0.1,0-0.1,0-0.3-0.1c-0.1,0-0.2,0-0.3-0.1
					c0,0-0.2,0-0.3,0l0,0c-0.1,0-0.1-0.1-0.1-0.2C79.7,92.1,79.7,92.1,79.9,92.1z"/>
			</g>
			<g>
				<path class="st31" d="M81,93c0,0-0.1,0-0.2,0l0,0c0,0,0,0-0.1-0.1c0,0-0.1,0-0.3-0.1c-0.1,0-0.1,0-0.3-0.1c-0.1,0-0.2,0-0.3,0
					c-0.1,0-0.1,0-0.2-0.1c0,0,0-0.1,0-0.3c0-0.1,0.1-0.3,0.3-0.3l0,0c0.1,0,0.2,0,0.3,0c0.1,0,0.2,0,0.3,0s0.3,0,0.4,0
					c0.1,0,0.3,0,0.4,0.1l0,0c0.2,0.1,0.3,0.4,0.1,0.5C81.2,92.9,81.1,93,81,93z M79.9,92.2C79.9,92.2,79.8,92.2,79.9,92.2
					C79.8,92.3,79.8,92.3,79.9,92.2C79.8,92.3,79.8,92.3,79.9,92.2c0.1,0,0.2,0.1,0.3,0.1c0.1,0,0.2,0,0.3,0.1c0.1,0,0.2,0,0.3,0.1
					c0.1,0,0.2,0.1,0.3,0.1l0,0c0,0,0.1,0,0.1,0c0,0,0-0.1,0-0.1l0,0c-0.1,0-0.2-0.1-0.3-0.1c-0.1,0-0.2,0-0.3,0c-0.1,0-0.2,0-0.3,0
					C80,92.3,80,92.2,79.9,92.2L79.9,92.2z"/>
			</g>
			<g>
				<g>
					<path class="st30" d="M80.1,92.3c-0.6-2.1-3.1-0.4-3.1-0.4S78.9,94.2,80.1,92.3z"/>
				</g>
				<g class="st25">
					<path class="st26" d="M80,92.4L80,92.4C79.5,90.2,77,92,77,92s0,0.1,0.2,0.2C77.6,91.8,79.5,90.8,80,92.4z"/>
				</g>
				<g>
					<path class="st31" d="M78.9,93.2c-1.1,0-2.1-1.2-2.2-1.2c0,0,0,0,0-0.1s0-0.1,0-0.1c0,0,1.6-1,2.6-0.6c0.4,0.1,0.8,0.5,0.9,1.1
						c0,0,0,0.1,0,0.1c-0.3,0.5-0.7,0.8-1.2,0.8C79,93.2,78.9,93.2,78.9,93.2z M77.1,92c0.3,0.3,1.2,1.1,2,1c0.4,0,0.7-0.3,0.9-0.7
						c-0.1-0.4-0.4-0.7-0.7-0.8C78.5,91.2,77.5,91.7,77.1,92z"/>
				</g>
				<g>
					<g>
						<line class="st33" x1="80.1" y1="92.3" x2="78.4" y2="92.1"/>
					</g>
					<g>
						<path class="st32" d="M80,92.4c-0.1,0-0.3,0-0.4,0c-0.1,0-0.3,0-0.4-0.1c-0.3,0-0.5-0.1-0.8-0.3c0.3,0,0.5,0,0.8,0
							c0.1,0,0.3,0,0.4,0c0.1,0,0.3,0,0.4,0c0.1,0,0.1,0.1,0.1,0.2C80.2,92.4,80.1,92.4,80,92.4z"/>
					</g>
				</g>
			</g>
			<g>
				<path class="st31" d="M78.8,93.2c0.2-0.1,0.4-0.4,0.5-0.5s0.4-0.3,0.6-0.5c0,0,0.1,0,0.2,0c0,0,0,0.1,0,0.2l0,0l0,0
					c-0.2,0.1-0.4,0.3-0.7,0.4C79.3,92.9,79.1,93.1,78.8,93.2z"/>
			</g>
			<g>
				<g>
					<path class="st30" d="M80.1,92.4c0,0-1.2,0.1-1.6,2.3C78.5,94.6,81.1,93.8,80.1,92.4z"/>
				</g>
				<g class="st25">
					<path class="st26" d="M78.9,94.4c0.3-1.8,1.2-1.9,1.3-1.9c0,0,0-0.1-0.1-0.1c0,0-1.2,0.1-1.6,2.3c0,0,0.5-0.2,1.1-0.5
						C79.2,94.3,78.9,94.4,78.9,94.4z"/>
				</g>
				<g>
					<path class="st31" d="M78.5,94.8C78.5,94.8,78.5,94.8,78.5,94.8c-0.1-0.1-0.1-0.1-0.1-0.2c0.3-2.3,1.6-2.4,1.7-2.4
						c0,0,0.1,0,0.1,0c0.3,0.4,0.4,0.8,0.2,1.1C80.1,94.2,78.7,94.8,78.5,94.8L78.5,94.8z M80,92.5c-0.3,0-1.1,0.4-1.3,1.9
						c0.4-0.1,1.2-0.5,1.5-1.2C80.2,93,80.2,92.8,80,92.5z"/>
				</g>
				<g>
					<path class="st31" d="M79.3,93.3c0.1-0.2,0.2-0.4,0.3-0.5c0.1-0.2,0.2-0.4,0.3-0.5c0,0,0.1-0.1,0.2,0c0,0,0.1,0.1,0,0.2
						c0,0,0,0,0,0c-0.1,0.1-0.3,0.3-0.4,0.4C79.6,93,79.5,93.2,79.3,93.3z"/>
				</g>
			</g>
			<g>
				<g>
					<path class="st30" d="M80,92.4c0,0-1.2-0.4-0.8-2.7C79.3,89.7,81.5,91.3,80,92.4z"/>
				</g>
				<g class="st25">
					<path class="st26" d="M79.6,90c-0.2-0.2-0.4-0.3-0.4-0.3c-0.4,2.2,0.8,2.7,0.8,2.7l0,0C79.9,92.1,79.3,91.5,79.6,90z"/>
				</g>
				<g>
					<path class="st31" d="M80,92.5L80,92.5c-0.1,0-1.3-0.5-0.9-2.8c0,0,0-0.1,0.1-0.1c0,0,0.1,0,0.1,0c0,0,1.3,0.9,1.3,1.9
						C80.7,91.9,80.4,92.2,80,92.5C80.1,92.5,80.1,92.5,80,92.5z M79.4,90c-0.2,1.6,0.4,2,0.7,2.2c0.3-0.2,0.4-0.4,0.4-0.7
						C80.4,90.9,79.7,90.3,79.4,90z"/>
				</g>
				<g>
					<path class="st31" d="M79.7,91.2c0.1,0.2,0.1,0.4,0.3,0.5c0.1,0.2,0.2,0.4,0.3,0.5c0,0,0,0.1,0,0.2c0,0-0.1,0-0.2,0
						c0,0,0,0,0,0c0-0.2-0.1-0.4-0.1-0.6C79.7,91.6,79.7,91.4,79.7,91.2z"/>
				</g>
			</g>
		</g>
	</g>
	<g>
		<path class="st23" d="M77.9,98.3L77.9,98.3C77.9,98.3,77.9,98.4,77.9,98.3c0.1,0,0.1,0,0.2,0c0.1,0,0.3,0,0.4-0.1
			c0.3-0.1,0.5-0.3,0.7-0.4c0.4-0.3,0.9-0.6,1.4-0.9c0.4-0.4,0.9-0.7,1.3-1.1c0.1-0.1,0.2-0.2,0.3-0.3c0.1-0.1,0.2-0.2,0.3-0.3
			c0,0,0.1-0.1,0.1-0.1l0.1-0.1l0.1,0l0.1,0l0.1-0.1c0.9-0.7,2-1.2,3.1-1.6c0.5-0.2,1.1-0.4,1.6-0.5c0.5-0.1,1.1-0.3,1.6-0.4
			c-1.1,0.2-2.2,0.5-3.2,0.9c-0.5,0.2-1.1,0.4-1.6,0.7c-0.5,0.3-1,0.5-1.5,0.9L83,95v0l-0.1,0l-0.1,0.1c0,0-0.1,0.1-0.1,0.1
			c-0.1,0.1-0.2,0.2-0.3,0.3c-0.1,0.1-0.2,0.2-0.3,0.3c-0.4,0.4-0.8,0.8-1.3,1.1c-0.4,0.4-0.9,0.7-1.4,1c-0.3,0.1-0.5,0.3-0.8,0.4
			c-0.1,0-0.3,0.1-0.4,0.1c-0.1,0-0.2,0-0.3,0c0,0-0.1,0-0.1,0c0,0-0.1-0.1-0.1-0.1c0-0.1,0-0.2,0-0.3
			C77.6,98.1,77.8,98.2,77.9,98.3L77.9,98.3z"/>
	</g>
	<g>
		<g class="st22">
			<ellipse transform="matrix(0.968 -0.2508 0.2508 0.968 -19.3013 27.7435)" class="st23" cx="99.2" cy="89.6" rx="0.3" ry="0.2"/>
		</g>
		<g class="st22">
			<ellipse transform="matrix(0.968 -0.2508 0.2508 0.968 -19.1432 27.3837)" class="st23" cx="97.9" cy="88.8" rx="0.5" ry="0.4"/>
		</g>
		<g class="st22">
			
				<ellipse transform="matrix(0.9355 -0.3532 0.3532 0.9355 -24.5316 39.076)" class="st23" cx="94.8" cy="86.8" rx="0.4" ry="0.3"/>
		</g>
		<g class="st22">
			
				<ellipse transform="matrix(0.9355 -0.3532 0.3532 0.9355 -23.0496 40.087)" class="st23" cx="98.3" cy="83.2" rx="0.3" ry="0.2"/>
		</g>
		<g class="st22">
			
				<ellipse transform="matrix(0.9355 -0.3532 0.3532 0.9355 -23.9443 40.4288)" class="st23" cx="98.8" cy="85.8" rx="0.3" ry="0.3"/>
		</g>
		<g class="st22">
			<path class="st23" d="M96,85c0,0.1,0,0.2-0.1,0.3c-0.1,0-0.3,0-0.3-0.1c0-0.1,0-0.2,0.1-0.3C95.9,84.8,96,84.9,96,85z"/>
		</g>
		<g class="st22">
			
				<ellipse transform="matrix(0.8111 -0.5849 0.5849 0.8111 -34.395 70.2979)" class="st23" cx="91.6" cy="88.4" rx="0.3" ry="0.2"/>
		</g>
		<g class="st22">
			
				<ellipse transform="matrix(0.8111 -0.5849 0.5849 0.8111 -32.7596 70.2074)" class="st23" cx="92.3" cy="85.8" rx="0.3" ry="0.2"/>
		</g>
		<g class="st22">
			
				<ellipse transform="matrix(0.8111 -0.5849 0.5849 0.8111 -38.2511 66.7245)" class="st23" cx="84.2" cy="92.6" rx="0.4" ry="0.3"/>
		</g>
		<g class="st22">
			
				<ellipse transform="matrix(0.8111 -0.5849 0.5849 0.8111 -37.0872 66.4954)" class="st23" cx="84.4" cy="90.7" rx="0.3" ry="0.3"/>
		</g>
		<g class="st22">
			
				<ellipse transform="matrix(0.8111 -0.5849 0.5849 0.8111 -39.7625 65.4893)" class="st23" cx="81.5" cy="94.3" rx="0.2" ry="0.1"/>
		</g>
		<g class="st22">
			
				<ellipse transform="matrix(0.8111 -0.5849 0.5849 0.8111 -35.1147 65.852)" class="st23" cx="84.4" cy="87.3" rx="0.3" ry="0.3"/>
		</g>
		<g class="st22">
			<ellipse transform="matrix(0.8111 -0.5849 0.5849 0.8111 -33.497 67.0272)" class="st23" cx="87" cy="85.4" rx="0.4" ry="0.3"/>
		</g>
	</g>
	<g>
		<g>
			<g>
				<g>
					<path class="st34" d="M101.7,90.1c-0.4,2.1,4.4,2.4,4.4,2.4s3.1-7.2-1.9-13.2c-4.9-6.1-11.6-5.2-12.4-3.7
						c-0.8,1.5,0.7,2.1,0.7,2.1S103.7,78.7,101.7,90.1z"/>
				</g>
				<g class="st25">
					<path class="st26" d="M104.4,79.3c-4.9-6.1-11.6-5.2-12.4-3.7c-0.7,1.3,0.4,2,0.7,2c-0.3-0.3-0.5-0.8-0.1-1.6
						c0.1-0.3,0.7-0.6,1.3-0.8c-0.1,0.1-0.3,0.2-0.2,0.3c0,0.2,0.5,0.3,1,0.2c0.5-0.1,0.9-0.4,0.9-0.5c0-0.1-0.1-0.1-0.2-0.2
						c2.4,0,5.9,0.9,8.7,4.4c4.6,5.6,1.7,12.3,1.7,12.3s-3.2-0.2-4-1.5c0.1,1.9,4.4,2.1,4.4,2.1S109.2,85.5,104.4,79.3z"/>
				</g>
				<g class="st22">
					<path class="st23" d="M106.2,92.6c0,0,0.4-0.9,0.7-2.5c-0.5-0.5-1.2-0.9-2-1.2c-0.7-0.3-1.2-1-1.1-1.7c0.1-2,0.1-4.4-1.6-6.5
						c-3.9-4.8-9.1-4.1-9.7-3c0.1,0.1,0.3,0.1,0.3,0.1s11.1,0.9,9.1,12.4C101.4,92.2,106.2,92.6,106.2,92.6z"/>
				</g>
				<g>
					<path class="st23" d="M106.2,92.8L106.2,92.8c-0.1,0-3.3-0.3-4.4-1.6c-0.3-0.4-0.4-0.8-0.3-1.2c0.6-3.4,0.1-6.2-1.6-8.3
						c-2.6-3.4-7.3-3.9-7.3-3.9h0c0,0-0.7-0.4-0.9-1.1c-0.1-0.4-0.1-0.9,0.1-1.3c0.3-0.5,1.2-1,2.5-1.2c2.8-0.3,6.9,0.8,10.1,4.8
						c2.6,3.2,2.9,6.7,2.8,9.1c-0.1,2.5-0.9,4.4-0.9,4.4C106.4,92.8,106.3,92.8,106.2,92.8z M101.7,90.1l0.2,0c0,0.3,0,0.5,0.2,0.8
						c0.8,1,3.2,1.3,3.9,1.4c0.2-0.4,0.7-2,0.8-4.1c0.1-2.3-0.3-5.6-2.8-8.8c-3.2-3.9-7.1-4.9-9.8-4.7c-1.2,0.1-2,0.5-2.2,0.9
						c-0.2,0.4-0.3,0.7-0.1,1.1c0.1,0.4,0.6,0.7,0.7,0.8c0.3,0,1.3,0.1,2.8,0.7c1.5,0.5,3.5,1.5,4.8,3.3c1.7,2.2,2.3,5.1,1.6,8.7
						H101.7z"/>
				</g>
			</g>
			<g>
				<path class="st21" d="M106.2,92.6c0,0-0.9,1.1-2.8,0.5c-1.9-0.6-2.3-1.9-1.6-2.9C102.4,89,107.6,90.4,106.2,92.6z"/>
			</g>
			<g class="st22">
				<path class="st23" d="M106.2,92.6c0,0-0.9,1.1-2.8,0.5c-1.9-0.6-2.3-1.9-1.6-2.9C102.4,89,107.6,90.4,106.2,92.6z"/>
			</g>
			<g>
				<path class="st23" d="M104.5,93.5c-0.4,0-0.7,0-1.2-0.2c-1.3-0.4-1.8-1.1-2-1.6c-0.2-0.5-0.1-1.2,0.2-1.7
					c0.3-0.4,0.9-0.5,1.4-0.4c1.2,0,3,0.7,3.5,1.6c0.3,0.4,0.3,1-0.1,1.5c0,0,0,0,0,0C106.4,92.8,105.7,93.5,104.5,93.5z M102.8,90
					c-0.4,0-0.8,0.1-0.9,0.3c-0.3,0.4-0.4,0.9-0.1,1.3c0.2,0.5,0.8,1.1,1.7,1.3c1.6,0.5,2.4-0.3,2.5-0.4c0.2-0.4,0.3-0.7,0-1.1
					C105.6,90.6,104.1,90,102.8,90C102.9,90,102.9,90,102.8,90z M106.2,92.6L106.2,92.6L106.2,92.6z"/>
			</g>
		</g>
		<g>
			<g>
				<path class="st35" d="M95.3,76.8c0-0.1,0-0.2,0-0.3s0-0.2,0-0.3c0-0.1,0.1-0.2,0.1-0.3c0,0,0.1-0.1,0.3-0.1
					c0,0.1-0.1,0.1-0.1,0.3s-0.1,0.1-0.1,0.3c0,0.1,0,0.1-0.1,0.3C95.3,76.6,95.3,76.7,95.3,76.8z"/>
			</g>
			<g>
				<path class="st35" d="M95.9,77.2c0-0.1,0-0.3,0-0.4c0-0.1,0-0.3,0.1-0.4c0-0.1,0.1-0.3,0.3-0.4c0,0,0,0,0.1,0s0,0,0.1,0
					c0,0,0,0,0.1,0s0,0,0.1,0c-0.1,0.1-0.2,0.2-0.3,0.3c-0.1,0.1-0.1,0.2-0.2,0.3c0,0.1-0.1,0.2-0.1,0.4C96,76.9,95.9,77,95.9,77.2z
					"/>
			</g>
		</g>
		<g>
			<g>
				<path class="st35" d="M103.7,86.1c0.1-0.1,0.3-0.1,0.4-0.2c0.1,0,0.3,0,0.4,0c0.1,0,0.3,0,0.4,0.1c0,0,0,0,0.1,0s0,0,0.1,0
					s0,0,0.1,0c0,0,0,0,0,0.1c-0.1,0-0.3-0.1-0.4-0.1c-0.1,0-0.3,0-0.4,0c-0.1,0-0.3,0-0.4,0C104,86.1,103.9,86.1,103.7,86.1z"/>
			</g>
			<g>
				<path class="st35" d="M103.6,87.1c0.2-0.1,0.4-0.1,0.6-0.2c0.2,0,0.4,0,0.6,0c0,0,0.1,0,0.1,0c0,0,0.1,0,0.1,0s0.1,0,0.1,0l0,0
					l0,0c0,0,0.1,0,0.1,0.1c0,0,0.1,0,0.1,0.1l0,0l0,0c0,0,0,0.1,0.1,0.1c-0.2-0.1-0.4-0.2-0.5-0.3l0,0h0c0,0-0.1,0-0.1,0
					c0,0-0.1,0-0.1,0c0,0-0.1,0-0.1,0c-0.2,0-0.4,0-0.6,0C104,87.1,103.7,87.1,103.6,87.1z"/>
			</g>
		</g>
	</g>
	<g>
		<g>
			<path class="st30" d="M97.5,85.5c1.5-0.8,2,0,2.1,1.3C98.5,86.9,97.6,86.6,97.5,85.5z"/>
		</g>
		<g>
			<path class="st31" d="M99.4,87.1c-0.7,0-1.2-0.1-1.6-0.5c-0.3-0.3-0.5-0.7-0.5-1.2c0,0,0-0.1,0.1-0.1c0.7-0.4,1.2-0.4,1.6-0.3
				c0.5,0.3,0.8,1,0.9,1.8c0,0,0,0.1,0,0.1c0,0,0,0-0.1,0C99.6,87.1,99.6,87.1,99.4,87.1z M97.6,85.5c0,0.4,0.2,0.6,0.4,0.8
				c0.4,0.3,0.8,0.4,1.5,0.4c-0.1-0.6-0.4-1.2-0.8-1.4C98.5,85.2,98.1,85.2,97.6,85.5z"/>
		</g>
		<g>
			<path class="st32" d="M97.5,85.2c0.1,0,0.4,0,0.5,0c0.1,0,0.3,0.1,0.4,0.2c0.1,0.1,0.3,0.2,0.4,0.3c0.1,0.1,0.2,0.3,0.3,0.4
				c-0.3-0.2-0.5-0.3-0.8-0.4c-0.1,0-0.3-0.1-0.4-0.1s-0.3,0-0.4,0l0,0c-0.1,0-0.1,0-0.2-0.1C97.3,85.3,97.4,85.3,97.5,85.2z"/>
		</g>
	</g>
</g>
</svg>
