<?xml version="1.0" encoding="utf-8"?>
<!-- Generator: Adobe Illustrator 23.0.5, SVG Export Plug-In . SVG Version: 6.00 Build 0)  -->
<svg version="1.1" id="Layer_1" xmlns:v="https://vecta.io/nano"
	 xmlns="http://www.w3.org/2000/svg" xmlns:xlink="http://www.w3.org/1999/xlink" x="0px" y="0px" viewBox="0 0 202 177.8"
	 style="enable-background:new 0 0 202 177.8;" xml:space="preserve">
<style type="text/css">
	.st0{fill:#00B77E;}
	.st1{fill:#00846C;}
	.st2{fill:#F2CE36;}
	.st3{opacity:0.15;fill:#FFFFFF;}
	.st4{opacity:0.25;fill:#E2B440;}
	.st5{opacity:0.33;fill:#E2B440;}
	.st6{fill:#C67640;}
	.st7{fill:#2A9E3A;}
	.st8{fill:#3DAD55;}
</style>
<g>
	<g>
		<path class="st0" d="M197.7,159.3c1,0.9,3.8,3.6,3.3,6.2c-0.3,1.2-1.4,2.9-6,4.3c-11.3,3.4-43.1,5.3-50,5.7
			c-26.8,0.3-99.2,0.9-126.4-2.4c-11.7-1.4-16.8-3.7-17.4-6.8s3.2-6.4,5.7-8.2c4.3-1.3,10.3-3,17.6-4.5c9.6-2,17.8-3,28.4-3.9
			c22.4-1.9,40.3-2.1,46.7-2.1C99.4,147.5,184.3,146.7,197.7,159.3z"/>
		<path class="st1" d="M197.7,161.3c1.1,0.8,3.3,2.7,3.3,4.2c-0.8,13.3-198,16.8-199.9,0.8C1,165,2,163,2.2,162.6
			c3.2-6,11.4-7.4,21.3-8.9c11.9-1.8,21.8-3.1,29.1-4c0.5,4.3,5.2,13.2,37.5,11.5c46.6-2.4,64.1,10.9,88.3,1.3
			C181.5,161.2,191.5,156.9,197.7,161.3z"/>
		<path class="st1" d="M55.2,153.8c1.5,1.8,4.1,2.5,5.9,2.4c1.8-0.2,1.4-0.8,0.2-1.9c-1.3-1.1-1.8-1.7-3.7-2
			C55.5,151.9,54,152.3,55.2,153.8z"/>
		<path class="st1" d="M64,157.7c1,1.2,2.8,1.7,4,1.6c1.2-0.1,1-0.5,0.1-1.3s-1.2-1.2-2.6-1.4C64.2,156.4,63.1,156.7,64,157.7z"/>
		<path class="st1" d="M80.6,156.6c-4.2,1.1-4,2.4-1.9,3.6c2.1,1.1,9.6,0.1,14.9,0.1s3.4-3-0.3-3.6C89.6,156.2,82.8,156,80.6,156.6z
			"/>
		<path class="st1" d="M177,160.6c4.1,0.8,5.1,1.9,9.9,1.9c4.7,0,3.7-2,1-2.6s-5-1.3-10.7-2S172.2,159.6,177,160.6z"/>
	</g>
</g>
<g>
	<path class="st2" d="M164.8,129.4c-3.2,6.6-8.1,12.2-13.4,17.2c-16.2,15.4-38.6,13.8-59.3,8.7c-5.7-1.4-11.5-3-16.3-6.5
		c-1.2-0.8-8.5-7.4-7.9-14.9c0.6-6.6,6.8-8.5,15.8-16.7c15.3-13.9,11.4-21.3,25.4-31.9c5.1-3.9,12.7-9.6,23.4-9.8
		c12.8-0.2,24.7,7.8,30.9,18.4c5.4,9.3,6.2,24,2.3,33.6C165.4,128.1,165.1,128.7,164.8,129.4z"/>
	<path class="st3" d="M148.7,98.1c-7.9-1.1-16-0.4-23.5,2.3c-2.6,0.9-6,1.8-7.7-0.4c-0.5-0.6-0.7-1.4-0.9-2.1
		c-0.7-4.8,3.5-8.9,7.8-11c8.2-3.9,18.2-3.7,26.5,0.3C161,92.1,160.4,99.8,148.7,98.1z"/>
	<path class="st4" d="M102.2,154.1c0.3,0,0.6,0,0.8-0.2c0.3-0.3,0.3-0.8,0.2-1.2c-0.5-2.5-3.3-3.4-5.5-4.2c-5-1.6-9.6-4.5-13.4-8.3
		c-3.4-3.3-6.4-7.6-10.9-8.7c-0.5-0.1-1-0.2-1.5,0c-0.4,0.2-0.8,0.6-1,1c-1.1,2-0.8,4.6,0.3,6.6c1.1,2,2.9,3.5,4.6,4.9
		C83.8,150.1,92.5,154.4,102.2,154.1z"/>
	<path class="st5" d="M164.5,98.9c-0.3,0.2-0.7,0.7-0.8,1.1c-0.5,1.2-0.1,3.5,0.3,4.8c0.3,0.8,0.8,1.6,1.6,1.9c0.1,0,0.3,0.1,0.4,0
		c0.1-0.1,0.2-0.2,0.3-0.3c0.7-1.7-0.4-3.6-0.5-5.4c0-0.5,0-1-0.1-1.5C165.4,98.7,164.9,98.6,164.5,98.9z"/>
	<path class="st6" d="M165,100.8c1-1,4.2-1.4,5,0.2c0.1,0.2,0.1,0.4,0.1,0.7c0,0.5,0.1,1-0.2,1.4c-0.5,1-2.6,0.5-3.6,0.8
		c-0.2,0.1-0.4,0.1-0.6,0.1c-0.3-0.1-0.5-0.3-0.7-0.6C164.4,102.1,164.5,101.3,165,100.8z"/>
	<g>
		<path class="st7" d="M159.6,108.9c-5.2,8-7.4,17.7-7.2,27.3c0.2,9.6,2.6,19.1,6.2,28.1c0.9-10.5,5.4-20.3,8.6-30.3
			c2.1-6.9,3.6-14.2,2.7-21.5c-0.2-1.9-1-8.7-3.1-9.5C164.2,102.1,160.6,107.4,159.6,108.9z"/>
		<path class="st8" d="M166.6,103.1c-1.9-1.8-6.3,4.8-7,5.9c-5.2,8-7.4,17.7-7.2,27.3c0.1,9.4,2.4,19.2,6.1,27.9
			c-0.8-1.9-0.3-4-0.4-6c-0.2-2.3-0.3-4.6-0.4-6.9c-0.4-10.8,1.8-21.6,5.3-31.7c0.9-2.7,2-5.3,2.7-8c0.4-1.4,0.7-2.8,0.9-4.3
			C166.6,106.5,167.2,103.7,166.6,103.1C166.6,103.1,166.6,103.1,166.6,103.1z"/>
	</g>
</g>
<g>
	<path class="st2" d="M69.3,35.4c1.2,4.3,1.2,8.8,0.8,13.3c-1.2,13.6-12,21.9-23.5,27.9c-3.2,1.7-6.5,3.3-10,3.6
		c-0.9,0.1-6.8,0.1-9.6-3.6c-2.4-3.2-0.3-6.7,0.4-14c1.3-12.5-3.4-14.3-1.3-24.8c0.8-3.8,1.9-9.5,6.7-13.9
		c5.8-5.2,14.4-6.4,21.5-4.1c6.2,2,12.5,8.4,14.6,14.4C69,34.5,69.2,34.9,69.3,35.4z"/>
	<path class="st3" d="M49.3,27.6c-4.1,2.7-7.4,6.3-9.8,10.5c-0.8,1.5-2,3.2-3.6,2.9c-0.5-0.1-0.9-0.3-1.3-0.6
		c-2.3-1.9-2-5.5-0.9-8.2c2.2-5.1,6.8-9.1,12.2-10.5C52.5,20,55.3,23.6,49.3,27.6z"/>
	<path class="st4" d="M50.8,71.9c0.1-0.1,0.3-0.2,0.3-0.4c0-0.2-0.2-0.5-0.4-0.6c-1.2-0.9-2.9-0.2-4.2,0.3c-2.9,1.3-6.2,1.8-9.5,1.6
		c-2.9-0.2-6-0.8-8.5,0.4c-0.3,0.1-0.5,0.3-0.7,0.6c-0.1,0.3-0.1,0.6-0.1,0.9c0.3,1.3,1.5,2.4,2.8,2.9c1.3,0.5,2.7,0.4,4.1,0.4
		C40.8,77.5,46.5,76,50.8,71.9z"/>
	<path class="st5" d="M56.8,21.6c-0.1,0.2,0,0.6,0.1,0.9c0.3,0.8,1.4,1.7,2.1,2.1c0.5,0.3,1,0.4,1.5,0.2c0.1,0,0.2-0.1,0.2-0.1
		c0-0.1,0-0.2,0-0.3c-0.4-1-1.6-1.5-2.4-2.2c-0.2-0.2-0.4-0.5-0.7-0.6C57.2,21.2,56.9,21.3,56.8,21.6z"/>
	<path class="st6" d="M57.9,22.3c0.1-0.8,1.3-2.3,2.3-1.9c0.1,0.1,0.2,0.2,0.3,0.2c0.2,0.2,0.4,0.4,0.5,0.7c0.2,0.7-1,1.3-1.3,1.8
		c-0.1,0.1-0.1,0.2-0.2,0.3c-0.2,0.1-0.4,0.1-0.5,0C58.1,23.1,57.8,22.7,57.9,22.3z"/>
	<g>
		<path class="st7" d="M58.7,28.2c0.9,5.7,3.8,11,7.7,15.3s8.9,7.7,14.2,10.3c-3.9-5.1-5.7-11.4-8.3-17.2c-1.8-4-4.1-7.9-7.5-10.9
			c-0.9-0.8-4-3.6-5.3-3.1C58,23.2,58.5,27.1,58.7,28.2z"/>
		<path class="st8" d="M59.5,22.7c-1.6,0-0.9,4.7-0.8,5.5c0.9,5.7,3.8,11,7.7,15.3c3.9,4.2,8.8,7.8,14,10.2
			c-1.1-0.5-1.7-1.7-2.6-2.6c-1-1-2-2-3-3c-4.5-4.7-7.9-10.6-10.4-16.5c-0.7-1.6-1.2-3.2-2-4.7c-0.4-0.8-0.8-1.6-1.3-2.3
			C60.9,24.2,60,22.7,59.5,22.7C59.5,22.7,59.5,22.7,59.5,22.7z"/>
	</g>
</g>
<g>
	<path class="st2" d="M65.7,162.7c-1.9,2-4.3,3.5-6.7,4.7c-7.5,3.7-15.4,0.7-22.2-3.4c-1.9-1.1-3.8-2.3-5.1-4.1
		c-0.3-0.4-2.2-3.6-1.2-6.2c0.9-2.3,3.4-2.3,7.5-4.3c7-3.3,6.4-6.4,12.6-8.7c2.3-0.8,5.6-2.1,9.5-0.9c4.6,1.3,8,5.5,9,10
		c0.9,3.9-0.4,9.3-2.9,12.3C66,162.3,65.8,162.5,65.7,162.7z"/>
	<path class="st3" d="M63.3,149.7c-2.7-1.3-5.7-1.9-8.7-1.8c-1,0-2.3,0-2.7-1c-0.1-0.3-0.1-0.6-0.1-0.9c0.3-1.8,2.2-2.8,4-3.1
		c3.4-0.5,6.9,0.7,9.5,3C68.4,148.9,67.4,151.6,63.3,149.7z"/>
	<path class="st4" d="M40.5,164.6c0.1,0,0.2,0.1,0.3,0c0.1-0.1,0.2-0.2,0.2-0.4c0.1-0.9-0.8-1.6-1.5-2.1c-1.6-1.1-2.9-2.7-3.9-4.5
		c-0.8-1.6-1.5-3.4-2.9-4.3c-0.2-0.1-0.3-0.2-0.5-0.2c-0.2,0-0.3,0.1-0.5,0.3c-0.6,0.6-0.8,1.6-0.6,2.4c0.2,0.8,0.6,1.6,1.1,2.3
		C34.4,161.2,37,163.7,40.5,164.6z"/>
	<path class="st5" d="M68.9,151.7c-0.1,0-0.3,0.2-0.4,0.3c-0.3,0.4-0.4,1.3-0.4,1.7c0,0.3,0.1,0.7,0.4,0.9c0,0,0.1,0.1,0.1,0.1
		c0.1,0,0.1,0,0.1-0.1c0.4-0.5,0.2-1.3,0.4-2c0-0.2,0.1-0.4,0.1-0.5C69.2,151.7,69.1,151.6,68.9,151.7z"/>
	<path class="st6" d="M68.9,152.4c0.5-0.2,1.7-0.1,1.8,0.6c0,0.1,0,0.2,0,0.3c0,0.2-0.1,0.4-0.2,0.5c-0.3,0.3-1-0.1-1.4-0.1
		c-0.1,0-0.2,0-0.2,0c-0.1-0.1-0.2-0.2-0.2-0.3C68.5,152.8,68.6,152.6,68.9,152.4z"/>
</g>
<g>
	<path class="st2" d="M172.3,149.8c-0.6,3-1.9,5.8-3.5,8.4c-4.8,8-14,9.8-22.9,10c-2.4,0.1-5,0-7.3-0.8c-0.6-0.2-4.2-2-4.8-5.1
		c-0.5-2.7,1.8-4.2,4.5-8.5c4.6-7.3,2.3-9.8,6.7-15.6c1.6-2.1,4.1-5.3,8.4-6.5c5.1-1.5,10.8,0.4,14.4,4c3.2,3.1,5.1,8.9,4.6,13.2
		C172.4,149.2,172.3,149.5,172.3,149.8z"/>
	<path class="st3" d="M162.4,139c-3.3,0.4-6.5,1.6-9.2,3.5c-0.9,0.6-2.2,1.4-3.1,0.7c-0.3-0.2-0.4-0.5-0.6-0.8
		c-0.8-1.9,0.4-4,1.9-5.3c2.9-2.5,6.9-3.5,10.7-2.8C166.7,135.3,167.3,138.4,162.4,139z"/>
	<path class="st4" d="M149.8,166.6c0.1,0,0.2-0.1,0.3-0.2c0.1-0.1,0-0.3,0-0.5c-0.5-0.9-1.7-1-2.7-1.1c-2.2-0.1-4.3-0.8-6.3-1.9
		c-1.7-1-3.4-2.3-5.3-2.3c-0.2,0-0.4,0-0.6,0.2c-0.2,0.1-0.2,0.3-0.3,0.5c-0.2,0.9,0.2,1.9,0.8,2.6c0.7,0.7,1.5,1.1,2.4,1.5
		C142,167,146,167.8,149.8,166.6z"/>
	<path class="st5" d="M168.8,137.6c-0.1,0.1-0.2,0.3-0.2,0.5c-0.1,0.6,0.3,1.4,0.6,1.9c0.2,0.3,0.5,0.5,0.9,0.6c0.1,0,0.1,0,0.2,0
		c0.1,0,0.1-0.1,0.1-0.2c0.1-0.7-0.6-1.4-0.8-2.1c-0.1-0.2-0.1-0.4-0.2-0.6C169.2,137.4,169,137.4,168.8,137.6z"/>
	<path class="st6" d="M169.3,138.3c0.3-0.5,1.5-1,2-0.5c0.1,0.1,0.1,0.2,0.1,0.3c0.1,0.2,0.1,0.4,0.1,0.6c-0.1,0.5-1,0.5-1.4,0.7
		c-0.1,0-0.1,0.1-0.2,0.1c-0.1,0-0.2-0.1-0.3-0.2C169.2,138.9,169.1,138.6,169.3,138.3z"/>
	<g>
		<path class="st7" d="M167.9,142.2c-1.2,3.8-1,7.9,0.1,11.8c1.1,3.8,3.1,7.4,5.6,10.6c-0.8-4.3,0-8.7,0.1-13.1
			c0.1-3-0.1-6.1-1.3-8.9c-0.3-0.7-1.4-3.4-2.3-3.5C169,138.9,168.2,141.5,167.9,142.2z"/>
		<path class="st8" d="M170.1,139c-0.9-0.5-2,2.6-2.2,3.1c-1.2,3.8-1,7.9,0.1,11.8c1.1,3.8,3.1,7.4,5.5,10.6
			c-0.5-0.7-0.5-1.6-0.8-2.4c-0.3-0.9-0.6-1.8-0.9-2.7c-1.3-4.3-1.6-8.9-1.4-13.3c0.1-1.2,0.2-2.3,0.2-3.5c0-0.6,0-1.2-0.1-1.8
			C170.5,140.4,170.5,139.3,170.1,139C170.1,139.1,170.1,139.1,170.1,139z"/>
	</g>
</g>
</svg>
