<?xml version="1.0" encoding="utf-8"?>
<!-- Generator: Adobe Illustrator 23.0.5, SVG Export Plug-In . SVG Version: 6.00 Build 0)  -->
<svg version="1.1" id="Layer_1" xmlns:v="https://vecta.io/nano"
	 xmlns="http://www.w3.org/2000/svg" xmlns:xlink="http://www.w3.org/1999/xlink" x="0px" y="0px" viewBox="0 0 202 177.8"
	 style="enable-background:new 0 0 202 177.8;" xml:space="preserve">
<style type="text/css">
	.st0{fill:#00B77E;}
	.st1{fill:#00846C;}
	.st2{fill:#55CE5A;}
	.st3{fill:#73D861;}
	.st4{fill:#29A868;}
	.st5{fill:#127F5B;}
	.st6{fill:#49270F;}
	.st7{fill:#F9D641;}
	.st8{fill:#EAA11F;}
	.st9{fill:#FFF1B6;}
	.st10{fill:#F2CE36;}
	.st11{opacity:0.15;fill:#FFFFFF;enable-background:new    ;}
	.st12{opacity:0.25;fill:#E2B440;enable-background:new    ;}
	.st13{opacity:0.33;fill:#E2B440;enable-background:new    ;}
	.st14{fill:#C67640;}
	.st15{fill:#2A9E3A;}
	.st16{fill:#3DAD55;}
	.st17{fill:#876553;}
	.st18{fill:#724D3D;}
</style>
<g>
	<g>
		<path class="st0" d="M197.7,159.3c1,0.9,3.8,3.6,3.3,6.2c-0.3,1.2-1.4,2.9-6,4.3c-11.3,3.4-43.1,5.3-50,5.7
			c-26.8,0.3-99.2,0.9-126.4-2.4c-11.7-1.4-16.8-3.7-17.4-6.8s3.2-6.4,5.7-8.2c4.3-1.3,10.3-3,17.6-4.5c9.6-2,17.8-3,28.4-3.9
			c22.4-1.9,40.3-2.1,46.7-2.1C99.4,147.5,184.3,146.7,197.7,159.3z"/>
		<path class="st1" d="M197.7,161.3c1.1,0.8,3.3,2.7,3.3,4.2c-0.8,13.3-198,16.8-199.9,0.8C1,165,2,163,2.2,162.6
			c3.2-6,11.4-7.4,21.3-8.9c11.9-1.8,21.8-3.1,29.1-4c0.5,4.3,5.2,13.2,37.5,11.5c46.6-2.4,64.1,10.9,88.3,1.3
			C181.5,161.2,191.5,156.9,197.7,161.3z"/>
		<path class="st1" d="M55.2,153.8c1.5,1.8,4.1,2.5,5.9,2.4c1.8-0.2,1.4-0.8,0.2-1.9c-1.3-1.1-1.8-1.7-3.7-2
			C55.5,151.9,54,152.3,55.2,153.8z"/>
		<path class="st1" d="M64,157.7c1,1.2,2.8,1.7,4,1.6c1.2-0.1,1-0.5,0.1-1.3s-1.2-1.2-2.6-1.4C64.2,156.4,63.1,156.7,64,157.7z"/>
		<path class="st1" d="M80.6,156.6c-4.2,1.1-4,2.4-1.9,3.6c2.1,1.1,9.6,0.1,14.9,0.1s3.4-3-0.3-3.6C89.6,156.2,82.8,156,80.6,156.6z
			"/>
		<path class="st1" d="M177,160.6c4.1,0.8,5.1,1.9,9.9,1.9c4.7,0,3.7-2,1-2.6s-5-1.3-10.7-2S172.2,159.6,177,160.6z"/>
	</g>
	<g>
		<g>
			<path class="st2" d="M162.9,72.2c0-3.9-2-7.3-5-9.3c1.1-1.8,1.8-3.9,1.8-6.1c0-4.6-2.8-8.6-6.8-10.3c0.3-0.5,0.5-1.1,0.5-1.8
				c0-1.5-1-2.8-2.3-3.3c0.6-1.2,1-2.5,1-3.9c0-4.4-3.4-8-7.8-8.3c0-0.1,0-0.2,0-0.2c0-1.8-1.3-3.3-3-3.6c0.1-0.6,0.2-1.3,0.2-2
				c0-5.1-4.1-9.2-9.2-9.2c-0.8,0-1.5,0.1-2.2,0.3c-0.7-2.9-3.3-5.1-6.4-5.1h-0.1c-1.3-4.4-5.4-7.6-10.3-7.6c-3.3,0-6.2,1.5-8.2,3.8
				c-1.1-1.1-2.7-1.8-4.4-1.8c-1,0-1.9,0.2-2.7,0.6C96.5,3.5,94.8,3,92.9,3c-5,0-9.1,3.8-9.6,8.7c-0.3,0-0.7-0.1-1.1-0.1
				c-3.1,0-5.9,1.5-7.6,3.9c-0.7-0.2-1.4-0.3-2.1-0.3c-4.9,0-8.9,4-8.9,8.9c0,0.6,0.1,1.1,0.2,1.7c-3.5,0.4-6.2,3.4-6.2,7
				c0,0.6,0.1,1.2,0.2,1.8c-4.8,0.5-8.5,4.6-8.5,9.6c0,1.4,0.3,2.7,0.8,3.9c-1.3,0.9-2.2,2.5-2.2,4.2c0,0.6,0.1,1.1,0.3,1.6
				c-5,0.6-8.9,4.8-8.9,10c0,3,1.3,5.6,3.3,7.5c-0.9,1.1-1.5,2.6-1.5,4.2c0,2.8,1.8,5.3,4.3,6.2c-1.2,1.6-1.9,3.6-1.9,5.8
				c0,4.4,2.9,8.2,7,9.5c0.7,1.4,2.1,2.3,3.7,2.4c0,0.2,0,0.3,0,0.5c0,5,4.1,9.1,9.1,9.1c1.6,0,3.1-0.4,4.5-1.2
				c1,0.9,2.3,1.5,3.8,1.5c0.4,0,0.9-0.1,1.3-0.2c0.5,2.7,2.9,4.8,5.8,4.8c1.4,0,2.7-0.5,3.8-1.3c0.7,0.5,1.6,0.9,2.5,0.9
				c1.3,0,2.4-0.6,3.1-1.5c0.9,1.9,2.8,3.2,4.9,3.2c1.1,0,2.1-0.3,3-0.9c1,0.3,2,0.6,3,0.6c1.6,0,3.1-0.7,4.1-1.9
				c1.4,1.8,3.5,3,5.9,3c2.6,0,4.9-1.3,6.2-3.3c0.8,0.4,1.6,0.6,2.6,0.6c1.8,0,3.3-0.8,4.3-2.1c1.4,1.6,3.4,2.7,5.7,2.7
				c3.4,0,6.2-2.3,7.1-5.3h0.1c1.8,0,3.3-0.9,4.2-2.3c1.2,0.8,2.6,1.3,4.2,1.3c4.1,0,7.4-3.3,7.4-7.4c0-0.4,0-0.7-0.1-1.1
				c3.7-0.5,6.5-3.6,6.5-7.3c0-1.4-0.4-2.7-1.1-3.8c1.4-0.9,2.4-2.4,2.4-4.2c0-0.8-0.2-1.6-0.6-2.3C161,79.4,162.9,76,162.9,72.2"/>
			<path class="st2" d="M162.9,72.2c0-3.9-2-7.3-5-9.3c1.1-1.8,1.8-3.9,1.8-6.1c0-4.6-2.8-8.6-6.8-10.3c0.3-0.5,0.5-1.1,0.5-1.8
				c0-1.5-1-2.8-2.3-3.3c0.6-1.2,1-2.5,1-3.9c0-4.4-3.4-8-7.8-8.3c0-0.1,0-0.2,0-0.2c0-1.8-1.3-3.3-3-3.6c0.1-0.6,0.2-1.3,0.2-2
				c0-5.1-4.1-9.2-9.2-9.2c-0.8,0-1.5,0.1-2.2,0.3c-0.7-2.9-3.3-5.1-6.4-5.1h-0.1c-1.3-4.4-5.4-7.6-10.3-7.6c-3.3,0-6.2,1.5-8.2,3.8
				c-1.1-1.1-2.7-1.8-4.4-1.8c-1,0-1.9,0.2-2.7,0.6C96.5,3.5,94.8,3,92.9,3c-5,0-9.1,3.8-9.6,8.7c-0.3,0-0.7-0.1-1.1-0.1
				c-3.1,0-5.9,1.5-7.6,3.9c-0.7-0.2-1.4-0.3-2.1-0.3c-4.9,0-8.9,4-8.9,8.9c0,0.6,0.1,1.1,0.2,1.7c-3.5,0.4-6.2,3.4-6.2,7
				c0,0.6,0.1,1.2,0.2,1.8c-4.8,0.5-8.5,4.6-8.5,9.6c0,1.4,0.3,2.7,0.8,3.9c-1.3,0.9-2.2,2.5-2.2,4.2c0,0.6,0.1,1.1,0.3,1.6
				c-5,0.6-8.9,4.8-8.9,10c0,3,1.3,5.6,3.3,7.5c-0.9,1.1-1.5,2.6-1.5,4.2c0,2.8,1.8,5.3,4.3,6.2c-1.2,1.6-1.9,3.6-1.9,5.8
				c0,4.4,2.9,8.2,7,9.5c0.7,1.4,2.1,2.3,3.7,2.4c0,0.2,0,0.3,0,0.5c0,5,4.1,9.1,9.1,9.1c1.6,0,3.1-0.4,4.5-1.2
				c1,0.9,2.3,1.5,3.8,1.5c0.4,0,0.9-0.1,1.3-0.2c0.5,2.7,2.9,4.8,5.8,4.8c1.4,0,2.7-0.5,3.8-1.3c0.7,0.5,1.6,0.9,2.5,0.9
				c1.3,0,2.4-0.6,3.1-1.5c0.9,1.9,2.8,3.2,4.9,3.2c1.1,0,2.1-0.3,3-0.9c1,0.3,2,0.6,3,0.6c1.6,0,3.1-0.7,4.1-1.9
				c1.4,1.8,3.5,3,5.9,3c2.6,0,4.9-1.3,6.2-3.3c0.8,0.4,1.6,0.6,2.6,0.6c1.8,0,3.3-0.8,4.3-2.1c1.4,1.6,3.4,2.7,5.7,2.7
				c3.4,0,6.2-2.3,7.1-5.3h0.1c1.8,0,3.3-0.9,4.2-2.3c1.2,0.8,2.6,1.3,4.2,1.3c4.1,0,7.4-3.3,7.4-7.4c0-0.4,0-0.7-0.1-1.1
				c3.7-0.5,6.5-3.6,6.5-7.3c0-1.4-0.4-2.7-1.1-3.8c1.4-0.9,2.4-2.4,2.4-4.2c0-0.8-0.2-1.6-0.6-2.3C161,79.4,162.9,76,162.9,72.2"/>
			<path class="st3" d="M83.1,15.5c1.1-2.1,2.9-3.9,5.3-2.7c0.3-3.5,4.8-5.8,7.7-3.5c0.4,0.3,0.8,0.7,1,1.1c0.1,0.1,0.6-0.4,0.8-0.5
				c0.8-0.4,1.6-0.7,2.5-0.6c1.6,0.1,2,1.6,1.7,3c1.3-0.7,2.6-0.9,3.9,0.1c1.2,0.9,1.8,2.3,2.3,3.7c1.2-1.6,3.1-2.7,5.2-2.2
				c0.9,0.2,1.9,0.6,2.4,1.4c0.4,0.7,0.5,1.6,0.6,2.4c2.3-1.2,6.3-2.3,6.6,1.2c2.5-1.4,5.4,0.3,4.9,3.3c1.9,0.4,4.1-0.4,5.7,1.1
				c1.3,1.3,1.6,2.6,1.4,4.3c1.1-0.2,2.5-0.2,3.3,0.7c0.8,0.8,0.8,1.9,0.6,2.9c2.5-1.5,5.9,1.2,5.8,4c1-0.8,2.1-0.4,2.8,0.8
				c0.9,1.6,0.3,3.2-0.5,4.7c1.2-0.4,2.8-0.3,4,0.3c0.5-1.1,0.8-2.3,0.8-3.6c0-4.4-3.4-8-7.8-8.3c0-0.1,0-0.2,0-0.2
				c0-1.8-1.3-3.3-3-3.6c0.1-0.6,0.2-1.3,0.2-2c0-5.1-4.1-9.2-9.2-9.2c-0.8,0-1.5,0.1-2.2,0.3c-0.7-2.9-3.3-5.1-6.4-5.1h-0.1
				c-1.3-4.4-5.4-7.6-10.3-7.6c-3.3,0-6.2,1.5-8.2,3.8c-1.1-1.1-2.7-1.8-4.4-1.8c-1,0-1.9,0.2-2.7,0.6c-1.5-0.9-3.2-1.4-5.1-1.4
				c-5,0-9.1,3.8-9.6,8.7c-0.3,0-0.7-0.1-1.1-0.1c-2.7,0-5.1,1.1-6.7,2.9C78.2,13.3,81.1,13.6,83.1,15.5z"/>
			<path class="st4" d="M128.2,28.4c1-0.7,0.6-1.6-0.2-2.1c0.1,0.3,0.1,0.7-0.2,1.1s-0.9,0.4-1.5,0.3c0.8,0.8,1.1,1.9,0.7,3.1
				c-0.4,1.1-1.6,1.7-2.7,1.9c1.5,1.2,1.4,3.3-0.6,4c0.6,1.2,1.1,2.7-0.3,3.6c-1.1,0.8-2.6,0.8-3.8,0.1c-0.4,1.4-1.5,2.5-3,2.6
				c-1.2,0.1-1.8-0.7-2.1-1.7c-1.1,1.7-3.7,2.1-5.1,0.5c-0.1,0.7,0,1.6,0.5,2.2c0.5,0.4,1,0.3,1.6,0.2c0.1,0,0.3,0.1,0.2,0.2
				c-0.4,1.1-0.1,2.4,1.3,2.6c0.9,0.1,1.7-0.3,2.5-0.6c0.1,0,0.2,0,0.3,0.1c0.8,1.3,2.1,1.1,3.3,0.4c1-0.5,1.6-1.3,2.3-2.2
				c0.2-0.3,0.7-0.3,1.1-0.1c1.5,0.7,1.7-1.1,1.7-2.1c0-0.1,0.1-0.2,0.2-0.2c2.1-0.3,3.5-2.9,2.7-4.9c-0.1-0.2,0.2-0.4,0.3-0.3
				c1.6-0.7,2-3.3,0.1-3.8c-0.2-0.1-0.2-0.3,0-0.4c1.1-0.3,2.1-1.2,2-2.4c-0.1-0.8-0.7-1.3-1.2-1.9
				C128.1,28.6,128.1,28.5,128.2,28.4z"/>
			<path class="st4" d="M75.3,27.1c0.1,0,0.2,0.1,0.2,0.3c-0.6,1.6-1,3.5,0.3,4.9c1,1,2.4,1.4,3.7,0.9c0.1,0,0.3,0.1,0.3,0.2
				c0,1.8,1.8,2.8,3.4,2c0.9-0.5,1.6-1.1,2.3-1.8c0.1-0.1,0.2-0.1,0.3,0c2,1.6,4.4-0.1,4.8-2.3c-1.3,1.1-3.4,2-3.8-0.2
				c-1.9,0.9-4.7,1.7-5.6-0.8C78.4,31.4,75.9,28,78,26c-1.6-0.3-2-1.8-1.4-3.3s2.1-2.5,3.6-2.4c-0.6-0.8-0.6-2-0.1-2.8
				c-1.5,0.4-3.6,1.5-2.5,2.8c0.1,0.1,0.1,0.3-0.1,0.3c-1.9,0.3-4,1.1-4.5,3.1C72.5,25.5,73.5,26.9,75.3,27.1z"/>
			<path class="st4" d="M88.6,55.5c-0.8-1-0.3-2,0.3-2.9c-1.1,0.2-2.3-0.6-2.5-1.8c-1.4,1.7-4.5,3-5.1,0.4c-1.2,1.8-4,3.5-5.5,1.2
				c-0.9,1.3-2.5,2-4.1,1.3s-2.4-2.3-2.3-4c-1.7,0.9-3.7,1.4-5.1-0.3c-1-1.3-0.7-3.4,0.2-4.7c-2.6,0.3-4-2.6-2.9-4.8
				c-1.2,0.8-2.4,2.1-2.3,3.6c0,1.3,0.7,2.7,2.2,2.2c0.1,0,0.2,0.1,0.2,0.2c0.1,0.1,0.1,0.3-0.1,0.3c-2.7,0.7-3.5,6.4,0.1,5.8
				c0.1,0,0.3,0.1,0.2,0.2c-0.2,0.8-0.7,2-0.2,2.8c0.9,1.4,2.6,1,3.5-0.1c0.1-0.2,0.3,0,0.3,0.1c0.1,0.5,0.2,1.2,0.6,1.5
				c0.8,0.7,1.4,0,2-0.5c0.1-0.1,0.3,0,0.3,0.1c-0.1,3.3,5.2,3.8,6.3,0.9c0.1-0.2,0.5-0.1,0.4,0.1v0.1c0,0,0,0,0.1,0.1
				c0.4,0.8,1,1.5,2,0.9c0.5-0.3,0.9-0.7,1.3-1.2c0.1-0.1,0.3-0.1,0.4,0c0.6,1.6,1.6-0.1,2.2-0.7c0.1-0.1,0.2-0.1,0.3,0
				c0.6,0.6,1.1,1.4,2.1,1.3c1.1-0.1,2-0.7,2.7-1.6c0.1-0.1,0.3-0.1,0.4,0c0.3,1.4,1.4,2.6,2.9,2c1.1-0.4,2.4-1.4,2.4-2.7
				C91,55.9,89.4,56.5,88.6,55.5z"/>
			<path class="st4" d="M162.9,72.2c0-3.9-2-7.3-5-9.3c1.1-1.8,1.8-3.9,1.8-6.1c0-1.6-0.3-3.1-0.9-4.4c0.5,2.3,0.3,4.7-0.7,7.1
				c-1.1,2.5-3.2,5-5.8,6c0,0,0,0,0.1,0c1.4,0.6,2.8,2.4,1.4,3.8c-1,1.1-2.6,0.8-3.9,0.7c1.3,1.7,2.4,3.8,0.9,5.7
				c-1,1.4-3.1,1.3-4.4,0.4c-1.1,1.5-3,0.9-3.6-0.6c-0.6,2.6-1.2,5.6-4.2,6.1c-2.2,0.4-5.1-1-4.6-3.5c-0.8,0.3-1.6-0.3-2-1.2
				c-1.7,1.5-4.9,0.9-5.3-1.3c-1.1,0.7-2.9,0.4-3.4-0.8c-0.6,1.2-1.7,2.2-2.9,2.7c-1.1,0.5-1.8,0.1-2.1-0.7c-0.4,1.7-1.2,3.5-3,3.9
				c-1.2,0.2-2.7,0-3.1-1.1c-0.9,1.5-2.3,2.8-4.2,2.7c-1.6-0.1-3-0.9-3.3-2.5c-1.3,1.1-3.4,0.9-4.7-0.3c-1.3,2.2-4.3,2.4-6.5,1.5
				c-1.1-0.5-2.2-1.3-2.6-2.5c-0.1-0.4-0.2-0.8-0.2-1.2c-1.1,1.2-2.7,2.1-4.3,2c-1.7,0-2.7-0.9-3.2-2.2c-1.2,1.7-3.5,3.2-5.5,2.5
				c-2.3-0.8-3-3.6-3.1-5.9c-0.7,0.9-1.9,1.7-3,0.9c-0.5-0.3-0.7-0.8-0.8-1.3c-1.5,1.1-3.2,1.8-5,1.5c-1.9-0.3-2.8-1.8-3.1-3.4
				c-1.3,1.2-3,2.5-4.7,1.4c-1.1-0.7-1.6-1.9-1.5-3.1c-2.6,1.5-6.5,2.6-8.4-0.1c-1.8-2.6,0.2-6.1,1.9-8.4c-2.1,0.7-4.3,0.2-4.9-2.2
				c-0.5-1.9,0.2-3.9,1.7-5c-4.2,1.2-7.3,5.1-7.3,9.7c0,3,1.3,5.6,3.3,7.5c-0.9,1.1-1.5,2.6-1.5,4.2c0,2.8,1.8,5.3,4.3,6.2
				c-1.2,1.6-1.9,3.6-1.9,5.8c0,4.4,2.9,8.2,7,9.5c0.7,1.4,2.1,2.3,3.7,2.4c0,0.2,0,0.3,0,0.5c0,5,4.1,9.1,9.1,9.1
				c1.6,0,3.1-0.4,4.5-1.2c1,0.9,2.3,1.5,3.8,1.5c0.4,0,0.9-0.1,1.3-0.2c0.5,2.7,2.9,4.8,5.8,4.8c1.4,0,2.7-0.5,3.8-1.3
				c0.7,0.5,1.6,0.9,2.5,0.9c1.3,0,2.4-0.6,3.1-1.5c0.9,1.9,2.8,3.2,4.9,3.2c1.1,0,2.1-0.3,3-0.9C97,114.7,98,115,99,115
				c1.6,0,3.1-0.7,4.1-1.9c1.4,1.8,3.5,3,5.9,3c2.6,0,4.9-1.3,6.2-3.3c0.8,0.4,1.6,0.6,2.6,0.6c1.8,0,3.3-0.8,4.3-2.1
				c1.4,1.6,3.4,2.7,5.7,2.7c3.4,0,6.2-2.3,7.1-5.3h0.1c1.8,0,3.3-0.9,4.2-2.3c1.2,0.8,2.6,1.3,4.2,1.3c4.1,0,7.4-3.3,7.4-7.4
				c0-0.4,0-0.7-0.1-1.1c3.7-0.5,6.5-3.6,6.5-7.3c0-1.4-0.4-2.7-1.1-3.8c1.4-0.9,2.4-2.4,2.4-4.2c0-0.8-0.2-1.6-0.6-2.3
				C161,79.4,162.9,76,162.9,72.2z"/>
			<path class="st5" d="M73.8,80.9c-0.9,1.4-2.3,2.7-4,1.6c-0.5-0.3-0.4-0.6-0.9-0.3c-0.3,0.2-0.6,0.3-1,0.3c-0.9,0-1.7-0.4-2.6-0.6
				c-1,2.7-4.1,3-5.9,0.9c-1.2,1.4-3.6,1.4-5.1,0.4c0,0.2,0.1,0.3,0.2,0.5c0.5,1.3,1.8,2.6,3.4,2.2c0.8-0.2,1.7-0.7,2.3,0.2
				c1.5,2.1,3.4,0.7,4.9-0.5c0.1-0.1,0.2-0.1,0.3,0c1.2,1.7,3.4,0.7,4.4-0.7c0.1-0.1,0.3-0.1,0.4,0c1,3,4.2,1.6,4.9-0.8
				c0-0.2,0.3-0.2,0.4,0c0.6,1.4,1.8,0.4,2.3-0.6c0.5-0.9,0.8-1.9,0.5-2.9C77,82.4,75.1,82.1,73.8,80.9z"/>
			<path class="st5" d="M145.3,83.8c-0.7,2.7-4.5,4.6-6.3,2c-0.8,1.1-2,2.2-3.5,1.8c-1.5-0.4-2.4-1.7-3-3c-1,1.2-2.8,2.1-4.4,1.5
				c-0.7-0.3-1.4-0.7-1.7-1.4c-0.3-0.7-0.3-1.5-0.4-2.3c-0.9,0.6-2.7,1.2-3.4,0.7c-0.3,0.6-0.6,1.5-0.5,2.1c0.3,1,1.8,0.6,2.5,0.4
				c0.2,0,0.3,0.1,0.2,0.2c-0.2,1.1-0.1,2.6,1.1,3.1c1,0.4,2.2,0.2,3.2-0.2c0.1-0.1,0.3,0,0.3,0.2c-0.2,3.7,4.3,3.1,6.1,1.2
				c0.1-0.1,0.3-0.1,0.3,0.1c0.6,2.5,3.3-0.5,3.9-1.5c0.1-0.1,0.2-0.1,0.3,0c1.9,2.2,6,0,6.3-2.6c0-0.1,0.1-0.2,0.3-0.2
				c2.9,0.7,4.6-2,4.4-4.6C150.4,83.6,147.3,85.7,145.3,83.8z"/>
			<path class="st5" d="M96,89.8c-1.1,0.2-2.1-0.6-2.7-1.4c-0.5,0.7-1.3,1.4-2.2,1.2c-0.9-0.1-1.4-0.9-1.6-1.7
				c-0.9,0.7-2.8,1.3-3.4,0.6l0,0c-0.2,1,0.1,2.4,1.3,2.4c0.7,0,1.2-0.2,1.8-0.5c0.1-0.1,0.3,0,0.3,0.1c0.3,2.3,2.4,2.6,3.8,1
				c0.1-0.1,0.3,0,0.3,0.1c1.8,4.4,6.5-0.7,5.6-3.9C98.4,88.4,97.3,89.5,96,89.8z"/>
		</g>
		<g>
			<g>
				<path class="st6" d="M113.9,23c-0.1,0-0.4-0.2-0.7-0.6c-0.3-0.4-0.4-1.1-0.4-1.6c0-0.3,0.1-0.5,0.1-0.6c0-0.2,0.1-0.3,0.2-0.3
					c0.1-0.2,0.2-0.1,0.3-0.1c0.1,0,0.1,0.1,0.1,0.2c0,0,0,0.1,0,0.3c0,0.1,0,0.3-0.1,0.6c0,0.5,0,1.1,0.2,1.5
					C113.7,22.7,114,23,113.9,23"/>
				<path class="st7" d="M113.2,21.4c-3.8,0.4-4.6,4.5-3.2,7.1c1.8,3.3,5.4,4.4,7.3,3.9c1.5-0.4,2-2,1.5-3.2
					c-0.8-1.7-0.2-2.5-0.8-4.5C117.4,22.6,116.2,21,113.2,21.4"/>
				<path class="st8" d="M118.8,29.2c-0.2-0.5-0.3-0.9-0.4-1.3c-0.1,0.2-0.2,0.3-0.3,0.5c-1.1,1.3-2.9,1.8-4.5,1.4
					c-2.2-0.6-3.8-2.5-4.1-4.6c-0.2,1.1,0,2.4,0.6,3.4c1.8,3.3,5.4,4.4,7.3,3.9C118.8,32,119.3,30.4,118.8,29.2z"/>
				<path class="st9" d="M111.2,24.1c0.1,0-0.1,0.8-0.1,1.2c0,0.4-0.1,0.5-0.2,0.5s-0.2,0-0.2-0.5C110.8,24.7,111.1,24,111.2,24.1"
					/>
				<path class="st9" d="M112,22.8c0.1,0.1,0,0.3-0.2,0.4c-0.1,0.2-0.3,0.3-0.4,0.2c-0.1-0.1,0-0.3,0.1-0.5
					C111.7,22.8,111.9,22.7,112,22.8"/>
			</g>
			<g>
				<path class="st6" d="M88.7,64.3c-0.1,0-0.4-0.3-0.7-0.9c-0.3-0.6-0.5-1.4-0.4-2c0-0.3,0.1-0.6,0.1-0.7c0.1-0.2,0.1-0.3,0.2-0.4
					c0.2-0.2,0.2-0.1,0.3-0.1c0.1,0.1,0.1,0.1,0.1,0.2c0,0.1,0,0.2,0,0.3c0,0.2,0,0.4-0.1,0.7c0,0.6,0,1.3,0.2,1.8
					C88.5,63.9,88.8,64.3,88.7,64.3"/>
				<path class="st7" d="M88.6,62.4c-3.7-1-6.8,3.5-6.7,6.5c0.1,4.6,2.6,7.2,4.6,7.4c1.6,0.2,2.3-1.3,2.2-2.6
					c-0.1-1.9,0.6-3.3,1.8-4.9C92.1,66.5,91.6,63.2,88.6,62.4"/>
				<path class="st8" d="M91.1,64.5c0.1,0.5,0.1,1.1,0.1,1.6c0,0.7-0.2,1.5-0.7,2.1c-0.6,0.7-1.5,0.9-2.2,1.4
					c-0.9,0.6-1.4,1.8-2.4,2.1C85,72,84.2,71.6,83.5,71c-1-0.9-1.4-1.9-1.5-3c0,0.3-0.1,0.6-0.1,0.8c0.1,4.6,2.6,7.2,4.6,7.4
					c1.6,0.2,2.3-1.3,2.2-2.6c-0.1-1.9,0.6-3.3,1.8-4.9C91.5,67.5,91.7,65.9,91.1,64.5z"/>
				<path class="st9" d="M84.5,65.3c0.1,0.1-0.4,0.7-0.6,1.1s-0.3,0.4-0.4,0.4s-0.2-0.1,0-0.6C83.8,65.7,84.4,65.2,84.5,65.3"/>
				<path class="st9" d="M85.9,64c0,0.1-0.2,0.4-0.4,0.6c-0.3,0.2-0.5,0.3-0.6,0.2c-0.1-0.1,0.1-0.4,0.4-0.7
					C85.6,63.9,85.9,63.9,85.9,64"/>
			</g>
			<g>
				<path class="st6" d="M62.4,94.6c0,0.1-0.4-0.1-0.7-0.6c-0.3-0.4-0.5-1.1-0.5-1.6c0-0.3,0-0.5,0-0.6c0-0.2,0.1-0.3,0.1-0.4
					c0.1-0.2,0.2-0.1,0.3-0.1s0.1,0.1,0.1,0.2c0,0,0,0.1,0,0.3c0,0.1,0,0.3,0,0.6c0,0.5,0.1,1,0.3,1.5
					C62.3,94.3,62.5,94.6,62.4,94.6"/>
				<path class="st7" d="M61.7,93c-3.4,0.7-3.9,4.9-2.4,7.4c1.9,3.1,5.3,4,7,3.3c1.4-0.5,1.7-2.2,1.1-3.3c-0.9-1.6-0.4-2.5-1.1-4.4
					C65.7,94,64.4,92.5,61.7,93"/>
				<path class="st8" d="M67.4,100.5c-0.3-0.5-0.4-1-0.5-1.4c-0.4,1.3-1.4,2.3-3,2.5c-1.7,0.2-3.7-0.3-4.7-1.8
					c-0.2-0.3-0.4-0.6-0.5-0.9c0.1,0.6,0.3,1.1,0.6,1.6c1.9,3.1,5.3,4,7,3.3C67.6,103.2,68,101.5,67.4,100.5z"/>
				<path class="st9" d="M60.1,95.9c0.1,0,0,0.8,0,1.2c0,0.5,0,0.5-0.1,0.5s-0.2,0-0.2-0.5C59.7,96.5,60,95.8,60.1,95.9"/>
				<path class="st9" d="M60.7,94.5c0.1,0.1,0,0.3-0.1,0.5s-0.3,0.3-0.3,0.3c-0.1,0-0.1-0.3,0.1-0.5C60.4,94.6,60.6,94.5,60.7,94.5"
					/>
			</g>
			<g>
				<path class="st6" d="M94.4,10.2c0-0.3-0.1-0.6-0.1-0.8c-0.1-0.2-0.1-0.3-0.2-0.4c-0.2-0.2-0.2-0.1-0.3-0.1c0,0.1,0,0.1,0,0.2
					s0,0.2,0,0.3c0,0.2,0.1,0.4,0.1,0.7c0.1,0.6,0,1.3-0.1,1.9c-0.1,0.6-0.3,1-0.3,1c0.1,0.1,0.4-0.2,0.7-0.8
					C94.4,11.7,94.5,10.9,94.4,10.2"/>
				<path class="st7" d="M99.4,16.4c-0.2-3.2-3.3-7-6.8-5.3c-2.8,1.4-2.4,6-1,7.1c1.6,1.3,0.5,2.2,1,4.1c0.3,1.3,1.9,1.4,2.7,1
					C97.1,22.5,99.5,20.4,99.4,16.4"/>
				<path class="st8" d="M99.4,16.4c-0.1-1.5-0.8-3.1-1.9-4.3c1.4,2.1,1.4,5.3,0.3,7.4c-0.7,1.3-2.2,2.7-3.7,2.1
					c-0.8-0.3-1.2-1-1.6-1.6c0,0.6-0.2,1.3,0.1,2.3c0.3,1.3,1.9,1.4,2.7,1C97.1,22.5,99.5,20.4,99.4,16.4z"/>
				<path class="st9" d="M92.5,13.2c0.1,0.1,0.1,0.3,0,0.6s-0.3,0.5-0.4,0.4c-0.1,0-0.2-0.3,0-0.6C92.2,13.3,92.4,13.2,92.5,13.2"/>
				<path class="st9" d="M91.9,14.9c0.1,0,0.2,0.2,0.3,0.5c0.1,0.3,0.1,0.5,0,0.6s-0.3-0.1-0.4-0.5C91.7,15.2,91.8,14.9,91.9,14.9"
					/>
			</g>
			<g>
				<path class="st6" d="M71.3,30.7c0-0.3,0-0.6,0-0.8c0-0.2-0.1-0.3-0.1-0.4c-0.1-0.2-0.2-0.2-0.3-0.1c-0.1,0-0.1,0.1-0.1,0.2
					s0,0.2,0,0.3c0,0.2,0,0.4,0,0.7c0,0.6-0.2,1.3-0.4,1.9c-0.2,0.5-0.5,0.9-0.4,1c0,0.1,0.4-0.2,0.8-0.7
					C71,32.2,71.3,31.4,71.3,30.7"/>
				<path class="st7" d="M73.5,38.3c1.2-3,0.3-7.2-3.6-7.1c-3.1,0.1-5.3,3.1-5,5.6c0.2,2.5-0.2,2.3-0.5,4.3
					c-0.3,1.3,1.3,1.9,2.2,1.9C68.6,43,71.9,42,73.5,38.3"/>
				<path class="st8" d="M71.3,31.4c1.9,1.9,1.2,5.7-0.3,7.7c-1,1.4-2.9,2.7-4.7,2.4c-0.8-0.1-1.4-0.5-1.8-1.1
					c0,0.2-0.1,0.4-0.1,0.7c-0.3,1.3,1.3,1.9,2.2,1.9c2,0,5.3-1,6.9-4.7C74.6,35.7,74,32.2,71.3,31.4z"/>
				<path class="st9" d="M69,32.8c0.1,0.1-0.2,0.3-0.4,0.5c-0.3,0.2-0.6,0.2-0.7,0.1c-0.1-0.1,0.1-0.4,0.4-0.6
					C68.6,32.6,69,32.6,69,32.8"/>
				<path class="st9" d="M67.4,33.9c0.1,0.1,0.1,0.4,0,0.7s-0.3,0.5-0.4,0.5s-0.2-0.3-0.1-0.7S67.2,33.8,67.4,33.9"/>
			</g>
			<g>
				<path class="st6" d="M96.3,37.4c0-0.3,0-0.6-0.1-0.8c0-0.2-0.1-0.3-0.1-0.4C96,36,95.9,36,95.8,36.1s-0.1,0.1-0.1,0.2
					c0,0.1,0,0.2,0,0.3c0,0.2,0,0.4,0,0.7c0,0.6-0.1,1.3-0.3,1.9c-0.2,0.6-0.4,0.9-0.4,1c0.1,0.1,0.4-0.2,0.7-0.7
					C96.1,38.9,96.3,38.1,96.3,37.4"/>
				<path class="st7" d="M100.5,44.8c0.2-3.2-2.1-7-5.7-5.7c-2.9,1.1-2.8,4.9-2.2,6.6c0.7,2-0.1,2.5,0.2,4.4
					c0.2,1.3,1.7,1.6,2.5,1.3C97.2,50.8,100.3,48.8,100.5,44.8"/>
				<path class="st8" d="M95.6,38.9c3.8,1.1,4.3,7.8,0.8,10.3c-0.1,0.1-0.3,0-0.3-0.1c-0.3-0.9-1,0.5-1.4,0.7
					c-0.4,0.3-0.9,0.6-1.5,0.4c-0.2-0.1-0.4-0.3-0.5-0.5c0,0.2,0,0.3,0,0.5c0.2,1.3,1.7,1.6,2.5,1.3c1.9-0.7,5-2.6,5.2-6.7
					C100.7,41.8,98.8,38.3,95.6,38.9z"/>
				<path class="st9" d="M95.1,40.6c0.1,0.1,0,0.4-0.1,0.7c-0.2,0.3-0.4,0.5-0.5,0.5c-0.1-0.1-0.1-0.4,0.1-0.7
					C94.7,40.7,95,40.5,95.1,40.6"/>
				<path class="st9" d="M94.2,42.5c0.2,0,0.3,0.3,0.3,0.6c0.1,0.3,0,0.6-0.1,0.7c-0.1,0-0.4-0.2-0.4-0.6
					C93.9,42.8,94,42.5,94.2,42.5"/>
			</g>
			<g>
				<path class="st6" d="M136.7,29.5c0-0.3,0-0.6,0-0.7c0-0.2,0-0.3-0.1-0.4c-0.1-0.2-0.2-0.2-0.2-0.1c-0.1,0-0.1,0.1-0.1,0.2
					c0,0,0,0.2,0,0.3c0,0.2,0,0.4-0.1,0.6c-0.1,0.5-0.2,1.2-0.5,1.7c-0.2,0.5-0.5,0.8-0.4,0.9c0,0.1,0.4-0.1,0.8-0.6
					C136.4,30.9,136.7,30.1,136.7,29.5"/>
				<path class="st7" d="M139.9,36.2c0.5-3-1.5-7.1-5-6.3c-2.8,0.7-3.4,5-2.3,6.3c1.2,1.5,0,2.1,0,3.9c0,1.3,1.4,1.7,2.2,1.5
					C136.6,41.3,139.2,39.9,139.9,36.2"/>
				<path class="st8" d="M138.4,31c0.5,1.7,0.4,4.2,0,5.1c-0.6,1.4-2.1,2.4-3.6,2.2c-0.6-0.1-1.2-0.4-1.7-0.7c0,0.7-0.5,1.4-0.5,2.6
					c0,1.3,1.4,1.7,2.2,1.5c1.8-0.4,4.4-1.8,5.1-5.5C140.2,34.4,139.6,32.3,138.4,31z"/>
				<path class="st9" d="M134.4,31.6c0.1,0.1,0,0.3-0.2,0.5c-0.2,0.2-0.3,0.4-0.4,0.3c-0.1-0.1-0.1-0.3,0.1-0.6
					C134.1,31.6,134.3,31.5,134.4,31.6"/>
				<path class="st9" d="M133.5,33c0.1,0,0.2,0.2,0.2,0.5s0,0.5-0.1,0.5s-0.3-0.2-0.3-0.5C133.3,33.2,133.4,32.9,133.5,33"/>
			</g>
			<g>
				<path class="st6" d="M144.6,49.6c0-0.4-0.1-0.7-0.2-0.9c-0.1-0.2-0.1-0.4-0.2-0.5c-0.2-0.2-0.3-0.2-0.3-0.1
					c-0.1,0.1-0.1,0.1-0.1,0.3c0,0.1,0,0.2,0,0.4s0.1,0.4,0.1,0.8c0.1,0.7,0,1.5-0.1,2.1c-0.2,0.6-0.4,1.1-0.3,1.2
					c0.1,0.1,0.4-0.3,0.7-0.9C144.5,51.3,144.7,50.4,144.6,49.6"/>
				<path class="st7" d="M150.1,56.6c-0.2-3.6-2.7-7.6-7.3-6c-3.3,1.1-4.7,7-2.4,9c2.1,1.9,1.2,2.3,2,3.8c0.5,0.9,2.1,1.4,3,1
					C147.5,63.4,150.3,61.2,150.1,56.6"/>
				<path class="st8" d="M150.1,56.6c0-0.7-0.1-1.3-0.3-2c0.1,1.8-0.4,3.6-1.5,5.1c-0.7,0.9-1.8,1.9-3,1.8c-1.2-0.1-2.2-0.7-3-1.5
					c-1-0.9-2.4-2.1-2.9-3.4c0,1.3,0.4,2.4,1.2,3.1c2.1,1.9,1.2,2.3,2,3.8c0.5,0.9,2.1,1.4,3,1C147.5,63.4,150.3,61.2,150.1,56.6z"
					/>
				<path class="st9" d="M143,52.2c0.1,0.1,0.1,0.4,0,0.7s-0.3,0.5-0.4,0.5c-0.1,0-0.2-0.3,0-0.7C142.7,52.3,142.9,52.1,143,52.2"/>
				<path class="st9" d="M141.8,54.3c0.1,0,0.2,0.3,0.2,0.6s-0.1,0.6-0.3,0.6c-0.1,0-0.3-0.3-0.2-0.6
					C141.4,54.5,141.6,54.2,141.8,54.3"/>
			</g>
			<g>
				<path class="st6" d="M109.9,53.9c0-0.3-0.1-0.6-0.1-0.8c-0.1-0.2-0.1-0.3-0.2-0.4c-0.2-0.2-0.2-0.1-0.3-0.1
					c-0.1,0.1-0.1,0.1-0.1,0.2c0,0.1,0,0.2,0,0.3c0,0.2,0.1,0.4,0.1,0.7c0.1,0.6,0,1.3-0.1,1.9c-0.1,0.6-0.3,1-0.3,1
					c0.1,0.1,0.4-0.2,0.7-0.8C109.9,55.4,110,54.6,109.9,53.9"/>
				<path class="st7" d="M115.2,60.5c-0.2-3.2-2.7-6.8-7.2-5.7c-3,0.7-3.3,4.6-2.7,6.3c0.7,1.9,2.9,3.7,3.4,5.6
					c0.3,1.3,1.9,1.4,2.7,1.1C113.3,66.9,115.4,64.6,115.2,60.5"/>
				<path class="st8" d="M113.8,65.5c-1.6,0.8-3.4-0.2-4.6-1.2c-1.5-1.2-3.1-2.2-3.8-4.2c-0.1-0.4-0.2-0.8-0.3-1.1
					c-0.1,0.8,0,1.6,0.3,2.2c0.7,1.9,2.9,3.7,3.4,5.6c0.3,1.3,1.9,1.4,2.7,1.1c0.9-0.4,1.9-1.3,2.7-2.5
					C114,65.3,113.9,65.4,113.8,65.5z"/>
				<path class="st9" d="M107.9,56.5c0.1,0.1,0.1,0.4-0.1,0.7s-0.4,0.5-0.5,0.5s-0.2-0.4,0-0.7C107.5,56.6,107.7,56.4,107.9,56.5"/>
				<path class="st9" d="M106.6,58.5c0.1,0,0.2,0.3,0.1,0.6c0,0.3-0.1,0.5-0.2,0.5s-0.2-0.3-0.2-0.6
					C106.4,58.7,106.5,58.5,106.6,58.5"/>
			</g>
			<g>
				<path class="st6" d="M57,62c0.1-0.3,0.1-0.6,0.1-0.8s0-0.3-0.1-0.5s-0.2-0.2-0.3-0.2s-0.1,0.1-0.1,0.2c0,0.1,0,0.2-0.1,0.3
					c0,0.2,0,0.4-0.1,0.7c-0.1,0.6-0.3,1.3-0.6,1.8s-0.6,0.8-0.5,0.9c0,0.1,0.4-0.1,0.8-0.6C56.6,63.4,56.9,62.6,57,62"/>
				<path class="st7" d="M60.5,69.2c0.8-3.1-1-7.2-4.9-6.6c-3.1,0.5-5.5,3.3-4.7,6.3c0.5,2,1,1.9,0.4,4.5c-0.3,1.3,2,2,2.9,1.9
					C56.2,75,59.5,73.1,60.5,69.2"/>
				<path class="st8" d="M59.6,64.2c0.2,0.6,0.2,1.1,0.3,1.7c0.1,2.1-0.7,3.9-2.3,5.3c-1.3,1.2-3.1,2-4.8,1.3
					c-0.5-0.2-0.9-0.5-1.2-0.8c0,0.4-0.1,1-0.3,1.8c-0.3,1.3,2,2,2.9,1.9c2-0.3,5.4-2.2,6.3-6.1C60.9,67.6,60.6,65.6,59.6,64.2z"/>
				<path class="st9" d="M54.2,64.5c0.1,0.1-0.1,0.3-0.3,0.5s-0.5,0.2-0.6,0.2c-0.1-0.1,0-0.3,0.3-0.5
					C53.9,64.4,54.1,64.4,54.2,64.5"/>
				<path class="st9" d="M52.8,65.6c0.1,0.1,0.1,0.3,0,0.6c-0.1,0.3-0.2,0.5-0.3,0.5s-0.2-0.3-0.1-0.6
					C52.5,65.7,52.7,65.5,52.8,65.6"/>
			</g>
			<g>
				<path class="st6" d="M135,93c0.1-0.3,0.2-0.6,0.2-0.8c0-0.2,0-0.3,0-0.5c-0.1-0.3-0.2-0.2-0.2-0.2c-0.1,0-0.1,0.1-0.2,0.2
					c0,0-0.1,0.2-0.1,0.3c0,0.2-0.1,0.4-0.2,0.7c-0.2,0.6-0.5,1.2-0.9,1.7s-0.7,0.8-0.7,0.8c0,0.1,0.5-0.1,0.9-0.5
					C134.3,94.3,134.8,93.6,135,93"/>
				<path class="st7" d="M137,100.6c1.1-3,0.7-7.3-3.9-7.1c-3.1,0.2-4.6,3.8-4.5,5.6c0.1,1.9,0.1,2.2-0.2,4.1c-0.2,1.3,1.1,2,2,2
					C132.4,105.2,135.5,104.4,137,100.6"/>
				<path class="st8" d="M136,94.3c1.2,2,0.2,5.4-1.6,6.7c-1.9,1.3-4.6,1.1-5.7-0.6c0,1,0,1.5-0.3,2.9c-0.2,1.3,1.1,2,2,2
					c2-0.1,5.1-0.9,6.6-4.7C137.8,98.4,137.8,95.6,136,94.3z"/>
				<path class="st9" d="M132.4,94.9c0,0.1-0.1,0.3-0.4,0.4c-0.2,0.1-0.5,0.2-0.6,0.1s0.1-0.3,0.3-0.5
					C132.1,94.8,132.4,94.8,132.4,94.9"/>
				<path class="st9" d="M131,95.9c0.1,0.1,0.1,0.3,0,0.6c-0.1,0.3-0.3,0.5-0.4,0.4c-0.1,0-0.2-0.3,0-0.6
					C130.7,96,130.9,95.8,131,95.9"/>
			</g>
		</g>
		<g>
			<path class="st5" d="M112.4,72.6c-0.1,0-0.3,0.3-0.6,0.6c-0.3,0.3-1,0.5-1.6,0.3s-1-0.7-1.2-1.1c-0.1-0.4-0.1-0.8-0.2-0.8
				s-0.1,0-0.2,0.2c-0.1,0.1-0.2,0.4-0.1,0.7c0,0.3,0.1,0.7,0.4,1s0.7,0.6,1.1,0.8c0.5,0.1,1,0.1,1.4-0.1s0.7-0.4,0.9-0.7
				C112.5,73.1,112.5,72.7,112.4,72.6"/>
			<g>
				<path class="st5" d="M83.9,31.9c-0.3,0-0.8,0-1.2-0.2c-0.4-0.2-0.9-0.5-1.1-1c0,0,0-0.1,0-0.3c0-0.1,0-0.2-0.2-0.3L81.3,30h-0.1
					c0,0-0.1,0-0.2,0s-0.2,0.1-0.2,0.1s-0.1,0-0.1,0.1c0,0-0.1,0.1-0.2,0.1s-0.2,0.1-0.3,0.1c-0.4,0.1-0.9,0.1-1.4,0
					s-0.9-0.4-1.2-0.8c-0.3-0.4-0.4-1-0.3-1.5c0.1-0.3,0.2-0.7,0.4-0.9c0.1-0.1,0.2-0.2,0.5-0.6c0.1-0.1,0.1-0.3,0.1-0.5
					c0-0.1-0.1-0.2-0.1-0.2L78,25.7l-0.2-0.1l-0.1-0.1c-0.1,0-0.1-0.1-0.2-0.1c-0.1-0.1-0.2-0.2-0.3-0.2c-0.2-0.2-0.4-0.4-0.5-0.6
					c-0.3-0.4-0.4-0.9-0.3-1.3c0-0.4,0.2-0.8,0.5-1.1c0.3-0.3,0.6-0.5,0.9-0.7c0.6-0.4,1.2-0.5,1.6-0.5c0.4-0.1,0.6-0.1,0.6-0.1
					s-0.2-0.1-0.7-0.1c-0.4,0-1.1,0-1.8,0.4c-0.4,0.2-0.8,0.4-1.1,0.8c-0.3,0.4-0.7,0.8-0.7,1.4c-0.1,0.6,0,1.3,0.4,1.8
					c0.2,0.3,0.4,0.5,0.6,0.7c0.1,0.1,0.2,0.2,0.4,0.3c0.1,0,0.1,0.1,0.2,0.1l0.1,0.1l0,0l0,0c0,0-0.2,0.2-0.3,0.3
					c-0.3,0.4-0.5,0.8-0.6,1.2c-0.2,0.7,0,1.5,0.4,2.1s1,1,1.6,1.1c0.6,0.2,1.3,0.1,1.8,0c0.1,0,0.3-0.1,0.4-0.2l0.1-0.1
					c0,0.1,0,0.1,0.1,0.2c0.4,0.6,1,1,1.5,1.2s1,0.1,1.4,0.1c0.8-0.2,1.1-0.5,1.1-0.5C85,31.7,84.6,31.9,83.9,31.9"/>
				<path class="st5" d="M124.5,36.5L124.5,36.5c0.2-0.2,0.3-0.3,0.4-0.4c0.2-0.2,0.3-0.4,0.5-0.7c0.2-0.5,0.3-1,0.2-1.4
					c-0.1-0.4-0.3-0.7-0.5-0.9c-0.5-0.4-0.8-0.4-0.8-0.4c0,0.1,0.2,0.2,0.6,0.6c0.1,0.2,0.3,0.5,0.3,0.8s0,0.7-0.3,1.1
					c-0.1,0.2-0.2,0.4-0.4,0.5c-0.1,0.1-0.2,0.2-0.3,0.2l-0.1,0.1l0,0c0,0-0.1,0-0.2,0.1c-0.1,0-0.2,0-0.3,0.1
					c-0.1,0-0.1,0.1-0.2,0.2v0.1c0,0,0,0.1,0,0.2c0.1,0.2,0.2,0.2,0.2,0.3c0.1,0.1,0.1,0,0.1,0l0,0l0.1,0.1c0.2,0.2,0.3,0.4,0.4,0.7
					c0.2,0.5,0.1,1.1-0.2,1.6c-0.3,0.5-0.9,0.8-1.5,1c-0.5,0.1-1,0.1-1.4,0c-0.2-0.1-0.5-0.1-0.7-0.2l-0.3-0.1c-0.1,0-0.2-0.1-0.3,0
					c-0.2,0-0.4,0.2-0.5,0.4l-0.1,0.2v0.1l-0.1,0.2c-0.1,0.1-0.1,0.2-0.2,0.3c-0.1,0.2-0.3,0.4-0.4,0.5c-0.3,0.3-0.7,0.6-1,0.7
					c-0.7,0.3-1.5,0.3-2,0s-0.8-0.7-0.9-1s-0.1-0.5-0.2-0.5c0,0-0.1,0.2-0.1,0.6c0.1,0.4,0.3,0.9,0.9,1.4c0.3,0.2,0.7,0.4,1.1,0.4
					s0.9,0,1.4-0.2s0.9-0.4,1.3-0.8c0.2-0.2,0.4-0.4,0.5-0.6c0.1-0.1,0.1-0.2,0.2-0.4l0.1-0.2v-0.1l0,0l0,0l0,0l0,0h0.1
					c0.3,0.1,0.5,0.2,0.8,0.3c0.6,0.1,1.2,0.1,1.8,0c0.8-0.2,1.5-0.7,1.9-1.4s0.5-1.5,0.3-2.2c-0.1-0.3-0.3-0.7-0.5-0.9
					c0,0,0-0.1-0.1-0.1c0,0,0,0,0.1,0C124.4,36.6,124.5,36.5,124.5,36.5"/>
				<path class="st5" d="M75,52.3c-0.1,0-0.2,0-0.5,0.3c-0.1,0.1-0.3,0.4-0.5,0.6c-0.3,0.3-0.6,0.6-1.2,0.8s-1.3,0.1-1.9-0.2
					c-0.6-0.4-1-1.1-1.2-1.7c-0.2-0.7-0.2-1.3-0.1-1.7s0.1-0.7,0.1-0.7s-0.2,0.2-0.4,0.6c-0.1,0-0.2,0-0.3,0.1
					c-0.2,0.1-0.4,0.2-0.7,0.3c-0.3,0.1-0.7,0.2-1.3,0.2c-0.5-0.1-1.1-0.3-1.5-0.8s-0.7-1.1-0.8-1.7c-0.1-0.6,0-1.2,0.1-1.6
					c0.1-0.4,0.2-0.6,0.1-0.7c0,0-0.2,0.2-0.4,0.6c-0.2,0.4-0.4,1-0.4,1.7c0,0.4,0.1,0.7,0.2,1.1c0.1,0.4,0.3,0.7,0.6,1.1
					c0.3,0.3,0.6,0.6,0.9,0.8c0.4,0.2,0.8,0.3,1.1,0.4c0.7,0.1,1.3-0.1,1.7-0.3c0.2-0.1,0.3-0.2,0.4-0.3c0,0.3-0.1,0.7,0,1.2
					c0.1,0.8,0.5,1.7,1.3,2.3c0.4,0.3,0.8,0.5,1.3,0.5c0.5,0.1,0.9,0,1.3-0.1c0.8-0.3,1.3-0.7,1.5-1.1c0.3-0.4,0.4-0.7,0.5-0.9
					C75.2,52.4,75.1,52.3,75,52.3"/>
				<path class="st5" d="M90.6,55.3c-0.1,0-0.2,0.1-0.4,0.1c-0.2,0-0.4,0.1-0.6,0.1s-0.5-0.2-0.6-0.4c-0.1-0.3-0.2-0.6-0.1-0.9
					c0.1-0.6,0.6-1.1,0.5-1.2c0,0-0.2,0-0.4,0.1c-0.2,0.1-0.5,0.4-0.7,0.8c-0.2,0.4-0.3,0.9-0.1,1.5c0.1,0.3,0.3,0.5,0.5,0.7
					s0.5,0.3,0.7,0.3c0.5,0.1,0.8-0.1,1.1-0.2c0.2-0.1,0.4-0.2,0.4-0.3c0.1-0.2,0.1-0.3,0-0.4C90.9,55.3,90.8,55.2,90.6,55.3"/>
				<path class="st5" d="M129.2,60.5c-0.1-0.1-0.3,0.2-0.8,0.3c-0.4,0.1-1.1,0.2-1.6-0.2s-0.7-1-0.7-1.5s0.2-0.8,0.1-0.8
					c0,0-0.1,0-0.3,0.1c-0.1,0.1-0.3,0.3-0.4,0.6s-0.1,0.7,0,1.1c0.1,0.4,0.4,0.8,0.8,1.1s0.9,0.4,1.3,0.4s0.8-0.1,1.1-0.3
					C129.2,61,129.3,60.6,129.2,60.5"/>
			</g>
		</g>
		<g>
			<path class="st10" d="M92.6,150.4c-0.7,0.6-1.6,0.9-2.4,1.2c-2.7,0.8-5.1-0.6-7.1-2.3c-0.6-0.5-1.1-1-1.5-1.6
				c-0.1-0.2-0.6-1.3-0.1-2.1c0.4-0.7,1.2-0.6,2.7-1c2.5-0.7,2.5-1.8,4.6-2.2c0.8-0.2,2-0.4,3.2,0.2c1.4,0.7,2.4,2.2,2.5,3.8
				c0.1,1.3-0.6,3-1.6,3.9C92.7,150.3,92.6,150.3,92.6,150.4z"/>
			<path class="st11" d="M92.5,146c-0.8-0.6-1.8-0.9-2.8-1c-0.3,0-0.8-0.1-0.8-0.5c0-0.1,0-0.2,0-0.3c0.2-0.6,0.9-0.8,1.5-0.8
				c1.1,0,2.3,0.6,3,1.5C94.2,146,93.7,146.8,92.5,146z"/>
			<path class="st12" d="M84.2,149.7c0,0,0.1,0,0.1,0c0,0,0.1-0.1,0.1-0.1c0.1-0.3-0.2-0.6-0.4-0.8c-0.5-0.5-0.8-1-1.1-1.7
				c-0.2-0.6-0.3-1.2-0.7-1.6c0,0-0.1-0.1-0.2-0.1c-0.1,0-0.1,0-0.2,0.1c-0.2,0.2-0.3,0.5-0.3,0.8c0,0.3,0.1,0.6,0.2,0.8
				C82.3,148.2,83.1,149.2,84.2,149.7z"/>
			<path class="st13" d="M94.2,146.9c-0.1,0-0.1,0-0.2,0.1c-0.1,0.1-0.2,0.4-0.2,0.5c0,0.1,0,0.2,0.1,0.3c0,0,0,0,0,0c0,0,0,0,0.1,0
				c0.2-0.2,0.1-0.4,0.2-0.6c0-0.1,0-0.1,0.1-0.2C94.3,147,94.3,146.9,94.2,146.9z"/>
			<path class="st14" d="M94.1,147.2c0.2-0.1,0.5,0.1,0.6,0.3c0,0,0,0.1,0,0.1c0,0.1,0,0.1-0.1,0.2c-0.1,0.1-0.3-0.1-0.5-0.1
				c0,0,0,0-0.1,0c0,0,0-0.1,0-0.1C94,147.3,94.1,147.2,94.1,147.2z"/>
			<g>
				<path class="st15" d="M93.1,147.8c-1,0.6-1.8,1.6-2.3,2.7c-0.5,1.1-0.8,2.3-0.9,3.5c0.7-1.1,1.7-2,2.6-2.9
					c0.6-0.7,1.2-1.4,1.5-2.3c0.1-0.2,0.4-1,0.2-1.2C94,147.3,93.3,147.7,93.1,147.8z"/>
				<path class="st16" d="M94.2,147.5c-0.1-0.3-1,0.2-1.1,0.3c-1,0.6-1.8,1.6-2.3,2.7c-0.5,1.1-0.8,2.3-0.9,3.5
					c0-0.3,0.2-0.5,0.3-0.7c0.1-0.3,0.2-0.5,0.3-0.8c0.6-1.2,1.4-2.3,2.3-3.3c0.2-0.3,0.5-0.5,0.8-0.7c0.1-0.1,0.2-0.3,0.3-0.4
					C94,147.9,94.2,147.6,94.2,147.5C94.2,147.5,94.2,147.5,94.2,147.5z"/>
			</g>
		</g>
		<g>
			<path class="st17" d="M72.3,81.2l3.4-0.6c0,0,1.8,16.2,20,17.6l1.1-19.7l11.1,0.3l0.7,14.1c0,0,18.7-2.6,22.4-16.3l3.2,0.1
				c0,0-1.7,16.7-25.6,22.8l3,54c0,0-0.6,2.2-8,2.2s-10.7-1.5-10.8-2.5c-0.1-1,2.7-49.5,2.7-49.5S84.7,105.2,77,93.6
				c0,0-9.4,2-14-10.2l1.8-1.8c0,0,0.4,7.5,10.4,8.7C75.1,90.3,73.1,88.7,72.3,81.2"/>
			<path class="st18" d="M73.9,84.3c0.5-0.4,0.9-0.6,1.6-0.8c0.3-0.1,0.5-0.1,0.8-0.1c-0.5-1.6-0.6-2.7-0.6-2.7l-3.4,0.6
				c0.2,1.4,0.4,2.6,0.6,3.6C73.2,84.7,73.6,84.5,73.9,84.3z"/>
			<path class="st18" d="M66.6,86.1c-1.8-2.2-1.9-4.5-1.9-4.5l-1.8,1.8c0.5,1.3,1.1,2.5,1.7,3.5C65.3,86.7,65.9,86.4,66.6,86.1z"/>
			<path class="st18" d="M134.1,76.7l-3.2-0.1c-3.7,13.7-22.4,16.3-22.4,16.3l-0.7-14.1l-11.1-0.3l-0.3,5.7c0.9-0.3,1.8-0.7,2.7-1
				c0.1,0,0.2,0,0.2,0.1c0.5,1.2,2.3,0.5,3.3,0.9s1.5,1.3,1.5,2.3c0,1.6-0.5,3-0.8,4.5c-0.4,2.2-0.5,4.4-0.6,6.6
				c-0.1,4.5,0.3,8.8,1.1,13.2c0.6,3.3,1.2,6.8,0.5,10.2c0.1,0,0.2,0.1,0.2,0.2c-0.3,5.5-0.8,11.1-0.5,16.7c0.2,3.1,0.5,6.3,0.6,9.4
				c0,2.8-0.1,5.8-1.3,8.4h0.1c7.4,0,8-2.2,8-2.2l-3-54C132.5,93.4,134.1,76.7,134.1,76.7z"/>
			<path class="st18" d="M130.5,79.8c0.1,0,0.2,0,0.2,0.1c0.5,0.9,1.2,1.3,2,1.4c1.2-2.8,1.4-4.7,1.4-4.7l-3.2-0.1
				c-0.4,1.3-0.9,2.6-1.5,3.7C129.8,80.2,130.2,80,130.5,79.8z"/>
		</g>
		<g>
			<path class="st2" d="M109,74.3c-2.2-0.4-4.3,0.4-5.1,2c-0.5-1-1.4-1.7-2.5-1.7c-1.2,0-2.3,0.9-2.6,2.1c-0.6-1.2-2-2-3.7-2
				c-2.2,0-4,1.5-4,3.4s1.8,3.4,4,3.4c1.9,0,3.4-1,3.9-2.4c0.5,1,1.4,1.6,2.4,1.6s1.8-0.5,2.3-1.3c0.6,1.4,1.9,2.5,3.7,2.9
				c2.6,0.5,5.1-0.8,5.5-3C113.4,77,111.6,74.9,109,74.3"/>
			<path class="st2" d="M141.4,73.9c-1.5-1.3-4.1-0.8-5.8,1.1c-0.2,0.2-0.3,0.4-0.4,0.5c-0.3-0.4-0.8-0.7-1.4-0.7
				c-0.1,0-0.2,0-0.2,0c0.4-1.2,0.2-2.4-0.6-3.2c-1.2-1.1-3.3-0.7-4.6,0.9l-0.1,0.1c-0.3-1-1.3-1.7-2.4-1.7c-1.4,0-2.5,1.1-2.5,2.5
				s1.1,2.5,2.5,2.5c0.5,0,1-0.2,1.4-0.4c0.1,0.7,0.3,1.3,0.8,1.7c1,0.9,2.7,0.7,4-0.3c0.2,0.8,0.9,1.4,1.8,1.4c0.2,0,0.3,0,0.5-0.1
				c0,1,0.3,1.9,1.1,2.5c1.5,1.3,4.1,0.8,5.8-1.1C142.8,77.9,142.9,75.3,141.4,73.9"/>
			<path class="st2" d="M76.2,76.8c-1.1,0-2.1,0.7-2.5,1.7c-0.5-0.5-1.2-0.9-2.1-0.9c-0.8,0-1.5,0.3-2,0.8c-0.5-0.7-1.4-1.2-2.3-1.2
				c-1.4,0-2.6,1-2.8,2.3c-0.8-0.4-1.8-0.5-2.8-0.2c-1.7,0.6-2.7,2.2-2.2,3.6s2.2,2.1,4,1.5c1.2-0.4,2.1-1.3,2.3-2.3
				c0.4,0.3,1,0.5,1.6,0.5c0.8,0,1.5-0.3,2-0.8c0.5,0.7,1.4,1.2,2.3,1.2c1.2,0,2.2-0.7,2.6-1.7c0.5,0.5,1.2,0.9,2,0.9
				c1.5,0,2.7-1.2,2.7-2.7C78.9,78,77.7,76.8,76.2,76.8"/>
			<g>
				<path class="st5" d="M112.9,79.2c0,0,0.1,0.4-0.2,0.9c-0.1,0.3-0.3,0.6-0.6,1c-0.3,0.3-0.7,0.7-1.2,0.9c-1,0.5-2.4,0.8-3.9,0.4
					c-0.7-0.2-1.5-0.5-2.2-1.1c-0.3-0.3-0.6-0.6-0.9-0.9c-0.1-0.2-0.3-0.4-0.3-0.4l0,0l0,0l-0.1,0.1c-0.1,0.1-0.1,0.1-0.2,0.2
					s-0.3,0.2-0.4,0.3c-0.3,0.2-0.6,0.3-1,0.4c-0.7,0.1-1.5,0-2.1-0.4c-0.3-0.2-0.6-0.4-0.8-0.7l0,0l0,0l0,0l0,0L98.9,80
					c-0.1,0.1-0.1,0.2-0.2,0.2c-0.1,0.2-0.3,0.3-0.4,0.4c-0.3,0.3-0.6,0.5-0.9,0.6c-0.7,0.3-1.4,0.5-2,0.5c-1.3,0-2.5-0.4-3.2-1
					c-0.4-0.3-0.6-0.6-0.8-1c-0.2-0.3-0.3-0.6-0.3-0.9c-0.1-0.5,0-0.8,0-0.8c0.1,0,0.1,0.3,0.2,0.7c0.1,0.2,0.2,0.5,0.4,0.8
					c0.2,0.3,0.5,0.5,0.8,0.8c0.7,0.5,1.7,0.8,2.8,0.8c0.6,0,1.2-0.2,1.7-0.5c0.3-0.1,0.5-0.3,0.8-0.5c0.1-0.1,0.2-0.2,0.3-0.3
					c0-0.1,0.1-0.1,0.1-0.2l0.1-0.1l0.1-0.2c0.1-0.1,0.2-0.2,0.3-0.3c0.1-0.1,0.2-0.1,0.4-0.1c0.1,0,0.2,0.1,0.3,0.2l0.1,0.2
					c0,0.1,0.1,0.1,0.1,0.1c0.2,0.2,0.4,0.4,0.6,0.5c0.4,0.3,1,0.4,1.5,0.3c0.3,0,0.5-0.1,0.7-0.3c0.1-0.1,0.2-0.1,0.3-0.2l0.1-0.1
					c0,0,0,0,0.1-0.1c0,0,0.1-0.1,0.1-0.2c0.1-0.1,0.1-0.1,0.2-0.2c0.1,0,0.2-0.1,0.3-0.1c0.2,0,0.4,0.1,0.5,0.2
					c0.3,0.4,0.3,0.5,0.4,0.6c0.2,0.3,0.5,0.6,0.8,0.8c0.6,0.5,1.2,0.8,1.9,1c1.3,0.4,2.6,0.2,3.5-0.2c0.5-0.2,0.8-0.5,1.1-0.7
					c0.3-0.3,0.5-0.6,0.7-0.8C112.8,79.5,112.9,79.2,112.9,79.2"/>
				<path class="st5" d="M151.7,72.5c-0.2-0.4-0.4-0.8-0.6-0.9c-0.2-0.2-0.3-0.2-0.4-0.2c-0.1,0.1,0.3,0.5,0.5,1.3
					c0.1,0.4,0.1,0.9,0.1,1.4c-0.1,0.5-0.3,1.1-0.6,1.6c-0.4,0.5-0.9,0.8-1.4,0.9s-1,0-1.3-0.1c-0.5-0.2-0.8-0.5-1-0.6v-0.1
					c0,0,0,0-0.1,0h-0.1c0,0,0,0,0,0.1c-0.1,0.1-0.3,0.2-0.5,0.4c-0.3,0.3-0.8,0.7-1.3,0.6c-0.1,0-0.3-0.1-0.4-0.1
					c-0.1-0.1-0.2-0.1-0.3-0.2c-0.2-0.2-0.3-0.4-0.4-0.6c-0.2-0.4-0.2-0.7-0.4-0.7c-0.1,0-0.3,0.3-0.2,0.9c0,0.3,0.1,0.6,0.4,0.9
					c0.1,0.2,0.3,0.3,0.5,0.4s0.4,0.2,0.6,0.2c0.2,0,0.5,0,0.7,0c0.2-0.1,0.4-0.2,0.6-0.3c0.3-0.2,0.5-0.5,0.6-0.8
					c0.1-0.1,0.1-0.3,0.2-0.4c0.1,0.2,0.4,0.5,0.8,0.7c0.4,0.3,1,0.5,1.7,0.4s1.4-0.5,1.9-1.1s0.7-1.3,0.8-2
					C152.1,73.5,151.9,72.9,151.7,72.5"/>
				<path class="st5" d="M141.1,79.8c0,0-0.3,0.2-0.8,0.5c-0.2,0.2-0.5,0.4-0.9,0.5c-0.4,0.2-0.8,0.3-1.3,0.4s-1,0.1-1.6-0.1
					c-0.5-0.2-1.1-0.5-1.4-1c-0.2-0.3-0.3-0.6-0.4-0.9c0-0.2-0.1-0.3-0.1-0.5c0-0.1,0-0.2,0-0.3v-0.1v-0.1c0,0,0,0,0-0.1V78
					c0-0.1-0.1-0.1-0.1-0.1s-0.1-0.1-0.2-0.1h-0.1h-0.1c-0.1,0-0.1,0-0.1,0l-0.1,0.1l0,0l0,0c0,0,0,0-0.1,0c-0.2,0-0.3,0-0.4-0.1
					c-0.3-0.1-0.5-0.3-0.7-0.6l-0.1-0.3c-0.1-0.1-0.2-0.2-0.3-0.2c-0.2-0.1-0.5-0.1-0.7,0l-0.2,0.1l-0.2,0.1
					c-0.1,0.1-0.2,0.1-0.3,0.1c-0.2,0.1-0.5,0.2-0.7,0.2c-0.5,0.1-0.9,0-1.3-0.2c-0.4-0.2-0.7-0.5-0.9-0.8c-0.1-0.1-0.1-0.2-0.1-0.3
					c0,0,0-0.1-0.1-0.1v-0.1v-0.1c-0.1-0.4-0.5-0.6-0.9-0.4l-0.2,0.1h-0.1c-0.1,0-0.2,0-0.2,0.1c-0.2,0-0.3,0.1-0.5,0.1
					c-0.3,0-0.6,0-0.8-0.1c-0.5-0.2-0.9-0.5-1.1-0.9c-0.2-0.3-0.3-0.6-0.4-0.9c-0.1-0.2-0.1-0.3-0.1-0.3s-0.1,0.1-0.1,0.4
					c0,0.2,0.1,0.6,0.3,1c0.2,0.4,0.6,0.9,1.2,1.2c0.3,0.1,0.7,0.2,1,0.3c0.2,0,0.4,0,0.6,0c0.1,0,0.2,0,0.3-0.1h0.1h0.1h0.1l0,0
					v0.1c0,0.1,0,0.1,0.1,0.2c0,0.1,0.1,0.2,0.2,0.4c0.2,0.5,0.7,0.9,1.2,1.2c0.5,0.3,1.2,0.3,1.7,0.3c0.3,0,0.6-0.1,0.9-0.2
					c0.1,0,0.3-0.1,0.4-0.2l0.2-0.1l0.1-0.1l0,0l0,0v0.1c0.2,0.4,0.6,0.8,1.1,1c0.2,0.1,0.5,0.1,0.7,0.2c0.1,0,0.1,0,0.2,0l0,0v0.1
					c0,0.2,0.1,0.4,0.1,0.6c0.1,0.4,0.3,0.8,0.5,1.1c0.5,0.7,1.2,1.1,1.8,1.2c0.7,0.2,1.3,0.1,1.9,0c0.6-0.1,1-0.3,1.4-0.6
					c0.4-0.2,0.7-0.5,0.9-0.7C141,80.2,141.2,79.9,141.1,79.8"/>
				<path class="st5" d="M78.9,79.5c0,0,0.1,0.2,0.1,0.5s-0.1,0.8-0.5,1.3s-1,1-1.9,1.1c-0.4,0.1-0.9,0-1.4-0.2
					c-0.2-0.1-0.5-0.2-0.7-0.4c-0.1,0,0,0-0.1,0l0,0c0,0-0.1,0.1-0.1,0.2c-0.1,0.1-0.1,0.2-0.2,0.3c-0.2,0.2-0.3,0.3-0.5,0.5
					c-0.4,0.3-0.9,0.4-1.4,0.5s-1,0-1.5-0.2c-0.2-0.1-0.5-0.2-0.7-0.4c-0.1-0.1-0.2-0.2-0.3-0.3c-0.1-0.1-0.2-0.2-0.2-0.2l0,0
					c0,0-0.1,0.1-0.2,0.1c-0.1,0.1-0.2,0.1-0.2,0.1c-0.2,0.1-0.3,0.2-0.5,0.2C68,83,67.6,83,67.3,83c-0.4,0-0.7-0.1-1-0.2
					c-0.1,0-0.2-0.1-0.2-0.1l0,0l0,0l0,0v0.1L65.8,83c-0.1,0.1-0.2,0.3-0.3,0.4c-0.2,0.2-0.4,0.4-0.6,0.6c-0.4,0.4-0.9,0.6-1.4,0.7
					c-1,0.3-1.9,0.2-2.6-0.1c-0.7-0.3-1.1-0.8-1.3-1.1c-0.2-0.4-0.2-0.6-0.1-0.6c0,0,0.1,0.2,0.4,0.4c0.2,0.3,0.6,0.6,1.2,0.8
					c0.6,0.2,1.4,0.2,2.2,0c0.4-0.1,0.8-0.4,1.2-0.7c0.2-0.2,0.3-0.3,0.5-0.5c0.1-0.1,0.1-0.2,0.2-0.3l0.1-0.2v-0.1
					c0,0,0-0.1,0.1-0.2s0.1-0.2,0.2-0.3c0.1-0.1,0.2-0.1,0.4-0.1c0.1,0,0.3,0.1,0.4,0.1s0.1,0,0.2,0.1c0.2,0.1,0.5,0.1,0.8,0.1
					s0.5,0,0.8-0.1c0.1,0,0.3-0.1,0.4-0.2c0.1,0,0.1-0.1,0.2-0.1s0.1-0.1,0.2-0.2c0.2-0.2,0.6-0.2,0.8,0c0.2,0.2,0.2,0.2,0.3,0.3
					c0.1,0.1,0.2,0.1,0.2,0.2c0.2,0.1,0.3,0.2,0.5,0.3c0.4,0.1,0.8,0.2,1.2,0.1c0.4,0,0.7-0.2,1.1-0.4c0.2-0.1,0.3-0.2,0.4-0.3
					c0.1-0.1,0.1-0.1,0.2-0.2s0.1-0.1,0.2-0.3c0.1-0.1,0.1-0.2,0.2-0.2s0.2-0.1,0.3-0.1c0.2,0,0.4,0.2,0.5,0.3
					c0.2,0.1,0.3,0.2,0.5,0.3c0.4,0.2,0.7,0.2,1.1,0.2c0.7-0.1,1.3-0.4,1.7-0.8c0.4-0.4,0.5-0.8,0.6-1.1
					C78.8,79.7,78.8,79.5,78.9,79.5"/>
			</g>
		</g>
	</g>
</g>
<g>
	<path class="st10" d="M146.3,149.8c-0.3,1.8-1.2,3.5-2.1,5c-2.9,4.8-8.4,5.9-13.7,6c-1.5,0-3,0-4.4-0.5c-0.4-0.1-2.6-1.2-2.9-3.1
		c-0.3-1.7,1.1-2.5,2.7-5.1c2.8-4.4,1.4-5.9,4.1-9.4c1-1.3,2.4-3.2,5-3.9c3.1-0.9,6.5,0.3,8.7,2.4c1.9,1.9,3.1,5.4,2.7,8
		C146.4,149.4,146.4,149.6,146.3,149.8z"/>
	<path class="st11" d="M140.4,143.3c-2,0.3-3.9,1-5.5,2.1c-0.6,0.4-1.3,0.8-1.9,0.4c-0.2-0.1-0.3-0.3-0.3-0.5
		c-0.5-1.1,0.3-2.4,1.2-3.2c1.7-1.5,4.2-2.1,6.4-1.7C143,141,143.3,142.9,140.4,143.3z"/>
	<path class="st12" d="M132.9,159.8c0.1,0,0.2,0,0.2-0.1c0-0.1,0-0.2,0-0.3c-0.3-0.6-1-0.6-1.6-0.6c-1.3-0.1-2.6-0.5-3.8-1.1
		c-1.1-0.6-2.1-1.4-3.2-1.4c-0.1,0-0.3,0-0.4,0.1c-0.1,0.1-0.2,0.2-0.2,0.3c-0.2,0.6,0.1,1.2,0.5,1.6c0.4,0.5,0.9,0.7,1.4,0.9
		C128.1,160.1,130.6,160.6,132.9,159.8z"/>
	<path class="st13" d="M144.3,142.4c-0.1,0.1-0.1,0.2-0.1,0.3c0,0.3,0.2,0.9,0.4,1.1c0.1,0.2,0.3,0.3,0.5,0.3c0,0,0.1,0,0.1,0
		c0,0,0-0.1,0-0.1c0-0.5-0.3-0.8-0.5-1.3c0-0.1-0.1-0.2-0.1-0.3C144.5,142.3,144.4,142.3,144.3,142.4z"/>
	<path class="st14" d="M144.5,142.9c0.2-0.3,0.9-0.6,1.2-0.3c0,0,0.1,0.1,0.1,0.2c0,0.1,0.1,0.2,0.1,0.3c0,0.3-0.6,0.3-0.8,0.5
		c0,0-0.1,0-0.2,0.1c-0.1,0-0.2,0-0.2-0.1C144.5,143.2,144.4,143,144.5,142.9z"/>
	<g>
		<path class="st15" d="M143.7,145.2c-0.7,2.3-0.6,4.8,0,7.1c0.7,2.3,1.9,4.5,3.3,6.4c-0.5-2.6,0-5.3,0.1-7.9
			c0.1-1.8-0.1-3.7-0.8-5.4c-0.2-0.5-0.8-2-1.4-2.1C144.4,143.2,143.9,144.7,143.7,145.2z"/>
		<path class="st16" d="M145,143.3c-0.6-0.3-1.2,1.6-1.3,1.9c-0.7,2.3-0.6,4.8,0,7.1c0.6,2.3,1.8,4.5,3.3,6.3
			c-0.3-0.4-0.3-0.9-0.5-1.4c-0.2-0.5-0.4-1.1-0.6-1.7c-0.8-2.6-1-5.3-0.8-8c0-0.7,0.1-1.4,0.2-2.1c0-0.4,0-0.7,0-1.1
			C145.3,144.1,145.3,143.4,145,143.3C145.1,143.3,145,143.3,145,143.3z"/>
	</g>
</g>
<g>
	<path class="st10" d="M45.7,155.7c0.2,1.4,0,2.8-0.4,4.1c-1,4.1-4.7,6.1-8.5,7.4c-1,0.4-2.1,0.7-3.2,0.6c-0.3,0-2.1-0.3-2.8-1.5
		c-0.6-1.1,0.2-2,0.8-4.2c1-3.7-0.4-4.5,0.8-7.6c0.4-1.1,1-2.8,2.7-3.9c2-1.3,4.7-1.3,6.7-0.2c1.8,0.9,3.4,3.1,3.8,5.1
		C45.7,155.5,45.7,155.6,45.7,155.7z"/>
	<path class="st11" d="M40,152.5c-1.4,0.6-2.6,1.6-3.5,2.8c-0.3,0.4-0.8,0.9-1.2,0.7c-0.1,0-0.3-0.2-0.3-0.2
		c-0.6-0.7-0.3-1.7,0.1-2.5c0.9-1.5,2.5-2.5,4.2-2.7C41.3,150.3,42,151.5,40,152.5z"/>
	<path class="st12" d="M38.4,166c0,0,0.1-0.1,0.1-0.1c0-0.1,0-0.2-0.1-0.2c-0.3-0.3-0.9-0.2-1.3-0.1c-1,0.2-2,0.3-3,0.1
		c-0.9-0.2-1.8-0.5-2.6-0.3c-0.1,0-0.2,0.1-0.2,0.2c-0.1,0.1-0.1,0.2-0.1,0.3c0,0.4,0.3,0.8,0.7,1c0.4,0.2,0.8,0.3,1.2,0.3
		C35.1,167.2,36.9,167,38.4,166z"/>
	<path class="st13" d="M42.6,150.9c0,0.1,0,0.2,0,0.3c0,0.2,0.3,0.6,0.5,0.7c0.1,0.1,0.3,0.2,0.5,0.1c0,0,0.1,0,0.1,0
		c0,0,0-0.1,0-0.1c-0.1-0.3-0.4-0.5-0.6-0.8c-0.1-0.1-0.1-0.1-0.2-0.2C42.7,150.9,42.6,150.9,42.6,150.9z"/>
	<path class="st14" d="M42.9,151.2c0.1-0.3,0.5-0.7,0.8-0.5c0,0,0.1,0.1,0.1,0.1c0.1,0.1,0.1,0.1,0.1,0.2c0,0.2-0.4,0.4-0.5,0.5
		c0,0,0,0-0.1,0.1c-0.1,0-0.1,0-0.2,0C42.9,151.5,42.8,151.3,42.9,151.2z"/>
	<g>
		<path class="st15" d="M42.8,153.1c0,1.8,0.6,3.5,1.6,5c1,1.5,2.4,2.8,3.8,3.8c-0.9-1.7-1.2-3.7-1.7-5.7c-0.4-1.3-0.9-2.6-1.8-3.7
			c-0.2-0.3-1-1.3-1.5-1.2C42.9,151.5,42.8,152.7,42.8,153.1z"/>
		<path class="st16" d="M43.3,151.4c-0.5-0.1-0.5,1.4-0.5,1.6c0,1.8,0.6,3.5,1.6,5c1,1.5,2.3,2.8,3.8,3.8c-0.3-0.2-0.5-0.6-0.7-0.9
			c-0.3-0.3-0.5-0.7-0.8-1.1c-1.1-1.7-1.9-3.6-2.4-5.5c-0.1-0.5-0.2-1-0.4-1.5c-0.1-0.3-0.2-0.5-0.3-0.8
			C43.7,152,43.5,151.5,43.3,151.4C43.4,151.4,43.3,151.4,43.3,151.4z"/>
	</g>
</g>
<g>
	<path class="st10" d="M69.8,166.4c0.5,0.8,1.3,1.5,2.1,2c2.5,1.8,6.2,1.2,9.5,0.2c0.9-0.3,1.9-0.6,2.6-1.1c0.2-0.1,1.4-1.1,1.4-2.1
		c-0.1-0.9-1.1-1-2.5-1.9c-2.4-1.6-1.8-2.6-4-3.8c-0.8-0.4-2-1.1-3.7-0.9c-2.1,0.2-4,1.4-5,2.9c-0.9,1.3-1.1,3.2-0.5,4.4
		C69.8,166.3,69.8,166.4,69.8,166.4z"/>
	<path class="st11" d="M72.6,162.1c1.3-0.3,2.6-0.3,3.8-0.1c0.4,0.1,0.9,0.1,1.2-0.2c0.1-0.1,0.1-0.2,0.1-0.3
		c0.1-0.6-0.5-1.1-1.2-1.3c-1.3-0.4-2.9-0.2-4.3,0.4C70.6,161.5,70.6,162.5,72.6,162.1z"/>
	<path class="st12" d="M79.8,168.7c-0.1,0-0.1,0-0.1,0c0,0-0.1-0.1,0-0.2c0.1-0.3,0.5-0.5,0.9-0.6c0.8-0.3,1.6-0.7,2.2-1.3
		c0.6-0.5,1.1-1.1,1.8-1.3c0.1,0,0.2-0.1,0.3,0c0.1,0,0.1,0.1,0.2,0.1c0.2,0.2,0.1,0.6-0.1,0.9c-0.2,0.3-0.5,0.5-0.8,0.7
		C82.8,167.9,81.4,168.6,79.8,168.7z"/>
	<path class="st13" d="M70,162.4c0.1,0,0.1,0.1,0.1,0.1c0.1,0.2,0,0.5-0.1,0.6c0,0.1-0.1,0.2-0.3,0.3c0,0,0,0-0.1,0c0,0,0,0,0,0
		c-0.1-0.2,0.1-0.5,0.1-0.7c0-0.1,0-0.1,0-0.2C69.9,162.4,69.9,162.4,70,162.4z"/>
	<path class="st14" d="M69.9,162.7c-0.2-0.1-0.7-0.1-0.8,0.1c0,0,0,0.1,0,0.1c0,0.1,0,0.1,0,0.2c0.1,0.1,0.4,0,0.6,0.1
		c0,0,0.1,0,0.1,0c0,0,0.1,0,0.1-0.1C70,162.9,70,162.8,69.9,162.7z"/>
	<g>
		<path class="st15" d="M70.8,163.7c0.8,1,1.1,2.2,1.1,3.5c-0.1,1.3-0.5,2.6-1.1,3.8c-0.1-1.4-0.8-2.6-1.3-3.8
			c-0.3-0.9-0.5-1.8-0.3-2.8c0-0.3,0.2-1.2,0.5-1.3C70,162.9,70.6,163.5,70.8,163.7z"/>
		<path class="st16" d="M69.7,163c0.3-0.3,1,0.5,1.1,0.7c0.8,1,1.1,2.2,1.1,3.5c0,1.2-0.5,2.5-1.1,3.8c0.1-0.3,0.1-0.5,0.1-0.8
			c0-0.3,0.1-0.6,0.1-0.9c0.1-1.4-0.2-2.8-0.7-4.1c-0.1-0.3-0.3-0.7-0.4-1c-0.1-0.2-0.1-0.3-0.1-0.5C69.6,163.5,69.5,163.1,69.7,163
			C69.6,163,69.7,163,69.7,163z"/>
	</g>
</g>
</svg>
