<?xml version="1.0" encoding="utf-8"?>
<!-- Generator: Adobe Illustrator 23.0.5, SVG Export Plug-In . SVG Version: 6.00 Build 0)  -->
<svg version="1.1" id="Layer_1" xmlns="http://www.w3.org/2000/svg" xmlns:xlink="http://www.w3.org/1999/xlink" x="0px" y="0px"
	 viewBox="0 0 128 128" style="enable-background:new 0 0 128 128;" xml:space="preserve">
<style type="text/css">
	.st0{fill:#00B77E;}
	.st1{fill:#00846C;}
	.st2{fill:#55CE5A;}
	.st3{fill:#73D861;}
	.st4{fill:#29A868;}
	.st5{fill:#127F5B;}
	.st6{fill:#49270F;}
	.st7{fill:#F9D641;}
	.st8{fill:#EAA11F;}
	.st9{fill:#FFF1B6;}
	.st10{fill:#876553;}
	.st11{fill:#724D3D;}
	.st12{fill:#F0B90B;}
	.st13{fill:#FFFFFF;}
	.st14{fill:url(#SVGID_1_);}
	.st15{fill:#F2CE36;}
	.st16{opacity:0.15;fill:#FFFFFF;}
	.st17{opacity:0.25;fill:#E2B440;}
	.st18{opacity:0.33;fill:#E2B440;}
	.st19{fill:#C67640;}
	.st20{fill:#2A9E3A;}
	.st21{fill:#3DAD55;}
</style>
<g>
	<g>
		<path class="st0" d="M125.9,113.9c0.6,0.6,2.5,2.3,2.1,3.9c-0.2,0.8-0.9,1.8-3.9,2.7c-7.2,2.2-27.6,3.4-32,3.6
			c-17.2,0.2-63.5,0.6-80.9-1.5c-7.5-0.9-10.7-2.4-11.1-4.4c-0.4-2,2.1-4.1,3.6-5.3c2.8-0.8,6.6-1.9,11.3-2.9
			c6.1-1.3,11.4-1.9,18.1-2.5c14.3-1.2,25.8-1.3,29.9-1.4C63,106.3,117.3,105.8,125.9,113.9z"/>
		<path class="st1" d="M125.9,115.1c0.7,0.5,2.1,1.8,2.1,2.7c-0.5,8.5-126.7,10.7-127.9,0.5c-0.1-0.8,0.6-2.1,0.7-2.4
			c2-3.9,7.3-4.7,13.7-5.7c7.6-1.1,13.9-2,18.6-2.6c0.3,2.7,3.3,8.5,24,7.4c29.8-1.5,41,7,56.5,0.8
			C115.5,115.1,121.9,112.3,125.9,115.1z"/>
		<path class="st1" d="M34.7,110.3c1,1.1,2.6,1.6,3.8,1.5c1.1-0.1,0.9-0.5,0.1-1.2c-0.8-0.7-1.1-1.1-2.4-1.3
			C34.9,109.2,33.9,109.4,34.7,110.3z"/>
		<path class="st1" d="M40.3,112.9c0.7,0.8,1.8,1.1,2.6,1c0.8-0.1,0.6-0.3,0.1-0.8c-0.6-0.5-0.8-0.7-1.6-0.9
			C40.4,112,39.8,112.2,40.3,112.9z"/>
		<path class="st1" d="M51,112.1c-2.7,0.7-2.6,1.6-1.2,2.3c1.4,0.7,6.1,0.1,9.5,0.1s2.2-1.9-0.2-2.3C56.7,111.9,52.3,111.8,51,112.1
			z"/>
		<path class="st1" d="M112.7,114.7c2.6,0.5,3.3,1.2,6.3,1.2s2.4-1.3,0.6-1.6c-1.7-0.4-3.2-0.8-6.9-1.3
			C109.1,112.5,109.6,114.1,112.7,114.7z"/>
	</g>
	<g>
		<g>
			<path class="st2" d="M103.6,52.6c0-2.7-1.3-5.2-3.2-6.6c0.7-1.2,1.2-2.7,1.2-4.3c0-3.3-1.8-6.1-4.4-7.3c0.2-0.4,0.3-0.8,0.3-1.3
				c0-1.1-0.6-2-1.5-2.4c0.4-0.8,0.6-1.7,0.6-2.7c0-3.1-2.2-5.7-5-5.9c0-0.1,0-0.1,0-0.2c0-1.3-0.8-2.3-1.9-2.5
				c0.1-0.4,0.1-0.9,0.1-1.4c0-3.6-2.6-6.5-5.9-6.5c-0.5,0-1,0.1-1.4,0.2c-0.4-2.1-2.1-3.6-4.1-3.6c0,0-0.1,0-0.1,0
				c-0.8-3.1-3.5-5.4-6.6-5.4c-2.1,0-4,1-5.2,2.7C66,4.7,65,4.3,63.9,4.3c-0.6,0-1.2,0.2-1.7,0.5c-0.9-0.6-2.1-1-3.2-1
				c-3.2,0-5.8,2.7-6.1,6.1c-0.2,0-0.4,0-0.7,0c-2,0-3.8,1.1-4.8,2.8c-0.4-0.1-0.9-0.2-1.4-0.2c-3.1,0-5.7,2.8-5.7,6.3
				c0,0.4,0,0.8,0.1,1.2c-2.2,0.3-3.9,2.4-3.9,4.9c0,0.4,0.1,0.9,0.2,1.3c-3.1,0.4-5.5,3.3-5.5,6.8c0,1,0.2,1.9,0.5,2.7
				c-0.8,0.7-1.4,1.7-1.4,3c0,0.4,0.1,0.8,0.2,1.1c-3.2,0.4-5.7,3.4-5.7,7c0,2.1,0.8,4,2.1,5.3c-0.6,0.8-1,1.8-1,3
				c0,2,1.1,3.7,2.8,4.4c-0.8,1.2-1.2,2.6-1.2,4.1c0,3.1,1.9,5.8,4.5,6.7c0.4,1,1.3,1.6,2.4,1.7c0,0.1,0,0.2,0,0.3
				c0,3.5,2.6,6.4,5.8,6.4c1,0,2-0.3,2.9-0.8c0.6,0.7,1.5,1.1,2.4,1.1c0.3,0,0.5,0,0.8-0.1c0.3,1.9,1.9,3.4,3.7,3.4
				c0.9,0,1.7-0.4,2.4-0.9c0.4,0.4,1,0.6,1.6,0.6c0.8,0,1.5-0.4,2-1c0.6,1.3,1.8,2.2,3.2,2.2c0.7,0,1.3-0.2,1.9-0.6
				c0.5,0.4,1.2,0.6,1.8,0.6c1,0,2-0.5,2.6-1.3c0.9,1.3,2.2,2.1,3.8,2.1c1.7,0,3.1-0.9,4-2.4c0.5,0.3,1.1,0.5,1.6,0.5
				c1.1,0,2.1-0.6,2.8-1.5c0.9,1.2,2.2,1.9,3.7,1.9c2.2,0,4-1.6,4.6-3.8c0,0,0.1,0,0.1,0c1.1,0,2.1-0.7,2.7-1.6
				c0.8,0.6,1.7,0.9,2.7,0.9c2.6,0,4.7-2.3,4.7-5.2c0-0.3,0-0.5-0.1-0.8c2.3-0.3,4.2-2.5,4.2-5.2c0-1-0.3-1.9-0.7-2.7
				c0.9-0.6,1.5-1.7,1.5-3c0-0.6-0.1-1.2-0.4-1.6C102.4,57.7,103.6,55.3,103.6,52.6"/>
			<path class="st2" d="M103.6,52.6c0-2.7-1.3-5.2-3.2-6.6c0.7-1.2,1.2-2.7,1.2-4.3c0-3.3-1.8-6.1-4.4-7.3c0.2-0.4,0.3-0.8,0.3-1.3
				c0-1.1-0.6-2-1.5-2.4c0.4-0.8,0.6-1.7,0.6-2.7c0-3.1-2.2-5.7-5-5.9c0-0.1,0-0.1,0-0.2c0-1.3-0.8-2.3-1.9-2.5
				c0.1-0.4,0.1-0.9,0.1-1.4c0-3.6-2.6-6.5-5.9-6.5c-0.5,0-1,0.1-1.4,0.2c-0.4-2.1-2.1-3.6-4.1-3.6c0,0-0.1,0-0.1,0
				c-0.8-3.1-3.5-5.4-6.6-5.4c-2.1,0-4,1-5.2,2.7C66,4.7,65,4.3,63.9,4.3c-0.6,0-1.2,0.2-1.7,0.5c-0.9-0.6-2.1-1-3.2-1
				c-3.2,0-5.8,2.7-6.1,6.1c-0.2,0-0.4,0-0.7,0c-2,0-3.8,1.1-4.8,2.8c-0.4-0.1-0.9-0.2-1.4-0.2c-3.1,0-5.7,2.8-5.7,6.3
				c0,0.4,0,0.8,0.1,1.2c-2.2,0.3-3.9,2.4-3.9,4.9c0,0.4,0.1,0.9,0.2,1.3c-3.1,0.4-5.5,3.3-5.5,6.8c0,1,0.2,1.9,0.5,2.7
				c-0.8,0.7-1.4,1.7-1.4,3c0,0.4,0.1,0.8,0.2,1.1c-3.2,0.4-5.7,3.4-5.7,7c0,2.1,0.8,4,2.1,5.3c-0.6,0.8-1,1.8-1,3
				c0,2,1.1,3.7,2.8,4.4c-0.8,1.2-1.2,2.6-1.2,4.1c0,3.1,1.9,5.8,4.5,6.7c0.4,1,1.3,1.6,2.4,1.7c0,0.1,0,0.2,0,0.3
				c0,3.5,2.6,6.4,5.8,6.4c1,0,2-0.3,2.9-0.8c0.6,0.7,1.5,1.1,2.4,1.1c0.3,0,0.5,0,0.8-0.1c0.3,1.9,1.9,3.4,3.7,3.4
				c0.9,0,1.7-0.4,2.4-0.9c0.4,0.4,1,0.6,1.6,0.6c0.8,0,1.5-0.4,2-1c0.6,1.3,1.8,2.2,3.2,2.2c0.7,0,1.3-0.2,1.9-0.6
				c0.5,0.4,1.2,0.6,1.8,0.6c1,0,2-0.5,2.6-1.3c0.9,1.3,2.2,2.1,3.8,2.1c1.7,0,3.1-0.9,4-2.4c0.5,0.3,1.1,0.5,1.6,0.5
				c1.1,0,2.1-0.6,2.8-1.5c0.9,1.2,2.2,1.9,3.7,1.9c2.2,0,4-1.6,4.6-3.8c0,0,0.1,0,0.1,0c1.1,0,2.1-0.7,2.7-1.6
				c0.8,0.6,1.7,0.9,2.7,0.9c2.6,0,4.7-2.3,4.7-5.2c0-0.3,0-0.5-0.1-0.8c2.3-0.3,4.2-2.5,4.2-5.2c0-1-0.3-1.9-0.7-2.7
				c0.9-0.6,1.5-1.7,1.5-3c0-0.6-0.1-1.2-0.4-1.6C102.4,57.7,103.6,55.3,103.6,52.6"/>
			<path class="st3" d="M52.6,12.6c0.7-1.5,1.8-2.8,3.4-1.9c0.2-2.5,3.1-4.1,4.9-2.5c0.3,0.2,0.5,0.5,0.7,0.8c0,0.1,0.4-0.3,0.5-0.3
				c0.5-0.3,1-0.5,1.6-0.4c1.1,0.1,1.3,1.1,1.1,2.1c0.8-0.5,1.7-0.6,2.5,0c0.7,0.6,1.2,1.7,1.5,2.6c0.8-1.2,2-1.9,3.3-1.6
				c0.6,0.2,1.2,0.4,1.5,1c0.3,0.5,0.3,1.1,0.4,1.7c1.5-0.9,4-1.7,4.2,0.8c1.6-1,3.5,0.2,3.1,2.3c1.2,0.3,2.6-0.3,3.6,0.8
				c0.8,0.9,1,1.8,0.9,3.1c0.7-0.1,1.6-0.1,2.1,0.5c0.5,0.6,0.5,1.3,0.4,2.1c1.6-1,3.8,0.8,3.7,2.8c0.6-0.5,1.4-0.3,1.8,0.6
				c0.6,1.1,0.2,2.3-0.3,3.3c0.8-0.3,1.8-0.2,2.6,0.2c0.3-0.8,0.5-1.6,0.5-2.6c0-3.1-2.2-5.7-5-5.9c0-0.1,0-0.1,0-0.2
				c0-1.3-0.8-2.3-1.9-2.5c0.1-0.4,0.1-0.9,0.1-1.4c0-3.6-2.6-6.5-5.9-6.5c-0.5,0-1,0.1-1.4,0.2c-0.4-2.1-2.1-3.6-4.1-3.6
				c0,0-0.1,0-0.1,0c-0.8-3.1-3.5-5.4-6.6-5.4c-2.1,0-4,1-5.2,2.7C66,4.7,65,4.3,63.9,4.3c-0.6,0-1.2,0.2-1.7,0.5
				c-0.9-0.6-2.1-1-3.2-1c-3.2,0-5.8,2.7-6.1,6.1c-0.2,0-0.4,0-0.7,0c-1.7,0-3.2,0.8-4.3,2.1C49.4,11,51.3,11.3,52.6,12.6z"/>
			<path class="st4" d="M81.4,21.7c0.7-0.5,0.4-1.2-0.1-1.5c0.1,0.2,0.1,0.5-0.1,0.8c-0.2,0.3-0.6,0.3-0.9,0.2
				c0.5,0.6,0.7,1.4,0.4,2.2c-0.3,0.8-1,1.2-1.7,1.3c1,0.9,0.9,2.4-0.4,2.8c0.4,0.9,0.7,1.9-0.2,2.6c-0.7,0.5-1.7,0.6-2.4,0.1
				c-0.3,1-1,1.8-1.9,1.8c-0.8,0.1-1.1-0.5-1.4-1.2c-0.7,1.2-2.4,1.5-3.3,0.3c-0.1,0.5,0,1.1,0.3,1.5c0.3,0.3,0.6,0.2,1,0.2
				c0.1,0,0.2,0.1,0.2,0.2c-0.3,0.8,0,1.7,0.8,1.8c0.6,0.1,1.1-0.2,1.6-0.4c0.1,0,0.1,0,0.2,0.1c0.5,0.9,1.4,0.8,2.1,0.3
				c0.7-0.4,1-0.9,1.5-1.5c0.2-0.2,0.5-0.2,0.7-0.1c1,0.5,1.1-0.8,1.1-1.5c0-0.1,0.1-0.1,0.1-0.1c1.4-0.2,2.2-2,1.7-3.4
				c-0.1-0.1,0.1-0.3,0.2-0.2c1.1-0.5,1.3-2.3,0-2.7c-0.1,0-0.1-0.2,0-0.3c0.7-0.2,1.4-0.9,1.3-1.7c0-0.6-0.4-0.9-0.7-1.4
				C81.4,21.8,81.4,21.8,81.4,21.7z"/>
			<path class="st4" d="M47.6,20.8c0.1,0,0.2,0.1,0.1,0.2c-0.4,1.1-0.7,2.5,0.2,3.5c0.6,0.7,1.5,1,2.4,0.6c0.1,0,0.2,0.1,0.2,0.1
				c0,1.3,1.2,1.9,2.2,1.4c0.6-0.3,1-0.8,1.5-1.3c0.1-0.1,0.1,0,0.2,0c1.3,1.1,2.8-0.1,3.1-1.6c-0.8,0.8-2.2,1.4-2.4-0.1
				c-1.2,0.7-3,1.2-3.6-0.6c-1.7,0.8-3.3-1.6-2-3c-1-0.2-1.3-1.3-0.9-2.4c0.4-1.1,1.3-1.8,2.3-1.7c-0.4-0.5-0.4-1.4,0-2
				c-1,0.2-2.3,1.1-1.6,2c0.1,0.1,0.1,0.2-0.1,0.2c-1.2,0.2-2.5,0.8-2.9,2.2C45.8,19.6,46.4,20.7,47.6,20.8z"/>
			<path class="st4" d="M56.1,40.8c-0.5-0.7-0.2-1.4,0.2-2.1c-0.7,0.1-1.5-0.4-1.6-1.3c-0.9,1.2-2.9,2.1-3.3,0.3
				c-0.8,1.3-2.6,2.4-3.5,0.9c-0.6,0.9-1.6,1.4-2.7,0.9c-1-0.5-1.5-1.6-1.4-2.8c-1.1,0.6-2.4,1-3.2-0.2c-0.6-0.9-0.5-2.4,0.1-3.3
				c-1.6,0.2-2.6-1.9-1.9-3.4c-0.8,0.6-1.5,1.5-1.5,2.6c0,0.9,0.4,1.9,1.4,1.6c0.1,0,0.1,0,0.2,0.1c0.1,0.1,0.1,0.2-0.1,0.2
				c-1.7,0.5-2.2,4.5,0.1,4.1c0.1,0,0.2,0.1,0.2,0.2c-0.1,0.6-0.4,1.4-0.1,2c0.6,1,1.6,0.7,2.2-0.1c0.1-0.1,0.2,0,0.2,0.1
				c0,0.3,0.1,0.8,0.4,1.1c0.5,0.5,0.9,0,1.3-0.4c0.1-0.1,0.2,0,0.2,0.1c-0.1,2.3,3.3,2.7,4,0.6c0.1-0.2,0.3-0.1,0.2,0.1
				c0,0,0,0,0,0.1c0,0,0,0,0,0c0.3,0.5,0.6,1,1.3,0.6c0.3-0.2,0.6-0.5,0.8-0.9c0.1-0.1,0.2-0.1,0.2,0c0.4,1.1,1-0.1,1.4-0.5
				c0-0.1,0.1-0.1,0.2,0c0.4,0.4,0.7,1,1.3,0.9c0.7-0.1,1.3-0.5,1.7-1.1c0.1-0.1,0.2-0.1,0.2,0c0.2,1,0.9,1.8,1.9,1.4
				c0.7-0.3,1.6-1,1.6-1.9C57.6,41.1,56.6,41.5,56.1,40.8z"/>
			<path class="st4" d="M103.6,52.6c0-2.7-1.3-5.2-3.2-6.6c0.7-1.2,1.2-2.7,1.2-4.3c0-1.1-0.2-2.2-0.6-3.1c0.3,1.6,0.2,3.3-0.4,5
				c-0.7,1.8-2,3.5-3.7,4.2c0,0,0,0,0,0c0.9,0.4,1.8,1.7,0.9,2.7c-0.6,0.7-1.6,0.6-2.5,0.5c0.8,1.2,1.5,2.7,0.6,4
				c-0.7,1-2,0.9-2.8,0.3c-0.7,1.1-1.9,0.6-2.3-0.4c-0.4,1.8-0.8,4-2.7,4.3c-1.4,0.3-3.3-0.7-3-2.4c-0.5,0.2-1-0.2-1.3-0.8
				c-1.1,1.1-3.1,0.7-3.4-0.9c-0.7,0.5-1.9,0.3-2.1-0.6c-0.4,0.8-1.1,1.5-1.8,1.9c-0.7,0.3-1.1,0.1-1.4-0.5
				c-0.2,1.2-0.7,2.5-1.9,2.8c-0.8,0.2-1.7,0-2-0.8c-0.6,1.1-1.5,2-2.7,1.9c-1,0-1.9-0.7-2.1-1.8c-0.8,0.8-2.2,0.7-3-0.2
				c-0.8,1.6-2.8,1.7-4.2,1c-0.7-0.3-1.4-0.9-1.7-1.7c-0.1-0.3-0.1-0.6-0.1-0.8c-0.7,0.9-1.7,1.5-2.8,1.4c-1.1,0-1.8-0.7-2.1-1.6
				c-0.8,1.2-2.2,2.3-3.5,1.8c-1.5-0.6-1.9-2.6-2-4.2c-0.4,0.7-1.2,1.2-1.9,0.6c-0.3-0.2-0.5-0.6-0.5-0.9c-0.9,0.7-2.1,1.3-3.2,1.1
				c-1.2-0.2-1.8-1.3-2-2.4c-0.8,0.9-1.9,1.8-3,1c-0.7-0.5-1-1.3-1-2.2c-1.7,1-4.2,1.8-5.4-0.1c-1.2-1.8,0.1-4.3,1.2-5.9
				c-1.3,0.5-2.8,0.2-3.2-1.6c-0.3-1.4,0.2-2.7,1.1-3.5c-2.7,0.8-4.7,3.6-4.7,6.8c0,2.1,0.8,4,2.1,5.3c-0.6,0.8-1,1.8-1,3
				c0,2,1.1,3.7,2.8,4.4c-0.8,1.2-1.2,2.6-1.2,4.1c0,3.1,1.9,5.8,4.5,6.7c0.4,1,1.3,1.6,2.4,1.7c0,0.1,0,0.2,0,0.3
				c0,3.5,2.6,6.4,5.8,6.4c1,0,2-0.3,2.9-0.8c0.6,0.7,1.5,1.1,2.4,1.1c0.3,0,0.5,0,0.8-0.1c0.3,1.9,1.9,3.4,3.7,3.4
				c0.9,0,1.7-0.4,2.4-0.9c0.4,0.4,1,0.6,1.6,0.6c0.8,0,1.5-0.4,2-1c0.6,1.3,1.8,2.2,3.2,2.2c0.7,0,1.3-0.2,1.9-0.6
				c0.5,0.4,1.2,0.6,1.8,0.6c1,0,2-0.5,2.6-1.3c0.9,1.3,2.2,2.1,3.8,2.1c1.7,0,3.1-0.9,4-2.4c0.5,0.3,1.1,0.5,1.6,0.5
				c1.1,0,2.1-0.6,2.8-1.5c0.9,1.2,2.2,1.9,3.7,1.9c2.2,0,4-1.6,4.6-3.8c0,0,0.1,0,0.1,0c1.1,0,2.1-0.7,2.7-1.6
				c0.8,0.6,1.7,0.9,2.7,0.9c2.6,0,4.7-2.3,4.7-5.2c0-0.3,0-0.5-0.1-0.8c2.3-0.3,4.2-2.5,4.2-5.2c0-1-0.3-1.9-0.7-2.7
				c0.9-0.6,1.5-1.7,1.5-3c0-0.6-0.1-1.2-0.4-1.6C102.4,57.7,103.6,55.3,103.6,52.6z"/>
			<path class="st5" d="M46.6,58.8c-0.6,1-1.5,1.9-2.5,1.2c-0.3-0.2-0.3-0.4-0.6-0.2C43.2,59.9,43,60,42.8,60
				c-0.6,0-1.1-0.3-1.7-0.4c-0.6,1.9-2.6,2.1-3.8,0.6c-0.8,1-2.3,1-3.2,0.3c0,0.1,0.1,0.2,0.1,0.4c0.3,0.9,1.2,1.8,2.2,1.5
				c0.5-0.2,1.1-0.5,1.5,0.1C38.8,64,40,63,41,62.1c0.1-0.1,0.2-0.1,0.2,0c0.8,1.2,2.2,0.5,2.8-0.5c0.1-0.1,0.2-0.1,0.2,0
				c0.6,2.1,2.7,1.1,3.1-0.6c0-0.1,0.2-0.2,0.2,0c0.4,1,1.1,0.2,1.4-0.4c0.3-0.6,0.5-1.4,0.3-2C48.7,59.8,47.4,59.6,46.6,58.8z"/>
			<path class="st5" d="M92.4,60.8c-0.5,1.9-2.9,3.2-4,1.4c-0.5,0.8-1.3,1.6-2.2,1.3c-0.9-0.3-1.5-1.2-1.9-2.1
				c-0.6,0.9-1.8,1.5-2.8,1.1c-0.4-0.2-0.9-0.5-1.1-1c-0.2-0.5-0.2-1.1-0.2-1.6c-0.6,0.4-1.7,0.9-2.2,0.5c-0.2,0.5-0.4,1-0.3,1.5
				c0.2,0.7,1.1,0.4,1.6,0.2c0.1,0,0.2,0.1,0.2,0.2c-0.1,0.8-0.1,1.8,0.7,2.2c0.7,0.3,1.4,0.2,2-0.1c0.1,0,0.2,0,0.2,0.1
				c-0.1,2.6,2.7,2.2,3.9,0.9c0.1-0.1,0.2,0,0.2,0.1c0.4,1.8,2.1-0.4,2.5-1.1c0-0.1,0.1-0.1,0.2,0c1.2,1.6,3.8,0,4-1.8
				c0-0.1,0.1-0.2,0.2-0.1c1.9,0.5,2.9-1.4,2.8-3.3C95.6,60.7,93.6,62.2,92.4,60.8z"/>
			<path class="st5" d="M60.8,65c-0.7,0.2-1.3-0.4-1.7-1c-0.3,0.5-0.8,1-1.4,0.9c-0.6-0.1-0.9-0.6-1-1.2c-0.6,0.5-1.8,1-2.2,0.5
				c0,0,0,0,0,0c-0.1,0.7,0.1,1.7,0.9,1.7c0.4,0,0.8-0.1,1.1-0.4c0.1,0,0.2,0,0.2,0.1c0.2,1.6,1.5,1.8,2.5,0.7
				c0.1-0.1,0.2,0,0.2,0.1c1.1,3.1,4.2-0.5,3.6-2.8C62.3,64.1,61.6,64.8,60.8,65z"/>
		</g>
		<g>
			<g>
				<path class="st6" d="M72.2,17.9c0,0-0.3-0.1-0.4-0.4c-0.2-0.3-0.3-0.8-0.3-1.2c0-0.2,0-0.3,0.1-0.4c0-0.1,0.1-0.2,0.1-0.2
					c0.1-0.1,0.1-0.1,0.2-0.1c0,0,0.1,0.1,0.1,0.1c0,0,0,0.1,0,0.2c0,0.1,0,0.2,0,0.4c0,0.3,0,0.7,0.1,1.1
					C72.1,17.6,72.3,17.9,72.2,17.9"/>
				<path class="st7" d="M71.8,16.7c-2.4,0.3-3,3.2-2.1,5c1.1,2.3,3.4,3.1,4.7,2.7c1-0.3,1.3-1.4,1-2.2c-0.5-1.2-0.2-1.8-0.5-3.2
					C74.5,17.6,73.7,16.5,71.8,16.7"/>
				<path class="st8" d="M75.4,22.3c-0.1-0.4-0.2-0.7-0.3-0.9c-0.1,0.1-0.1,0.2-0.2,0.3c-0.7,0.9-1.8,1.3-2.9,1
					c-1.4-0.4-2.4-1.8-2.6-3.3c-0.1,0.8,0,1.7,0.4,2.4c1.1,2.3,3.4,3.1,4.7,2.7C75.4,24.2,75.7,23.1,75.4,22.3z"/>
				<path class="st9" d="M70.6,18.6c0.1,0,0,0.5-0.1,0.9c0,0.3-0.1,0.3-0.1,0.3c-0.1,0-0.1,0-0.1-0.4C70.3,19.1,70.5,18.6,70.6,18.6
					"/>
				<path class="st9" d="M71,17.7c0,0.1,0,0.2-0.1,0.3c-0.1,0.1-0.2,0.2-0.3,0.2c-0.1,0,0-0.2,0.1-0.3C70.9,17.7,71,17.7,71,17.7"/>
			</g>
			<g>
				<path class="st6" d="M56.1,47.1c0,0-0.3-0.2-0.5-0.6c-0.2-0.4-0.3-1-0.3-1.4c0-0.2,0-0.4,0.1-0.5c0-0.1,0.1-0.2,0.1-0.3
					c0.1-0.1,0.2-0.1,0.2,0c0,0,0.1,0.1,0.1,0.2c0,0,0,0.1,0,0.2c0,0.1,0,0.3,0,0.5c0,0.4,0,0.9,0.1,1.3C56,46.7,56.2,47,56.1,47.1"
					/>
				<path class="st7" d="M56.1,45.7c-2.4-0.7-4.3,2.5-4.3,4.6c0,3.2,1.7,5.1,3,5.2c1,0.1,1.5-0.9,1.4-1.8c-0.1-1.3,0.4-2.3,1.1-3.5
					C58.3,48.6,58,46.3,56.1,45.7"/>
				<path class="st8" d="M57.7,47.2c0.1,0.4,0.1,0.8,0.1,1.1c0,0.5-0.1,1.1-0.5,1.5c-0.4,0.5-0.9,0.6-1.4,1
					c-0.6,0.4-0.9,1.3-1.6,1.5c-0.6,0.2-1.1-0.1-1.5-0.5c-0.6-0.6-0.9-1.4-1-2.1c0,0.2,0,0.4,0,0.6c0,3.2,1.7,5.1,3,5.2
					c1,0.1,1.5-0.9,1.4-1.8c-0.1-1.3,0.4-2.3,1.1-3.5C57.9,49.3,58,48.2,57.7,47.2z"/>
				<path class="st9" d="M53.4,47.7c0.1,0.1-0.2,0.5-0.4,0.8c-0.1,0.3-0.2,0.3-0.2,0.3c-0.1,0-0.1-0.1,0-0.4
					C53,48,53.4,47.7,53.4,47.7"/>
				<path class="st9" d="M54.4,46.9c0,0.1-0.1,0.3-0.3,0.4c-0.2,0.1-0.3,0.2-0.4,0.1c0-0.1,0.1-0.3,0.3-0.5
					C54.2,46.8,54.3,46.8,54.4,46.9"/>
			</g>
			<g>
				<path class="st6" d="M39.3,68.5c0,0-0.2-0.1-0.4-0.4c-0.2-0.3-0.3-0.8-0.3-1.1c0-0.2,0-0.3,0-0.4c0-0.1,0-0.2,0.1-0.3
					c0.1-0.1,0.1-0.1,0.2-0.1c0,0,0.1,0.1,0.1,0.1c0,0,0,0.1,0,0.2c0,0.1,0,0.2,0,0.4c0,0.3,0.1,0.7,0.2,1
					C39.2,68.2,39.4,68.4,39.3,68.5"/>
				<path class="st7" d="M38.8,67.3c-2.2,0.5-2.5,3.4-1.5,5.2c1.2,2.2,3.4,2.8,4.5,2.4c0.9-0.4,1.1-1.5,0.7-2.3
					c-0.5-1.2-0.3-1.8-0.7-3.1C41.4,68,40.6,66.9,38.8,67.3"/>
				<path class="st8" d="M42.5,72.6c-0.2-0.4-0.3-0.7-0.3-1c-0.3,0.9-0.9,1.6-1.9,1.7c-1.1,0.2-2.3-0.2-3-1.3
					c-0.1-0.2-0.2-0.4-0.3-0.6c0.1,0.4,0.2,0.8,0.4,1.1c1.2,2.2,3.4,2.8,4.5,2.4C42.6,74.5,42.9,73.3,42.5,72.6z"/>
				<path class="st9" d="M37.8,69.3c0.1,0,0,0.6,0,0.9c0,0.3,0,0.3-0.1,0.4c-0.1,0-0.1,0-0.1-0.4C37.6,69.8,37.8,69.3,37.8,69.3"/>
				<path class="st9" d="M38.2,68.4c0,0.1,0,0.2-0.1,0.3c-0.1,0.1-0.2,0.2-0.2,0.2c-0.1,0,0-0.2,0-0.3C38,68.4,38.2,68.3,38.2,68.4"
					/>
			</g>
			<g>
				<path class="st6" d="M59.8,8.8c0-0.2-0.1-0.4-0.1-0.5c0-0.1-0.1-0.2-0.1-0.3c-0.1-0.1-0.2-0.1-0.2-0.1c0,0-0.1,0.1-0.1,0.2
					c0,0,0,0.1,0,0.2c0,0.1,0,0.3,0.1,0.5c0,0.4,0,0.9-0.1,1.3c-0.1,0.4-0.2,0.7-0.2,0.7c0,0,0.3-0.2,0.4-0.6
					C59.8,9.9,59.9,9.3,59.8,8.8"/>
				<path class="st7" d="M62.9,13.2c-0.1-2.3-2.1-5-4.3-3.7c-1.8,1-1.6,4.3-0.6,5c1,0.9,0.3,1.5,0.6,2.9c0.2,0.9,1.2,1,1.7,0.7
					C61.5,17.5,63.1,16.1,62.9,13.2"/>
				<path class="st8" d="M62.9,13.2c0-1.1-0.5-2.2-1.2-3c0.9,1.5,0.9,3.8,0.2,5.2c-0.4,0.9-1.4,1.9-2.4,1.5c-0.5-0.2-0.7-0.7-1-1.1
					c0,0.4-0.1,0.9,0,1.6c0.2,0.9,1.2,1,1.7,0.7C61.5,17.5,63.1,16.1,62.9,13.2z"/>
				<path class="st9" d="M58.6,11c0.1,0,0,0.2,0,0.4c-0.1,0.2-0.2,0.3-0.2,0.3c-0.1,0-0.1-0.2,0-0.4C58.3,11.1,58.5,10.9,58.6,11"/>
				<path class="st9" d="M58.2,12.2c0.1,0,0.2,0.1,0.2,0.3c0,0.2,0.1,0.4,0,0.4c-0.1,0-0.2-0.1-0.3-0.3
					C58.1,12.4,58.1,12.2,58.2,12.2"/>
			</g>
			<g>
				<path class="st6" d="M45,23.4c0-0.2,0-0.4,0-0.6c0-0.1,0-0.2-0.1-0.3c-0.1-0.2-0.1-0.1-0.2-0.1c0,0-0.1,0.1-0.1,0.2
					c0,0,0,0.1,0,0.2c0,0.1,0,0.3,0,0.5c0,0.4-0.1,0.9-0.2,1.3c-0.1,0.4-0.3,0.6-0.3,0.7c0,0,0.3-0.1,0.5-0.5
					C44.8,24.4,45,23.8,45,23.4"/>
				<path class="st7" d="M46.4,28.7c0.8-2.1,0.2-5.1-2.3-5c-2,0-3.4,2.2-3.2,4c0.1,1.8-0.1,1.6-0.3,3C40.4,31.6,41.4,32,42,32
					C43.3,32,45.4,31.3,46.4,28.7"/>
				<path class="st8" d="M45,23.8c1.2,1.3,0.8,4-0.2,5.4c-0.7,1-1.8,1.9-3,1.7c-0.5-0.1-0.9-0.4-1.1-0.8c0,0.1-0.1,0.3-0.1,0.5
					C40.4,31.6,41.4,32,42,32c1.3,0,3.4-0.7,4.4-3.3C47.1,26.9,46.7,24.4,45,23.8z"/>
				<path class="st9" d="M43.5,24.8c0,0.1-0.1,0.2-0.3,0.4c-0.2,0.1-0.4,0.2-0.4,0.1c-0.1-0.1,0-0.3,0.2-0.4
					C43.3,24.7,43.5,24.7,43.5,24.8"/>
				<path class="st9" d="M42.5,25.6c0.1,0,0.1,0.2,0,0.5c-0.1,0.2-0.2,0.4-0.3,0.4c-0.1,0-0.1-0.2,0-0.5
					C42.2,25.7,42.4,25.5,42.5,25.6"/>
			</g>
			<g>
				<path class="st6" d="M61,28.1c0-0.2,0-0.4,0-0.6c0-0.1,0-0.2-0.1-0.3c-0.1-0.2-0.1-0.1-0.2-0.1c0,0-0.1,0.1-0.1,0.2
					c0,0,0,0.1,0,0.2c0,0.1,0,0.3,0,0.5c0,0.4-0.1,0.9-0.2,1.3c-0.1,0.4-0.3,0.7-0.2,0.7c0,0,0.3-0.1,0.5-0.5
					C60.9,29.1,61,28.5,61,28.1"/>
				<path class="st7" d="M63.7,33.3c0.1-2.3-1.3-5-3.7-4c-1.9,0.8-1.8,3.5-1.4,4.7c0.4,1.4-0.1,1.7,0.1,3.1c0.1,0.9,1.1,1.1,1.6,0.9
					C61.6,37.5,63.5,36.1,63.7,33.3"/>
				<path class="st8" d="M60.6,29.1c2.4,0.8,2.7,5.5,0.5,7.2c-0.1,0.1-0.2,0-0.2-0.1c-0.2-0.7-0.7,0.3-0.9,0.5
					C59.7,37,59.4,37.2,59,37c-0.1-0.1-0.3-0.2-0.3-0.3c0,0.1,0,0.2,0,0.3c0.1,0.9,1.1,1.1,1.6,0.9c1.2-0.5,3.2-1.9,3.3-4.7
					C63.8,31.2,62.6,28.7,60.6,29.1z"/>
				<path class="st9" d="M60.2,30.3c0.1,0.1,0,0.3-0.1,0.5c-0.1,0.2-0.2,0.4-0.3,0.3c-0.1,0-0.1-0.3,0-0.5
					C59.9,30.4,60.1,30.2,60.2,30.3"/>
				<path class="st9" d="M59.6,31.6c0.1,0,0.2,0.2,0.2,0.4c0,0.2,0,0.5-0.1,0.5c-0.1,0-0.2-0.2-0.3-0.4
					C59.5,31.9,59.5,31.6,59.6,31.6"/>
			</g>
			<g>
				<path class="st6" d="M86.9,22.5c0-0.2,0-0.4,0-0.5c0-0.1,0-0.2,0-0.3c-0.1-0.2-0.1-0.1-0.2-0.1c0,0-0.1,0.1-0.1,0.1
					c0,0,0,0.1,0,0.2c0,0.1,0,0.3,0,0.5c0,0.4-0.2,0.9-0.3,1.2c-0.2,0.4-0.3,0.6-0.3,0.6c0,0,0.3-0.1,0.5-0.4
					C86.7,23.4,86.8,22.9,86.9,22.5"/>
				<path class="st7" d="M88.9,27.2c0.3-2.1-1-5-3.2-4.4c-1.8,0.5-2.2,3.5-1.5,4.5c0.8,1.1,0,1.5,0,2.8c0,0.9,0.9,1.2,1.4,1.1
					C86.8,30.8,88.5,29.8,88.9,27.2"/>
				<path class="st8" d="M87.9,23.5c0.3,1.2,0.2,2.9,0,3.6c-0.4,1-1.4,1.7-2.3,1.6c-0.4-0.1-0.8-0.3-1.1-0.5c0,0.5-0.3,1-0.3,1.8
					c0,0.9,0.9,1.2,1.4,1.1c1.2-0.3,2.8-1.2,3.3-3.9C89.1,26,88.7,24.5,87.9,23.5z"/>
				<path class="st9" d="M85.4,23.9c0.1,0.1,0,0.2-0.1,0.4c-0.1,0.2-0.2,0.3-0.3,0.2c-0.1,0,0-0.2,0.1-0.4
					C85.2,24,85.3,23.9,85.4,23.9"/>
				<path class="st9" d="M84.8,24.9c0.1,0,0.1,0.2,0.1,0.4c0,0.2,0,0.4-0.1,0.4c-0.1,0-0.2-0.1-0.2-0.4
					C84.7,25.1,84.8,24.9,84.8,24.9"/>
			</g>
			<g>
				<path class="st6" d="M91.9,36.7c0-0.3-0.1-0.5-0.1-0.6c0-0.1-0.1-0.3-0.1-0.3c-0.1-0.2-0.2-0.1-0.2-0.1c0,0-0.1,0.1-0.1,0.2
					c0,0,0,0.1,0,0.3c0,0.1,0,0.3,0.1,0.5c0,0.5,0,1.1-0.1,1.5c-0.1,0.5-0.2,0.8-0.2,0.8c0,0,0.3-0.2,0.5-0.7
					C91.9,37.9,91.9,37.2,91.9,36.7"/>
				<path class="st7" d="M95.4,41.6c-0.1-2.6-1.7-5.4-4.7-4.2c-2.1,0.8-3,4.9-1.5,6.4c1.4,1.3,0.8,1.6,1.3,2.7
					c0.3,0.6,1.3,1,1.9,0.7C93.8,46.4,95.6,44.8,95.4,41.6"/>
				<path class="st8" d="M95.4,41.6c0-0.5-0.1-0.9-0.2-1.4c0.1,1.3-0.2,2.5-1,3.6c-0.4,0.6-1.1,1.3-1.9,1.3
					c-0.8-0.1-1.4-0.5-1.9-1.1c-0.6-0.6-1.5-1.5-1.9-2.4c0,0.9,0.2,1.7,0.7,2.2c1.4,1.3,0.8,1.6,1.3,2.7c0.3,0.6,1.3,1,1.9,0.7
					C93.8,46.4,95.6,44.8,95.4,41.6z"/>
				<path class="st9" d="M90.9,38.5c0.1,0.1,0,0.3,0,0.5c-0.1,0.2-0.2,0.4-0.3,0.3c-0.1,0-0.1-0.2,0-0.5
					C90.7,38.6,90.8,38.4,90.9,38.5"/>
				<path class="st9" d="M90.1,39.9c0.1,0,0.1,0.2,0.1,0.4c0,0.2-0.1,0.4-0.2,0.4c-0.1,0-0.2-0.2-0.2-0.5
					C89.9,40.1,90,39.9,90.1,39.9"/>
			</g>
			<g>
				<path class="st6" d="M69.7,39.7c0-0.2-0.1-0.4-0.1-0.5c0-0.1-0.1-0.2-0.1-0.3c-0.1-0.1-0.2-0.1-0.2-0.1c0,0-0.1,0.1-0.1,0.2
					c0,0,0,0.1,0,0.2c0,0.1,0,0.3,0.1,0.5c0,0.4,0,0.9-0.1,1.3c-0.1,0.4-0.2,0.7-0.2,0.7c0,0,0.3-0.2,0.4-0.6
					C69.7,40.8,69.7,40.2,69.7,39.7"/>
				<path class="st7" d="M73.1,44.4c-0.1-2.3-1.7-4.8-4.6-4.1c-1.9,0.5-2.1,3.3-1.7,4.5c0.5,1.3,1.9,2.6,2.2,3.9
					c0.2,0.9,1.2,1,1.7,0.7C71.9,48.9,73.2,47.2,73.1,44.4"/>
				<path class="st8" d="M72.2,47.9c-1,0.6-2.2-0.2-2.9-0.9c-1-0.9-2-1.6-2.4-2.9c-0.1-0.3-0.1-0.5-0.2-0.8c0,0.6,0,1.1,0.2,1.5
					c0.5,1.3,1.9,2.6,2.2,3.9c0.2,0.9,1.2,1,1.7,0.7c0.6-0.3,1.2-0.9,1.7-1.8C72.4,47.8,72.3,47.8,72.2,47.9z"/>
				<path class="st9" d="M68.4,41.5c0.1,0.1,0,0.3-0.1,0.5c-0.1,0.2-0.2,0.4-0.3,0.3c-0.1,0-0.1-0.3,0-0.5
					C68.1,41.6,68.3,41.4,68.4,41.5"/>
				<path class="st9" d="M67.6,42.9c0.1,0,0.1,0.2,0.1,0.4c0,0.2-0.1,0.4-0.2,0.4c-0.1,0-0.2-0.2-0.1-0.4
					C67.4,43.1,67.5,42.9,67.6,42.9"/>
			</g>
			<g>
				<path class="st6" d="M35.8,45.4c0-0.2,0-0.4,0-0.6c0-0.1,0-0.2,0-0.3c-0.1-0.2-0.1-0.1-0.2-0.1c0,0-0.1,0.1-0.1,0.1
					c0,0,0,0.1,0,0.2c0,0.1,0,0.3-0.1,0.5c-0.1,0.4-0.2,0.9-0.4,1.3c-0.2,0.4-0.4,0.6-0.3,0.7c0,0,0.3-0.1,0.5-0.4
					C35.6,46.4,35.8,45.9,35.8,45.4"/>
				<path class="st7" d="M38.1,50.5c0.5-2.2-0.7-5.1-3.1-4.6c-2,0.4-3.5,2.3-3,4.5c0.3,1.4,0.6,1.4,0.2,3.2
					c-0.2,0.9,1.3,1.4,1.8,1.3C35.3,54.6,37.5,53.3,38.1,50.5"/>
				<path class="st8" d="M37.5,47c0.1,0.4,0.2,0.8,0.2,1.2c0.1,1.5-0.4,2.7-1.5,3.7c-0.9,0.8-2,1.4-3.1,0.9
					c-0.3-0.1-0.6-0.3-0.8-0.6c0,0.3-0.1,0.7-0.2,1.3c-0.2,0.9,1.3,1.4,1.8,1.3c1.3-0.2,3.4-1.5,4-4.3C38.4,49.3,38.1,48,37.5,47z"
					/>
				<path class="st9" d="M34,47.2c0,0.1-0.1,0.2-0.2,0.3c-0.2,0.1-0.3,0.2-0.4,0.1c-0.1-0.1,0-0.2,0.2-0.4
					C33.8,47.1,34,47.1,34,47.2"/>
				<path class="st9" d="M33.2,48c0.1,0,0.1,0.2,0,0.4c-0.1,0.2-0.1,0.3-0.2,0.3c-0.1,0-0.1-0.2-0.1-0.4C33,48.1,33.1,47.9,33.2,48"
					/>
			</g>
			<g>
				<path class="st6" d="M92,64.3c0.1-0.2,0.1-0.4,0.1-0.5c0-0.1,0-0.2,0-0.3c0-0.2-0.1-0.2-0.1-0.1c0,0-0.1,0.1-0.1,0.1
					c0,0,0,0.1-0.1,0.2c0,0.1-0.1,0.3-0.1,0.5c-0.1,0.4-0.3,0.9-0.6,1.2c-0.2,0.3-0.4,0.5-0.4,0.6c0,0.1,0.3,0,0.6-0.3
					C91.5,65.3,91.8,64.7,92,64.3"/>
				<path class="st7" d="M93.2,69.7c0.7-2.1,0.4-5.2-2.5-5c-2,0.1-2.9,2.7-2.9,4c0.1,1.3,0.1,1.5-0.1,2.9C87.6,72.5,88.5,73,89,73
					C90.3,73,92.3,72.4,93.2,69.7"/>
				<path class="st8" d="M92.6,65.2c0.8,1.4,0.1,3.8-1,4.7c-1.2,0.9-3,0.8-3.7-0.4c0,0.7,0,1.1-0.2,2.1C87.6,72.5,88.5,73,89,73
					c1.3,0,3.3-0.6,4.2-3.3C93.8,68.2,93.8,66.1,92.6,65.2z"/>
				<path class="st9" d="M90.3,65.7c0,0.1-0.1,0.2-0.2,0.3c-0.2,0.1-0.3,0.1-0.4,0.1c0-0.1,0-0.2,0.2-0.4
					C90.1,65.6,90.3,65.6,90.3,65.7"/>
				<path class="st9" d="M89.4,66.3c0.1,0,0,0.2,0,0.4c-0.1,0.2-0.2,0.3-0.2,0.3c-0.1,0-0.1-0.2,0-0.4
					C89.2,66.4,89.4,66.3,89.4,66.3"/>
			</g>
		</g>
		<g>
			<path class="st5" d="M71.3,52.9c-0.1,0-0.2,0.2-0.4,0.4c-0.2,0.2-0.6,0.4-1,0.2c-0.4-0.1-0.7-0.5-0.7-0.8
				c-0.1-0.3-0.1-0.5-0.1-0.6c0,0-0.1,0-0.1,0.1c-0.1,0.1-0.1,0.3-0.1,0.5c0,0.2,0.1,0.5,0.2,0.7c0.2,0.2,0.4,0.5,0.7,0.5
				c0.3,0.1,0.6,0.1,0.9-0.1c0.3-0.1,0.4-0.3,0.6-0.5C71.4,53.2,71.3,52.9,71.3,52.9"/>
			<g>
				<path class="st5" d="M53.1,24.2c-0.2,0-0.5,0-0.8-0.1c-0.3-0.1-0.6-0.4-0.7-0.7c0,0,0-0.1,0-0.2c0-0.1,0-0.1-0.1-0.2
					c0,0,0,0-0.1-0.1l0,0c0,0-0.1,0-0.1,0c-0.1,0-0.1,0-0.2,0.1c0,0,0,0,0,0c0,0-0.1,0-0.1,0.1c-0.1,0-0.1,0.1-0.2,0.1
					c-0.3,0.1-0.6,0.1-0.9,0c-0.3-0.1-0.6-0.3-0.7-0.6c-0.2-0.3-0.2-0.7-0.2-1c0-0.2,0.1-0.5,0.3-0.7c0.1-0.1,0.1-0.2,0.3-0.4
					c0.1-0.1,0.1-0.2,0-0.3c0-0.1,0-0.1-0.1-0.1l-0.1-0.1l-0.1-0.1l-0.1,0c0,0-0.1-0.1-0.1-0.1c-0.1-0.1-0.1-0.1-0.2-0.2
					c-0.1-0.1-0.2-0.3-0.3-0.4c-0.2-0.3-0.2-0.6-0.2-0.9c0-0.3,0.2-0.6,0.3-0.8c0.2-0.2,0.4-0.4,0.6-0.5c0.4-0.2,0.8-0.3,1-0.4
					c0.3-0.1,0.4-0.1,0.4-0.1c0,0-0.1-0.1-0.4-0.1c-0.3,0-0.7,0-1.2,0.2c-0.2,0.1-0.5,0.3-0.7,0.5c-0.2,0.3-0.4,0.6-0.5,1
					c-0.1,0.4,0,0.9,0.2,1.3c0.1,0.2,0.2,0.4,0.4,0.5c0.1,0.1,0.2,0.2,0.2,0.2c0,0,0.1,0.1,0.1,0.1l0.1,0l0,0c0,0,0,0,0,0
					c0,0-0.1,0.1-0.2,0.2c-0.2,0.3-0.3,0.6-0.4,0.9c-0.1,0.5,0,1.1,0.2,1.5c0.2,0.4,0.6,0.7,1,0.8c0.4,0.1,0.8,0.1,1.2,0
					c0.1,0,0.2-0.1,0.3-0.1l0.1,0c0,0,0,0.1,0.1,0.2c0.2,0.5,0.6,0.7,1,0.8c0.3,0.1,0.7,0.1,0.9,0c0.5-0.1,0.7-0.4,0.7-0.4
					C53.7,24,53.5,24.2,53.1,24.2"/>
				<path class="st5" d="M79,27.4L79,27.4c0.1-0.1,0.2-0.2,0.3-0.3c0.1-0.2,0.2-0.3,0.3-0.5c0.1-0.3,0.2-0.7,0.1-1
					c-0.1-0.3-0.2-0.5-0.3-0.7c-0.3-0.3-0.5-0.3-0.5-0.3c0,0,0.2,0.1,0.4,0.4c0.1,0.1,0.2,0.3,0.2,0.5c0,0.2,0,0.5-0.2,0.8
					c-0.1,0.1-0.2,0.3-0.3,0.4C79,26.9,78.9,27,78.8,27l0,0l0,0c0,0-0.1,0-0.1,0c0,0-0.1,0-0.2,0.1c0,0-0.1,0.1-0.1,0.1
					c0,0,0,0,0,0.1c0,0,0,0.1,0,0.1c0,0.1,0.1,0.2,0.1,0.2c0.1,0,0,0,0,0l0,0c0,0,0.1,0.1,0.1,0.1c0.1,0.1,0.2,0.3,0.2,0.5
					c0.1,0.4,0.1,0.8-0.1,1.1c-0.2,0.3-0.5,0.6-0.9,0.7c-0.3,0.1-0.6,0.1-0.9,0c-0.1,0-0.3-0.1-0.4-0.2l-0.2-0.1c-0.1,0-0.1,0-0.2,0
					c-0.2,0-0.3,0.1-0.3,0.3l0,0.1c0,0,0,0,0,0.1l0,0.1c0,0.1-0.1,0.1-0.1,0.2c-0.1,0.1-0.2,0.3-0.3,0.4c-0.2,0.2-0.4,0.4-0.7,0.5
					c-0.5,0.2-1,0.2-1.3,0c-0.3-0.2-0.5-0.5-0.6-0.7c-0.1-0.2-0.1-0.4-0.1-0.4c0,0-0.1,0.1,0,0.4c0,0.3,0.2,0.7,0.6,1
					c0.2,0.1,0.4,0.3,0.7,0.3c0.3,0,0.6,0,0.9-0.1c0.3-0.1,0.6-0.3,0.8-0.6c0.1-0.1,0.2-0.3,0.3-0.5c0-0.1,0.1-0.2,0.1-0.3l0.1-0.1
					c0,0,0,0,0-0.1l0,0c0,0,0,0,0,0c0,0,0,0,0,0l0,0l0.1,0c0.2,0.1,0.3,0.2,0.5,0.2c0.4,0.1,0.8,0.1,1.2,0c0.5-0.1,1-0.5,1.2-1
					c0.3-0.5,0.3-1.1,0.2-1.6c-0.1-0.2-0.2-0.5-0.3-0.6c0,0,0,0,0-0.1C78.9,27.5,78.9,27.5,79,27.4C79,27.5,79,27.4,79,27.4"/>
				<path class="st5" d="M47.4,38.6c-0.1,0-0.1,0-0.3,0.2c-0.1,0.1-0.2,0.3-0.3,0.4c-0.2,0.2-0.4,0.4-0.8,0.6
					c-0.4,0.1-0.8,0.1-1.2-0.2c-0.4-0.3-0.6-0.8-0.8-1.2c-0.1-0.5-0.1-0.9-0.1-1.2c0-0.3,0.1-0.5,0.1-0.5c0,0-0.1,0.1-0.3,0.4
					c0,0-0.1,0-0.2,0.1c-0.1,0-0.2,0.1-0.4,0.2c-0.2,0.1-0.5,0.2-0.8,0.1c-0.3,0-0.7-0.2-1-0.6c-0.3-0.3-0.4-0.8-0.5-1.2
					c-0.1-0.4,0-0.8,0-1.1c0.1-0.3,0.1-0.4,0.1-0.5c0,0-0.2,0.1-0.3,0.4c-0.1,0.3-0.2,0.7-0.2,1.2c0,0.3,0,0.5,0.1,0.8
					c0.1,0.3,0.2,0.5,0.4,0.8c0.2,0.2,0.4,0.4,0.6,0.6c0.2,0.1,0.5,0.2,0.7,0.3c0.5,0.1,0.8-0.1,1.1-0.2c0.1-0.1,0.2-0.1,0.3-0.2
					c0,0.2,0,0.5,0,0.8c0.1,0.6,0.3,1.2,0.8,1.6c0.2,0.2,0.5,0.3,0.8,0.4c0.3,0,0.6,0,0.8-0.1c0.5-0.2,0.8-0.5,1-0.8
					c0.2-0.3,0.3-0.5,0.3-0.6C47.5,38.6,47.4,38.6,47.4,38.6"/>
				<path class="st5" d="M57.3,40.7c-0.1,0-0.1,0-0.2,0.1c-0.1,0-0.2,0.1-0.4,0c-0.2,0-0.3-0.1-0.4-0.3c-0.1-0.2-0.1-0.4-0.1-0.7
					c0.1-0.5,0.4-0.7,0.3-0.8c0,0-0.1,0-0.3,0.1c-0.1,0.1-0.3,0.3-0.4,0.6c-0.1,0.3-0.2,0.7,0,1c0.1,0.2,0.2,0.4,0.3,0.5
					c0.1,0.1,0.3,0.2,0.5,0.2c0.3,0,0.5,0,0.7-0.1c0.1-0.1,0.2-0.2,0.3-0.2c0.1-0.1,0-0.2,0-0.3C57.5,40.7,57.5,40.6,57.3,40.7"/>
				<path class="st5" d="M82,44.4c-0.1,0-0.2,0.1-0.5,0.2c-0.3,0.1-0.7,0.1-1-0.2c-0.3-0.3-0.5-0.7-0.4-1c0-0.3,0.1-0.5,0.1-0.6
					c0,0-0.1,0-0.2,0.1c-0.1,0.1-0.2,0.2-0.2,0.4c-0.1,0.2-0.1,0.5,0,0.8c0.1,0.3,0.2,0.6,0.5,0.8c0.3,0.2,0.6,0.3,0.8,0.3
					c0.3,0,0.5-0.1,0.7-0.2C82.1,44.7,82.1,44.4,82,44.4"/>
			</g>
		</g>
		<g>
			<path class="st10" d="M45.6,59l2.2-0.4c0,0,1.2,11.4,12.8,12.4l0.7-13.9l7.1,0.2l0.4,9.9c0,0,11.9-1.8,14.3-11.5l2.1,0
				c0,0-1.1,11.8-16.4,16.1l1.9,38.1c0,0-0.4,1.6-5.1,1.6c-4.7,0-6.9-1-6.9-1.8c0-0.7,1.7-34.9,1.7-34.9s-6.9,1-11.9-7.1
				c0,0-6,1.4-9-7.2l1.2-1.3c0,0,0.3,5.3,6.7,6.1C47.4,65.4,46.1,64.2,45.6,59"/>
			<path class="st11" d="M46.7,61.2c0.4-0.3,0.6-0.5,1-0.6c0.2,0,0.3-0.1,0.5-0.1c-0.3-1.2-0.4-1.9-0.4-1.9L45.6,59
				c0.1,1,0.2,1.8,0.4,2.6C46.2,61.5,46.5,61.3,46.7,61.2z"/>
			<path class="st11" d="M42,62.4c-1.1-1.6-1.2-3.2-1.2-3.2l-1.2,1.3c0.3,1,0.7,1.8,1.1,2.5C41.1,62.9,41.6,62.7,42,62.4z"/>
			<path class="st11" d="M85.2,55.8l-2.1,0c-2.4,9.7-14.3,11.5-14.3,11.5l-0.4-9.9l-7.1-0.2l-0.2,4c0.6-0.2,1.1-0.5,1.7-0.7
				c0.1,0,0.1,0,0.2,0.1c0.3,0.8,1.5,0.4,2.1,0.6c0.6,0.3,0.9,0.9,1,1.6c0,1.1-0.3,2.1-0.5,3.2c-0.2,1.5-0.3,3.1-0.4,4.7
				c-0.1,3.1,0.2,6.2,0.7,9.3c0.4,2.4,0.8,4.8,0.3,7.2c0.1,0,0.1,0.1,0.1,0.1c-0.2,3.9-0.5,7.9-0.3,11.8c0.1,2.2,0.3,4.4,0.4,6.6
				c0,2,0,4.1-0.8,5.9c0,0,0.1,0,0.1,0c4.7,0,5.1-1.6,5.1-1.6l-1.9-38.1C84.1,67.6,85.2,55.8,85.2,55.8z"/>
			<path class="st11" d="M82.9,58c0.1,0,0.1,0,0.1,0.1c0.3,0.6,0.8,0.9,1.3,1c0.8-1.9,0.9-3.3,0.9-3.3l-2.1,0
				c-0.2,0.9-0.6,1.8-0.9,2.6C82.4,58.2,82.7,58.1,82.9,58z"/>
		</g>
		<g>
			<path class="st2" d="M69.1,54.1c-1.4-0.3-2.7,0.3-3.3,1.4c-0.3-0.7-0.9-1.2-1.6-1.2c-0.8,0-1.5,0.6-1.7,1.5
				c-0.4-0.8-1.3-1.4-2.4-1.4c-1.4,0-2.6,1.1-2.6,2.4c0,1.3,1.2,2.4,2.6,2.4c1.2,0,2.2-0.7,2.5-1.7c0.3,0.7,0.9,1.1,1.6,1.1
				c0.6,0,1.2-0.4,1.5-1c0.4,1,1.2,1.8,2.4,2c1.7,0.4,3.2-0.6,3.5-2.1C71.9,56,70.8,54.5,69.1,54.1"/>
			<path class="st2" d="M89.9,53.9c-1-0.9-2.6-0.6-3.7,0.8c-0.1,0.1-0.2,0.2-0.3,0.4c-0.2-0.3-0.5-0.5-0.9-0.5c-0.1,0-0.1,0-0.2,0
				c0.3-0.8,0.1-1.7-0.4-2.2c-0.8-0.7-2.1-0.5-2.9,0.6c0,0,0,0.1-0.1,0.1c-0.2-0.7-0.8-1.2-1.5-1.2c-0.9,0-1.6,0.8-1.6,1.8
				c0,1,0.7,1.8,1.6,1.8c0.3,0,0.6-0.1,0.9-0.3c0,0.5,0.2,0.9,0.5,1.2c0.7,0.6,1.7,0.5,2.5-0.2c0.1,0.6,0.6,1,1.1,1
				c0.1,0,0.2,0,0.3,0c0,0.7,0.2,1.3,0.7,1.8c1,0.9,2.6,0.6,3.7-0.8C90.8,56.7,90.8,54.8,89.9,53.9"/>
			<path class="st2" d="M48.1,55.9c-0.7,0-1.3,0.5-1.6,1.2c-0.3-0.4-0.8-0.6-1.3-0.6c-0.5,0-0.9,0.2-1.3,0.6
				c-0.3-0.5-0.9-0.8-1.5-0.8c-0.9,0-1.6,0.7-1.8,1.6c-0.5-0.3-1.2-0.4-1.8-0.1c-1.1,0.4-1.7,1.5-1.4,2.5c0.3,1,1.4,1.5,2.5,1.1
				c0.8-0.3,1.3-0.9,1.5-1.6c0.3,0.2,0.6,0.3,1,0.3c0.5,0,0.9-0.2,1.3-0.6c0.3,0.5,0.9,0.8,1.5,0.8c0.7,0,1.4-0.5,1.7-1.2
				c0.3,0.4,0.8,0.6,1.3,0.6c1,0,1.7-0.9,1.7-1.9C49.8,56.7,49.1,55.9,48.1,55.9"/>
			<g>
				<path class="st5" d="M71.6,57.6c0,0,0,0.2-0.1,0.7c-0.1,0.2-0.2,0.4-0.4,0.7c-0.2,0.2-0.5,0.5-0.8,0.7c-0.6,0.4-1.6,0.5-2.5,0.3
					c-0.5-0.1-1-0.4-1.4-0.7c-0.2-0.2-0.4-0.4-0.6-0.7c-0.1-0.1-0.2-0.3-0.2-0.3c0,0,0,0,0,0c0,0,0,0,0,0c0,0,0,0-0.1,0.1
					c0,0-0.1,0.1-0.1,0.1c-0.1,0.1-0.2,0.1-0.3,0.2c-0.2,0.1-0.4,0.2-0.6,0.3c-0.5,0.1-1,0-1.3-0.3c-0.2-0.1-0.4-0.3-0.5-0.5
					c0,0,0,0,0,0l0,0c0,0,0,0,0,0c0,0,0,0,0,0l-0.1,0.1c0,0.1-0.1,0.1-0.1,0.2c-0.1,0.1-0.2,0.2-0.3,0.3c-0.2,0.2-0.4,0.3-0.6,0.4
					c-0.4,0.2-0.9,0.3-1.3,0.4c-0.8,0-1.6-0.3-2-0.7c-0.2-0.2-0.4-0.5-0.5-0.7c-0.1-0.2-0.2-0.4-0.2-0.6c-0.1-0.4,0-0.6,0-0.6
					c0,0,0,0.2,0.2,0.5c0.1,0.2,0.1,0.3,0.3,0.5c0.1,0.2,0.3,0.4,0.5,0.6c0.4,0.3,1.1,0.6,1.8,0.5c0.4,0,0.7-0.1,1.1-0.3
					c0.2-0.1,0.3-0.2,0.5-0.4c0.1-0.1,0.1-0.2,0.2-0.2c0,0,0.1-0.1,0.1-0.1l0-0.1l0.1-0.1c0.1-0.1,0.1-0.2,0.2-0.2
					c0.1,0,0.2-0.1,0.2,0c0.1,0,0.2,0,0.2,0.1l0.1,0.1c0,0,0.1,0.1,0.1,0.1c0.1,0.1,0.2,0.3,0.4,0.4c0.3,0.2,0.6,0.3,1,0.2
					c0.2,0,0.3-0.1,0.5-0.2c0.1,0,0.1-0.1,0.2-0.2c0,0,0.1-0.1,0.1-0.1c0,0,0,0,0,0c0,0,0.1-0.1,0.1-0.1c0,0,0.1-0.1,0.1-0.1
					c0.1,0,0.1,0,0.2,0c0.1,0,0.2,0,0.3,0.2c0.2,0.3,0.2,0.3,0.3,0.4c0.1,0.2,0.3,0.4,0.5,0.6c0.4,0.3,0.8,0.6,1.2,0.7
					c0.8,0.3,1.7,0.2,2.2-0.1c0.3-0.1,0.5-0.3,0.7-0.5c0.2-0.2,0.3-0.4,0.4-0.6C71.5,57.8,71.6,57.6,71.6,57.6"/>
				<path class="st5" d="M96.5,52.8c-0.1-0.3-0.3-0.5-0.4-0.7C95.9,52,95.8,52,95.8,52c-0.1,0.1,0.2,0.4,0.3,0.9
					c0.1,0.3,0.1,0.6,0,1c0,0.4-0.2,0.8-0.4,1.1c-0.2,0.3-0.6,0.5-0.9,0.6c-0.3,0.1-0.6,0-0.9-0.1c-0.3-0.1-0.5-0.3-0.6-0.4
					c0,0,0-0.1,0-0.1c0,0,0,0-0.1,0c0,0,0,0-0.1,0c0,0,0,0,0,0.1c-0.1,0.1-0.2,0.2-0.3,0.3c-0.2,0.2-0.5,0.5-0.8,0.4
					c-0.1,0-0.2-0.1-0.2-0.1c-0.1,0-0.1-0.1-0.2-0.2c-0.1-0.1-0.2-0.3-0.3-0.4c-0.1-0.3-0.1-0.5-0.2-0.5c-0.1,0-0.2,0.2-0.1,0.6
					c0,0.2,0.1,0.4,0.2,0.7c0.1,0.1,0.2,0.2,0.3,0.3c0.1,0.1,0.2,0.1,0.4,0.2c0.2,0,0.3,0,0.5,0c0.1,0,0.3-0.1,0.4-0.2
					c0.2-0.2,0.3-0.4,0.4-0.5c0-0.1,0.1-0.2,0.1-0.3c0.1,0.2,0.2,0.4,0.5,0.5c0.3,0.2,0.7,0.3,1.1,0.3c0.4-0.1,0.9-0.3,1.2-0.8
					c0.3-0.4,0.5-0.9,0.5-1.4C96.7,53.5,96.6,53.1,96.5,52.8"/>
				<path class="st5" d="M89.7,58c0,0-0.2,0.1-0.5,0.4c-0.2,0.1-0.3,0.3-0.6,0.4c-0.2,0.1-0.5,0.2-0.8,0.3c-0.3,0.1-0.7,0.1-1-0.1
					c-0.3-0.1-0.7-0.3-0.9-0.7c-0.1-0.2-0.2-0.4-0.2-0.6c0-0.1-0.1-0.2-0.1-0.3c0-0.1,0-0.1,0-0.2c0,0,0-0.1,0-0.1l0,0
					c0,0,0,0,0-0.1c0,0,0,0,0-0.1c0,0,0-0.1-0.1-0.1c0,0-0.1-0.1-0.1-0.1c0,0-0.1,0-0.1,0c0,0-0.1,0-0.1,0c0,0-0.1,0-0.1,0l-0.1,0
					l0,0h0c0,0,0,0,0,0c-0.1,0-0.2,0-0.3-0.1c-0.2-0.1-0.3-0.2-0.4-0.4l-0.1-0.2c0-0.1-0.1-0.1-0.2-0.2c-0.1-0.1-0.3-0.1-0.4,0
					L83.4,56l-0.1,0.1c-0.1,0-0.1,0.1-0.2,0.1c-0.1,0.1-0.3,0.1-0.4,0.1c-0.3,0-0.6,0-0.8-0.1c-0.2-0.1-0.4-0.3-0.6-0.6
					c0-0.1-0.1-0.1-0.1-0.2c0,0,0-0.1,0-0.1l0-0.1l0-0.1c0-0.3-0.3-0.4-0.6-0.3l-0.1,0.1l-0.1,0c0,0-0.1,0-0.1,0c-0.1,0-0.2,0-0.3,0
					c-0.2,0-0.4,0-0.5-0.1c-0.3-0.1-0.6-0.4-0.7-0.6c-0.1-0.2-0.2-0.5-0.3-0.6c0-0.2-0.1-0.2-0.1-0.2c0,0,0,0.1,0,0.3
					c0,0.2,0,0.4,0.2,0.7c0.1,0.3,0.4,0.6,0.8,0.8c0.2,0.1,0.4,0.2,0.7,0.2c0.1,0,0.2,0,0.4,0c0.1,0,0.1,0,0.2,0l0.1,0l0.1,0
					c0,0,0.1,0,0,0c0,0,0,0,0,0l0,0.1c0,0,0,0.1,0,0.1c0,0.1,0.1,0.2,0.1,0.3c0.2,0.3,0.4,0.6,0.8,0.8c0.3,0.2,0.7,0.2,1.1,0.2
					c0.2,0,0.4-0.1,0.6-0.2c0.1,0,0.2-0.1,0.3-0.1l0.1-0.1l0.1-0.1l0,0v0l0,0.1c0.2,0.3,0.4,0.5,0.7,0.7c0.1,0.1,0.3,0.1,0.4,0.1
					c0,0,0.1,0,0.1,0c0,0,0,0,0,0c0,0,0,0.1,0,0.1c0,0.1,0.1,0.3,0.1,0.4c0.1,0.3,0.2,0.5,0.3,0.8c0.3,0.5,0.7,0.7,1.2,0.9
					c0.4,0.1,0.8,0.1,1.2,0c0.4-0.1,0.7-0.2,0.9-0.4c0.2-0.2,0.4-0.3,0.6-0.5C89.6,58.2,89.7,58,89.7,58"/>
				<path class="st5" d="M49.8,57.8c0,0,0.1,0.1,0,0.4c0,0.2-0.1,0.6-0.3,0.9c-0.2,0.4-0.7,0.7-1.2,0.8c-0.3,0-0.6,0-0.9-0.1
					c-0.2-0.1-0.3-0.1-0.4-0.3c0,0,0,0,0,0c0,0,0,0,0,0c0,0,0,0.1-0.1,0.1c0,0.1-0.1,0.1-0.1,0.2c-0.1,0.1-0.2,0.2-0.3,0.3
					c-0.3,0.2-0.6,0.3-0.9,0.4c-0.3,0-0.7,0-1-0.1c-0.2-0.1-0.3-0.2-0.5-0.3c-0.1-0.1-0.1-0.1-0.2-0.2c-0.1-0.1-0.2-0.2-0.1-0.1v0
					c0,0-0.1,0-0.1,0.1c-0.1,0-0.1,0.1-0.2,0.1c-0.1,0.1-0.2,0.1-0.3,0.2c-0.2,0.1-0.5,0.1-0.7,0.1c-0.2,0-0.5-0.1-0.7-0.1
					c-0.1,0-0.1,0-0.2-0.1l0,0c0,0,0,0,0,0c0,0,0,0,0,0l0,0.1l-0.1,0.1c-0.1,0.1-0.1,0.2-0.2,0.3c-0.1,0.2-0.3,0.3-0.4,0.4
					c-0.3,0.3-0.6,0.4-0.9,0.5c-0.6,0.2-1.2,0.1-1.7-0.1c-0.4-0.2-0.7-0.6-0.8-0.8c-0.1-0.3-0.1-0.4-0.1-0.4c0,0,0.1,0.1,0.2,0.3
					c0.1,0.2,0.4,0.4,0.8,0.6c0.4,0.1,0.9,0.2,1.4,0c0.3-0.1,0.5-0.3,0.7-0.5c0.1-0.1,0.2-0.2,0.3-0.4c0-0.1,0.1-0.1,0.1-0.2
					l0.1-0.1l0-0.1c0,0,0-0.1,0-0.1c0-0.1,0.1-0.2,0.1-0.2c0.1-0.1,0.2-0.1,0.2-0.1c0.1,0,0.2,0.1,0.2,0.1c0,0,0.1,0,0.1,0.1
					c0.2,0.1,0.3,0.1,0.5,0.1c0.2,0,0.4,0,0.5-0.1c0.1,0,0.2-0.1,0.2-0.1c0,0,0.1,0,0.1-0.1c0,0,0.1,0,0.2-0.1
					c0.1-0.1,0.4-0.1,0.5,0c0.1,0.1,0.1,0.2,0.2,0.2c0,0,0.1,0.1,0.2,0.1c0.1,0.1,0.2,0.1,0.3,0.2c0.2,0.1,0.5,0.1,0.7,0.1
					c0.2,0,0.5-0.1,0.7-0.3c0.1-0.1,0.2-0.1,0.3-0.2c0,0,0.1-0.1,0.1-0.1c0-0.1,0.1-0.1,0.1-0.2c0-0.1,0.1-0.1,0.1-0.2
					c0.1,0,0.1-0.1,0.2,0c0.1,0,0.2,0.1,0.3,0.2c0.1,0.1,0.2,0.2,0.3,0.2c0.2,0.1,0.5,0.1,0.7,0.1c0.5,0,0.8-0.3,1.1-0.6
					c0.2-0.3,0.3-0.6,0.4-0.8C49.8,57.9,49.8,57.8,49.8,57.8"/>
			</g>
		</g>
	</g>
</g>
<circle class="st12" cx="92" cy="88" r="24"/>
<g>
	<g id="Layer_1-2">
		<path class="st13" d="M92,71.6l4,4.1L85.8,86l-4-4L92,71.6z"/>
		<path class="st13" d="M98.1,77.7l4,4.1L85.9,98.3l-4.1-4.1L98.1,77.7z"/>
		<path class="st13" d="M79.7,83.9l4,4.1l-4,4l-4-4L79.7,83.9z"/>
		<path class="st13" d="M104.3,83.9l4,4.1L92,104.4l-4-4L104.3,83.9z"/>
	</g>
</g>
<linearGradient id="SVGID_1_" gradientUnits="userSpaceOnUse" x1="38" y1="112" x2="38" y2="64">
	<stop  offset="0" style="stop-color:#724D3D"/>
	<stop  offset="1" style="stop-color:#876553"/>
</linearGradient>
<circle class="st14" cx="38" cy="88" r="24"/>
<g>
	<path class="st15" d="M51.9,88.1c-0.4,2.2-1.5,4.3-2.6,6.3c-3.6,6-10.5,7.3-17.2,7.5c-1.8,0-3.7,0-5.4-0.6
		c-0.4-0.2-3.2-1.5-3.6-3.9c-0.4-2,1.4-3.1,3.4-6.3c3.5-5.4,1.7-7.4,5-11.7c1.2-1.6,3.1-4,6.3-4.9c3.8-1.1,8.1,0.3,10.8,3
		c2.4,2.3,3.9,6.7,3.4,9.9C52,87.7,52,87.9,51.9,88.1z"/>
	<path class="st16" d="M44.5,80c-2.5,0.3-4.9,1.2-6.9,2.6c-0.7,0.5-1.6,1-2.4,0.5c-0.2-0.1-0.3-0.4-0.4-0.6c-0.6-1.4,0.3-3,1.5-4
		c2.1-1.8,5.2-2.6,8-2.1C47.7,77.2,48.2,79.5,44.5,80z"/>
	<path class="st17" d="M35.1,100.7c0.1,0,0.2-0.1,0.2-0.1c0.1-0.1,0-0.3,0-0.4c-0.4-0.7-1.3-0.8-2-0.8c-1.6-0.1-3.3-0.6-4.7-1.4
		c-1.3-0.7-2.6-1.8-4-1.7c-0.2,0-0.3,0-0.5,0.1c-0.1,0.1-0.2,0.2-0.2,0.4c-0.2,0.7,0.1,1.5,0.6,2c0.5,0.5,1.1,0.8,1.8,1.1
		C29.2,101,32.2,101.6,35.1,100.7z"/>
	<path class="st18" d="M49.3,78.9c-0.1,0.1-0.1,0.3-0.2,0.4c0,0.4,0.3,1.1,0.5,1.4c0.1,0.2,0.4,0.4,0.6,0.4c0,0,0.1,0,0.1,0
		c0,0,0.1-0.1,0.1-0.1c0.1-0.6-0.4-1-0.6-1.6c-0.1-0.1-0.1-0.3-0.2-0.4C49.6,78.8,49.4,78.8,49.3,78.9z"/>
	<path class="st19" d="M49.6,79.5c0.2-0.4,1.1-0.8,1.5-0.4c0,0.1,0.1,0.1,0.1,0.2c0.1,0.1,0.1,0.3,0.1,0.4c-0.1,0.3-0.8,0.4-1,0.5
		c-0.1,0-0.1,0.1-0.2,0.1c-0.1,0-0.2-0.1-0.2-0.1C49.6,79.9,49.5,79.7,49.6,79.5z"/>
	<g>
		<path class="st20" d="M48.7,82.4c-0.9,2.8-0.8,5.9,0.1,8.8s2.4,5.6,4.2,8c-0.6-3.2,0-6.6,0.1-9.8c0.1-2.2-0.1-4.6-1-6.7
			c-0.2-0.5-1-2.6-1.7-2.6C49.5,79.9,48.8,81.8,48.7,82.4z"/>
		<path class="st21" d="M50.3,80c-0.7-0.4-1.5,2-1.6,2.4c-0.9,2.8-0.8,5.9,0.1,8.8c0.8,2.8,2.3,5.6,4.1,7.9
			c-0.4-0.5-0.4-1.2-0.6-1.8c-0.2-0.7-0.5-1.4-0.7-2c-1-3.2-1.2-6.7-1-10c0.1-0.9,0.2-1.8,0.2-2.6c0-0.5,0-0.9-0.1-1.4
			C50.6,81.1,50.5,80.2,50.3,80C50.3,80,50.3,80,50.3,80z"/>
	</g>
</g>
</svg>
