<?xml version="1.0" encoding="utf-8"?>
<!-- Generator: Adobe Illustrator 23.0.5, SVG Export Plug-In . SVG Version: 6.00 Build 0)  -->
<svg version="1.1" id="Layer_1" xmlns="http://www.w3.org/2000/svg" xmlns:xlink="http://www.w3.org/1999/xlink" x="0px" y="0px"
	 viewBox="0 0 128 128" style="enable-background:new 0 0 128 128;" xml:space="preserve">
<style type="text/css">
	.st0{fill:#00B77E;}
	.st1{fill:#00846C;}
	.st2{fill:#55CE5A;}
	.st3{fill:#73D861;}
	.st4{fill:#29A868;}
	.st5{fill:#127F5B;}
	.st6{fill:#49270F;}
	.st7{fill:#F9D641;}
	.st8{fill:#EAA11F;}
	.st9{fill:#FFF1B6;}
	.st10{fill:#876553;}
	.st11{fill:#724D3D;}
	.st12{fill:#F0B90B;}
	.st13{fill:#FFFDFA;}
	.st14{fill:#FFD283;}
	.st15{fill:#F7AF41;}
	.st16{opacity:0.3;}
	.st17{fill:#6C184E;}
	.st18{fill:#FFCE00;}
	.st19{opacity:0.65;}
	.st20{fill:#FFFFFF;}
	.st21{fill:#EE1822;}
	.st22{fill:#BD1622;}
	.st23{fill:#F6C547;}
	.st24{fill:#48C75A;}
	.st25{fill:#661A47;}
	.st26{fill:#651B47;}
	.st27{fill:none;}
	.st28{fill:#EB984E;}
	.st29{fill:#6D184E;}
</style>
<g>
	<g>
		<path class="st0" d="M125.9,113.9c0.6,0.6,2.5,2.3,2.1,3.9c-0.2,0.8-0.9,1.8-3.9,2.7c-7.2,2.2-27.6,3.4-32,3.6
			c-17.2,0.2-63.5,0.6-80.9-1.5c-7.5-0.9-10.7-2.4-11.1-4.4c-0.4-2,2.1-4.1,3.6-5.3c2.8-0.8,6.6-1.9,11.3-2.9
			c6.1-1.3,11.4-1.9,18.1-2.5c14.3-1.2,25.8-1.3,29.9-1.4C63,106.3,117.3,105.8,125.9,113.9z"/>
		<path class="st1" d="M125.9,115.1c0.7,0.5,2.1,1.8,2.1,2.7c-0.5,8.5-126.7,10.7-127.9,0.5c-0.1-0.8,0.6-2.1,0.7-2.4
			c2-3.9,7.3-4.7,13.7-5.7c7.6-1.1,13.9-2,18.6-2.6c0.3,2.7,3.3,8.5,24,7.4c29.8-1.5,41,7,56.5,0.8
			C115.5,115.1,121.9,112.3,125.9,115.1z"/>
		<path class="st1" d="M34.7,110.3c1,1.1,2.6,1.6,3.8,1.5c1.1-0.1,0.9-0.5,0.1-1.2c-0.8-0.7-1.1-1.1-2.4-1.3
			C34.9,109.2,33.9,109.4,34.7,110.3z"/>
		<path class="st1" d="M40.3,112.9c0.7,0.8,1.8,1.1,2.6,1s0.6-0.3,0.1-0.8c-0.6-0.5-0.8-0.7-1.6-0.9C40.4,112,39.8,112.2,40.3,112.9
			z"/>
		<path class="st1" d="M51,112.1c-2.7,0.7-2.6,1.6-1.2,2.3c1.4,0.7,6.1,0.1,9.5,0.1s2.2-1.9-0.2-2.3C56.7,111.9,52.3,111.8,51,112.1
			z"/>
		<path class="st1" d="M112.7,114.7c2.6,0.5,3.3,1.2,6.3,1.2s2.4-1.3,0.6-1.6c-1.7-0.4-3.2-0.8-6.9-1.3
			C109.1,112.5,109.6,114.1,112.7,114.7z"/>
	</g>
	<g>
		<g>
			<path class="st2" d="M103.6,52.6c0-2.7-1.3-5.2-3.2-6.6c0.7-1.2,1.2-2.7,1.2-4.3c0-3.3-1.8-6.1-4.4-7.3c0.2-0.4,0.3-0.8,0.3-1.3
				c0-1.1-0.6-2-1.5-2.4c0.4-0.8,0.6-1.7,0.6-2.7c0-3.1-2.2-5.7-5-5.9c0-0.1,0-0.1,0-0.2c0-1.3-0.8-2.3-1.9-2.5
				c0.1-0.4,0.1-0.9,0.1-1.4c0-3.6-2.6-6.5-5.9-6.5c-0.5,0-1,0.1-1.4,0.2c-0.4-2.1-2.1-3.6-4.1-3.6h-0.1c-0.8-3.1-3.5-5.4-6.6-5.4
				c-2.1,0-4,1-5.2,2.7C66,4.7,65,4.3,63.9,4.3c-0.6,0-1.2,0.2-1.7,0.5c-0.9-0.6-2.1-1-3.2-1c-3.2,0-5.8,2.7-6.1,6.1
				c-0.2,0-0.4,0-0.7,0c-2,0-3.8,1.1-4.8,2.8c-0.4-0.1-0.9-0.2-1.4-0.2c-3.1,0-5.7,2.8-5.7,6.3c0,0.4,0,0.8,0.1,1.2
				c-2.2,0.3-3.9,2.4-3.9,4.9c0,0.4,0.1,0.9,0.2,1.3c-3.1,0.4-5.5,3.3-5.5,6.8c0,1,0.2,1.9,0.5,2.7c-0.8,0.7-1.4,1.7-1.4,3
				c0,0.4,0.1,0.8,0.2,1.1c-3.2,0.4-5.7,3.4-5.7,7c0,2.1,0.8,4,2.1,5.3c-0.6,0.8-1,1.8-1,3c0,2,1.1,3.7,2.8,4.4
				c-0.8,1.2-1.2,2.6-1.2,4.1c0,3.1,1.9,5.8,4.5,6.7c0.4,1,1.3,1.6,2.4,1.7c0,0.1,0,0.2,0,0.3c0,3.5,2.6,6.4,5.8,6.4
				c1,0,2-0.3,2.9-0.8c0.6,0.7,1.5,1.1,2.4,1.1c0.3,0,0.5,0,0.8-0.1c0.3,1.9,1.9,3.4,3.7,3.4c0.9,0,1.7-0.4,2.4-0.9
				c0.4,0.4,1,0.6,1.6,0.6c0.8,0,1.5-0.4,2-1c0.6,1.3,1.8,2.2,3.2,2.2c0.7,0,1.3-0.2,1.9-0.6c0.5,0.4,1.2,0.6,1.8,0.6
				c1,0,2-0.5,2.6-1.3c0.9,1.3,2.2,2.1,3.8,2.1c1.7,0,3.1-0.9,4-2.4c0.5,0.3,1.1,0.5,1.6,0.5c1.1,0,2.1-0.6,2.8-1.5
				c0.9,1.2,2.2,1.9,3.7,1.9c2.2,0,4-1.6,4.6-3.8h0.1c1.1,0,2.1-0.7,2.7-1.6c0.8,0.6,1.7,0.9,2.7,0.9c2.6,0,4.7-2.3,4.7-5.2
				c0-0.3,0-0.5-0.1-0.8c2.3-0.3,4.2-2.5,4.2-5.2c0-1-0.3-1.9-0.7-2.7c0.9-0.6,1.5-1.7,1.5-3c0-0.6-0.1-1.2-0.4-1.6
				C102.4,57.7,103.6,55.3,103.6,52.6"/>
			<path class="st2" d="M103.6,52.6c0-2.7-1.3-5.2-3.2-6.6c0.7-1.2,1.2-2.7,1.2-4.3c0-3.3-1.8-6.1-4.4-7.3c0.2-0.4,0.3-0.8,0.3-1.3
				c0-1.1-0.6-2-1.5-2.4c0.4-0.8,0.6-1.7,0.6-2.7c0-3.1-2.2-5.7-5-5.9c0-0.1,0-0.1,0-0.2c0-1.3-0.8-2.3-1.9-2.5
				c0.1-0.4,0.1-0.9,0.1-1.4c0-3.6-2.6-6.5-5.9-6.5c-0.5,0-1,0.1-1.4,0.2c-0.4-2.1-2.1-3.6-4.1-3.6h-0.1c-0.8-3.1-3.5-5.4-6.6-5.4
				c-2.1,0-4,1-5.2,2.7C66,4.7,65,4.3,63.9,4.3c-0.6,0-1.2,0.2-1.7,0.5c-0.9-0.6-2.1-1-3.2-1c-3.2,0-5.8,2.7-6.1,6.1
				c-0.2,0-0.4,0-0.7,0c-2,0-3.8,1.1-4.8,2.8c-0.4-0.1-0.9-0.2-1.4-0.2c-3.1,0-5.7,2.8-5.7,6.3c0,0.4,0,0.8,0.1,1.2
				c-2.2,0.3-3.9,2.4-3.9,4.9c0,0.4,0.1,0.9,0.2,1.3c-3.1,0.4-5.5,3.3-5.5,6.8c0,1,0.2,1.9,0.5,2.7c-0.8,0.7-1.4,1.7-1.4,3
				c0,0.4,0.1,0.8,0.2,1.1c-3.2,0.4-5.7,3.4-5.7,7c0,2.1,0.8,4,2.1,5.3c-0.6,0.8-1,1.8-1,3c0,2,1.1,3.7,2.8,4.4
				c-0.8,1.2-1.2,2.6-1.2,4.1c0,3.1,1.9,5.8,4.5,6.7c0.4,1,1.3,1.6,2.4,1.7c0,0.1,0,0.2,0,0.3c0,3.5,2.6,6.4,5.8,6.4
				c1,0,2-0.3,2.9-0.8c0.6,0.7,1.5,1.1,2.4,1.1c0.3,0,0.5,0,0.8-0.1c0.3,1.9,1.9,3.4,3.7,3.4c0.9,0,1.7-0.4,2.4-0.9
				c0.4,0.4,1,0.6,1.6,0.6c0.8,0,1.5-0.4,2-1c0.6,1.3,1.8,2.2,3.2,2.2c0.7,0,1.3-0.2,1.9-0.6c0.5,0.4,1.2,0.6,1.8,0.6
				c1,0,2-0.5,2.6-1.3c0.9,1.3,2.2,2.1,3.8,2.1c1.7,0,3.1-0.9,4-2.4c0.5,0.3,1.1,0.5,1.6,0.5c1.1,0,2.1-0.6,2.8-1.5
				c0.9,1.2,2.2,1.9,3.7,1.9c2.2,0,4-1.6,4.6-3.8h0.1c1.1,0,2.1-0.7,2.7-1.6c0.8,0.6,1.7,0.9,2.7,0.9c2.6,0,4.7-2.3,4.7-5.2
				c0-0.3,0-0.5-0.1-0.8c2.3-0.3,4.2-2.5,4.2-5.2c0-1-0.3-1.9-0.7-2.7c0.9-0.6,1.5-1.7,1.5-3c0-0.6-0.1-1.2-0.4-1.6
				C102.4,57.7,103.6,55.3,103.6,52.6"/>
			<path class="st3" d="M52.6,12.6c0.7-1.5,1.8-2.8,3.4-1.9c0.2-2.5,3.1-4.1,4.9-2.5c0.3,0.2,0.5,0.5,0.7,0.8c0,0.1,0.4-0.3,0.5-0.3
				c0.5-0.3,1-0.5,1.6-0.4c1.1,0.1,1.3,1.1,1.1,2.1c0.8-0.5,1.7-0.6,2.5,0c0.7,0.6,1.2,1.7,1.5,2.6c0.8-1.2,2-1.9,3.3-1.6
				c0.6,0.2,1.2,0.4,1.5,1c0.3,0.5,0.3,1.1,0.4,1.7c1.5-0.9,4-1.7,4.2,0.8c1.6-1,3.5,0.2,3.1,2.3c1.2,0.3,2.6-0.3,3.6,0.8
				c0.8,0.9,1,1.8,0.9,3.1c0.7-0.1,1.6-0.1,2.1,0.5s0.5,1.3,0.4,2.1c1.6-1,3.8,0.8,3.7,2.8c0.6-0.5,1.4-0.3,1.8,0.6
				c0.6,1.1,0.2,2.3-0.3,3.3c0.8-0.3,1.8-0.2,2.6,0.2c0.3-0.8,0.5-1.6,0.5-2.6c0-3.1-2.2-5.7-5-5.9c0-0.1,0-0.1,0-0.2
				c0-1.3-0.8-2.3-1.9-2.5c0.1-0.4,0.1-0.9,0.1-1.4c0-3.6-2.6-6.5-5.9-6.5c-0.5,0-1,0.1-1.4,0.2c-0.4-2.1-2.1-3.6-4.1-3.6h-0.1
				c-0.8-3.1-3.5-5.4-6.6-5.4c-2.1,0-4,1-5.2,2.7C66,4.7,65,4.3,63.9,4.3c-0.6,0-1.2,0.2-1.7,0.5c-0.9-0.6-2.1-1-3.2-1
				c-3.2,0-5.8,2.7-6.1,6.1c-0.2,0-0.4,0-0.7,0c-1.7,0-3.2,0.8-4.3,2.1C49.4,11,51.3,11.3,52.6,12.6z"/>
			<path class="st4" d="M81.4,21.7c0.7-0.5,0.4-1.2-0.1-1.5c0.1,0.2,0.1,0.5-0.1,0.8s-0.6,0.3-0.9,0.2c0.5,0.6,0.7,1.4,0.4,2.2
				c-0.3,0.8-1,1.2-1.7,1.3c1,0.9,0.9,2.4-0.4,2.8c0.4,0.9,0.7,1.9-0.2,2.6c-0.7,0.5-1.7,0.6-2.4,0.1c-0.3,1-1,1.8-1.9,1.8
				c-0.8,0.1-1.1-0.5-1.4-1.2c-0.7,1.2-2.4,1.5-3.3,0.3c-0.1,0.5,0,1.1,0.3,1.5c0.3,0.3,0.6,0.2,1,0.2c0.1,0,0.2,0.1,0.2,0.2
				c-0.3,0.8,0,1.7,0.8,1.8c0.6,0.1,1.1-0.2,1.6-0.4c0.1,0,0.1,0,0.2,0.1c0.5,0.9,1.4,0.8,2.1,0.3c0.7-0.4,1-0.9,1.5-1.5
				c0.2-0.2,0.5-0.2,0.7-0.1c1,0.5,1.1-0.8,1.1-1.5c0-0.1,0.1-0.1,0.1-0.1c1.4-0.2,2.2-2,1.7-3.4c-0.1-0.1,0.1-0.3,0.2-0.2
				c1.1-0.5,1.3-2.3,0-2.7c-0.1,0-0.1-0.2,0-0.3c0.7-0.2,1.4-0.9,1.3-1.7c0-0.6-0.4-0.9-0.7-1.4C81.4,21.8,81.4,21.8,81.4,21.7z"/>
			<path class="st4" d="M47.6,20.8c0.1,0,0.2,0.1,0.1,0.2c-0.4,1.1-0.7,2.5,0.2,3.5c0.6,0.7,1.5,1,2.4,0.6c0.1,0,0.2,0.1,0.2,0.1
				c0,1.3,1.2,1.9,2.2,1.4c0.6-0.3,1-0.8,1.5-1.3c0.1-0.1,0.1,0,0.2,0c1.3,1.1,2.8-0.1,3.1-1.6c-0.8,0.8-2.2,1.4-2.4-0.1
				c-1.2,0.7-3,1.2-3.6-0.6c-1.7,0.8-3.3-1.6-2-3c-1-0.2-1.3-1.3-0.9-2.4c0.4-1.1,1.3-1.8,2.3-1.7c-0.4-0.5-0.4-1.4,0-2
				c-1,0.2-2.3,1.1-1.6,2c0.1,0.1,0.1,0.2-0.1,0.2c-1.2,0.2-2.5,0.8-2.9,2.2C45.8,19.6,46.4,20.7,47.6,20.8z"/>
			<path class="st4" d="M56.1,40.8c-0.5-0.7-0.2-1.4,0.2-2.1c-0.7,0.1-1.5-0.4-1.6-1.3c-0.9,1.2-2.9,2.1-3.3,0.3
				c-0.8,1.3-2.6,2.4-3.5,0.9c-0.6,0.9-1.6,1.4-2.7,0.9c-1-0.5-1.5-1.6-1.4-2.8c-1.1,0.6-2.4,1-3.2-0.2c-0.6-0.9-0.5-2.4,0.1-3.3
				c-1.6,0.2-2.6-1.9-1.9-3.4c-0.8,0.6-1.5,1.5-1.5,2.6c0,0.9,0.4,1.9,1.4,1.6c0.1,0,0.1,0,0.2,0.1c0.1,0.1,0.1,0.2-0.1,0.2
				c-1.7,0.5-2.2,4.5,0.1,4.1c0.1,0,0.2,0.1,0.2,0.2c-0.1,0.6-0.4,1.4-0.1,2c0.6,1,1.6,0.7,2.2-0.1c0.1-0.1,0.2,0,0.2,0.1
				c0,0.3,0.1,0.8,0.4,1.1c0.5,0.5,0.9,0,1.3-0.4c0.1-0.1,0.2,0,0.2,0.1c-0.1,2.3,3.3,2.7,4,0.6c0.1-0.2,0.3-0.1,0.2,0.1
				c0,0,0,0,0,0.1l0,0c0.3,0.5,0.6,1,1.3,0.6c0.3-0.2,0.6-0.5,0.8-0.9c0.1-0.1,0.2-0.1,0.2,0c0.4,1.1,1-0.1,1.4-0.5
				c0-0.1,0.1-0.1,0.2,0c0.4,0.4,0.7,1,1.3,0.9c0.7-0.1,1.3-0.5,1.7-1.1c0.1-0.1,0.2-0.1,0.2,0c0.2,1,0.9,1.8,1.9,1.4
				c0.7-0.3,1.6-1,1.6-1.9C57.6,41.1,56.6,41.5,56.1,40.8z"/>
			<path class="st4" d="M103.6,52.6c0-2.7-1.3-5.2-3.2-6.6c0.7-1.2,1.2-2.7,1.2-4.3c0-1.1-0.2-2.2-0.6-3.1c0.3,1.6,0.2,3.3-0.4,5
				c-0.7,1.8-2,3.5-3.7,4.2l0,0c0.9,0.4,1.8,1.7,0.9,2.7c-0.6,0.7-1.6,0.6-2.5,0.5c0.8,1.2,1.5,2.7,0.6,4c-0.7,1-2,0.9-2.8,0.3
				c-0.7,1.1-1.9,0.6-2.3-0.4c-0.4,1.8-0.8,4-2.7,4.3c-1.4,0.3-3.3-0.7-3-2.4c-0.5,0.2-1-0.2-1.3-0.8c-1.1,1.1-3.1,0.7-3.4-0.9
				c-0.7,0.5-1.9,0.3-2.1-0.6c-0.4,0.8-1.1,1.5-1.8,1.9c-0.7,0.3-1.1,0.1-1.4-0.5c-0.2,1.2-0.7,2.5-1.9,2.8c-0.8,0.2-1.7,0-2-0.8
				c-0.6,1.1-1.5,2-2.7,1.9c-1,0-1.9-0.7-2.1-1.8c-0.8,0.8-2.2,0.7-3-0.2c-0.8,1.6-2.8,1.7-4.2,1c-0.7-0.3-1.4-0.9-1.7-1.7
				c-0.1-0.3-0.1-0.6-0.1-0.8c-0.7,0.9-1.7,1.5-2.8,1.4c-1.1,0-1.8-0.7-2.1-1.6c-0.8,1.2-2.2,2.3-3.5,1.8c-1.5-0.6-1.9-2.6-2-4.2
				c-0.4,0.7-1.2,1.2-1.9,0.6c-0.3-0.2-0.5-0.6-0.5-0.9c-0.9,0.7-2.1,1.3-3.2,1.1c-1.2-0.2-1.8-1.3-2-2.4c-0.8,0.9-1.9,1.8-3,1
				c-0.7-0.5-1-1.3-1-2.2c-1.7,1-4.2,1.8-5.4-0.1c-1.2-1.8,0.1-4.3,1.2-5.9c-1.3,0.5-2.8,0.2-3.2-1.6c-0.3-1.4,0.2-2.7,1.1-3.5
				c-2.7,0.8-4.7,3.6-4.7,6.8c0,2.1,0.8,4,2.1,5.3c-0.6,0.8-1,1.8-1,3c0,2,1.1,3.7,2.8,4.4c-0.8,1.2-1.2,2.6-1.2,4.1
				c0,3.1,1.9,5.8,4.5,6.7c0.4,1,1.3,1.6,2.4,1.7c0,0.1,0,0.2,0,0.3c0,3.5,2.6,6.4,5.8,6.4c1,0,2-0.3,2.9-0.8
				c0.6,0.7,1.5,1.1,2.4,1.1c0.3,0,0.5,0,0.8-0.1c0.3,1.9,1.9,3.4,3.7,3.4c0.9,0,1.7-0.4,2.4-0.9c0.4,0.4,1,0.6,1.6,0.6
				c0.8,0,1.5-0.4,2-1c0.6,1.3,1.8,2.2,3.2,2.2c0.7,0,1.3-0.2,1.9-0.6c0.5,0.4,1.2,0.6,1.8,0.6c1,0,2-0.5,2.6-1.3
				c0.9,1.3,2.2,2.1,3.8,2.1c1.7,0,3.1-0.9,4-2.4c0.5,0.3,1.1,0.5,1.6,0.5c1.1,0,2.1-0.6,2.8-1.5c0.9,1.2,2.2,1.9,3.7,1.9
				c2.2,0,4-1.6,4.6-3.8h0.1c1.1,0,2.1-0.7,2.7-1.6c0.8,0.6,1.7,0.9,2.7,0.9c2.6,0,4.7-2.3,4.7-5.2c0-0.3,0-0.5-0.1-0.8
				c2.3-0.3,4.2-2.5,4.2-5.2c0-1-0.3-1.9-0.7-2.7c0.9-0.6,1.5-1.7,1.5-3c0-0.6-0.1-1.2-0.4-1.6C102.4,57.7,103.6,55.3,103.6,52.6z"
				/>
			<path class="st5" d="M46.6,58.8c-0.6,1-1.5,1.9-2.5,1.2c-0.3-0.2-0.3-0.4-0.6-0.2C43.2,59.9,43,60,42.8,60
				c-0.6,0-1.1-0.3-1.7-0.4c-0.6,1.9-2.6,2.1-3.8,0.6c-0.8,1-2.3,1-3.2,0.3c0,0.1,0.1,0.2,0.1,0.4c0.3,0.9,1.2,1.8,2.2,1.5
				c0.5-0.2,1.1-0.5,1.5,0.1C38.8,64,40,63,41,62.1c0.1-0.1,0.2-0.1,0.2,0c0.8,1.2,2.2,0.5,2.8-0.5c0.1-0.1,0.2-0.1,0.2,0
				c0.6,2.1,2.7,1.1,3.1-0.6c0-0.1,0.2-0.2,0.2,0c0.4,1,1.1,0.2,1.4-0.4c0.3-0.6,0.5-1.4,0.3-2C48.7,59.8,47.4,59.6,46.6,58.8z"/>
			<path class="st5" d="M92.4,60.8c-0.5,1.9-2.9,3.2-4,1.4c-0.5,0.8-1.3,1.6-2.2,1.3c-0.9-0.3-1.5-1.2-1.9-2.1
				c-0.6,0.9-1.8,1.5-2.8,1.1c-0.4-0.2-0.9-0.5-1.1-1s-0.2-1.1-0.2-1.6c-0.6,0.4-1.7,0.9-2.2,0.5c-0.2,0.5-0.4,1-0.3,1.5
				c0.2,0.7,1.1,0.4,1.6,0.2c0.1,0,0.2,0.1,0.2,0.2c-0.1,0.8-0.1,1.8,0.7,2.2c0.7,0.3,1.4,0.2,2-0.1c0.1,0,0.2,0,0.2,0.1
				c-0.1,2.6,2.7,2.2,3.9,0.9c0.1-0.1,0.2,0,0.2,0.1c0.4,1.8,2.1-0.4,2.5-1.1c0-0.1,0.1-0.1,0.2,0c1.2,1.6,3.8,0,4-1.8
				c0-0.1,0.1-0.2,0.2-0.1c1.9,0.5,2.9-1.4,2.8-3.3C95.6,60.7,93.6,62.2,92.4,60.8z"/>
			<path class="st5" d="M60.8,65c-0.7,0.2-1.3-0.4-1.7-1c-0.3,0.5-0.8,1-1.4,0.9c-0.6-0.1-0.9-0.6-1-1.2c-0.6,0.5-1.8,1-2.2,0.5l0,0
				c-0.1,0.7,0.1,1.7,0.9,1.7c0.4,0,0.8-0.1,1.1-0.4c0.1,0,0.2,0,0.2,0.1c0.2,1.6,1.5,1.8,2.5,0.7c0.1-0.1,0.2,0,0.2,0.1
				c1.1,3.1,4.2-0.5,3.6-2.8C62.3,64.1,61.6,64.8,60.8,65z"/>
		</g>
		<g>
			<g>
				<path class="st6" d="M72.2,17.9c0,0-0.3-0.1-0.4-0.4c-0.2-0.3-0.3-0.8-0.3-1.2c0-0.2,0-0.3,0.1-0.4c0-0.1,0.1-0.2,0.1-0.2
					c0.1-0.1,0.1-0.1,0.2-0.1l0.1,0.1c0,0,0,0.1,0,0.2c0,0.1,0,0.2,0,0.4c0,0.3,0,0.7,0.1,1.1C72.1,17.6,72.3,17.9,72.2,17.9"/>
				<path class="st7" d="M71.8,16.7c-2.4,0.3-3,3.2-2.1,5c1.1,2.3,3.4,3.1,4.7,2.7c1-0.3,1.3-1.4,1-2.2c-0.5-1.2-0.2-1.8-0.5-3.2
					C74.5,17.6,73.7,16.5,71.8,16.7"/>
				<path class="st8" d="M75.4,22.3c-0.1-0.4-0.2-0.7-0.3-0.9c-0.1,0.1-0.1,0.2-0.2,0.3c-0.7,0.9-1.8,1.3-2.9,1
					c-1.4-0.4-2.4-1.8-2.6-3.3c-0.1,0.8,0,1.7,0.4,2.4c1.1,2.3,3.4,3.1,4.7,2.7C75.4,24.2,75.7,23.1,75.4,22.3z"/>
				<path class="st9" d="M70.6,18.6c0.1,0,0,0.5-0.1,0.9c0,0.3-0.1,0.3-0.1,0.3c-0.1,0-0.1,0-0.1-0.4C70.3,19.1,70.5,18.6,70.6,18.6
					"/>
				<path class="st9" d="M71,17.7c0,0.1,0,0.2-0.1,0.3c-0.1,0.1-0.2,0.2-0.3,0.2c-0.1,0,0-0.2,0.1-0.3C70.9,17.7,71,17.7,71,17.7"/>
			</g>
			<g>
				<path class="st6" d="M56.1,47.1c0,0-0.3-0.2-0.5-0.6c-0.2-0.4-0.3-1-0.3-1.4c0-0.2,0-0.4,0.1-0.5c0-0.1,0.1-0.2,0.1-0.3
					c0.1-0.1,0.2-0.1,0.2,0c0,0,0.1,0.1,0.1,0.2c0,0,0,0.1,0,0.2c0,0.1,0,0.3,0,0.5c0,0.4,0,0.9,0.1,1.3C56,46.7,56.2,47,56.1,47.1"
					/>
				<path class="st7" d="M56.1,45.7c-2.4-0.7-4.3,2.5-4.3,4.6c0,3.2,1.7,5.1,3,5.2c1,0.1,1.5-0.9,1.4-1.8c-0.1-1.3,0.4-2.3,1.1-3.5
					C58.3,48.6,58,46.3,56.1,45.7"/>
				<path class="st8" d="M57.7,47.2c0.1,0.4,0.1,0.8,0.1,1.1c0,0.5-0.1,1.1-0.5,1.5c-0.4,0.5-0.9,0.6-1.4,1
					c-0.6,0.4-0.9,1.3-1.6,1.5c-0.6,0.2-1.1-0.1-1.5-0.5c-0.6-0.6-0.9-1.4-1-2.1c0,0.2,0,0.4,0,0.6c0,3.2,1.7,5.1,3,5.2
					c1,0.1,1.5-0.9,1.4-1.8c-0.1-1.3,0.4-2.3,1.1-3.5C57.9,49.3,58,48.2,57.7,47.2z"/>
				<path class="st9" d="M53.4,47.7c0.1,0.1-0.2,0.5-0.4,0.8c-0.1,0.3-0.2,0.3-0.2,0.3c-0.1,0-0.1-0.1,0-0.4
					C53,48,53.4,47.7,53.4,47.7"/>
				<path class="st9" d="M54.4,46.9c0,0.1-0.1,0.3-0.3,0.4c-0.2,0.1-0.3,0.2-0.4,0.1c0-0.1,0.1-0.3,0.3-0.5
					C54.2,46.8,54.3,46.8,54.4,46.9"/>
			</g>
			<g>
				<path class="st6" d="M39.3,68.5c0,0-0.2-0.1-0.4-0.4s-0.3-0.8-0.3-1.1c0-0.2,0-0.3,0-0.4s0-0.2,0.1-0.3c0.1-0.1,0.1-0.1,0.2-0.1
					l0.1,0.1c0,0,0,0.1,0,0.2s0,0.2,0,0.4c0,0.3,0.1,0.7,0.2,1C39.2,68.2,39.4,68.4,39.3,68.5"/>
				<path class="st7" d="M38.8,67.3c-2.2,0.5-2.5,3.4-1.5,5.2c1.2,2.2,3.4,2.8,4.5,2.4c0.9-0.4,1.1-1.5,0.7-2.3
					c-0.5-1.2-0.3-1.8-0.7-3.1C41.4,68,40.6,66.9,38.8,67.3"/>
				<path class="st8" d="M42.5,72.6c-0.2-0.4-0.3-0.7-0.3-1c-0.3,0.9-0.9,1.6-1.9,1.7c-1.1,0.2-2.3-0.2-3-1.3
					c-0.1-0.2-0.2-0.4-0.3-0.6c0.1,0.4,0.2,0.8,0.4,1.1c1.2,2.2,3.4,2.8,4.5,2.4C42.6,74.5,42.9,73.3,42.5,72.6z"/>
				<path class="st9" d="M37.8,69.3c0.1,0,0,0.6,0,0.9s0,0.3-0.1,0.4c-0.1,0-0.1,0-0.1-0.4C37.6,69.8,37.8,69.3,37.8,69.3"/>
				<path class="st9" d="M38.2,68.4c0,0.1,0,0.2-0.1,0.3c-0.1,0.1-0.2,0.2-0.2,0.2c-0.1,0,0-0.2,0-0.3C38,68.4,38.2,68.3,38.2,68.4"
					/>
			</g>
			<g>
				<path class="st6" d="M59.8,8.8c0-0.2-0.1-0.4-0.1-0.5S59.6,8.1,59.6,8c-0.1-0.1-0.2-0.1-0.2-0.1S59.3,8,59.3,8.1
					c0,0,0,0.1,0,0.2c0,0.1,0,0.3,0.1,0.5c0,0.4,0,0.9-0.1,1.3c-0.1,0.4-0.2,0.7-0.2,0.7s0.3-0.2,0.4-0.6
					C59.8,9.9,59.9,9.3,59.8,8.8"/>
				<path class="st7" d="M62.9,13.2c-0.1-2.3-2.1-5-4.3-3.7c-1.8,1-1.6,4.3-0.6,5c1,0.9,0.3,1.5,0.6,2.9c0.2,0.9,1.2,1,1.7,0.7
					C61.5,17.5,63.1,16.1,62.9,13.2"/>
				<path class="st8" d="M62.9,13.2c0-1.1-0.5-2.2-1.2-3c0.9,1.5,0.9,3.8,0.2,5.2c-0.4,0.9-1.4,1.9-2.4,1.5c-0.5-0.2-0.7-0.7-1-1.1
					c0,0.4-0.1,0.9,0,1.6c0.2,0.9,1.2,1,1.7,0.7C61.5,17.5,63.1,16.1,62.9,13.2z"/>
				<path class="st9" d="M58.6,11c0.1,0,0,0.2,0,0.4c-0.1,0.2-0.2,0.3-0.2,0.3c-0.1,0-0.1-0.2,0-0.4C58.3,11.1,58.5,10.9,58.6,11"/>
				<path class="st9" d="M58.2,12.2c0.1,0,0.2,0.1,0.2,0.3s0.1,0.4,0,0.4s-0.2-0.1-0.3-0.3C58.1,12.4,58.1,12.2,58.2,12.2"/>
			</g>
			<g>
				<path class="st6" d="M45,23.4c0-0.2,0-0.4,0-0.6c0-0.1,0-0.2-0.1-0.3c-0.1-0.2-0.1-0.1-0.2-0.1c0,0-0.1,0.1-0.1,0.2
					c0,0,0,0.1,0,0.2s0,0.3,0,0.5c0,0.4-0.1,0.9-0.2,1.3c-0.1,0.4-0.3,0.6-0.3,0.7c0,0,0.3-0.1,0.5-0.5C44.8,24.4,45,23.8,45,23.4"
					/>
				<path class="st7" d="M46.4,28.7c0.8-2.1,0.2-5.1-2.3-5c-2,0-3.4,2.2-3.2,4c0.1,1.8-0.1,1.6-0.3,3C40.4,31.6,41.4,32,42,32
					C43.3,32,45.4,31.3,46.4,28.7"/>
				<path class="st8" d="M45,23.8c1.2,1.3,0.8,4-0.2,5.4c-0.7,1-1.8,1.9-3,1.7c-0.5-0.1-0.9-0.4-1.1-0.8c0,0.1-0.1,0.3-0.1,0.5
					c-0.2,1,0.8,1.4,1.4,1.4c1.3,0,3.4-0.7,4.4-3.3C47.1,26.9,46.7,24.4,45,23.8z"/>
				<path class="st9" d="M43.5,24.8c0,0.1-0.1,0.2-0.3,0.4c-0.2,0.1-0.4,0.2-0.4,0.1c-0.1-0.1,0-0.3,0.2-0.4
					C43.3,24.7,43.5,24.7,43.5,24.8"/>
				<path class="st9" d="M42.5,25.6c0.1,0,0.1,0.2,0,0.5c-0.1,0.2-0.2,0.4-0.3,0.4s-0.1-0.2,0-0.5C42.2,25.7,42.4,25.5,42.5,25.6"/>
			</g>
			<g>
				<path class="st6" d="M61,28.1c0-0.2,0-0.4,0-0.6c0-0.1,0-0.2-0.1-0.3c-0.1-0.2-0.1-0.1-0.2-0.1c0,0-0.1,0.1-0.1,0.2
					c0,0,0,0.1,0,0.2s0,0.3,0,0.5c0,0.4-0.1,0.9-0.2,1.3c-0.1,0.4-0.3,0.7-0.2,0.7c0,0,0.3-0.1,0.5-0.5C60.9,29.1,61,28.5,61,28.1"
					/>
				<path class="st7" d="M63.7,33.3c0.1-2.3-1.3-5-3.7-4c-1.9,0.8-1.8,3.5-1.4,4.7c0.4,1.4-0.1,1.7,0.1,3.1c0.1,0.9,1.1,1.1,1.6,0.9
					C61.6,37.5,63.5,36.1,63.7,33.3"/>
				<path class="st8" d="M60.6,29.1c2.4,0.8,2.7,5.5,0.5,7.2c-0.1,0.1-0.2,0-0.2-0.1c-0.2-0.7-0.7,0.3-0.9,0.5
					c-0.3,0.3-0.6,0.5-1,0.3c-0.1-0.1-0.3-0.2-0.3-0.3c0,0.1,0,0.2,0,0.3c0.1,0.9,1.1,1.1,1.6,0.9c1.2-0.5,3.2-1.9,3.3-4.7
					C63.8,31.2,62.6,28.7,60.6,29.1z"/>
				<path class="st9" d="M60.2,30.3c0.1,0.1,0,0.3-0.1,0.5s-0.2,0.4-0.3,0.3c-0.1,0-0.1-0.3,0-0.5C59.9,30.4,60.1,30.2,60.2,30.3"/>
				<path class="st9" d="M59.6,31.6c0.1,0,0.2,0.2,0.2,0.4c0,0.2,0,0.5-0.1,0.5s-0.2-0.2-0.3-0.4C59.5,31.9,59.5,31.6,59.6,31.6"/>
			</g>
			<g>
				<path class="st6" d="M86.9,22.5c0-0.2,0-0.4,0-0.5s0-0.2,0-0.3c-0.1-0.2-0.1-0.1-0.2-0.1l-0.1,0.1c0,0,0,0.1,0,0.2s0,0.3,0,0.5
					c0,0.4-0.2,0.9-0.3,1.2C86.1,24,86,24.2,86,24.2s0.3-0.1,0.5-0.4C86.7,23.4,86.8,22.9,86.9,22.5"/>
				<path class="st7" d="M88.9,27.2c0.3-2.1-1-5-3.2-4.4c-1.8,0.5-2.2,3.5-1.5,4.5c0.8,1.1,0,1.5,0,2.8c0,0.9,0.9,1.2,1.4,1.1
					C86.8,30.8,88.5,29.8,88.9,27.2"/>
				<path class="st8" d="M87.9,23.5c0.3,1.2,0.2,2.9,0,3.6c-0.4,1-1.4,1.7-2.3,1.6c-0.4-0.1-0.8-0.3-1.1-0.5c0,0.5-0.3,1-0.3,1.8
					c0,0.9,0.9,1.2,1.4,1.1c1.2-0.3,2.8-1.2,3.3-3.9C89.1,26,88.7,24.5,87.9,23.5z"/>
				<path class="st9" d="M85.4,23.9c0.1,0.1,0,0.2-0.1,0.4c-0.1,0.2-0.2,0.3-0.3,0.2c-0.1,0,0-0.2,0.1-0.4
					C85.2,24,85.3,23.9,85.4,23.9"/>
				<path class="st9" d="M84.8,24.9c0.1,0,0.1,0.2,0.1,0.4c0,0.2,0,0.4-0.1,0.4s-0.2-0.1-0.2-0.4C84.7,25.1,84.8,24.9,84.8,24.9"/>
			</g>
			<g>
				<path class="st6" d="M91.9,36.7c0-0.3-0.1-0.5-0.1-0.6s-0.1-0.3-0.1-0.3c-0.1-0.2-0.2-0.1-0.2-0.1s-0.1,0.1-0.1,0.2
					c0,0,0,0.1,0,0.3c0,0.1,0,0.3,0.1,0.5c0,0.5,0,1.1-0.1,1.5c-0.1,0.5-0.2,0.8-0.2,0.8s0.3-0.2,0.5-0.7
					C91.9,37.9,91.9,37.2,91.9,36.7"/>
				<path class="st7" d="M95.4,41.6c-0.1-2.6-1.7-5.4-4.7-4.2c-2.1,0.8-3,4.9-1.5,6.4c1.4,1.3,0.8,1.6,1.3,2.7
					c0.3,0.6,1.3,1,1.9,0.7C93.8,46.4,95.6,44.8,95.4,41.6"/>
				<path class="st8" d="M95.4,41.6c0-0.5-0.1-0.9-0.2-1.4c0.1,1.3-0.2,2.5-1,3.6c-0.4,0.6-1.1,1.3-1.9,1.3
					c-0.8-0.1-1.4-0.5-1.9-1.1c-0.6-0.6-1.5-1.5-1.9-2.4c0,0.9,0.2,1.7,0.7,2.2c1.4,1.3,0.8,1.6,1.3,2.7c0.3,0.6,1.3,1,1.9,0.7
					C93.8,46.4,95.6,44.8,95.4,41.6z"/>
				<path class="st9" d="M90.9,38.5c0.1,0.1,0,0.3,0,0.5c-0.1,0.2-0.2,0.4-0.3,0.3c-0.1,0-0.1-0.2,0-0.5
					C90.7,38.6,90.8,38.4,90.9,38.5"/>
				<path class="st9" d="M90.1,39.9c0.1,0,0.1,0.2,0.1,0.4s-0.1,0.4-0.2,0.4s-0.2-0.2-0.2-0.5C89.9,40.1,90,39.9,90.1,39.9"/>
			</g>
			<g>
				<path class="st6" d="M69.7,39.7c0-0.2-0.1-0.4-0.1-0.5s-0.1-0.2-0.1-0.3c-0.1-0.1-0.2-0.1-0.2-0.1s-0.1,0.1-0.1,0.2
					c0,0,0,0.1,0,0.2c0,0.1,0,0.3,0.1,0.5c0,0.4,0,0.9-0.1,1.3c-0.1,0.4-0.2,0.7-0.2,0.7s0.3-0.2,0.4-0.6
					C69.7,40.8,69.7,40.2,69.7,39.7"/>
				<path class="st7" d="M73.1,44.4c-0.1-2.3-1.7-4.8-4.6-4.1c-1.9,0.5-2.1,3.3-1.7,4.5c0.5,1.3,1.9,2.6,2.2,3.9
					c0.2,0.9,1.2,1,1.7,0.7C71.9,48.9,73.2,47.2,73.1,44.4"/>
				<path class="st8" d="M72.2,47.9c-1,0.6-2.2-0.2-2.9-0.9c-1-0.9-2-1.6-2.4-2.9c-0.1-0.3-0.1-0.5-0.2-0.8c0,0.6,0,1.1,0.2,1.5
					c0.5,1.3,1.9,2.6,2.2,3.9c0.2,0.9,1.2,1,1.7,0.7c0.6-0.3,1.2-0.9,1.7-1.8C72.4,47.8,72.3,47.8,72.2,47.9z"/>
				<path class="st9" d="M68.4,41.5c0.1,0.1,0,0.3-0.1,0.5s-0.2,0.4-0.3,0.3c-0.1,0-0.1-0.3,0-0.5S68.3,41.4,68.4,41.5"/>
				<path class="st9" d="M67.6,42.9c0.1,0,0.1,0.2,0.1,0.4s-0.1,0.4-0.2,0.4s-0.2-0.2-0.1-0.4C67.4,43.1,67.5,42.9,67.6,42.9"/>
			</g>
			<g>
				<path class="st6" d="M35.8,45.4c0-0.2,0-0.4,0-0.6c0-0.1,0-0.2,0-0.3c-0.1-0.2-0.1-0.1-0.2-0.1l-0.1,0.1c0,0,0,0.1,0,0.2
					c0,0.1,0,0.3-0.1,0.5c-0.1,0.4-0.2,0.9-0.4,1.3c-0.2,0.4-0.4,0.6-0.3,0.7c0,0,0.3-0.1,0.5-0.4C35.6,46.4,35.8,45.9,35.8,45.4"/>
				<path class="st7" d="M38.1,50.5c0.5-2.2-0.7-5.1-3.1-4.6c-2,0.4-3.5,2.3-3,4.5c0.3,1.4,0.6,1.4,0.2,3.2C32,54.5,33.5,55,34,54.9
					C35.3,54.6,37.5,53.3,38.1,50.5"/>
				<path class="st8" d="M37.5,47c0.1,0.4,0.2,0.8,0.2,1.2c0.1,1.5-0.4,2.7-1.5,3.7c-0.9,0.8-2,1.4-3.1,0.9
					c-0.3-0.1-0.6-0.3-0.8-0.6c0,0.3-0.1,0.7-0.2,1.3c-0.2,0.9,1.3,1.4,1.8,1.3c1.3-0.2,3.4-1.5,4-4.3C38.4,49.3,38.1,48,37.5,47z"
					/>
				<path class="st9" d="M34,47.2c0,0.1-0.1,0.2-0.2,0.3c-0.2,0.1-0.3,0.2-0.4,0.1c-0.1-0.1,0-0.2,0.2-0.4
					C33.8,47.1,34,47.1,34,47.2"/>
				<path class="st9" d="M33.2,48c0.1,0,0.1,0.2,0,0.4s-0.1,0.3-0.2,0.3c-0.1,0-0.1-0.2-0.1-0.4C33,48.1,33.1,47.9,33.2,48"/>
			</g>
			<g>
				<path class="st6" d="M92,64.3c0.1-0.2,0.1-0.4,0.1-0.5s0-0.2,0-0.3c0-0.2-0.1-0.2-0.1-0.1l-0.1,0.1c0,0,0,0.1-0.1,0.2
					c0,0.1-0.1,0.3-0.1,0.5c-0.1,0.4-0.3,0.9-0.6,1.2c-0.2,0.3-0.4,0.5-0.4,0.6s0.3,0,0.6-0.3C91.5,65.3,91.8,64.7,92,64.3"/>
				<path class="st7" d="M93.2,69.7c0.7-2.1,0.4-5.2-2.5-5c-2,0.1-2.9,2.7-2.9,4c0.1,1.3,0.1,1.5-0.1,2.9C87.6,72.5,88.5,73,89,73
					C90.3,73,92.3,72.4,93.2,69.7"/>
				<path class="st8" d="M92.6,65.2c0.8,1.4,0.1,3.8-1,4.7c-1.2,0.9-3,0.8-3.7-0.4c0,0.7,0,1.1-0.2,2.1C87.6,72.5,88.5,73,89,73
					c1.3,0,3.3-0.6,4.2-3.3C93.8,68.2,93.8,66.1,92.6,65.2z"/>
				<path class="st9" d="M90.3,65.7c0,0.1-0.1,0.2-0.2,0.3c-0.2,0.1-0.3,0.1-0.4,0.1c0-0.1,0-0.2,0.2-0.4
					C90.1,65.6,90.3,65.6,90.3,65.7"/>
				<path class="st9" d="M89.4,66.3c0.1,0,0,0.2,0,0.4c-0.1,0.2-0.2,0.3-0.2,0.3c-0.1,0-0.1-0.2,0-0.4
					C89.2,66.4,89.4,66.3,89.4,66.3"/>
			</g>
		</g>
		<g>
			<path class="st5" d="M71.3,52.9c-0.1,0-0.2,0.2-0.4,0.4c-0.2,0.2-0.6,0.4-1,0.2c-0.4-0.1-0.7-0.5-0.7-0.8
				c-0.1-0.3-0.1-0.5-0.1-0.6c0,0-0.1,0-0.1,0.1c-0.1,0.1-0.1,0.3-0.1,0.5s0.1,0.5,0.2,0.7c0.2,0.2,0.4,0.5,0.7,0.5
				c0.3,0.1,0.6,0.1,0.9-0.1c0.3-0.1,0.4-0.3,0.6-0.5C71.4,53.2,71.3,52.9,71.3,52.9"/>
			<g>
				<path class="st5" d="M53.1,24.2c-0.2,0-0.5,0-0.8-0.1s-0.6-0.4-0.7-0.7c0,0,0-0.1,0-0.2s0-0.1-0.1-0.2c0,0,0,0-0.1-0.1l0,0h-0.1
					c-0.1,0-0.1,0-0.2,0.1l0,0c0,0-0.1,0-0.1,0.1c-0.1,0-0.1,0.1-0.2,0.1c-0.3,0.1-0.6,0.1-0.9,0c-0.3-0.1-0.6-0.3-0.7-0.6
					c-0.2-0.3-0.2-0.7-0.2-1c0-0.2,0.1-0.5,0.3-0.7c0.1-0.1,0.1-0.2,0.3-0.4c0.1-0.1,0.1-0.2,0-0.3c0-0.1,0-0.1-0.1-0.1L49.4,20
					l-0.1-0.1h-0.1l-0.1-0.1c-0.1-0.1-0.1-0.1-0.2-0.2c-0.1-0.1-0.2-0.3-0.3-0.4c-0.2-0.3-0.2-0.6-0.2-0.9s0.2-0.6,0.3-0.8
					c0.2-0.2,0.4-0.4,0.6-0.5c0.4-0.2,0.8-0.3,1-0.4c0.3-0.1,0.4-0.1,0.4-0.1s-0.1-0.1-0.4-0.1c-0.3,0-0.7,0-1.2,0.2
					c-0.2,0.1-0.5,0.3-0.7,0.5c-0.2,0.3-0.4,0.6-0.5,1s0,0.9,0.2,1.3c0.1,0.2,0.2,0.4,0.4,0.5c0.1,0.1,0.2,0.2,0.2,0.2l0.1,0.1h0.1
					l0,0l0,0c0,0-0.1,0.1-0.2,0.2c-0.2,0.3-0.3,0.6-0.4,0.9c-0.1,0.5,0,1.1,0.2,1.5s0.6,0.7,1,0.8c0.4,0.1,0.8,0.1,1.2,0
					c0.1,0,0.2-0.1,0.3-0.1h0.1c0,0,0,0.1,0.1,0.2c0.2,0.5,0.6,0.7,1,0.8c0.3,0.1,0.7,0.1,0.9,0c0.5-0.1,0.7-0.4,0.7-0.4
					C53.7,24,53.5,24.2,53.1,24.2"/>
				<path class="st5" d="M79,27.4L79,27.4c0.1-0.1,0.2-0.2,0.3-0.3c0.1-0.2,0.2-0.3,0.3-0.5c0.1-0.3,0.2-0.7,0.1-1s-0.2-0.5-0.3-0.7
					c-0.3-0.3-0.5-0.3-0.5-0.3s0.2,0.1,0.4,0.4c0.1,0.1,0.2,0.3,0.2,0.5s0,0.5-0.2,0.8c-0.1,0.1-0.2,0.3-0.3,0.4
					c0,0.2-0.1,0.3-0.2,0.3l0,0l0,0h-0.1c0,0-0.1,0-0.2,0.1l-0.1,0.1c0,0,0,0,0,0.1v0.1c0,0.1,0.1,0.2,0.1,0.2c0.1,0,0,0,0,0l0,0
					l0.1,0.1c0.1,0.1,0.2,0.3,0.2,0.5c0.1,0.4,0.1,0.8-0.1,1.1c-0.2,0.3-0.5,0.6-0.9,0.7c-0.3,0.1-0.6,0.1-0.9,0
					c-0.1,0-0.3-0.1-0.4-0.2l-0.2-0.1c-0.1,0-0.1,0-0.2,0c-0.2,0-0.3,0.1-0.3,0.3v0.1c0,0,0,0,0,0.1v0.1c0,0.1-0.1,0.1-0.1,0.2
					c-0.1,0.1-0.2,0.3-0.3,0.4c-0.2,0.2-0.4,0.4-0.7,0.5c-0.5,0.2-1,0.2-1.3,0s-0.5-0.5-0.6-0.7s-0.1-0.4-0.1-0.4s-0.1,0.1,0,0.4
					c0,0.3,0.2,0.7,0.6,1c0.2,0.1,0.4,0.3,0.7,0.3c0.3,0,0.6,0,0.9-0.1s0.6-0.3,0.8-0.6c0.1-0.1,0.2-0.3,0.3-0.5
					c0-0.1,0.1-0.2,0.1-0.3l0.1-0.1c0,0,0,0,0-0.1l0,0l0,0l0,0l0,0h0.1c0.2,0.1,0.3,0.2,0.5,0.2c0.4,0.1,0.8,0.1,1.2,0
					c0.5-0.1,1-0.5,1.2-1c0.3-0.5,0.3-1.1,0.2-1.6C79.3,27.7,79.2,27.4,79,27.4c0.1-0.1,0.1-0.1,0.1-0.2
					C78.9,27.5,78.9,27.5,79,27.4C79,27.5,79,27.4,79,27.4"/>
				<path class="st5" d="M47.4,38.6c-0.1,0-0.1,0-0.3,0.2c-0.1,0.1-0.2,0.3-0.3,0.4c-0.2,0.2-0.4,0.4-0.8,0.6
					c-0.4,0.1-0.8,0.1-1.2-0.2s-0.6-0.8-0.8-1.2c-0.1-0.5-0.1-0.9-0.1-1.2s0.1-0.5,0.1-0.5s-0.1,0.1-0.3,0.4c0,0-0.1,0-0.2,0.1
					c-0.1,0-0.2,0.1-0.4,0.2c-0.2,0.1-0.5,0.2-0.8,0.1c-0.3,0-0.7-0.2-1-0.6c-0.3-0.3-0.4-0.8-0.5-1.2s0-0.8,0-1.1
					c0.1-0.3,0.1-0.4,0.1-0.5c0,0-0.2,0.1-0.3,0.4c-0.1,0.3-0.2,0.7-0.2,1.2c0,0.3,0,0.5,0.1,0.8s0.2,0.5,0.4,0.8
					c0.2,0.2,0.4,0.4,0.6,0.6c0.2,0.1,0.5,0.2,0.7,0.3c0.5,0.1,0.8-0.1,1.1-0.2c0.1-0.1,0.2-0.1,0.3-0.2c0,0.2,0,0.5,0,0.8
					c0.1,0.6,0.3,1.2,0.8,1.6c0.2,0.2,0.5,0.3,0.8,0.4c0.3,0,0.6,0,0.8-0.1c0.5-0.2,0.8-0.5,1-0.8s0.3-0.5,0.3-0.6
					C47.5,38.6,47.4,38.6,47.4,38.6"/>
				<path class="st5" d="M57.3,40.7c-0.1,0-0.1,0-0.2,0.1c-0.1,0-0.2,0.1-0.4,0c-0.2,0-0.3-0.1-0.4-0.3c-0.1-0.2-0.1-0.4-0.1-0.7
					c0.1-0.5,0.4-0.7,0.3-0.8c0,0-0.1,0-0.3,0.1c-0.1,0.1-0.3,0.3-0.4,0.6c-0.1,0.3-0.2,0.7,0,1c0.1,0.2,0.2,0.4,0.3,0.5
					s0.3,0.2,0.5,0.2c0.3,0,0.5,0,0.7-0.1c0.1-0.1,0.2-0.2,0.3-0.2c0.1-0.1,0-0.2,0-0.3C57.5,40.7,57.5,40.6,57.3,40.7"/>
				<path class="st5" d="M82,44.4c-0.1,0-0.2,0.1-0.5,0.2c-0.3,0.1-0.7,0.1-1-0.2s-0.5-0.7-0.4-1c0-0.3,0.1-0.5,0.1-0.6
					c0,0-0.1,0-0.2,0.1s-0.2,0.2-0.2,0.4c-0.1,0.2-0.1,0.5,0,0.8s0.2,0.6,0.5,0.8s0.6,0.3,0.8,0.3c0.3,0,0.5-0.1,0.7-0.2
					C82.1,44.7,82.1,44.4,82,44.4"/>
			</g>
		</g>
		<g>
			<path class="st10" d="M45.6,59l2.2-0.4c0,0,1.2,11.4,12.8,12.4l0.7-13.9l7.1,0.2l0.4,9.9c0,0,11.9-1.8,14.3-11.5h2.1
				c0,0-1.1,11.8-16.4,16.1l1.9,38.1c0,0-0.4,1.6-5.1,1.6s-6.9-1-6.9-1.8c0-0.7,1.7-34.9,1.7-34.9s-6.9,1-11.9-7.1c0,0-6,1.4-9-7.2
				l1.2-1.3c0,0,0.3,5.3,6.7,6.1C47.4,65.4,46.1,64.2,45.6,59"/>
			<path class="st11" d="M46.7,61.2c0.4-0.3,0.6-0.5,1-0.6c0.2,0,0.3-0.1,0.5-0.1c-0.3-1.2-0.4-1.9-0.4-1.9L45.6,59
				c0.1,1,0.2,1.8,0.4,2.6C46.2,61.5,46.5,61.3,46.7,61.2z"/>
			<path class="st11" d="M42,62.4c-1.1-1.6-1.2-3.2-1.2-3.2l-1.2,1.3c0.3,1,0.7,1.8,1.1,2.5C41.1,62.9,41.6,62.7,42,62.4z"/>
			<path class="st11" d="M85.2,55.8h-2.1c-2.4,9.7-14.3,11.5-14.3,11.5l-0.4-9.9l-7.1-0.2l-0.2,4c0.6-0.2,1.1-0.5,1.7-0.7
				c0.1,0,0.1,0,0.2,0.1c0.3,0.8,1.5,0.4,2.1,0.6c0.6,0.3,0.9,0.9,1,1.6c0,1.1-0.3,2.1-0.5,3.2c-0.2,1.5-0.3,3.1-0.4,4.7
				c-0.1,3.1,0.2,6.2,0.7,9.3c0.4,2.4,0.8,4.8,0.3,7.2c0.1,0,0.1,0.1,0.1,0.1c-0.2,3.9-0.5,7.9-0.3,11.8c0.1,2.2,0.3,4.4,0.4,6.6
				c0,2,0,4.1-0.8,5.9h0.1c4.7,0,5.1-1.6,5.1-1.6l-1.9-38.1C84.1,67.6,85.2,55.8,85.2,55.8z"/>
			<path class="st11" d="M82.9,58C83,58,83,58,82.9,58c0.4,0.7,0.9,1,1.4,1.1c0.8-1.9,0.9-3.3,0.9-3.3h-2.1
				c-0.2,0.9-0.6,1.8-0.9,2.6C82.4,58.2,82.7,58.1,82.9,58z"/>
		</g>
		<g>
			<path class="st2" d="M69.1,54.1c-1.4-0.3-2.7,0.3-3.3,1.4c-0.3-0.7-0.9-1.2-1.6-1.2c-0.8,0-1.5,0.6-1.7,1.5
				c-0.4-0.8-1.3-1.4-2.4-1.4c-1.4,0-2.6,1.1-2.6,2.4c0,1.3,1.2,2.4,2.6,2.4c1.2,0,2.2-0.7,2.5-1.7c0.3,0.7,0.9,1.1,1.6,1.1
				c0.6,0,1.2-0.4,1.5-1c0.4,1,1.2,1.8,2.4,2c1.7,0.4,3.2-0.6,3.5-2.1S70.8,54.5,69.1,54.1"/>
			<path class="st2" d="M89.9,53.9c-1-0.9-2.6-0.6-3.7,0.8c-0.1,0.1-0.2,0.2-0.3,0.4c-0.2-0.3-0.5-0.5-0.9-0.5c-0.1,0-0.1,0-0.2,0
				c0.3-0.8,0.1-1.7-0.4-2.2c-0.8-0.7-2.1-0.5-2.9,0.6c0,0,0,0.1-0.1,0.1c-0.2-0.7-0.8-1.2-1.5-1.2c-0.9,0-1.6,0.8-1.6,1.8
				s0.7,1.8,1.6,1.8c0.3,0,0.6-0.1,0.9-0.3c0,0.5,0.2,0.9,0.5,1.2c0.7,0.6,1.7,0.5,2.5-0.2c0.1,0.6,0.6,1,1.1,1c0.1,0,0.2,0,0.3,0
				c0,0.7,0.2,1.3,0.7,1.8c1,0.9,2.6,0.6,3.7-0.8C90.8,56.7,90.8,54.8,89.9,53.9"/>
			<path class="st2" d="M48.1,55.9c-0.7,0-1.3,0.5-1.6,1.2c-0.3-0.4-0.8-0.6-1.3-0.6s-0.9,0.2-1.3,0.6c-0.3-0.5-0.9-0.8-1.5-0.8
				c-0.9,0-1.6,0.7-1.8,1.6c-0.5-0.3-1.2-0.4-1.8-0.1c-1.1,0.4-1.7,1.5-1.4,2.5s1.4,1.5,2.5,1.1c0.8-0.3,1.3-0.9,1.5-1.6
				c0.3,0.2,0.6,0.3,1,0.3c0.5,0,0.9-0.2,1.3-0.6c0.3,0.5,0.9,0.8,1.5,0.8c0.7,0,1.4-0.5,1.7-1.2c0.3,0.4,0.8,0.6,1.3,0.6
				c1,0,1.7-0.9,1.7-1.9C49.8,56.7,49.1,55.9,48.1,55.9"/>
			<g>
				<path class="st5" d="M71.6,57.6c0,0,0,0.2-0.1,0.7c-0.1,0.2-0.2,0.4-0.4,0.7c-0.2,0.2-0.5,0.5-0.8,0.7c-0.6,0.4-1.6,0.5-2.5,0.3
					c-0.5-0.1-1-0.4-1.4-0.7c-0.2-0.2-0.4-0.4-0.6-0.7c-0.1-0.1-0.2-0.3-0.2-0.3l0,0l0,0c0,0,0,0-0.1,0.1l-0.1,0.1
					c-0.1,0.1-0.2,0.1-0.3,0.2c-0.2,0.1-0.4,0.2-0.6,0.3c-0.5,0.1-1,0-1.3-0.3c-0.2-0.1-0.4-0.3-0.5-0.5l0,0l0,0l0,0l0,0l-0.1,0.1
					c0,0.1-0.1,0.1-0.1,0.2c-0.1,0.1-0.2,0.2-0.3,0.3c-0.2,0.2-0.4,0.3-0.6,0.4c-0.4,0.2-0.9,0.3-1.3,0.4c-0.8,0-1.6-0.3-2-0.7
					c-0.2-0.2-0.4-0.5-0.5-0.7s-0.2-0.4-0.2-0.6c-0.1-0.4,0-0.6,0-0.6s0,0.2,0.2,0.5c0.1,0.2,0.1,0.3,0.3,0.5
					c0.1,0.2,0.3,0.4,0.5,0.6c0.4,0.3,1.1,0.6,1.8,0.5c0.4,0,0.7-0.1,1.1-0.3c0.2-0.1,0.3-0.2,0.5-0.4c0.1-0.1,0.1-0.2,0.2-0.2
					l0.1-0.1V58l0.1-0.1c0.1-0.1,0.1-0.2,0.2-0.2c0.1,0,0.2-0.1,0.2,0c0.1,0,0.2,0,0.2,0.1l0.1,0.1l0.1,0.1c0.1,0.1,0.2,0.3,0.4,0.4
					c0.3,0.2,0.6,0.3,1,0.2c0.2,0,0.3-0.1,0.5-0.2c0.1,0,0.1-0.1,0.2-0.2l0.1-0.1l0,0l0.1-0.1l0.1-0.1c0.1,0,0.1,0,0.2,0
					s0.2,0,0.3,0.2c0.2,0.3,0.2,0.3,0.3,0.4c0.1,0.2,0.3,0.4,0.5,0.6c0.4,0.3,0.8,0.6,1.2,0.7c0.8,0.3,1.7,0.2,2.2-0.1
					c0.3-0.1,0.5-0.3,0.7-0.5s0.3-0.4,0.4-0.6C71.5,57.8,71.6,57.6,71.6,57.6"/>
				<path class="st5" d="M96.5,52.8c-0.1-0.3-0.3-0.5-0.4-0.7C95.9,52,95.8,52,95.8,52c-0.1,0.1,0.2,0.4,0.3,0.9
					c0.1,0.3,0.1,0.6,0,1c0,0.4-0.2,0.8-0.4,1.1c-0.2,0.3-0.6,0.5-0.9,0.6s-0.6,0-0.9-0.1s-0.5-0.3-0.6-0.4V55c0,0,0,0-0.1,0
					c0,0,0,0-0.1,0c0,0,0,0,0,0.1c-0.1,0.1-0.2,0.2-0.3,0.3c-0.2,0.2-0.5,0.5-0.8,0.4c-0.1,0-0.2-0.1-0.2-0.1
					c-0.1,0-0.1-0.1-0.2-0.2c-0.1-0.1-0.2-0.3-0.3-0.4c-0.1-0.3-0.1-0.5-0.2-0.5s-0.2,0.2-0.1,0.6c0,0.2,0.1,0.4,0.2,0.7
					c0.1,0.1,0.2,0.2,0.3,0.3c0.1,0.1,0.2,0.1,0.4,0.2c0.2,0,0.3,0,0.5,0c0.1,0,0.3-0.1,0.4-0.2c0.2-0.2,0.3-0.4,0.4-0.5
					c0-0.1,0.1-0.2,0.1-0.3c0.1,0.2,0.2,0.4,0.5,0.5c0.3,0.2,0.7,0.3,1.1,0.3c0.4-0.1,0.9-0.3,1.2-0.8c0.3-0.4,0.5-0.9,0.5-1.4
					C96.7,53.5,96.6,53.1,96.5,52.8"/>
				<path class="st5" d="M89.7,58c0,0-0.2,0.1-0.5,0.4c-0.2,0.1-0.3,0.3-0.6,0.4c-0.2,0.1-0.5,0.2-0.8,0.3s-0.7,0.1-1-0.1
					c-0.3-0.1-0.7-0.3-0.9-0.7c-0.1-0.2-0.2-0.4-0.2-0.6c0-0.1-0.1-0.2-0.1-0.3s0-0.1,0-0.2v-0.1l0,0c0,0,0,0,0-0.1c0,0,0,0,0-0.1
					c0,0,0-0.1-0.1-0.1l-0.1-0.1h-0.1h-0.1h-0.1H85l0,0l0,0l0,0c-0.1,0-0.2,0-0.3-0.1c-0.2-0.1-0.3-0.2-0.4-0.4L84.2,56
					c0-0.1-0.1-0.1-0.2-0.2c-0.1-0.1-0.3-0.1-0.4,0L83.4,56l-0.1,0.1c-0.1,0-0.1,0.1-0.2,0.1c-0.1,0.1-0.3,0.1-0.4,0.1
					c-0.3,0-0.6,0-0.8-0.1c-0.2-0.1-0.4-0.3-0.6-0.6c0-0.1-0.1-0.1-0.1-0.2v-0.1v-0.1v-0.1c0-0.3-0.3-0.4-0.6-0.3l-0.1,0.1h-0.1
					h-0.1c-0.1,0-0.2,0-0.3,0c-0.2,0-0.4,0-0.5-0.1c-0.3-0.1-0.6-0.4-0.7-0.6c-0.1-0.2-0.2-0.5-0.3-0.6c0-0.2-0.1-0.2-0.1-0.2
					s0,0.1,0,0.3s0,0.4,0.2,0.7c0.1,0.3,0.4,0.6,0.8,0.8c0.2,0.1,0.4,0.2,0.7,0.2c0.1,0,0.2,0,0.4,0c0.1,0,0.1,0,0.2,0h0.1h0.1
					c0,0,0.1,0,0,0l0,0v0.1v0.1c0,0.1,0.1,0.2,0.1,0.3c0.2,0.3,0.4,0.6,0.8,0.8c0.3,0.2,0.7,0.2,1.1,0.2c0.2,0,0.4-0.1,0.6-0.2
					c0.1,0,0.2-0.1,0.3-0.1l0.1-0.1l0.1-0.1l0,0l0,0v0.1c0.2,0.3,0.4,0.5,0.7,0.7c0.1,0.1,0.3,0.1,0.4,0.1h0.1l0,0v0.1
					c0,0.1,0.1,0.3,0.1,0.4c0.1,0.3,0.2,0.5,0.3,0.8c0.3,0.5,0.7,0.7,1.2,0.9c0.4,0.1,0.8,0.1,1.2,0c0.4-0.1,0.7-0.2,0.9-0.4
					c0.2-0.2,0.4-0.3,0.6-0.5C89.6,58.2,89.7,58,89.7,58"/>
				<path class="st5" d="M49.8,57.8c0,0,0.1,0.1,0,0.4c0,0.2-0.1,0.6-0.3,0.9c-0.2,0.4-0.7,0.7-1.2,0.8c-0.3,0-0.6,0-0.9-0.1
					c-0.2-0.1-0.3-0.1-0.4-0.3l0,0l0,0c0,0,0,0.1-0.1,0.1c0,0.1-0.1,0.1-0.1,0.2c-0.1,0.1-0.2,0.2-0.3,0.3c-0.3,0.2-0.6,0.3-0.9,0.4
					c-0.3,0-0.7,0-1-0.1c-0.2-0.1-0.3-0.2-0.5-0.3C44,60,44,60,43.9,59.9s-0.2-0.2-0.1-0.1l0,0c0,0-0.1,0-0.1,0.1
					c-0.1,0-0.1,0.1-0.2,0.1c-0.1,0.1-0.2,0.1-0.3,0.2c-0.2,0.1-0.5,0.1-0.7,0.1s-0.5-0.1-0.7-0.1c-0.1,0-0.1,0-0.2-0.1l0,0l0,0l0,0
					v0.1l-0.1,0.1c-0.1,0.1-0.1,0.2-0.2,0.3c-0.1,0.2-0.3,0.3-0.4,0.4c-0.3,0.3-0.6,0.4-0.9,0.5c-0.6,0.2-1.2,0.1-1.7-0.1
					c-0.4-0.2-0.7-0.6-0.8-0.8c-0.1-0.3-0.1-0.4-0.1-0.4s0.1,0.1,0.2,0.3c0.1,0.2,0.4,0.4,0.8,0.6c0.4,0.1,0.9,0.2,1.4,0
					c0.3-0.1,0.5-0.3,0.7-0.5c0.1-0.1,0.2-0.2,0.3-0.4c0-0.1,0.1-0.1,0.1-0.2l0.1-0.1v-0.1v-0.1c0-0.1,0.1-0.2,0.1-0.2
					c0.1-0.1,0.2-0.1,0.2-0.1c0.1,0,0.2,0.1,0.2,0.1s0.1,0,0.1,0.1c0.2,0.1,0.3,0.1,0.5,0.1s0.4,0,0.5-0.1c0.1,0,0.2-0.1,0.2-0.1
					s0.1,0,0.1-0.1c0,0,0.1,0,0.2-0.1c0.1-0.1,0.4-0.1,0.5,0s0.1,0.2,0.2,0.2c0,0,0.1,0.1,0.2,0.1c0.1,0.1,0.2,0.1,0.3,0.2
					c0.2,0.1,0.5,0.1,0.7,0.1s0.5-0.1,0.7-0.3c0.1-0.1,0.2-0.1,0.3-0.2l0.1-0.1c0-0.1,0.1-0.1,0.1-0.2c0-0.1,0.1-0.1,0.1-0.2
					c0.1,0,0.1-0.1,0.2,0c0.1,0,0.2,0.1,0.3,0.2c0.1,0.1,0.2,0.2,0.3,0.2c0.2,0.1,0.5,0.1,0.7,0.1c0.5,0,0.8-0.3,1.1-0.6
					c0.2-0.3,0.3-0.6,0.4-0.8C49.8,57.9,49.8,57.8,49.8,57.8"/>
			</g>
		</g>
	</g>
</g>
<circle class="st12" cx="92" cy="88" r="24"/>
<path class="st13" d="M83.1,88l-3.7,3.7L75.7,88l3.7-3.7L83.1,88z M92.1,79.1l6.3,6.3l3.7-3.7l-6.3-6.3l-3.7-3.7l-10,10l3.7,3.7
	L92.1,79.1z M104.7,84.3L101,88l3.7,3.7l3.7-3.7L104.7,84.3z M92.1,96.9l-6.3-6.3l-3.7,3.7l10,10.1l10.1-10.1l-3.7-3.7L92.1,96.9z
	 M92.1,91.7l3.7-3.7l-3.7-3.7L88.3,88L92.1,91.7z"/>
<circle class="st14" cx="38" cy="88" r="24"/>
<g>
	<g>
		<g>
			<path class="st15" d="M23.6,98c0,0-0.6,2,4-0.8c4.6-2.8,16-4.9,21.5-4.3c5.5,0.7,1.6-12.2-2.4-14.3C42.5,76.7,30,85.6,23.6,98z"
				/>
		</g>
		<g class="st16">
			<path class="st17" d="M24,97.6c0,0-1,2.4,3.6-0.4s16-4.9,21.5-4.3s1.6-12.2-2.4-14.3C42.5,76.7,30.4,85.2,24,97.6z"/>
		</g>
		<g>
			<path class="st17" d="M24.4,98.8c-0.3,0-0.4,0-0.5-0.1c-0.4-0.4-0.2-1.1-0.2-1.1s0,0,0,0c2.9-5.7,6.8-10,9.4-12.4
				c3.4-3.2,6.9-5.6,9.8-6.4c1.6-0.5,2.9-0.5,3.9-0.1c1.5,0.8,3,2.9,4,5.7c1.1,2.8,1.4,5.6,0.9,7.2c-0.4,1.2-1.2,1.8-2.3,1.8
				c-0.1,0-0.3,0-0.4,0c-5.6-0.7-16.9,1.6-21.3,4.3C26.2,98.4,25.2,98.8,24.4,98.8z M24,97.7c0,0.1-0.1,0.4,0,0.6
				c0.1,0.1,0.8,0.4,3.4-1.2c2.1-1.3,6-2.6,10.5-3.5c4.4-0.8,8.5-1.2,11.1-0.8c1.2,0.1,1.9-0.4,2.3-1.5c0.5-1.6,0.1-4.2-0.9-6.9
				c-1.1-2.7-2.5-4.8-3.9-5.5c-0.8-0.4-2-0.4-3.6,0.1c-2.8,0.9-6.3,3.2-9.6,6.4C30.8,87.8,27,92,24,97.7z"/>
		</g>
		<g>
			<g>
				<path class="st18" d="M46.9,81.2c-0.7-0.1,0-0.4-0.8-1.2c-0.8-0.8-1.7-0.1-1.7-0.1c0.1-0.3,0.2-0.6,0-0.8
					c-0.7-1-2.7-0.4-3.3-1.2c-0.7-0.8-2.4,0-2.4,0s-10,6-12.8,12.8c-2.8,6.8-2.7,8.9-1.4,8.4c1.2-0.4,2.1-1.6,3.1-0.7
					c0.9,0.8-0.2,2.4,0.8,3.2c0.6,0.4,2-0.4,1.3-1.5s-1.6-3.3,0-4.5c1.6-1.2,5.1-1.8,4.8-0.1c-0.5,4,3.8,2.3,2.4,0.6
					c-1.2-1.5-0.1-4,2.4-2.6c2.1,1.2,1.9-0.4,4-1.1c1.6-0.5,4.4-0.5,4.4-0.5c2-1.2,0.2-1.7,0.2-1.7s1.7-1.3,1.2-2.2
					C48.8,86.8,49,85.4,49,84C49.2,82.5,47.6,81.3,46.9,81.2z"/>
			</g>
			<g class="st16">
				<path class="st17" d="M46.9,81.2c-0.7-0.1,0-0.4-0.8-1.2c-0.8-0.8-1.7-0.1-1.7-0.1c0.1-0.3,0.2-0.6,0-0.8
					c-0.7-1-2.7-0.4-3.3-1.2c-0.7-0.8-2.4,0-2.4,0s-0.3,0.1-0.7,0.4c3.1,0.8,9.6,3.5,8.4,12.8c0,0-12.4,0.9-15.9,3
					c-2.4,1.6-4.9,4.4-6.8,4.8c0.1,0.4,0.4,0.4,0.8,0.3c1.2-0.4,2.1-1.6,3.1-0.7c0.9,0.8-0.2,2.4,0.8,3.2c0.6,0.4,2-0.4,1.3-1.5
					c-0.7-1.2-1.6-3.3,0-4.5c1.6-1.2,5.1-1.8,4.8-0.1c-0.5,4,3.8,2.3,2.4,0.6c-1.2-1.5-0.1-4,2.4-2.6c2.1,1.2,1.9-0.4,4-1.1
					c1.6-0.5,4.4-0.5,4.4-0.5c2-1.2,0.2-1.7,0.2-1.7s1.7-1.3,1.2-2.2C48.8,86.8,49,85.4,49,84C49.2,82.5,47.6,81.3,46.9,81.2z"/>
			</g>
			<g class="st19">
				<g>
					<path class="st20" d="M47.5,81.5c0,0,0.1,0,0.2,0c-0.2-0.1-0.4-0.3-0.5-0.3C47.2,81.3,47.2,81.5,47.5,81.5z"/>
				</g>
				<g>
					<path class="st20" d="M48.5,90.3L48.5,90.3L48.5,90.3L48.5,90.3z"/>
				</g>
				<g>
					<path class="st20" d="M44.9,80.1c0,0,0.5-0.4,1.2-0.2c-0.4-0.4-0.8-0.4-1.1-0.4C45.1,79.7,45,79.9,44.9,80.1z"/>
				</g>
				<g>
					<path class="st20" d="M44.3,78.8c-0.7-0.6-1.8-0.4-2.6-0.7C42.2,78.7,43.4,78.5,44.3,78.8z"/>
				</g>
				<g>
					<path class="st20" d="M38.7,77.7c0,0-4.4,2.7-8.2,6.4c0,0-0.1,0.1-0.2,0.2c0,0-0.1,0.1-0.1,0.1c-1.7,1.8-3.3,3.9-4.3,6
						c-2.7,6.4-2.7,8.7-1.6,8.5c-0.4-0.8,0.1-3.3,2.1-8.2c0.8-1.9,2-3.6,3.5-5.2c0,0,0,0.1,0.1,0.1c0.3,0.3,0.9,0.2,1.3-0.3
						c0.4-0.5,0.5-1.1,0.2-1.4c0,0,0,0-0.1,0c3.7-3.5,7.5-6.2,7.5-6.2s1.3-0.2,2,0C40.4,76.9,38.7,77.7,38.7,77.7z"/>
				</g>
			</g>
			<g>
				<path class="st17" d="M28.8,101.7c-0.2,0-0.4,0-0.5-0.1c-0.7-0.4-0.7-1.2-0.6-1.9c0-0.5,0-1.1-0.3-1.3c-0.5-0.4-1-0.3-1.8,0.3
					c-0.3,0.2-0.7,0.4-1.1,0.5c-0.4,0.1-0.7,0-0.8-0.1c-0.9-0.9,0.5-5.2,2-8.6c1.5-3.6,4.9-6.9,7.5-9.1c2.8-2.3,5.3-3.8,5.3-3.9l0,0
					c0,0,1.8-0.8,2.6,0.1c0.3,0.3,0.8,0.4,1.4,0.4c0.7,0,1.5,0.1,2,0.8c0.1,0.1,0.1,0.4,0.1,0.5c0.4-0.1,1.1-0.1,1.6,0.4
					c0.5,0.5,0.5,0.8,0.5,1.1c0,0,0,0,0,0.1c0,0,0,0,0.1,0l0,0c0.8,0.1,2.4,1.5,2.4,3.1c0,0.3,0,0.7,0,0.9c0,1.1-0.1,2,0.2,2.7
					c0.4,0.8-0.5,1.8-1.1,2.3c0.3,0.1,0.5,0.4,0.5,0.7c0,0.4-0.3,0.8-1.1,1.3c0,0,0,0-0.1,0c0,0-2.8,0-4.4,0.5
					c-0.8,0.3-1.2,0.6-1.6,0.9c-0.7,0.6-1.2,0.9-2.5,0.1c-0.9-0.5-1.7-0.5-2.2,0c-0.5,0.6-0.4,1.6,0,2.3c0.4,0.5,0.4,1.1,0,1.6
					C36.8,98,36,98.2,35.3,98c-0.4-0.2-1.2-0.8-0.9-2.6c0-0.3,0-0.4-0.3-0.5c-0.8-0.4-3.1,0-4.3,0.9c-1.5,1.1-0.4,3.3,0.1,4.2
					c0.4,0.5,0.3,1.2-0.2,1.6C29.6,101.6,29.2,101.7,28.8,101.7z M26.8,97.7c0.3,0,0.6,0.1,0.8,0.4c0.5,0.4,0.4,1.2,0.4,1.7
					c0,0.6,0,1.2,0.4,1.5c0.3,0.1,0.7,0.1,0.9-0.2c0.2-0.1,0.4-0.5,0.1-1.1c-0.6-1-1.7-3.5,0-4.8c1.2-0.9,3.6-1.6,4.7-0.9
					c0.4,0.2,0.5,0.5,0.4,1c-0.1,1.2,0.1,2,0.7,2.1c0.4,0.2,1.1,0,1.4-0.4c0.1-0.2,0.3-0.5,0-1.1c-0.7-0.8-0.7-2,0-2.8
					c0.6-0.7,1.6-0.8,2.8-0.1c1.2,0.7,1.5,0.4,2.1-0.1c0.4-0.4,0.8-0.8,1.7-1c1.5-0.5,4-0.5,4.4-0.5c0.7-0.4,0.8-0.7,0.8-0.8
					c0-0.3-0.4-0.4-0.6-0.5c0,0-0.1-0.1-0.1-0.1c0-0.1,0-0.1,0.1-0.2c0.4-0.3,1.5-1.3,1.2-2c-0.4-0.8-0.3-1.8-0.3-2.9
					c0-0.3,0-0.6,0-0.9c0-1.3-1.4-2.4-2-2.6c-0.4-0.1-0.4-0.3-0.4-0.5c0-0.1,0-0.4-0.4-0.8c-0.7-0.7-1.5-0.1-1.5-0.1
					c-0.1,0-0.2,0-0.3,0c0,0-0.1-0.1,0-0.3c0.2-0.4,0.1-0.5,0-0.6c-0.4-0.4-0.9-0.5-1.6-0.6c-0.7,0-1.3-0.1-1.7-0.6
					c-0.5-0.5-1.6-0.2-2.1,0c-0.2,0.1-2.6,1.6-5.3,3.8c-2.5,2.1-6,5.3-7.4,8.8c-1.1,2.5-1.7,4.5-2,6c-0.4,1.6-0.1,2.1,0,2.2
					c0,0,0.1,0.1,0.4,0c0.4-0.1,0.7-0.3,0.9-0.5C25.9,98,26.4,97.7,26.8,97.7z"/>
			</g>
		</g>
		<g>
			<path class="st17" d="M40.2,91.6c1.2-0.2,2.4-0.4,3.6-0.5c0.6-0.1,1.2-0.1,1.9-0.2c0.6,0,1.2-0.1,1.9-0.1c0.1,0,0.2,0.1,0.2,0.2
				c0,0.1-0.1,0.2-0.2,0.2l0,0l0,0c-0.6,0-1.2,0-1.8,0c-0.6,0-1.2,0-1.8,0.1C42.7,91.2,41.4,91.4,40.2,91.6z"/>
		</g>
	</g>
	<g class="st16">
		<g>
			<path class="st17" d="M44.1,78.7L44.1,78.7L44.1,78.7L44.1,78.7z"/>
		</g>
		<g>
			<path class="st17" d="M48.8,82.9c0,1.5-0.3,2.8,0.2,3.7c0,0,0,0.1,0,0.1c-0.1-0.8,0-1.8,0-2.8C49.1,83.6,49,83.2,48.8,82.9
				C48.8,82.8,48.8,82.9,48.8,82.9z"/>
		</g>
		<g>
			<path class="st17" d="M49.1,86.9c0,0.8-1.3,1.9-1.3,1.9s0.7,0.2,0.8,0.7c0.4-0.4,1.1-1.2,0.8-1.8C49.2,87.5,49.1,87.2,49.1,86.9z
				"/>
		</g>
	</g>
	<g>
		<g>
			<ellipse transform="matrix(0.8397 -0.543 0.543 0.8397 -38.0799 34.9046)" class="st21" cx="40.1" cy="82" rx="3.1" ry="2.4"/>
		</g>
		<g class="st19">
			<path class="st20" d="M40.5,84.4c-1.5,0.4-2.8-0.4-2.9-1.7c-0.1-1.3,1-2.7,2.5-3.1c1.1-0.3,2.1,0,2.6,0.8
				c-0.5-0.8-1.6-1.2-2.8-0.9c-1.6,0.4-2.8,1.9-2.7,3.3c0.1,1.4,1.6,2.2,3.1,1.8c0.4-0.1,0.8-0.3,1.2-0.5
				C41.2,84.1,40.8,84.3,40.5,84.4z"/>
		</g>
		<g>
			<path class="st22" d="M40.3,80l0.4,3.7c0.9-0.4,1.6-1.4,1.6-2.3C42.1,80.4,41.3,79.9,40.3,80z"/>
		</g>
		<g>
			<path class="st22" d="M39.4,80.2c-0.9,0.4-1.6,1.4-1.5,2.3c0.1,0.9,0.9,1.5,1.9,1.4L39.4,80.2z"/>
		</g>
		<g>
			<path class="st22" d="M39.4,80.2c-0.9,0.4-1.6,1.4-1.5,2.3c0.1,0.9,0.9,1.5,1.9,1.4L39.4,80.2z"/>
		</g>
		<g>
			<path class="st21" d="M39.6,81.5c-0.3,0.1-0.5,0.4-0.5,0.8c0,0.3,0.3,0.5,0.6,0.4L39.6,81.5z"/>
		</g>
		<g>
			<path class="st21" d="M40.4,81.2c0.3,0,0.6,0.1,0.6,0.4c0,0.3-0.2,0.6-0.5,0.8L40.4,81.2z"/>
		</g>
		<g>
			<path class="st17" d="M39.5,84.8c-0.6,0-1.1-0.1-1.6-0.4c-0.5-0.4-0.8-0.9-0.9-1.6c-0.1-1.5,1.1-3.1,2.8-3.5
				c0.9-0.3,1.8-0.1,2.4,0.4c0.5,0.4,0.8,0.9,0.9,1.6c0.1,1.5-1.1,3.1-2.8,3.5C40,84.8,39.7,84.8,39.5,84.8z M40.7,79.5
				c-0.3,0-0.5,0-0.8,0.1c-1.5,0.4-2.7,1.8-2.5,3.1c0,0.5,0.3,1.1,0.8,1.3c0.5,0.4,1.3,0.5,2.1,0.3c1.5-0.4,2.7-1.8,2.5-3.1
				c0-0.5-0.3-1.1-0.8-1.3C41.6,79.6,41.2,79.5,40.7,79.5z"/>
		</g>
		<g>
			<g>
				<path class="st23" d="M39.1,83.1c0,0,0,0.1,0,0.1c0,0,0,0.1,0,0.1c0,0,0,0.1-0.1,0.1c0,0-0.1,0-0.1-0.1c0,0,0,0,0,0
					C38.9,83.2,39,83.2,39.1,83.1C39,83.2,39.1,83.2,39.1,83.1z"/>
			</g>
			<g>
				<path class="st23" d="M38.7,82.8c0,0,0,0.1,0,0.1c0,0,0,0.1,0,0.1c0,0-0.1,0-0.2,0c0,0,0-0.1,0-0.2c0,0,0,0,0,0c0,0,0.1,0,0.1,0
					C38.5,82.8,38.6,82.8,38.7,82.8z"/>
			</g>
			<g>
				<path class="st23" d="M38.5,82.1C38.5,82.2,38.5,82.2,38.5,82.1c-0.1,0.1-0.1,0.1-0.2,0.2c0,0-0.1,0-0.1,0c0,0,0-0.1,0-0.1h0
					C38.4,82.1,38.4,82.1,38.5,82.1C38.4,82.1,38.5,82.1,38.5,82.1z"/>
			</g>
			<g>
				<path class="st23" d="M38.8,81.5c0,0-0.1,0-0.1,0c0,0-0.1,0-0.1,0c0,0-0.1-0.1-0.1-0.1c0,0,0.1-0.1,0.1-0.1h0
					C38.7,81.3,38.7,81.4,38.8,81.5C38.8,81.5,38.8,81.5,38.8,81.5z"/>
			</g>
			<g>
				<path class="st23" d="M39.3,81.1c0,0-0.1,0-0.1,0c0,0-0.1,0-0.1-0.1c0,0,0-0.1,0-0.2c0,0,0.1,0,0.2,0c0,0,0,0,0,0
					C39.3,80.9,39.3,81,39.3,81.1C39.3,81,39.3,81,39.3,81.1z"/>
			</g>
		</g>
		<g>
			<g>
				<path class="st23" d="M41.2,82.5c0,0,0.1,0,0.1,0.1c0,0,0,0,0.1,0.1c0,0,0,0.1,0,0.2c0,0-0.1,0-0.2,0c0,0,0,0,0,0
					c0,0,0-0.1,0-0.1C41.2,82.6,41.2,82.6,41.2,82.5z"/>
			</g>
			<g>
				<path class="st23" d="M41.5,82c0,0,0.1,0,0.1,0c0,0,0.1,0,0.1,0c0,0,0.1,0.1,0.1,0.1c0,0-0.1,0.1-0.1,0.1h0c0,0,0,0-0.1-0.1
					C41.6,82.1,41.5,82,41.5,82z"/>
			</g>
			<g>
				<path class="st23" d="M41.5,81.3C41.6,81.3,41.6,81.3,41.5,81.3c0.1-0.1,0.1-0.1,0.2-0.1c0,0,0.1,0,0.1,0s0,0.1,0,0.1h0
					C41.7,81.4,41.6,81.4,41.5,81.3C41.6,81.4,41.6,81.4,41.5,81.3z"/>
			</g>
			<g>
				<path class="st23" d="M41.2,80.9c0,0,0-0.1,0-0.1s0-0.1,0-0.1c0,0,0.1,0,0.2,0c0,0,0,0.1,0,0.2c0,0,0,0,0,0c0,0-0.1,0-0.1,0
					C41.2,80.8,41.2,80.8,41.2,80.9z"/>
			</g>
			<g>
				<path class="st23" d="M40.6,80.8c0,0,0-0.1,0-0.1c0,0,0-0.1,0-0.1c0,0,0-0.1,0.1-0.1c0.1,0,0.1,0,0.1,0.1c0,0,0,0,0,0
					C40.8,80.6,40.7,80.7,40.6,80.8C40.7,80.6,40.7,80.7,40.6,80.8z"/>
			</g>
		</g>
		<g>
			<path class="st22" d="M40.7,83.8C40.6,83.8,40.6,83.8,40.7,83.8c-0.1-0.1-0.2-0.1-0.2-0.2L40.1,80c0,0,0-0.1,0-0.1c0,0,0,0,0.1,0
				c1.1-0.1,2,0.5,2.1,1.6C42.4,82.3,41.8,83.3,40.7,83.8C40.7,83.8,40.7,83.8,40.7,83.8z M40.5,80.1l0.3,3.2c0.8-0.4,1.3-1.2,1.2-2
				C42,80.6,41.3,80.1,40.5,80.1L40.5,80.1z"/>
		</g>
		<g>
			<path class="st22" d="M39.6,84.1c-1,0-1.8-0.7-1.9-1.6c-0.1-0.9,0.5-2,1.6-2.4c0,0,0.1,0,0.1,0c0,0,0.1,0.1,0.1,0.1l0.4,3.7
				c0,0,0,0.1,0,0.1c0,0,0,0-0.1,0S39.6,84.1,39.6,84.1z M39.2,80.5c-0.8,0.4-1.2,1.2-1.2,2c0,0.8,0.7,1.2,1.5,1.2L39.2,80.5z"/>
		</g>
	</g>
	<g>
		<g>
			<ellipse transform="matrix(0.8397 -0.543 0.543 0.8397 -42.6829 32.457)" class="st21" cx="33.6" cy="88.5" rx="2.8" ry="2.3"/>
		</g>
		<g class="st19">
			<path class="st20" d="M34.1,90.8c-1.4,0.4-2.7-0.4-2.8-1.6c-0.1-1.2,0.9-2.5,2.4-2.9c1.1-0.3,2,0,2.4,0.7
				c-0.4-0.8-1.5-1.2-2.7-0.8c-1.5,0.4-2.6,1.7-2.5,3.1c0.1,1.3,1.5,2,2.9,1.6c0.4-0.1,0.8-0.3,1.1-0.5
				C34.7,90.6,34.4,90.8,34.1,90.8z"/>
		</g>
		<g>
			<path class="st22" d="M33.9,86.7l0.3,3.5c0.9-0.4,1.6-1.3,1.5-2.1C35.6,87.2,34.8,86.6,33.9,86.7z"/>
		</g>
		<g>
			<path class="st22" d="M33.1,86.9c-0.9,0.4-1.5,1.3-1.4,2.1c0.1,0.8,0.8,1.4,1.7,1.3L33.1,86.9z"/>
		</g>
		<g>
			<path class="st22" d="M33.1,86.9c-0.9,0.4-1.5,1.3-1.4,2.1c0.1,0.8,0.8,1.4,1.7,1.3L33.1,86.9z"/>
		</g>
		<g>
			<path class="st21" d="M33.2,88.1c-0.3,0.1-0.5,0.4-0.4,0.7c0,0.3,0.3,0.4,0.5,0.4L33.2,88.1z"/>
		</g>
		<g>
			<path class="st21" d="M34,87.9c0.3,0,0.5,0.1,0.5,0.4c0,0.3-0.2,0.5-0.4,0.7L34,87.9z"/>
		</g>
		<g>
			<path class="st17" d="M33.1,91.2c-0.5,0-1.1-0.1-1.5-0.4c-0.5-0.4-0.8-0.9-0.8-1.5c-0.1-1.4,1.1-2.8,2.6-3.2
				c0.8-0.2,1.7-0.1,2.3,0.4c0.5,0.4,0.8,0.9,0.8,1.5l0,0c0.1,1.4-1.1,2.8-2.6,3.2C33.6,91.2,33.3,91.2,33.1,91.2z M34.2,86.3
				c-0.3,0-0.5,0-0.8,0.1C32,86.7,31,88,31.1,89.2c0,0.5,0.3,0.9,0.7,1.2c0.5,0.4,1.2,0.4,2,0.3c1.4-0.4,2.4-1.6,2.4-2.9l0,0
				c0-0.5-0.3-0.9-0.7-1.2C35.1,86.4,34.7,86.3,34.2,86.3z"/>
		</g>
		<g>
			<g>
				<path class="st23" d="M33,89.7C33.1,89.7,33.1,89.8,33,89.7c0,0.1,0.1,0.2,0.1,0.2c0,0,0,0.1-0.1,0.1c0,0-0.1,0-0.1-0.1
					c0,0,0,0,0,0S32.9,89.8,33,89.7C33,89.7,33,89.7,33,89.7z"/>
			</g>
			<g>
				<path class="st23" d="M32.5,89.5c0,0,0,0.1,0,0.1c0,0,0,0.1,0,0.1c0,0-0.1,0.1-0.1,0c0,0-0.1-0.1,0-0.1l0,0c0,0,0,0,0.1-0.1
					C32.4,89.6,32.5,89.5,32.5,89.5z"/>
			</g>
			<g>
				<path class="st23" d="M32.3,89c0,0,0,0.1,0,0.1c0,0,0,0.1-0.1,0.1c0,0-0.1,0-0.1,0c0,0,0-0.1,0-0.1l0,0c0,0,0.1,0,0.1,0
					C32.2,89,32.3,89,32.3,89z"/>
			</g>
			<g>
				<path class="st23" d="M32.4,88.4C32.3,88.5,32.3,88.5,32.4,88.4c-0.1,0-0.2,0.1-0.2,0.1c0,0-0.1,0-0.1-0.1c0,0,0-0.1,0.1-0.1
					c0,0,0,0,0,0S32.3,88.4,32.4,88.4C32.3,88.4,32.3,88.4,32.4,88.4z"/>
			</g>
			<g>
				<path class="st23" d="M32.7,88c0,0-0.1,0-0.1,0c0,0-0.1,0-0.1,0c0,0,0-0.1,0-0.1c0,0,0.1,0,0.1,0l0,0c0,0,0,0,0,0.1
					C32.7,87.8,32.7,87.9,32.7,88z"/>
			</g>
		</g>
		<g>
			<g>
				<path class="st23" d="M34.7,89.1C34.8,89.2,34.8,89.2,34.7,89.1c0.1,0.1,0.1,0.1,0.2,0.2s0,0.1,0,0.1c0,0-0.1,0-0.1,0
					c0,0,0,0,0,0C34.7,89.3,34.7,89.2,34.7,89.1C34.7,89.2,34.7,89.2,34.7,89.1z"/>
			</g>
			<g>
				<path class="st23" d="M35,88.6c0,0,0.1,0,0.1,0c0,0,0.1,0,0.1,0c0,0,0.1,0.1,0,0.1c0,0-0.1,0.1-0.1,0c0,0,0,0,0,0
					C35,88.8,35,88.7,35,88.6C35.1,88.6,35.1,88.6,35,88.6z"/>
			</g>
			<g>
				<path class="st23" d="M35,88C35,88,35,88,35,88c0.1-0.1,0.1-0.1,0.2-0.1s0.1,0,0.1,0c0,0,0,0.1,0,0.1c0,0,0,0,0,0
					C35.2,88,35.1,88,35,88C35.1,88,35.1,88,35,88z"/>
			</g>
			<g>
				<path class="st23" d="M34.7,87.6c0,0,0-0.1,0-0.1c0,0,0-0.1,0-0.1c0,0,0.1,0,0.1,0c0,0,0,0.1,0,0.1l0,0c0,0,0,0-0.1,0
					C34.8,87.6,34.8,87.6,34.7,87.6z"/>
			</g>
			<g>
				<path class="st23" d="M34.2,87.4c0,0,0-0.1,0-0.1c0,0,0-0.1,0-0.1c0,0,0-0.1,0.1-0.1s0.1,0,0.1,0.1l0,0c0,0,0,0.1,0,0.1
					C34.3,87.3,34.3,87.4,34.2,87.4z"/>
			</g>
		</g>
		<g>
			<path class="st22" d="M34.2,90.4C34.2,90.4,34.2,90.4,34.2,90.4c-0.1-0.1-0.2-0.1-0.2-0.2l-0.3-3.5c0,0,0-0.1,0-0.1
				c0,0,0.1,0,0.1,0c1.1-0.1,1.9,0.5,2,1.5c0.1,0.9-0.5,1.9-1.6,2.4C34.3,90.4,34.3,90.4,34.2,90.4z M34.1,86.9l0.3,3
				c0.7-0.4,1.2-1.2,1.1-1.9C35.4,87.3,34.8,86.9,34.1,86.9z"/>
		</g>
		<g>
			<path class="st22" d="M33.2,90.6c-0.9,0-1.7-0.6-1.8-1.5c-0.1-0.9,0.5-1.9,1.6-2.3c0,0,0.1,0,0.1,0c0,0,0.1,0.1,0.1,0.1l0.3,3.5
				c0,0,0,0.1,0,0.1c0,0-0.1,0-0.1,0C33.3,90.6,33.3,90.6,33.2,90.6z M32.9,87.2c-0.7,0.4-1.2,1.2-1.1,1.9c0,0.7,0.6,1.2,1.3,1.2
				L32.9,87.2z"/>
		</g>
	</g>
	<g>
		<g>
			<g>
				<path class="st24" d="M29.9,88.2c-2,0.1-2,1.1-1.3,2.6C29.7,90.3,30.4,89.4,29.9,88.2z"/>
			</g>
			<g>
				<path class="st25" d="M28.4,91.1C28.4,91.1,28.4,91.1,28.4,91.1c-0.1,0-0.1,0-0.1-0.1c-0.3-0.8-0.5-1.7-0.1-2.4
					c0.3-0.4,0.8-0.6,1.7-0.7c0,0,0.1,0,0.1,0.1c0.3,0.5,0.3,0.9,0.1,1.5C30,90.1,29.4,90.8,28.4,91.1
					C28.5,91.1,28.5,91.1,28.4,91.1z M29.7,88.4c-0.7,0-1.1,0.2-1.2,0.5c-0.3,0.4-0.1,1.2,0.1,1.8c0.7-0.4,1.1-0.8,1.2-1.2
					C30,89.1,29.9,88.8,29.7,88.4z"/>
			</g>
			<g>
				<path class="st26" d="M30,88.4c-0.1,0-0.3,0.1-0.4,0.3c-0.1,0.1-0.3,0.2-0.4,0.4c-0.2,0.3-0.4,0.5-0.5,0.8c0-0.2,0-0.4,0-0.5
					c0-0.1,0.1-0.4,0.2-0.5c0.1-0.1,0.2-0.3,0.3-0.4c0.1-0.1,0.3-0.3,0.5-0.3c0.1,0,0.2,0,0.2,0.1C30,88.3,30,88.3,30,88.4L30,88.4z
					"/>
			</g>
		</g>
		<g>
			<g>
				<path class="st24" d="M33.4,82.8c1.7-0.9,2.3,0,2.5,1.6C34.7,84.6,33.6,84.3,33.4,82.8z"/>
			</g>
			<g>
				<path class="st25" d="M35.6,84.8c-0.8,0-1.3-0.2-1.7-0.5c-0.4-0.3-0.6-0.8-0.6-1.3c0,0,0-0.1,0.1-0.1c0.8-0.4,1.3-0.5,1.8-0.3
					c0.7,0.3,0.9,1.2,1.1,2.1c0,0,0,0.1,0,0.1c0,0-0.1,0-0.1,0C35.9,84.8,35.7,84.8,35.6,84.8z M33.6,82.9c0,0.4,0.2,0.7,0.4,0.9
					c0.4,0.3,1,0.5,1.7,0.4c-0.1-0.7-0.4-1.4-0.8-1.6C34.6,82.6,34.2,82.6,33.6,82.9z"/>
			</g>
			<g>
				<path class="st26" d="M33.3,82.7c0.2,0,0.4,0,0.6,0c0.2,0,0.4,0.1,0.5,0.2c0.1,0,0.3,0.2,0.4,0.4c0.1,0.1,0.3,0.3,0.3,0.4
					c-0.3-0.2-0.5-0.4-0.8-0.5c-0.1,0-0.3-0.1-0.4-0.1c-0.1,0-0.3,0-0.4,0l0,0c-0.1,0-0.2,0-0.2-0.1C33.2,82.8,33.3,82.7,33.3,82.7z
					"/>
			</g>
		</g>
		<g>
			<g>
				<path class="st24" d="M41.1,89c-1.3-1.2-2-0.6-2.6,0.8C39.6,90.3,40.7,90.2,41.1,89z"/>
			</g>
			<g>
				<path class="st25" d="M39.5,90.3c-0.4,0-0.8-0.1-1.2-0.3c0,0-0.1,0-0.1-0.1c0,0,0-0.1,0-0.1c0.4-0.8,0.8-1.5,1.5-1.6
					c0.4-0.1,0.9,0.1,1.6,0.7c0,0,0,0.1,0,0.2c-0.1,0.5-0.4,0.8-0.8,1.1C40.1,90.2,39.8,90.3,39.5,90.3z M38.5,89.7
					c0.7,0.2,1.2,0.2,1.6,0c0.3-0.1,0.5-0.4,0.7-0.8c-0.4-0.4-0.8-0.6-1.2-0.5C39.2,88.6,38.8,89.2,38.5,89.7z"/>
			</g>
			<g>
				<path class="st26" d="M41,89.2c-0.1,0-0.3-0.1-0.4-0.1s-0.3,0-0.4,0c-0.3,0-0.6,0.1-0.9,0.2c0.1-0.1,0.3-0.2,0.4-0.3
					c0.1-0.1,0.3-0.1,0.4-0.2c0.1,0,0.4-0.1,0.5-0.1c0.2,0,0.4,0,0.5,0.1c0.1,0,0.1,0.1,0,0.3C41.2,89.2,41.1,89.2,41,89.2L41,89.2z
					"/>
			</g>
		</g>
		<g>
			<g>
				<path class="st24" d="M25.9,92.1c0.1,0,0.2,0,0.3,0c0.1,0,0.2,0,0.3,0c0.1,0,0.2,0,0.3,0c0.1,0,0.2,0,0.4,0.1l0,0
					c0.1,0,0.1,0.3,0.1,0.4c0,0.1-0.3,0.1-0.4,0.1c0,0,0,0,0,0c0,0-0.1-0.1-0.2-0.1c-0.1,0-0.1,0-0.3-0.1c-0.1,0-0.2,0-0.3-0.1
					c0,0-0.2,0-0.3,0l0,0c-0.1,0-0.1-0.1-0.1-0.2C25.7,92.1,25.7,92.1,25.9,92.1z"/>
			</g>
			<g class="st16">
				<path class="st17" d="M25.9,92.1c0.1,0,0.2,0,0.3,0c0.1,0,0.2,0,0.3,0c0.1,0,0.2,0,0.3,0c0.1,0,0.2,0,0.4,0.1l0,0
					c0.1,0,0.1,0.3,0.1,0.4c0,0.1-0.3,0.1-0.4,0.1c0,0,0,0,0,0c0,0-0.1-0.1-0.2-0.1c-0.1,0-0.1,0-0.3-0.1c-0.1,0-0.2,0-0.3-0.1
					c0,0-0.2,0-0.3,0l0,0c-0.1,0-0.1-0.1-0.1-0.2C25.7,92.1,25.7,92.1,25.9,92.1z"/>
			</g>
			<g>
				<path class="st25" d="M27,93c0,0-0.1,0-0.2,0l0,0c0,0,0,0-0.1-0.1c0,0-0.1,0-0.3-0.1c-0.1,0-0.1,0-0.3-0.1c-0.1,0-0.2,0-0.3,0
					c-0.1,0-0.1,0-0.2-0.1c0,0,0-0.1,0-0.3c0-0.1,0.1-0.3,0.3-0.3l0,0c0.1,0,0.2,0,0.3,0c0.1,0,0.2,0,0.3,0s0.3,0,0.4,0
					c0.1,0,0.3,0,0.4,0.1l0,0c0.2,0.1,0.3,0.4,0.1,0.5C27.2,92.9,27.1,93,27,93z M25.9,92.2C25.9,92.2,25.8,92.2,25.9,92.2
					C25.8,92.3,25.8,92.3,25.9,92.2C25.8,92.3,25.8,92.3,25.9,92.2c0.1,0,0.2,0.1,0.3,0.1c0.1,0,0.2,0,0.3,0.1c0.1,0,0.2,0,0.3,0.1
					c0.1,0,0.2,0.1,0.3,0.1l0,0c0,0,0.1,0,0.1,0c0,0,0-0.1,0-0.1l0,0c-0.1,0-0.2-0.1-0.3-0.1c-0.1,0-0.2,0-0.3,0c-0.1,0-0.2,0-0.3,0
					C26,92.3,26,92.2,25.9,92.2L25.9,92.2z"/>
			</g>
			<g>
				<g>
					<path class="st24" d="M26.1,92.3c-0.6-2.1-3.1-0.4-3.1-0.4S24.9,94.2,26.1,92.3z"/>
				</g>
				<g class="st19">
					<path class="st20" d="M26,92.4L26,92.4C25.5,90.2,23,92,23,92s0,0.1,0.2,0.2C23.6,91.8,25.5,90.8,26,92.4z"/>
				</g>
				<g>
					<path class="st25" d="M24.9,93.2c-1.1,0-2.1-1.2-2.2-1.2c0,0,0,0,0-0.1s0-0.1,0-0.1c0,0,1.6-1,2.6-0.6c0.4,0.1,0.8,0.5,0.9,1.1
						c0,0,0,0.1,0,0.1c-0.3,0.5-0.7,0.8-1.2,0.8C25,93.2,24.9,93.2,24.9,93.2z M23.1,92c0.3,0.3,1.2,1.1,2,1c0.4,0,0.7-0.3,0.9-0.7
						c-0.1-0.4-0.4-0.7-0.7-0.8C24.5,91.2,23.5,91.7,23.1,92z"/>
				</g>
				<g>
					<g>
						<line class="st27" x1="26.1" y1="92.3" x2="24.4" y2="92.1"/>
					</g>
					<g>
						<path class="st26" d="M26,92.4c-0.1,0-0.3,0-0.4,0c-0.1,0-0.3,0-0.4-0.1c-0.3,0-0.5-0.1-0.8-0.3c0.3,0,0.5,0,0.8,0
							c0.1,0,0.3,0,0.4,0c0.1,0,0.3,0,0.4,0c0.1,0,0.1,0.1,0.1,0.2C26.2,92.4,26.1,92.4,26,92.4z"/>
					</g>
				</g>
			</g>
			<g>
				<path class="st25" d="M24.8,93.2c0.2-0.1,0.4-0.4,0.5-0.5c0.1-0.1,0.4-0.3,0.6-0.5c0,0,0.1,0,0.2,0c0,0,0,0.1,0,0.2l0,0l0,0
					c-0.2,0.1-0.4,0.3-0.7,0.4C25.3,92.9,25.1,93.1,24.8,93.2z"/>
			</g>
			<g>
				<g>
					<path class="st24" d="M26.1,92.4c0,0-1.2,0.1-1.6,2.3C24.5,94.6,27.1,93.8,26.1,92.4z"/>
				</g>
				<g class="st19">
					<path class="st20" d="M24.9,94.4c0.3-1.8,1.2-1.9,1.3-1.9c0,0,0-0.1-0.1-0.1c0,0-1.2,0.1-1.6,2.3c0,0,0.5-0.2,1.1-0.5
						C25.2,94.3,24.9,94.4,24.9,94.4z"/>
				</g>
				<g>
					<path class="st25" d="M24.5,94.8C24.5,94.8,24.5,94.8,24.5,94.8c-0.1-0.1-0.1-0.1-0.1-0.2c0.3-2.3,1.6-2.4,1.7-2.4
						c0,0,0.1,0,0.1,0c0.3,0.4,0.4,0.8,0.2,1.1C26.1,94.2,24.7,94.8,24.5,94.8L24.5,94.8z M26,92.5c-0.3,0-1.1,0.4-1.3,1.9
						c0.4-0.1,1.2-0.5,1.5-1.2C26.2,93,26.2,92.8,26,92.5z"/>
				</g>
				<g>
					<path class="st25" d="M25.3,93.3c0.1-0.2,0.2-0.4,0.3-0.5c0.1-0.2,0.2-0.4,0.3-0.5c0,0,0.1-0.1,0.2,0c0,0,0.1,0.1,0,0.2
						c0,0,0,0,0,0c-0.1,0.1-0.3,0.3-0.4,0.4C25.6,93,25.5,93.2,25.3,93.3z"/>
				</g>
			</g>
			<g>
				<g>
					<path class="st24" d="M26,92.4c0,0-1.2-0.4-0.8-2.7C25.3,89.7,27.5,91.3,26,92.4z"/>
				</g>
				<g class="st19">
					<path class="st20" d="M25.6,90c-0.2-0.2-0.4-0.3-0.4-0.3c-0.4,2.2,0.8,2.7,0.8,2.7l0,0C25.9,92.1,25.3,91.5,25.6,90z"/>
				</g>
				<g>
					<path class="st25" d="M26,92.5L26,92.5c-0.1,0-1.3-0.5-0.9-2.8c0,0,0-0.1,0.1-0.1c0,0,0.1,0,0.1,0c0,0,1.3,0.9,1.3,1.9
						C26.7,91.9,26.4,92.2,26,92.5C26.1,92.5,26.1,92.5,26,92.5z M25.4,90c-0.2,1.6,0.4,2,0.7,2.2c0.3-0.2,0.4-0.4,0.4-0.7
						C26.4,90.9,25.7,90.3,25.4,90z"/>
				</g>
				<g>
					<path class="st25" d="M25.7,91.2c0.1,0.2,0.1,0.4,0.3,0.5c0.1,0.2,0.2,0.4,0.3,0.5c0,0,0,0.1,0,0.2c0,0-0.1,0-0.2,0
						c0,0,0,0,0,0c0-0.2-0.1-0.4-0.1-0.6C25.7,91.6,25.7,91.4,25.7,91.2z"/>
				</g>
			</g>
		</g>
	</g>
	<g>
		<path class="st17" d="M23.9,98.3L23.9,98.3C23.9,98.3,23.9,98.4,23.9,98.3c0.1,0,0.1,0,0.2,0c0.1,0,0.3,0,0.4-0.1
			c0.3-0.1,0.5-0.3,0.7-0.4c0.4-0.3,0.9-0.6,1.4-0.9c0.4-0.4,0.9-0.7,1.3-1.1c0.1-0.1,0.2-0.2,0.3-0.3c0.1-0.1,0.2-0.2,0.3-0.3
			c0,0,0.1-0.1,0.1-0.1l0.1-0.1l0.1,0l0.1,0l0.1-0.1c0.9-0.7,2-1.2,3.1-1.6c0.5-0.2,1.1-0.4,1.6-0.5c0.5-0.1,1.1-0.3,1.6-0.4
			c-1.1,0.2-2.2,0.5-3.2,0.9c-0.5,0.2-1.1,0.4-1.6,0.7s-1,0.5-1.5,0.9L29,95v0l-0.1,0l-0.1,0.1c0,0-0.1,0.1-0.1,0.1
			c-0.1,0.1-0.2,0.2-0.3,0.3c-0.1,0.1-0.2,0.2-0.3,0.3c-0.4,0.4-0.8,0.8-1.3,1.1c-0.4,0.4-0.9,0.7-1.4,1c-0.3,0.1-0.5,0.3-0.8,0.4
			c-0.1,0-0.3,0.1-0.4,0.1c-0.1,0-0.2,0-0.3,0c0,0-0.1,0-0.1,0c0,0-0.1-0.1-0.1-0.1c0-0.1,0-0.2,0-0.3
			C23.6,98.1,23.8,98.2,23.9,98.3L23.9,98.3z"/>
	</g>
	<g>
		<g class="st16">
			<ellipse transform="matrix(0.968 -0.2508 0.2508 0.968 -21.0273 14.1998)" class="st17" cx="45.2" cy="89.6" rx="0.3" ry="0.2"/>
		</g>
		<g class="st16">
			<ellipse transform="matrix(0.968 -0.2508 0.2508 0.968 -20.8692 13.84)" class="st17" cx="43.9" cy="88.8" rx="0.5" ry="0.4"/>
		</g>
		<g class="st16">
			
				<ellipse transform="matrix(0.9355 -0.3532 0.3532 0.9355 -28.0124 20.0023)" class="st17" cx="40.8" cy="86.8" rx="0.4" ry="0.3"/>
		</g>
		<g class="st16">
			
				<ellipse transform="matrix(0.9355 -0.3532 0.3532 0.9355 -26.5303 21.0134)" class="st17" cx="44.3" cy="83.2" rx="0.3" ry="0.2"/>
		</g>
		<g class="st16">
			
				<ellipse transform="matrix(0.9355 -0.3532 0.3532 0.9355 -27.425 21.3551)" class="st17" cx="44.8" cy="85.8" rx="0.3" ry="0.3"/>
		</g>
		<g class="st16">
			<path class="st17" d="M42,85c0,0.1,0,0.2-0.1,0.3c-0.1,0-0.3,0-0.3-0.1c0-0.1,0-0.2,0.1-0.3C41.9,84.8,42,84.9,42,85z"/>
		</g>
		<g class="st16">
			
				<ellipse transform="matrix(0.8111 -0.5849 0.5849 0.8111 -44.5954 38.7132)" class="st17" cx="37.6" cy="88.4" rx="0.3" ry="0.2"/>
		</g>
		<g class="st16">
			<ellipse transform="matrix(0.8111 -0.5849 0.5849 0.8111 -42.96 38.6226)" class="st17" cx="38.3" cy="85.8" rx="0.3" ry="0.2"/>
		</g>
		<g class="st16">
			
				<ellipse transform="matrix(0.8111 -0.5849 0.5849 0.8111 -48.4515 35.1397)" class="st17" cx="30.2" cy="92.6" rx="0.4" ry="0.3"/>
		</g>
		<g class="st16">
			
				<ellipse transform="matrix(0.8111 -0.5849 0.5849 0.8111 -47.2876 34.9106)" class="st17" cx="30.4" cy="90.7" rx="0.3" ry="0.3"/>
		</g>
		<g class="st16">
			
				<ellipse transform="matrix(0.8111 -0.5849 0.5849 0.8111 -49.9629 33.9045)" class="st17" cx="27.5" cy="94.3" rx="0.2" ry="0.1"/>
		</g>
		<g class="st16">
			
				<ellipse transform="matrix(0.8111 -0.5849 0.5849 0.8111 -45.3151 34.2672)" class="st17" cx="30.4" cy="87.3" rx="0.3" ry="0.3"/>
		</g>
		<g class="st16">
			<ellipse transform="matrix(0.8111 -0.5849 0.5849 0.8111 -43.6974 35.4425)" class="st17" cx="33" cy="85.4" rx="0.4" ry="0.3"/>
		</g>
	</g>
	<g>
		<g>
			<g>
				<g>
					<path class="st28" d="M47.7,90.1c-0.4,2.1,4.4,2.4,4.4,2.4s3.1-7.2-1.9-13.2c-4.9-6.1-11.6-5.2-12.4-3.7
						c-0.8,1.5,0.7,2.1,0.7,2.1S49.7,78.7,47.7,90.1z"/>
				</g>
				<g class="st19">
					<path class="st20" d="M50.4,79.3c-4.9-6.1-11.6-5.2-12.4-3.7c-0.7,1.3,0.4,2,0.7,2c-0.3-0.3-0.5-0.8-0.1-1.6
						c0.1-0.3,0.7-0.6,1.3-0.8c-0.1,0.1-0.3,0.2-0.2,0.3c0,0.2,0.5,0.3,1,0.2c0.5-0.1,0.9-0.4,0.9-0.5c0-0.1-0.1-0.1-0.2-0.2
						c2.4,0,5.9,0.9,8.7,4.4c4.6,5.6,1.7,12.3,1.7,12.3s-3.2-0.2-4-1.5c0.1,1.9,4.4,2.1,4.4,2.1S55.2,85.5,50.4,79.3z"/>
				</g>
				<g class="st16">
					<path class="st17" d="M52.2,92.6c0,0,0.4-0.9,0.7-2.5c-0.5-0.5-1.2-0.9-2-1.2c-0.7-0.3-1.2-1-1.1-1.7c0.1-2,0.1-4.4-1.6-6.5
						c-3.9-4.8-9.1-4.1-9.7-3c0.1,0.1,0.3,0.1,0.3,0.1s11.1,0.9,9.1,12.4C47.4,92.2,52.2,92.6,52.2,92.6z"/>
				</g>
				<g>
					<path class="st17" d="M52.2,92.8L52.2,92.8c-0.1,0-3.3-0.3-4.4-1.6c-0.3-0.4-0.4-0.8-0.3-1.2c0.6-3.4,0.1-6.2-1.6-8.3
						c-2.6-3.4-7.3-3.9-7.3-3.9h0c0,0-0.7-0.4-0.9-1.1c-0.1-0.4-0.1-0.9,0.1-1.3c0.3-0.5,1.2-1,2.5-1.2c2.8-0.3,6.9,0.8,10.1,4.8
						c2.6,3.2,2.9,6.7,2.8,9.1c-0.1,2.5-0.9,4.4-0.9,4.4C52.4,92.8,52.3,92.8,52.2,92.8z M47.7,90.1l0.2,0c0,0.3,0,0.5,0.2,0.8
						c0.8,1,3.2,1.3,3.9,1.4c0.2-0.4,0.7-2,0.8-4.1c0.1-2.3-0.3-5.6-2.8-8.8c-3.2-3.9-7.1-4.9-9.8-4.7c-1.2,0.1-2,0.5-2.2,0.9
						c-0.2,0.4-0.3,0.7-0.1,1.1c0.1,0.4,0.6,0.7,0.7,0.8c0.3,0,1.3,0.1,2.8,0.7c1.5,0.5,3.5,1.5,4.8,3.3c1.7,2.2,2.3,5.1,1.6,8.7
						H47.7z"/>
				</g>
			</g>
			<g>
				<path class="st15" d="M52.2,92.6c0,0-0.9,1.1-2.8,0.5c-1.9-0.6-2.3-1.9-1.6-2.9C48.4,89,53.6,90.4,52.2,92.6z"/>
			</g>
			<g class="st16">
				<path class="st17" d="M52.2,92.6c0,0-0.9,1.1-2.8,0.5c-1.9-0.6-2.3-1.9-1.6-2.9C48.4,89,53.6,90.4,52.2,92.6z"/>
			</g>
			<g>
				<path class="st17" d="M50.5,93.5c-0.4,0-0.7,0-1.2-0.2c-1.3-0.4-1.8-1.1-2-1.6c-0.2-0.5-0.1-1.2,0.2-1.7
					c0.3-0.4,0.9-0.5,1.4-0.4c1.2,0,3,0.7,3.5,1.6c0.3,0.4,0.3,1-0.1,1.5c0,0,0,0,0,0C52.4,92.8,51.7,93.5,50.5,93.5z M48.8,90
					C48.4,90,48,90,48,90.3c-0.3,0.4-0.4,0.9-0.1,1.3c0.2,0.5,0.8,1.1,1.7,1.3c1.6,0.5,2.4-0.3,2.5-0.4c0.2-0.4,0.3-0.7,0-1.1
					C51.6,90.6,50.1,90,48.8,90C48.9,90,48.9,90,48.8,90z M52.2,92.6L52.2,92.6L52.2,92.6z"/>
			</g>
		</g>
		<g>
			<g>
				<path class="st29" d="M41.3,76.8c0-0.1,0-0.2,0-0.3s0-0.2,0-0.3c0-0.1,0.1-0.2,0.1-0.3c0,0,0.1-0.1,0.3-0.1
					c0,0.1-0.1,0.1-0.1,0.3s-0.1,0.1-0.1,0.3c0,0.1,0,0.1-0.1,0.3C41.3,76.6,41.3,76.7,41.3,76.8z"/>
			</g>
			<g>
				<path class="st29" d="M41.9,77.2c0-0.1,0-0.3,0-0.4c0-0.1,0-0.3,0.1-0.4c0-0.1,0.1-0.3,0.3-0.4c0,0,0,0,0.1,0c0,0,0,0,0.1,0
					c0,0,0,0,0.1,0c0,0,0,0,0.1,0c-0.1,0.1-0.2,0.2-0.3,0.3c-0.1,0.1-0.1,0.2-0.2,0.3c0,0.1-0.1,0.2-0.1,0.4
					C42,76.9,41.9,77,41.9,77.2z"/>
			</g>
		</g>
		<g>
			<g>
				<path class="st29" d="M49.7,86.1c0.1-0.1,0.3-0.1,0.4-0.2c0.1,0,0.3,0,0.4,0c0.1,0,0.3,0,0.4,0.1c0,0,0,0,0.1,0c0,0,0,0,0.1,0
					c0,0,0,0,0.1,0c0,0,0,0,0,0.1c-0.1,0-0.3-0.1-0.4-0.1c-0.1,0-0.3,0-0.4,0c-0.1,0-0.3,0-0.4,0C50,86.1,49.9,86.1,49.7,86.1z"/>
			</g>
			<g>
				<path class="st29" d="M49.6,87.1c0.2-0.1,0.4-0.1,0.6-0.2c0.2,0,0.4,0,0.6,0c0,0,0.1,0,0.1,0c0,0,0.1,0,0.1,0c0,0,0.1,0,0.1,0
					l0,0l0,0c0,0,0.1,0,0.1,0.1c0,0,0.1,0,0.1,0.1l0,0l0,0c0,0,0,0.1,0.1,0.1c-0.2-0.1-0.4-0.2-0.5-0.3l0,0h0c0,0-0.1,0-0.1,0
					c0,0-0.1,0-0.1,0c0,0-0.1,0-0.1,0c-0.2,0-0.4,0-0.6,0C50,87.1,49.7,87.1,49.6,87.1z"/>
			</g>
		</g>
	</g>
	<g>
		<g>
			<path class="st24" d="M43.5,85.5c1.5-0.8,2,0,2.1,1.3C44.5,86.9,43.6,86.6,43.5,85.5z"/>
		</g>
		<g>
			<path class="st25" d="M45.4,87.1c-0.7,0-1.2-0.1-1.6-0.5c-0.3-0.3-0.5-0.7-0.5-1.2c0,0,0-0.1,0.1-0.1c0.7-0.4,1.2-0.4,1.6-0.3
				c0.5,0.3,0.8,1,0.9,1.8c0,0,0,0.1,0,0.1c0,0,0,0-0.1,0C45.6,87.1,45.6,87.1,45.4,87.1z M43.6,85.5c0,0.4,0.2,0.6,0.4,0.8
				c0.4,0.3,0.8,0.4,1.5,0.4c-0.1-0.6-0.4-1.2-0.8-1.4C44.5,85.2,44.1,85.2,43.6,85.5z"/>
		</g>
		<g>
			<path class="st26" d="M43.5,85.2c0.1,0,0.4,0,0.5,0s0.3,0.1,0.4,0.2c0.1,0.1,0.3,0.2,0.4,0.3c0.1,0.1,0.2,0.3,0.3,0.4
				c-0.3-0.2-0.5-0.3-0.8-0.4c-0.1,0-0.3-0.1-0.4-0.1s-0.3,0-0.4,0l0,0c-0.1,0-0.1,0-0.2-0.1C43.3,85.3,43.4,85.3,43.5,85.2z"/>
		</g>
	</g>
</g>
</svg>
