<?xml version="1.0" encoding="utf-8"?>
<!-- Generator: Adobe Illustrator 23.0.5, SVG Export Plug-In . SVG Version: 6.00 Build 0)  -->
<svg version="1.1" id="Layer_1" xmlns="http://www.w3.org/2000/svg" xmlns:xlink="http://www.w3.org/1999/xlink" x="0px" y="0px"
	 viewBox="0 0 620 128" style="enable-background:new 0 0 620 128;" xml:space="preserve">
<style type="text/css">
	.st0{fill:#F2CE36;}
	.st1{opacity:0.15;fill:#FFFFFF;}
	.st2{opacity:0.25;fill:#E2B440;}
	.st3{opacity:0.33;fill:#E2B440;}
	.st4{fill:#C67640;}
	.st5{fill:#2A9E3A;}
	.st6{fill:#3DAD55;}
</style>
<g>
	<path class="st0" d="M115,64.3c-1.5,8.2-5.3,15.8-9.6,22.9c-13.2,21.7-38.1,26.6-62.4,27.2c-6.7,0.2-13.5,0.1-19.8-2.2
		c-1.5-0.6-11.5-5.5-13.1-14c-1.3-7.4,4.9-11.4,12.3-23c12.6-19.8,6.1-26.7,18.3-42.5c4.5-5.8,11.1-14.4,22.7-17.7
		c13.9-4,29.4,1.2,39.3,10.9c8.6,8.5,14,24.4,12.5,36.1C115.3,62.7,115.1,63.5,115,64.3z"/>
	<path class="st1" d="M88,34.9c-9,1.1-17.6,4.4-25,9.5c-2.6,1.8-6,3.8-8.5,1.9c-0.7-0.5-1.2-1.3-1.6-2.1c-2.3-5.1,1.1-10.8,5.3-14.4
		c7.8-6.7,18.8-9.5,29.1-7.5C99.8,24.7,101.4,33.2,88,34.9z"/>
	<path class="st2" d="M53.9,110c0.3-0.1,0.6-0.2,0.8-0.5c0.3-0.4,0.1-0.9-0.1-1.4c-1.3-2.5-4.6-2.8-7.3-2.9
		c-5.9-0.3-11.8-2.1-17.2-5.1c-4.7-2.7-9.3-6.4-14.5-6.3c-0.6,0-1.2,0.1-1.6,0.4c-0.4,0.3-0.7,0.9-0.8,1.4c-0.6,2.5,0.5,5.3,2.3,7.2
		c1.8,1.9,4.2,3,6.5,4C32.5,111.2,43.3,113.3,53.9,110z"/>
	<path class="st3" d="M105.6,31c-0.3,0.3-0.5,0.9-0.6,1.5c-0.2,1.5,0.9,3.9,1.7,5.2c0.5,0.8,1.4,1.5,2.4,1.6c0.2,0,0.3,0,0.4-0.1
		c0.1-0.1,0.2-0.3,0.2-0.5c0.3-2-1.5-3.8-2.2-5.7c-0.2-0.5-0.3-1.1-0.6-1.6C106.5,30.6,106,30.6,105.6,31z"/>
	<path class="st4" d="M106.7,33c0.8-1.4,4.1-2.8,5.5-1.3c0.2,0.2,0.3,0.4,0.4,0.7c0.2,0.5,0.4,1.1,0.3,1.6c-0.2,1.3-2.7,1.4-3.7,2
		c-0.2,0.1-0.4,0.2-0.6,0.3c-0.3,0-0.7-0.2-0.9-0.4C106.5,34.6,106.3,33.7,106.7,33z"/>
	<g>
		<path class="st5" d="M103.2,43.5c-3.3,10.3-2.8,21.6,0.2,32c3,10.5,8.5,20.2,15.1,29c-2.2-11.8-0.1-23.8,0.3-35.7
			c0.3-8.1-0.3-16.7-3.5-24.3c-0.8-2-3.7-9.3-6.3-9.5C106.2,34.7,103.8,41.5,103.2,43.5z"/>
		<path class="st6" d="M109.1,35c-2.6-1.4-5.5,7.1-5.9,8.5c-3.3,10.3-2.8,21.6,0.2,32c3,10.3,8.3,20.3,15,28.8
			c-1.4-1.8-1.5-4.3-2.2-6.4c-0.9-2.5-1.7-4.9-2.5-7.4c-3.6-11.7-4.5-24.2-3.7-36.3c0.2-3.2,0.6-6.4,0.6-9.6c0-1.7,0-3.3-0.2-5
			C110.2,38.8,110,35.6,109.1,35C109.2,35,109.1,35,109.1,35z"/>
	</g>
</g>
<g>
	<path d="M141.8,87.3V39.9h11.7l7.6,21.1c0.5,1.4,0.9,2.8,1.4,4.3c0.4,1.5,0.9,2.9,1.4,4.4h0.3c0.5-1.5,0.9-2.9,1.3-4.4
		c0.4-1.5,0.9-2.9,1.3-4.3l7.5-21.1H186v47.4h-9.7V69.9c0-1.2,0-2.4,0.1-3.8c0.1-1.4,0.2-2.8,0.4-4.2c0.1-1.4,0.3-2.8,0.4-4.2
		c0.1-1.4,0.3-2.7,0.4-3.8h-0.3l-3.8,11.3l-6.8,18.1h-5.9l-6.8-18.1l-3.8-11.3H150c0.1,1.2,0.3,2.4,0.4,3.8c0.1,1.4,0.3,2.8,0.4,4.2
		c0.1,1.4,0.3,2.8,0.4,4.2c0.1,1.4,0.1,2.7,0.1,3.8v17.4H141.8z"/>
	<path d="M205.4,88.2c-1.6,0-3.1-0.3-4.5-0.8c-1.3-0.6-2.5-1.3-3.4-2.3c-0.9-1-1.6-2.1-2.1-3.4c-0.5-1.3-0.8-2.7-0.8-4.3
		c0-3.8,1.6-6.7,4.8-8.9c3.2-2.1,8.4-3.6,15.5-4.3c-0.1-1.6-0.6-2.9-1.4-3.8c-0.8-0.9-2.3-1.4-4.2-1.4c-1.6,0-3.1,0.3-4.6,0.9
		c-1.5,0.6-3.2,1.4-4.9,2.4l-3.8-7c2.3-1.4,4.8-2.5,7.3-3.4c2.5-0.9,5.2-1.3,8.1-1.3c4.6,0,8.2,1.3,10.6,4c2.4,2.6,3.7,6.7,3.7,12.3
		v20.6h-8.7l-0.7-3.7h-0.3c-1.5,1.4-3.2,2.5-4.9,3.3C209.3,87.7,207.4,88.2,205.4,88.2z M209,79.9c1.2,0,2.3-0.3,3.1-0.8
		c0.9-0.5,1.8-1.3,2.8-2.3v-6.3c-3.8,0.5-6.4,1.3-7.8,2.3c-1.5,1-2.2,2.2-2.2,3.6c0,1.2,0.4,2,1.1,2.6
		C206.7,79.6,207.7,79.9,209,79.9z"/>
	<path d="M234.6,87.3v-36h8.7l0.7,4.6h0.3c1.5-1.5,3.2-2.7,5.1-3.8c1.8-1.1,4-1.6,6.5-1.6c3.9,0,6.8,1.3,8.5,3.8
		c1.8,2.6,2.7,6.1,2.7,10.7v22.4h-10.7v-21c0-2.6-0.4-4.4-1.1-5.4c-0.7-1-1.8-1.5-3.4-1.5c-1.4,0-2.5,0.3-3.5,0.9
		c-1,0.6-2,1.5-3.2,2.6v24.3H234.6z"/>
	<path d="M289,102.6c-2.1,0-4.1-0.2-5.9-0.5c-1.8-0.4-3.4-0.9-4.8-1.6c-1.4-0.7-2.5-1.7-3.2-2.8c-0.8-1.2-1.2-2.5-1.2-4.1
		c0-2.9,1.7-5.3,5.2-7.3v-0.3c-1-0.6-1.8-1.4-2.4-2.4c-0.6-1-0.9-2.2-0.9-3.7c0-1.3,0.4-2.6,1.2-3.7c0.8-1.2,1.7-2.2,2.9-3v-0.3
		c-1.3-0.9-2.4-2.1-3.4-3.7c-1-1.6-1.5-3.5-1.5-5.6c0-2.2,0.4-4.1,1.2-5.7c0.8-1.6,1.9-3,3.3-4.1c1.4-1.1,3-1.9,4.8-2.4
		c1.8-0.5,3.7-0.8,5.6-0.8c2.1,0,4,0.3,5.6,0.9h13.1V59h-5.7c0.3,0.5,0.6,1.2,0.8,2c0.2,0.8,0.3,1.7,0.3,2.7c0,2.1-0.4,3.9-1.1,5.4
		c-0.7,1.5-1.7,2.8-3,3.8c-1.3,1-2.8,1.7-4.5,2.2c-1.7,0.5-3.6,0.7-5.6,0.7c-1.4,0-2.9-0.2-4.4-0.7c-0.5,0.4-0.8,0.8-1,1.2
		c-0.2,0.4-0.3,0.9-0.3,1.5c0,0.9,0.4,1.6,1.2,2c0.8,0.4,2.2,0.7,4.2,0.7h5.8c4.5,0,7.9,0.7,10.2,2.1c2.3,1.4,3.5,3.8,3.5,7
		c0,1.9-0.5,3.6-1.4,5.2c-0.9,1.6-2.3,2.9-4,4.1c-1.7,1.1-3.8,2-6.3,2.7C294.8,102.3,292.1,102.6,289,102.6z M290.6,95.9
		c2.4,0,4.4-0.4,6-1.3c1.5-0.8,2.3-1.9,2.3-3.2c0-1.1-0.5-1.9-1.4-2.3c-0.9-0.4-2.3-0.6-4.1-0.6h-3.7c-1.3,0-2.3,0-3.1-0.1
		c-0.8-0.1-1.5-0.2-2-0.3c-1.3,1.2-2,2.3-2,3.6c0,1.4,0.7,2.4,2.2,3.1C286.3,95.6,288.2,95.9,290.6,95.9z M289.8,69.4
		c1.4,0,2.6-0.5,3.5-1.5c0.9-1,1.4-2.5,1.4-4.5c0-1.9-0.5-3.3-1.4-4.3c-0.9-1-2.1-1.5-3.5-1.5c-1.4,0-2.6,0.5-3.5,1.5
		c-0.9,1-1.4,2.4-1.4,4.4c0,2,0.5,3.5,1.4,4.5C287.2,68.9,288.4,69.4,289.8,69.4z"/>
	<path d="M329.1,88.2c-2.3,0-4.5-0.4-6.6-1.3c-2.1-0.8-4-2.1-5.6-3.7c-1.6-1.6-2.9-3.6-3.9-5.9c-1-2.3-1.5-5-1.5-8
		c0-3,0.5-5.7,1.5-8c1-2.3,2.3-4.3,3.9-5.9c1.6-1.6,3.5-2.8,5.6-3.7c2.1-0.8,4.3-1.3,6.6-1.3c2.3,0,4.5,0.4,6.6,1.3
		c2.1,0.8,4,2.1,5.6,3.7c1.6,1.6,2.9,3.6,3.9,5.9c1,2.3,1.5,5,1.5,8c0,3-0.5,5.7-1.5,8c-1,2.3-2.3,4.3-3.9,5.9
		c-1.6,1.6-3.5,2.8-5.6,3.7C333.5,87.7,331.3,88.2,329.1,88.2z M329.1,79.5c2.2,0,3.8-0.9,4.9-2.8c1.1-1.8,1.7-4.3,1.7-7.5
		s-0.6-5.6-1.7-7.5c-1.1-1.8-2.8-2.8-4.9-2.8c-2.2,0-3.9,0.9-5,2.8c-1.1,1.8-1.6,4.3-1.6,7.5s0.5,5.6,1.6,7.5
		C325.2,78.6,326.8,79.5,329.1,79.5z"/>
	<path d="M369.3,87.3V39.9h29.9v9H380v11h16.4v9H380v18.4H369.3z"/>
	<path d="M411.8,46c-1.8,0-3.3-0.5-4.4-1.6c-1.2-1-1.7-2.4-1.7-4c0-1.6,0.6-3,1.7-4c1.2-1,2.6-1.5,4.4-1.5c1.8,0,3.3,0.5,4.5,1.5
		c1.1,1,1.7,2.3,1.7,4c0,1.6-0.6,3-1.7,4C415.1,45.4,413.6,46,411.8,46z M406.5,87.3v-36h10.7v36H406.5z"/>
	<path d="M426.5,87.3v-36h8.7l0.7,4.6h0.3c1.5-1.5,3.2-2.7,5.1-3.8c1.8-1.1,4-1.6,6.5-1.6c3.9,0,6.8,1.3,8.5,3.8
		c1.8,2.6,2.7,6.1,2.7,10.7v22.4h-10.7v-21c0-2.6-0.4-4.4-1.1-5.4c-0.7-1-1.8-1.5-3.4-1.5c-1.4,0-2.5,0.3-3.5,0.9
		c-1,0.6-2,1.5-3.2,2.6v24.3H426.5z"/>
	<path d="M477.2,88.2c-1.6,0-3.1-0.3-4.5-0.8c-1.3-0.6-2.5-1.3-3.4-2.3c-0.9-1-1.6-2.1-2.1-3.4c-0.5-1.3-0.8-2.7-0.8-4.3
		c0-3.8,1.6-6.7,4.8-8.9c3.2-2.1,8.4-3.6,15.5-4.3c-0.1-1.6-0.6-2.9-1.4-3.8c-0.8-0.9-2.3-1.4-4.2-1.4c-1.6,0-3.1,0.3-4.6,0.9
		c-1.5,0.6-3.2,1.4-4.9,2.4l-3.8-7c2.3-1.4,4.8-2.5,7.3-3.4c2.5-0.9,5.2-1.3,8.1-1.3c4.6,0,8.2,1.3,10.6,4c2.4,2.6,3.7,6.7,3.7,12.3
		v20.6h-8.7l-0.7-3.7h-0.3c-1.5,1.4-3.2,2.5-4.9,3.3C481.1,87.7,479.2,88.2,477.2,88.2z M480.8,79.9c1.2,0,2.3-0.3,3.1-0.8
		c0.9-0.5,1.8-1.3,2.8-2.3v-6.3c-3.8,0.5-6.4,1.3-7.8,2.3c-1.5,1-2.2,2.2-2.2,3.6c0,1.2,0.4,2,1.1,2.6
		C478.5,79.6,479.5,79.9,480.8,79.9z"/>
	<path d="M506.4,87.3v-36h8.7l0.7,4.6h0.3c1.5-1.5,3.2-2.7,5.1-3.8c1.8-1.1,4-1.6,6.5-1.6c3.9,0,6.8,1.3,8.5,3.8
		c1.8,2.6,2.7,6.1,2.7,10.7v22.4h-10.7v-21c0-2.6-0.4-4.4-1.1-5.4c-0.7-1-1.8-1.5-3.4-1.5c-1.4,0-2.5,0.3-3.5,0.9
		c-1,0.6-2,1.5-3.2,2.6v24.3H506.4z"/>
	<path d="M563.6,88.2c-2.5,0-4.9-0.4-7-1.3c-2.2-0.8-4-2.1-5.6-3.7c-1.6-1.6-2.9-3.6-3.8-5.9c-0.9-2.3-1.4-5-1.4-8
		c0-3,0.5-5.7,1.5-8c1-2.3,2.4-4.3,4.1-5.9c1.7-1.6,3.7-2.8,6-3.7c2.3-0.8,4.6-1.3,7.1-1.3c2.2,0,4.2,0.4,5.9,1.1
		c1.7,0.7,3.3,1.6,4.6,2.8l-5,6.9c-1.7-1.4-3.3-2.1-4.9-2.1c-2.6,0-4.7,0.9-6.2,2.8c-1.5,1.8-2.3,4.3-2.3,7.5s0.8,5.6,2.3,7.5
		c1.5,1.8,3.4,2.8,5.8,2.8c1.2,0,2.3-0.3,3.4-0.8c1.1-0.5,2.1-1.1,3.1-1.9l4.2,7c-1.8,1.6-3.7,2.7-5.8,3.3
		C567.6,87.8,565.6,88.2,563.6,88.2z"/>
	<path d="M595.9,88.2c-2.6,0-5-0.4-7.2-1.3c-2.2-0.8-4.2-2.1-5.8-3.7c-1.6-1.6-2.9-3.6-3.8-5.9c-0.9-2.3-1.4-5-1.4-8
		c0-2.9,0.5-5.5,1.5-7.9c1-2.3,2.2-4.3,3.8-6c1.6-1.6,3.4-2.9,5.4-3.7c2-0.9,4.1-1.3,6.3-1.3c2.6,0,4.8,0.4,6.7,1.3
		c1.9,0.9,3.5,2.1,4.8,3.6c1.3,1.6,2.2,3.4,2.9,5.5c0.6,2.1,0.9,4.4,0.9,6.9c0,1,0,1.9-0.1,2.8c-0.1,0.9-0.2,1.5-0.3,2H588
		c0.5,2.6,1.6,4.5,3.2,5.8c1.7,1.2,3.7,1.9,6.1,1.9c2.6,0,5.2-0.8,7.8-2.4l3.6,6.5c-1.8,1.3-3.9,2.3-6.1,3
		C600.3,87.8,598.1,88.2,595.9,88.2z M587.9,65.3h13c0-2-0.5-3.7-1.4-4.9c-0.9-1.3-2.5-1.9-4.6-1.9c-1.7,0-3.2,0.6-4.5,1.7
		C589.1,61.3,588.3,63,587.9,65.3z"/>
</g>
</svg>
