<?xml version="1.0" encoding="utf-8"?>
<!-- Generator: Adobe Illustrator 23.0.5, SVG Export Plug-In . SVG Version: 6.00 Build 0)  -->
<svg version="1.1" id="Layer_1" xmlns:v="https://vecta.io/nano"
	 xmlns="http://www.w3.org/2000/svg" xmlns:xlink="http://www.w3.org/1999/xlink" x="0px" y="0px" viewBox="0 0 64 64"
	 style="enable-background:new 0 0 64 64;" xml:space="preserve">
<style type="text/css">
	.st0{fill:#F2CE36;}
	.st1{opacity:0.15;fill:#FFFFFF;}
	.st2{opacity:0.25;fill:#E2B440;}
	.st3{opacity:0.33;fill:#E2B440;}
	.st4{fill:#C67640;}
	.st5{fill:#2A9E3A;}
	.st6{fill:#3DAD55;}
</style>
<g>
	<path class="st0" d="M61.7,32.2c-0.9,4.8-3.1,9.3-5.6,13.4c-7.7,12.7-22.4,15.7-36.6,16c-3.9,0.1-7.9,0.1-11.6-1.3
		C6.9,60,1,57,0.1,52.1c-0.8-4.4,2.9-6.7,7.2-13.5c7.4-11.6,3.6-15.7,10.8-25c2.6-3.4,6.5-8.4,13.4-10.4c8.2-2.3,17.3,0.7,23.1,6.4
		c5.1,5,8.2,14.3,7.3,21.2C61.8,31.3,61.8,31.7,61.7,32.2z"/>
	<path class="st1" d="M45.8,14.9c-5.3,0.7-10.4,2.6-14.7,5.6c-1.5,1-3.5,2.2-5,1.1c-0.4-0.3-0.7-0.8-0.9-1.2c-1.3-3,0.7-6.3,3.1-8.4
		C32.9,8,39.4,6.3,45.4,7.5C52.7,8.9,53.7,13.9,45.8,14.9z"/>
	<path class="st2" d="M25.8,59c0.2-0.1,0.4-0.1,0.5-0.3c0.1-0.2,0.1-0.6-0.1-0.8c-0.8-1.5-2.7-1.6-4.3-1.7c-3.5-0.2-7-1.2-10.1-3
		c-2.8-1.6-5.5-3.7-8.5-3.7c-0.3,0-0.7,0-1,0.3c-0.3,0.2-0.4,0.5-0.5,0.8c-0.4,1.5,0.3,3.1,1.4,4.2C4.3,56,5.7,56.6,7,57.2
		C13.2,59.7,19.6,61,25.8,59z"/>
	<path class="st3" d="M56.2,12.6c-0.2,0.2-0.3,0.6-0.3,0.9c-0.1,0.9,0.5,2.3,1,3c0.3,0.5,0.8,0.9,1.4,0.9c0.1,0,0.2,0,0.3,0
		c0.1-0.1,0.1-0.2,0.1-0.3c0.1-1.2-0.9-2.2-1.3-3.4c-0.1-0.3-0.2-0.6-0.3-0.9C56.7,12.4,56.4,12.4,56.2,12.6z"/>
	<path class="st4" d="M56.8,13.8c0.5-0.8,2.4-1.7,3.2-0.8c0.1,0.1,0.2,0.3,0.2,0.4c0.1,0.3,0.2,0.6,0.2,0.9
		c-0.1,0.7-1.6,0.8-2.2,1.2c-0.1,0.1-0.2,0.1-0.4,0.2c-0.2,0-0.4-0.1-0.5-0.3C56.7,14.8,56.6,14.2,56.8,13.8z"/>
	<g>
		<path class="st5" d="M54.7,20c-1.9,6-1.6,12.7,0.1,18.8c1.8,6.2,5,11.9,8.9,17c-1.3-6.9-0.1-14,0.2-21c0.2-4.8-0.2-9.8-2.1-14.3
			c-0.5-1.2-2.2-5.4-3.7-5.6C56.5,14.8,55.1,18.8,54.7,20z"/>
		<path class="st6" d="M58.2,15c-1.5-0.8-3.2,4.2-3.5,5c-1.9,6-1.6,12.7,0.1,18.8c1.7,6,4.9,11.9,8.8,16.9c-0.9-1.1-0.9-2.5-1.3-3.8
			c-0.5-1.4-1-2.9-1.5-4.4c-2.1-6.9-2.6-14.2-2.2-21.3c0.1-1.9,0.3-3.7,0.4-5.6c0-1,0-1.9-0.1-2.9C58.9,17.2,58.8,15.3,58.2,15
			C58.3,15,58.2,15,58.2,15z"/>
	</g>
</g>
</svg>
