<?xml version="1.0" encoding="utf-8"?>
<!-- Generator: Adobe Illustrator 23.0.5, SVG Export Plug-In . SVG Version: 6.00 Build 0)  -->
<svg version="1.1" id="Layer_1" xmlns:v="https://vecta.io/nano"
	 xmlns="http://www.w3.org/2000/svg" xmlns:xlink="http://www.w3.org/1999/xlink" x="0px" y="0px" viewBox="0 0 193 230"
	 style="enable-background:new 0 0 193 230;" xml:space="preserve">
<style type="text/css">
	.st0{clip-path:url(#SVGID_2_);}
	.st1{opacity:0.1;}
	.st2{fill:#F2CE36;}
	.st3{opacity:0.15;fill:#FFFFFF;}
	.st4{opacity:0.25;fill:#E2B440;}
	.st5{opacity:0.33;fill:#E2B440;}
	.st6{fill:#C67640;}
	.st7{fill:#2A9E3A;}
	.st8{fill:#3DAD55;}
</style>
<g>
	<g>
		<g>
			<defs>
				<rect id="SVGID_1_" width="192.2" height="230"/>
			</defs>
			<clipPath id="SVGID_2_">
				<use xlink:href="#SVGID_1_"  style="overflow:visible;"/>
			</clipPath>
			<g class="st0">
				<g class="st1">
					<g>
						<path class="st2" d="M193.4,73.3c-2.2,12-7.7,23.1-14.1,33.6c-19.3,31.9-56,39.1-91.6,40c-9.8,0.2-19.8,0.2-29.1-3.3
							c-2.2-0.8-16.9-8.1-19.2-20.6c-2-10.9,7.3-16.7,18.1-33.8c18.4-29,9-39.3,26.9-62.5c6.6-8.5,16.3-21.1,33.4-26
							c20.5-5.8,43.2,1.7,57.7,16.1c12.7,12.5,20.5,35.8,18.3,53C193.8,71,193.6,72.2,193.4,73.3z"/>
						<path class="st3" d="M153.8,30.1c-13.2,1.6-25.9,6.4-36.7,13.9c-3.8,2.6-8.8,5.5-12.5,2.8c-1-0.8-1.8-1.9-2.3-3.1
							c-3.3-7.4,1.7-15.8,7.8-21.1c11.4-9.8,27.6-14,42.7-11.1C171,15.1,173.5,27.6,153.8,30.1z"/>
						<path class="st4" d="M103.7,140.4c0.4-0.1,0.9-0.3,1.2-0.7c0.4-0.6,0.2-1.4-0.2-2c-1.9-3.7-6.7-4.1-10.7-4.3
							c-8.7-0.5-17.4-3.1-25.2-7.5c-6.9-3.9-13.7-9.4-21.3-9.2c-0.9,0-1.7,0.1-2.4,0.6c-0.6,0.5-1,1.3-1.2,2.1
							c-0.9,3.6,0.7,7.7,3.4,10.5c2.7,2.8,6.1,4.4,9.6,5.8C72.3,142.1,88.1,145.3,103.7,140.4z"/>
						<path class="st5" d="M179.6,24.4c-0.4,0.5-0.8,1.4-0.9,2.2c-0.3,2.2,1.3,5.7,2.6,7.6c0.8,1.2,2,2.2,3.5,2.3
							c0.2,0,0.5,0,0.7-0.1c0.2-0.2,0.3-0.4,0.3-0.7c0.4-3-2.2-5.5-3.2-8.4c-0.3-0.8-0.4-1.6-0.9-2.3
							C180.9,23.8,180.2,23.8,179.6,24.4z"/>
						<path class="st6" d="M181.3,27.3c1.2-2,6.1-4.1,8.1-1.9c0.3,0.3,0.4,0.7,0.5,1c0.3,0.8,0.5,1.6,0.4,2.4c-0.4,1.9-4,2-5.4,2.9
							c-0.3,0.2-0.6,0.4-0.9,0.4c-0.5,0-1-0.3-1.3-0.6C180.9,29.7,180.7,28.4,181.3,27.3z"/>
						<g>
							<path class="st7" d="M176.1,42.8c-4.8,15.1-4.1,31.7,0.3,47c4.5,15.4,12.5,29.6,22.2,42.5c-3.2-17.3-0.1-35,0.5-52.5
								c0.4-12-0.5-24.5-5.1-35.8c-1.2-2.9-5.5-13.6-9.2-13.9C180.5,29.8,177,39.8,176.1,42.8z"/>
							<path class="st8" d="M184.8,30.2c-3.8-2-8,10.4-8.7,12.6c-4.8,15.1-4.1,31.7,0.3,47c4.4,15.1,12.2,29.8,22,42.2
								c-2.1-2.7-2.2-6.3-3.3-9.4c-1.3-3.6-2.5-7.2-3.7-10.9c-5.3-17.1-6.6-35.5-5.4-53.3c0.3-4.7,0.8-9.3,0.9-14
								c0-2.4,0-4.9-0.3-7.3c-0.2-1.3-0.5-6-1.6-6.8C184.9,30.3,184.8,30.3,184.8,30.2z"/>
						</g>
					</g>
				</g>
			</g>
		</g>
	</g>
</g>
</svg>
